<?xml version="1.0" encoding="utf-8"?>
<!-- Generator: Adobe Illustrator 24.0.3, SVG Export Plug-In . SVG Version: 6.00 Build 0)  -->
<svg version="1.1" id="Layer_1" xmlns="http://www.w3.org/2000/svg" xmlns:xlink="http://www.w3.org/1999/xlink" x="0px" y="0px"
	 width="64px" height="64px" viewBox="0 0 64 64" style="enable-background:new 0 0 64 64;" xml:space="preserve">
<style type="text/css">
	.st0{clip-path:url(#SVGID_2_);fill:#DD7240;}
	.st1{clip-path:url(#SVGID_4_);fill:#FFFFFF;}
</style>
<g>
	<g>
		<defs>
			<rect id="SVGID_1_" x="4" y="4.1" width="56" height="56"/>
		</defs>
		<clipPath id="SVGID_2_">
			<use xlink:href="#SVGID_1_"  style="overflow:visible;"/>
		</clipPath>
		<path class="st0" d="M32,60.2c15.5,0,28-12.5,28-28c0-15.5-12.5-28-28-28S4,16.7,4,32.1C4,47.6,16.5,60.2,32,60.2"/>
	</g>
	<g>
		<defs>
			<rect id="SVGID_3_" x="4" y="4.1" width="56" height="56"/>
		</defs>
		<clipPath id="SVGID_4_">
			<use xlink:href="#SVGID_3_"  style="overflow:visible;"/>
		</clipPath>
		<path class="st1" d="M16.7,34.9c4.3-2.5,11.5-6.8,12.8-7.6c0.3-0.2,0.4-0.4,0.4-0.8c0-1.7,0-3.1,0-4.5l0-3.3
			c0-0.6,0.2-1.1,0.5-1.6c0.4-0.5,1.1-0.8,1.7-0.7c0.7,0.1,1.2,0.4,1.6,1c0.2,0.4,0.3,0.8,0.3,1.3v2.1c0,1.9,0,3.5,0,5.6
			c0,0.4,0.1,0.6,0.5,0.8l12.8,7.6v2l-12.8-2.6c-0.1,0-0.2,0-0.3,0.1c-0.1,0.1-0.1,0.2-0.1,0.3v1.9c0,1.9,0,3.4,0,5.7
			c0,0.3,0.1,0.6,0.4,0.8c0.5,0.4,1,0.8,1.6,1.2c0.4,0.3,0.9,0.7,1.3,1c0,0,0,0,0,0c0,0,0,0,0,0c0,0.5,0,0.9,0,1.4V47l-2.3-0.7
			c-0.9-0.3-1.8-0.5-2.8-0.8c-0.1,0-0.2,0-0.3,0c-0.2,0-0.3,0-0.4,0.1c-1.4,0.4-2.8,0.8-4.2,1.2L26.6,47l0-0.3c0-0.5,0-0.9,0-1.4
			c0-0.1,0-0.1,0.1-0.1c0.5-0.4,1.1-0.8,1.6-1.2c0.4-0.3,0.9-0.7,1.3-1c0.2-0.2,0.4-0.4,0.4-0.7c0-2.1,0-3.6,0-5.4v-2
			c0-0.1,0-0.1,0-0.2l0-0.1c0-0.1-0.1-0.2-0.2-0.3c-0.1-0.1-0.2-0.1-0.3-0.1l-12.7,2.6C16.7,36.9,16.7,34.9,16.7,34.9z M16.4,37.8
			l12.8-2.6v1.8c0,1.8,0,3.2,0,5.4c0,0,0,0,0,0c-0.4,0.3-0.9,0.6-1.3,1c-0.5,0.4-1.1,0.8-1.6,1.2c-0.3,0.2-0.4,0.5-0.4,0.8
			c0,0.4,0,0.9,0,1.3l0,0.8c0,0.1,0.1,0.2,0.2,0.3c0.1,0.1,0.2,0.1,0.2,0.1c0,0,0.1,0,0.1,0l1.4-0.4c1.4-0.4,2.8-0.8,4.2-1.2
			c0.1,0,0.2,0,0.2,0c0.9,0.3,1.8,0.5,2.8,0.8l2.8,0.8c0.1,0,0.2,0,0.3-0.1c0.1-0.1,0.2-0.2,0.2-0.3l0-0.1c0-0.1,0-0.1,0-0.2v-0.6
			c0-0.4,0-0.9,0-1.3c0-0.3-0.1-0.6-0.4-0.7c-0.4-0.3-0.9-0.7-1.3-1c-0.5-0.4-1-0.8-1.6-1.2c-0.1,0-0.1-0.1-0.1-0.1
			c0-2.3,0-3.7,0-5.7v-1.4l12.8,2.6c0.1,0,0.2,0,0.3-0.1c0.1-0.1,0.1-0.2,0.1-0.3v-2.7c0-0.1-0.1-0.3-0.2-0.3l-13-7.7
			c-0.1,0-0.1,0-0.1-0.1c0-2.1,0-3.7,0-5.6v-2.1c0-0.7-0.1-1.2-0.4-1.7c-0.5-0.8-1.3-1.3-2.2-1.4c-0.9-0.1-1.8,0.3-2.4,1
			c-0.5,0.6-0.7,1.3-0.7,2.1l0,3.3c0,1.4,0,2.8,0,4.5c0,0,0,0,0,0c0,0,0,0,0,0c-1.4,0.9-8.7,5.3-13,7.7c-0.1,0.1-0.2,0.2-0.2,0.3
			v2.7c0,0.1,0.1,0.2,0.1,0.3C16.1,37.7,16.2,37.8,16.4,37.8"/>
	</g>
</g>
</svg>
