<?xml version="1.0" encoding="utf-8"?>
<!-- Generator: Adobe Illustrator 24.0.3, SVG Export Plug-In . SVG Version: 6.00 Build 0)  -->
<svg version="1.1" id="Layer_1" xmlns="http://www.w3.org/2000/svg" xmlns:xlink="http://www.w3.org/1999/xlink" x="0px" y="0px"
	 width="64px" height="64px" viewBox="0 0 64 64" style="enable-background:new 0 0 64 64;" xml:space="preserve">
<style type="text/css">
	.st0{clip-path:url(#SVGID_2_);fill:#DD7240;}
	.st1{clip-path:url(#SVGID_4_);fill:#FFFFFF;}
	.st2{clip-path:url(#SVGID_6_);fill:#FFFFFF;}
</style>
<g>
	<g>
		<defs>
			<rect id="SVGID_1_" x="4" y="4.1" width="56" height="56"/>
		</defs>
		<clipPath id="SVGID_2_">
			<use xlink:href="#SVGID_1_"  style="overflow:visible;"/>
		</clipPath>
		<path class="st0" d="M32,60.2c15.5,0,28-12.5,28-28c0-15.5-12.5-28-28-28S4,16.7,4,32.1C4,47.6,16.5,60.2,32,60.2"/>
	</g>
	<g>
		<defs>
			<rect id="SVGID_3_" x="4" y="4.1" width="56" height="56"/>
		</defs>
		<clipPath id="SVGID_4_">
			<use xlink:href="#SVGID_3_"  style="overflow:visible;"/>
		</clipPath>
		<path class="st1" d="M21,20.1h21.9l0.1,3.3H20.8L21,20.1z M23.1,15.8h17.7l0.7,3.5H22.4L23.1,15.8z M41.1,29.6H22.9l-0.2-5.3h18.5
			L41.1,29.6z M41.6,41.2H22.3l-0.4-10.8h20.2L41.6,41.2z M40.5,46.5h-17l-0.2-4.4h17.4L40.5,46.5z M39.5,48.9H24.4l-0.2-1.4h15.5
			L39.5,48.9z M20.4,24.3h1.4l0.2,5.3h-0.5c-0.1,0-0.2,0-0.3,0.1C21.1,29.8,21,30,21,30l0.4,11.6c0,0.2,0.2,0.4,0.4,0.4h0.5l0.2,4.8
			c0,0.2,0.2,0.4,0.4,0.4h0.3l0.2,1.9c0,0.2,0.2,0.4,0.4,0.4h16c0.2,0,0.4-0.2,0.4-0.4l0.2-1.9h0.3c0.2,0,0.4-0.2,0.4-0.4l0.2-4.8
			h0.5c0.2,0,0.4-0.2,0.4-0.4L43,30c0-0.1,0-0.2-0.1-0.3c-0.1-0.1-0.2-0.1-0.3-0.1H42l0.2-5.3h1.4c0.1,0,0.2,0,0.3-0.1
			c0.1-0.1,0.1-0.2,0.1-0.3l-0.2-4.2c0-0.2-0.2-0.4-0.4-0.4h-0.9l-0.8-4c0-0.2-0.2-0.4-0.4-0.4H22.7c-0.2,0-0.4,0.1-0.4,0.4l-0.8,4
			h-0.9c-0.2,0-0.4,0.2-0.4,0.4l-0.2,4.2c0,0.1,0,0.2,0.1,0.3C20.2,24.3,20.3,24.3,20.4,24.3"/>
	</g>
	<g>
		<defs>
			<rect id="SVGID_5_" x="4" y="4.1" width="56" height="56"/>
		</defs>
		<clipPath id="SVGID_6_">
			<use xlink:href="#SVGID_5_"  style="overflow:visible;"/>
		</clipPath>
		<path class="st2" d="M31.8,32.9L31.8,32.9c0.1,0.6-0.1,0.9-0.2,1.3c-0.2,0.4-0.4,0.9-0.4,1.8s0.2,1.3,0.4,1.8
			c0.1,0.3,0.3,0.6,0.3,1.1h0c-1.2,0-2.2-1.3-2.2-3C29.6,34.2,30.6,32.9,31.8,32.9 M33.9,35.8c0,1.2-0.5,2.2-1.2,2.6
			c-0.1-0.5-0.2-0.9-0.4-1.2c-0.2-0.4-0.3-0.7-0.3-1.4s0.1-1,0.4-1.4c0.2-0.4,0.4-0.7,0.4-1.3C33.4,33.7,33.9,34.7,33.9,35.8
			 M31.8,39.7c1.7,0,3-1.7,3-3.9s-1.4-3.9-3-3.9s-3,1.7-3,3.9S30.1,39.7,31.8,39.7"/>
	</g>
</g>
</svg>
