<?xml version="1.0" encoding="utf-8"?>
<!-- Generator: Adobe Illustrator 24.0.3, SVG Export Plug-In . SVG Version: 6.00 Build 0)  -->
<svg version="1.1" id="Layer_1" xmlns="http://www.w3.org/2000/svg" xmlns:xlink="http://www.w3.org/1999/xlink" x="0px" y="0px"
	 width="64px" height="64px" viewBox="0 0 64 64" style="enable-background:new 0 0 64 64;" xml:space="preserve">
<style type="text/css">
	.st0{clip-path:url(#SVGID_2_);fill:#DD7240;}
	.st1{clip-path:url(#SVGID_4_);fill:#FFFFFF;}
	.st2{clip-path:url(#SVGID_6_);fill:#FFFFFF;}
	.st3{clip-path:url(#SVGID_8_);fill:#FFFFFF;}
	.st4{clip-path:url(#SVGID_10_);fill:#FFFFFF;}
</style>
<g>
	<g>
		<defs>
			<rect id="SVGID_1_" x="4" y="4.1" width="56" height="56"/>
		</defs>
		<clipPath id="SVGID_2_">
			<use xlink:href="#SVGID_1_"  style="overflow:visible;"/>
		</clipPath>
		<path class="st0" d="M32,60.2c15.5,0,28-12.5,28-28c0-15.5-12.5-28-28-28S4,16.7,4,32.1C4,47.6,16.5,60.2,32,60.2"/>
	</g>
	<g>
		<defs>
			<rect id="SVGID_3_" x="4" y="4.1" width="56" height="56"/>
		</defs>
		<clipPath id="SVGID_4_">
			<use xlink:href="#SVGID_3_"  style="overflow:visible;"/>
		</clipPath>
		<path class="st1" d="M22.1,23.3c-1.7,2.5-2.8,5.5-2.8,8.7c0,3.2,1,6.2,2.8,8.7h-6.9V23.3H22.1z M34.5,17.7
			c7.9,0,14.3,6.4,14.3,14.2c0,7.9-6.4,14.2-14.3,14.2c-7.9,0-14.2-6.4-14.2-14.2C20.2,24.1,26.6,17.7,34.5,17.7 M14.8,49.8
			c0.2,0,0.4-0.2,0.4-0.4v-7.8h7.5c2.8,3.4,7,5.5,11.7,5.5c8.3,0,15.1-6.8,15.1-15.1c0-8.3-6.8-15.1-15.1-15.1
			c-4.7,0-8.9,2.2-11.7,5.6h-7.5V15c0-0.2-0.2-0.4-0.4-0.4s-0.4,0.2-0.4,0.4v34.4C14.4,49.6,14.6,49.8,14.8,49.8"/>
	</g>
	<g>
		<defs>
			<rect id="SVGID_5_" x="4" y="4.1" width="56" height="56"/>
		</defs>
		<clipPath id="SVGID_6_">
			<use xlink:href="#SVGID_5_"  style="overflow:visible;"/>
		</clipPath>
		<path class="st2" d="M28.7,22.8l3.3,3.3c0.7,0.7,0.7,1.9,0,2.6l-0.8,0.8c-0.7,0.7-1.9,0.7-2.6,0l-3.3-3.3L28.7,22.8z M33,31.1
			L32,30l0.3-0.3l1.1,1.1L33,31.1z M36,29.8c0,0,0.1,0.1,0.1,0.1l-3.6,3.8L32,33.3l3.8-3.6C35.9,29.7,35.9,29.8,36,29.8 M36.6,24.7
			c1.4-1.4,5-2.7,6.1-1.6c1.1,1.1-0.2,4.7-1.6,6.1c-1.2,1.2-3.2,1.2-4.5,0C35.4,27.9,35.4,25.9,36.6,24.7 M36,33.3l-0.4,0.4l-0.9-1
			l0.4-0.4L36,33.3z M42.6,39.1c0.2,0.2,0.2,0.4,0.2,0.6s-0.1,0.4-0.2,0.6c-0.3,0.3-0.9,0.3-1.2,0l-5.6-5.6l1.2-1.2L42.6,39.1z
			 M26.7,40.3c-0.3,0.3-0.9,0.3-1.2,0c-0.2-0.2-0.2-0.4-0.2-0.6s0.1-0.4,0.2-0.6l5.6-5.6l1.2,1.2L26.7,40.3z M24.3,26.6l3.6,3.6
			c0.5,0.5,1.2,0.8,1.9,0.8c0.5,0,1-0.1,1.5-0.4l1,1.2l-1,0.9l-0.1-0.1c-0.2-0.2-0.5-0.2-0.6,0l-5.9,5.9c-0.7,0.7-0.7,1.8,0,2.4
			c0.3,0.3,0.8,0.5,1.2,0.5c0.5,0,0.9-0.2,1.2-0.5l5.9-5.9c0.2-0.2,0.2-0.5,0-0.6l-0.1-0.1l0.9-1l0.9,1l0,0c-0.2,0.2-0.2,0.5,0,0.6
			l5.9,5.9c0.3,0.3,0.8,0.5,1.2,0.5c0.5,0,0.9-0.2,1.2-0.5c0.7-0.7,0.7-1.8,0-2.4l-5.9-5.9c-0.2-0.2-0.5-0.2-0.6,0l-0.1,0.1l-1-1
			l1.2-1.3c0.6,0.4,1.3,0.5,2,0.5c1,0,2.1-0.4,2.9-1.2c1.5-1.5,3.2-5.7,1.6-7.3c-1.7-1.7-5.8,0.1-7.3,1.6c-1.3,1.3-1.5,3.3-0.6,4.9
			L34,30.2l-1.1-1.1c0.8-1.1,0.7-2.6-0.3-3.5L29,21.9c-0.2-0.2-0.5-0.2-0.6,0l-4.1,4.1C24.2,26.1,24.2,26.4,24.3,26.6"/>
	</g>
	<g>
		<defs>
			<rect id="SVGID_7_" x="4" y="4.1" width="56" height="56"/>
		</defs>
		<clipPath id="SVGID_8_">
			<use xlink:href="#SVGID_7_"  style="overflow:visible;"/>
		</clipPath>
		<path class="st3" d="M30.3,27.1c0.1,0.1,0.2,0.1,0.3,0.1c0.1,0,0.2,0,0.3-0.1c0.2-0.2,0.2-0.5,0-0.6l-2.1-2.1
			c-0.2-0.2-0.5-0.2-0.6,0c-0.2,0.2-0.2,0.5,0,0.6L30.3,27.1z"/>
	</g>
	<g>
		<defs>
			<rect id="SVGID_9_" x="4" y="4.1" width="56" height="56"/>
		</defs>
		<clipPath id="SVGID_10_">
			<use xlink:href="#SVGID_9_"  style="overflow:visible;"/>
		</clipPath>
		<path class="st4" d="M29.5,28.5c0.1,0,0.2,0,0.3-0.1c0.2-0.2,0.2-0.5,0-0.6l-2.1-2.1c-0.2-0.2-0.5-0.2-0.6,0
			c-0.2,0.2-0.2,0.5,0,0.6l2.1,2.1C29.2,28.4,29.4,28.5,29.5,28.5"/>
	</g>
</g>
</svg>
