<?xml version="1.0" encoding="utf-8"?>
<!-- Generator: Adobe Illustrator 24.0.3, SVG Export Plug-In . SVG Version: 6.00 Build 0)  -->
<svg version="1.1" id="Layer_1" xmlns="http://www.w3.org/2000/svg" xmlns:xlink="http://www.w3.org/1999/xlink" x="0px" y="0px"
	 width="64px" height="64px" viewBox="0 0 64 64" enable-background="new 0 0 64 64" xml:space="preserve">
<g>
	<defs>
		<rect id="SVGID_1_" x="3.9879" y="4.123" width="56.029" height="56.029"/>
	</defs>
	<clipPath id="SVGID_2_">
		<use xlink:href="#SVGID_1_"  overflow="visible"/>
	</clipPath>
	<path clip-path="url(#SVGID_2_)" fill="#DD7240" d="M32.0023,60.152c15.472,0,28.014-12.543,28.014-28.014
		c0-15.472-12.542-28.015-28.014-28.015S3.9883,16.666,3.9883,32.138C3.9883,47.609,16.5303,60.152,32.0023,60.152"/>
	<path clip-path="url(#SVGID_2_)" fill="#FFFFFF" d="M36.5108,40.4455l0.718-5.993h5.98l-0.929,5.993H36.5108z M16.6358,34.4525
		h5.757l0.574,5.993h-5.559L16.6358,34.4525z M21.2028,22.0375l0.495,5.166h-5.996l-0.665-5.166H21.2028z M30.2958,33.5565v-5.457
		h6.791l-0.654,5.457H30.2958z M30.2958,34.4525h6.03l-0.718,5.993h-5.312V34.4525z M29.3988,34.4525v5.993h-5.532l-0.574-5.993
		H29.3988z M30.2958,22.0375h7.517l-0.619,5.166h-6.898V22.0375z M29.3988,27.2035h-6.801l-0.495-5.166h7.296V27.2035z
		 M22.6838,28.0995h6.715v5.457h-6.192L22.6838,28.0995z M15.8178,28.0995h5.966l0.523,5.457h-5.787L15.8178,28.0995z
		 M43.3478,33.5565h-6.012l0.654-5.457h6.204L43.3478,33.5565z M44.3328,27.2035h-6.236l0.619-5.166h6.417L44.3328,27.2035z
		 M38.0838,49.8745c-1.105,0-2.004-0.9-2.004-2.005s0.899-2.004,2.004-2.004s2.005,0.899,2.005,2.004
		C40.0878,48.9745,39.1888,49.8745,38.0838,49.8745 M21.6478,49.8745c-1.106,0-2.005-0.9-2.005-2.005s0.899-2.004,2.005-2.004
		c1.105,0,2.004,0.899,2.004,2.004S22.7528,49.8745,21.6478,49.8745 M49.4768,14.9245h-2.856c-0.221,0-0.41,0.161-0.443,0.38
		l-0.905,5.837h-30.746c-0.128,0-0.251,0.056-0.336,0.152c-0.085,0.097-0.124,0.226-0.108,0.353l2.486,19.304
		c0.029,0.224,0.219,0.391,0.445,0.391h25.127l-0.497,3.203h-24.522c-0.248,0-0.448,0.2-0.448,0.448c0,0.248,0.2,0.448,0.448,0.448
		h2.946c-0.794,0.518-1.321,1.413-1.321,2.429c0,1.6,1.301,2.901,2.901,2.901c1.599,0,2.9-1.301,2.9-2.901
		c0-1.016-0.527-1.911-1.32-2.429h13.276c-0.794,0.518-1.32,1.413-1.32,2.429c0,1.6,1.301,2.901,2.9,2.901
		c1.6,0,2.901-1.301,2.901-2.901c0-1.016-0.527-1.911-1.321-2.429h2.364c0.221,0,0.409-0.161,0.443-0.38l4.534-29.24h2.472
		c0.248,0,0.449-0.201,0.449-0.448C49.9258,15.1245,49.7248,14.9245,49.4768,14.9245"/>
</g>
<g display="none">
	<defs>
		<rect id="SVGID_3_" x="3.9879" y="4.123" width="56.029" height="56.029"/>
	</defs>
	<clipPath id="SVGID_4_" display="inline">
		<use xlink:href="#SVGID_3_"  overflow="visible"/>
	</clipPath>
	<path display="inline" clip-path="url(#SVGID_4_)" fill="#DD7240" d="M32.0024,60.152c15.472,0,28.014-12.543,28.014-28.014
		c0-15.472-12.542-28.015-28.014-28.015S3.9884,16.666,3.9884,32.138C3.9884,47.609,16.5304,60.152,32.0024,60.152"/>
	<path display="inline" clip-path="url(#SVGID_4_)" fill="#FFFFFF" d="M20.9793,20.099h21.911l0.135,3.271h-22.18L20.9793,20.099z
		 M23.0853,15.753h17.744l0.672,3.45h-19.088L23.0853,15.753z M41.0533,29.598h-18.192l-0.179-5.287h18.506L41.0533,29.598z
		 M41.6363,41.248h-19.357l-0.359-10.754h20.164L41.6363,41.248z M40.4713,46.535h-17.027l-0.179-4.391h17.385L40.4713,46.535z
		 M39.5303,48.865h-15.145l-0.179-1.434h15.503L39.5303,48.865z M20.3973,24.311h1.434l0.179,5.287h-0.538
		c-0.134,0-0.224,0.045-0.313,0.135c-0.09,0.089-0.135,0.224-0.135,0.313l0.404,11.65c0,0.224,0.224,0.448,0.448,0.448h0.537
		l0.224,4.839c0,0.224,0.224,0.448,0.448,0.448h0.269l0.224,1.927c0.045,0.224,0.224,0.403,0.448,0.403h15.952
		c0.224,0,0.403-0.179,0.448-0.403l0.224-1.927h0.269c0.224,0,0.448-0.179,0.448-0.448l0.224-4.839h0.537
		c0.224,0,0.449-0.179,0.449-0.448l0.403-11.65c0-0.134-0.045-0.224-0.135-0.313c-0.089-0.09-0.179-0.135-0.313-0.135h-0.538
		l0.179-5.287h1.434c0.134,0,0.224-0.045,0.314-0.134c0.089-0.09,0.134-0.224,0.134-0.314l-0.179-4.167
		c0-0.224-0.224-0.448-0.448-0.448h-0.941l-0.762-3.988c-0.045-0.224-0.224-0.358-0.448-0.358h-18.55
		c-0.224,0-0.403,0.134-0.448,0.358l-0.762,3.988h-0.941c-0.224,0-0.448,0.179-0.448,0.448l-0.179,4.167
		c0,0.134,0.045,0.224,0.134,0.314C20.1733,24.266,20.2633,24.311,20.3973,24.311"/>
	<path display="inline" clip-path="url(#SVGID_4_)" fill="#FFFFFF" d="M31.7783,32.8689h0.09c0,0.628-0.18,0.896-0.314,1.255
		c-0.179,0.403-0.403,0.896-0.403,1.792s0.224,1.344,0.403,1.792c0.134,0.314,0.269,0.583,0.314,1.076h-0.045
		c-1.21,0-2.151-1.344-2.151-2.957C29.6273,34.2139,30.5683,32.8689,31.7783,32.8689 M33.9293,35.8269
		c0,1.165-0.493,2.195-1.21,2.643c-0.09-0.537-0.224-0.851-0.403-1.165c-0.18-0.358-0.314-0.717-0.314-1.389s0.134-1.03,0.358-1.389
		c0.18-0.358,0.359-0.717,0.404-1.344C33.4363,33.6759,33.9293,34.6619,33.9293,35.8269 M31.7783,39.6799
		c1.703,0,3.047-1.747,3.047-3.853s-1.389-3.854-3.047-3.854c-1.658,0-3.047,1.748-3.047,3.854S30.0753,39.6799,31.7783,39.6799"/>
</g>
<g display="none">
	<defs>
		<rect id="SVGID_5_" x="3.9879" y="4.123" width="56.029" height="56.029"/>
	</defs>
	<clipPath id="SVGID_6_" display="inline">
		<use xlink:href="#SVGID_5_"  overflow="visible"/>
	</clipPath>
	<path display="inline" clip-path="url(#SVGID_6_)" fill="#DD7240" d="M32.0023,60.152c15.472,0,28.014-12.541,28.014-28.014
		c0-15.472-12.542-28.013-28.014-28.013S3.9883,16.666,3.9883,32.138C3.9883,47.611,16.5303,60.152,32.0023,60.152"/>
	<path display="inline" clip-path="url(#SVGID_6_)" fill="#FFFFFF" d="M44.3924,45.9256h-24.78c-1.184,0-2.147-0.963-2.147-2.147
		v-3.527h29.074v3.527C46.5394,44.9626,45.5764,45.9256,44.3924,45.9256 M17.5654,37.1986l0.955-7.705
		c0.188-1.792,1.368-3.249,2.962-3.856v13.849h-4.017v-0.677C17.4654,38.2726,17.4994,37.7306,17.5654,37.1986 M23.7954,24.6306
		c0-4.289,3.712-7.778,8.276-7.778c4.563,0,8.275,3.489,8.275,7.778v2.685c0,0.33-0.268,0.599-0.598,0.599s-0.598-0.269-0.598-0.599
		v-2.685c0-3.691-3.176-6.694-7.079-6.694c-3.904,0-7.08,3.003-7.08,6.694v2.685c0,0.33-0.268,0.599-0.598,0.599
		s-0.598-0.269-0.598-0.599V24.6306z M37.6444,25.3316h0.741v1.984c0,0.752,0.611,1.364,1.363,1.364s1.363-0.612,1.363-1.364v-1.972
		c0.287,0.015,0.566,0.056,0.837,0.121v14.022h-4.304V25.3316z M27.3164,25.3316h9.564v14.154h-9.564V25.3316z M25.7604,24.5666
		c0.037-3.24,2.852-5.865,6.311-5.865c3.458,0,6.273,2.625,6.31,5.865H25.7604z M24.3934,28.6796c0.752,0,1.364-0.612,1.364-1.364
		v-1.984h0.794v14.155h-4.304v-14.068c0.254-0.049,0.516-0.075,0.783-0.081v1.978C23.0304,28.0676,23.6414,28.6796,24.3934,28.6796
		 M45.4854,29.5006l0.954,7.698c0.066,0.532,0.1,1.074,0.1,1.611v0.677h-3.826v-13.768
		C44.2094,26.3666,45.3044,27.7766,45.4854,29.5006 M46.2454,29.4136c-0.282-2.68-2.469-4.715-5.135-4.835
		c-0.03-4.687-4.073-8.491-9.039-8.491c-4.965,0-9.006,3.801-9.04,8.485c-2.728,0.054-4.986,2.115-5.271,4.834l-0.955,7.698
		c-0.069,0.563-0.105,1.137-0.105,1.705v4.969c0,1.606,1.306,2.912,2.912,2.912h24.78c1.605,0,2.912-1.306,2.912-2.912v-4.969
		c0-0.568-0.036-1.142-0.106-1.705L46.2454,29.4136z"/>
</g>
<g display="none">
	<defs>
		<rect id="SVGID_7_" x="3.9879" y="4.123" width="56.029" height="56.029"/>
	</defs>
	<clipPath id="SVGID_8_" display="inline">
		<use xlink:href="#SVGID_7_"  overflow="visible"/>
	</clipPath>
	<path display="inline" clip-path="url(#SVGID_8_)" fill="#DD7240" d="M32.0023,60.152c15.472,0,28.014-12.543,28.014-28.014
		c0-15.472-12.542-28.015-28.014-28.015S3.9883,16.666,3.9883,32.138C3.9883,47.609,16.5303,60.152,32.0023,60.152"/>
	<path display="inline" clip-path="url(#SVGID_8_)" fill="#FFFFFF" d="M22.121,23.2645c-1.735,2.462-2.758,5.459-2.758,8.693
		c0,3.241,1.028,6.245,2.77,8.71H15.26v-17.403H22.121z M34.494,17.7075c7.858,0,14.251,6.392,14.251,14.25
		c0,7.857-6.393,14.25-14.251,14.25c-7.857,0-14.25-6.393-14.25-14.25C20.244,24.0995,26.637,17.7075,34.494,17.7075
		 M14.819,49.7615c0.244,0,0.441-0.197,0.441-0.441v-7.771h7.541c2.777,3.38,6.988,5.539,11.693,5.539
		c8.344,0,15.132-6.788,15.132-15.131c0-8.344-6.788-15.132-15.132-15.132c-4.714,0-8.93,2.168-11.707,5.558H15.26v-7.429
		c0-0.243-0.197-0.441-0.441-0.441c-0.244,0-0.441,0.198-0.441,0.441v34.366C14.378,49.5645,14.575,49.7615,14.819,49.7615"/>
	<path display="inline" clip-path="url(#SVGID_8_)" fill="#FFFFFF" d="M28.7133,22.8064l3.327,3.327
		c0.718,0.718,0.718,1.886,0,2.604l-0.846,0.846c-0.717,0.718-1.886,0.718-2.604,0l-3.326-3.327L28.7133,22.8064z M33.0173,31.1414
		l-0.989-1.145l0.293-0.293l1.068,1.083L33.0173,31.1414z M35.9633,29.7974c0.044,0.044,0.092,0.082,0.137,0.124l-3.624,3.793
		l-0.429-0.429l3.796-3.621C35.8843,29.7074,35.9213,29.7544,35.9633,29.7974 M36.5863,24.6874c1.374-1.373,4.962-2.701,6.075-1.588
		c1.112,1.113-0.215,4.701-1.588,6.075c-1.237,1.236-3.249,1.236-4.487,0C35.3503,27.9364,35.3503,25.9244,36.5863,24.6874
		 M35.9853,33.3164l-0.428,0.428l-0.926-1.01l0.366-0.383L35.9853,33.3164z M42.5873,39.1044c0.158,0.158,0.245,0.367,0.245,0.59
		s-0.087,0.433-0.245,0.59c-0.315,0.316-0.865,0.315-1.18,0l-5.572-5.572l1.18-1.18L42.5873,39.1044z M26.6563,40.2844
		c-0.315,0.315-0.865,0.316-1.181,0c-0.157-0.157-0.244-0.367-0.244-0.59s0.087-0.432,0.244-0.59l5.573-5.572l1.18,1.18
		L26.6563,40.2844z M24.3293,26.5684l3.638,3.638c0.531,0.531,1.228,0.797,1.925,0.797c0.512,0,1.023-0.146,1.468-0.432l1.018,1.179
		l-0.955,0.911l-0.063-0.064c-0.166-0.165-0.458-0.165-0.623,0l-5.885,5.884c-0.669,0.669-0.669,1.757,0,2.426
		c0.324,0.325,0.755,0.503,1.213,0.503c0.459,0,0.89-0.178,1.214-0.503l5.884-5.883c0.172-0.173,0.172-0.451,0-0.623l-0.063-0.064
		l0.921-0.965l0.913,0.995l-0.033,0.034c-0.173,0.172-0.173,0.45,0,0.623l5.883,5.883c0.324,0.324,0.755,0.503,1.214,0.503
		c0.458,0,0.889-0.178,1.213-0.503c0.669-0.669,0.669-1.757,0-2.426l-5.884-5.884c-0.166-0.165-0.458-0.165-0.623,0l-0.096,0.096
		l-1.002-0.98l1.212-1.269c0.621,0.356,1.316,0.537,2.012,0.537c1.038,0,2.076-0.395,2.866-1.185
		c1.525-1.525,3.244-5.665,1.588-7.321c-1.655-1.655-5.795,0.064-7.321,1.588c-1.321,1.322-1.533,3.334-0.645,4.882l-1.291,1.231
		l-1.111-1.126c0.79-1.065,0.713-2.576-0.253-3.541l-3.638-3.639c-0.165-0.165-0.458-0.165-0.623,0l-4.073,4.074
		C24.1573,26.1174,24.1573,26.3964,24.3293,26.5684"/>
	<path display="inline" clip-path="url(#SVGID_8_)" fill="#FFFFFF" d="M30.3236,27.105c0.086,0.086,0.199,0.129,0.312,0.129
		c0.112,0,0.225-0.043,0.311-0.129c0.172-0.172,0.172-0.451,0-0.623l-2.058-2.058c-0.172-0.172-0.451-0.172-0.623,0
		c-0.172,0.172-0.172,0.451,0,0.623L30.3236,27.105z"/>
	<path display="inline" clip-path="url(#SVGID_8_)" fill="#FFFFFF" d="M29.4662,28.4868c0.113,0,0.226-0.043,0.312-0.129
		c0.172-0.172,0.172-0.451,0-0.623l-2.059-2.058c-0.172-0.172-0.45-0.172-0.623,0c-0.172,0.172-0.172,0.451,0,0.623l2.059,2.058
		C29.2402,28.4438,29.3532,28.4868,29.4662,28.4868"/>
</g>
<g display="none">
	<defs>
		<rect id="SVGID_9_" x="3.9879" y="4.123" width="56.029" height="56.029"/>
	</defs>
	<clipPath id="SVGID_10_" display="inline">
		<use xlink:href="#SVGID_9_"  overflow="visible"/>
	</clipPath>
	<path display="inline" clip-path="url(#SVGID_10_)" fill="#DD7240" d="M32.0023,60.152c15.472,0,28.014-12.543,28.014-28.016
		c0-15.47-12.542-28.013-28.014-28.013S3.9883,16.666,3.9883,32.136C3.9883,47.609,16.5303,60.152,32.0023,60.152"/>
	<path display="inline" clip-path="url(#SVGID_10_)" fill="#FFFFFF" d="M43.9882,24.4214c-0.269,0-0.448-0.224-0.403-0.493
		c0.045-0.403,0.045-0.851,0.045-1.299c0-0.269,0.224-0.404,0.448-0.448c0.268,0,0.448,0.224,0.448,0.448
		c0,0.448-0.045,0.896-0.09,1.344C44.4812,24.2424,44.2572,24.4214,43.9882,24.4214
		C44.0332,24.4214,44.0332,24.4214,43.9882,24.4214"/>
	<path display="inline" clip-path="url(#SVGID_10_)" fill="#FFFFFF" d="M39.5075,34.4582c-0.179,0.134-0.358,0.269-0.538,0.403
		c-0.089,0.045-0.179,0.09-0.269,0.09c-0.134,0-0.268-0.045-0.358-0.179c-0.134-0.18-0.134-0.493,0.09-0.628
		c0.179-0.134,0.313-0.268,0.493-0.403c0.179-0.134,0.313-0.269,0.492-0.403c0.18-0.179,0.448-0.179,0.628,0
		c0.179,0.179,0.179,0.448,0,0.627C39.8215,34.1892,39.6865,34.3242,39.5075,34.4582"/>
	<path display="inline" clip-path="url(#SVGID_10_)" fill="#FFFFFF" d="M43.5401,27.4235h-0.09
		c-0.224-0.045-0.403-0.314-0.313-0.538c0.089-0.403,0.179-0.806,0.269-1.254c0.044-0.224,0.268-0.404,0.537-0.359
		c0.224,0.045,0.404,0.269,0.359,0.538c-0.09,0.448-0.179,0.896-0.269,1.299C43.9431,27.2895,43.7641,27.4235,43.5401,27.4235"/>
	<path display="inline" clip-path="url(#SVGID_10_)" fill="#FFFFFF" d="M42.9128,30.0671c-0.09,0.179-0.224,0.269-0.403,0.269
		c-0.045,0-0.135,0-0.179-0.045c-0.225-0.09-0.314-0.358-0.225-0.582c0.18-0.359,0.359-0.762,0.493-1.165
		c0.09-0.224,0.359-0.359,0.583-0.269c0.224,0.089,0.358,0.358,0.269,0.582C43.2708,29.2161,43.0918,29.6641,42.9128,30.0671"/>
	<path display="inline" clip-path="url(#SVGID_10_)" fill="#FFFFFF" d="M34.7579,37.3706c-0.403,0.179-0.807,0.358-1.21,0.538
		c-0.045,0.044-0.134,0.044-0.179,0.044c-0.179,0-0.358-0.089-0.403-0.268c-0.09-0.224,0-0.493,0.224-0.583
		c0.403-0.179,0.806-0.358,1.165-0.538c0.224-0.089,0.493,0,0.582,0.225C35.0719,37.0126,34.9819,37.2806,34.7579,37.3706"/>
	<path display="inline" clip-path="url(#SVGID_10_)" fill="#FFFFFF" d="M19.9716,44.4053c-0.09,0.09-0.179,0.134-0.314,0.134
		c-0.134,0-0.224-0.044-0.313-0.134c-0.18-0.179-0.135-0.448,0.044-0.627c0.314-0.269,0.673-0.583,1.031-0.852
		c0.179-0.134,0.493-0.089,0.627,0.09c0.135,0.179,0.09,0.493-0.089,0.627C20.5986,43.8673,20.2856,44.1363,19.9716,44.4053"/>
	<path display="inline" clip-path="url(#SVGID_10_)" fill="#FFFFFF" d="M17.8208,46.8697c-0.09,0-0.134,0-0.224-0.045
		c-0.224-0.089-0.314-0.403-0.179-0.582c0.179-0.404,0.448-0.762,0.717-1.12c0.134-0.18,0.448-0.225,0.627-0.09
		c0.179,0.134,0.224,0.448,0.09,0.627c-0.224,0.314-0.448,0.672-0.628,1.031C18.1348,46.7797,17.9998,46.8697,17.8208,46.8697"/>
	<path display="inline" clip-path="url(#SVGID_10_)" fill="#FFFFFF" d="M23.5114,42.0754c-0.403,0.224-0.762,0.403-1.12,0.627
		c-0.09,0.045-0.135,0.045-0.224,0.045c-0.135,0-0.314-0.089-0.403-0.224c-0.135-0.224-0.045-0.493,0.179-0.627
		c0.358-0.224,0.761-0.403,1.165-0.628c0.224-0.089,0.493-0.044,0.582,0.18C23.8254,41.6724,23.7354,41.9414,23.5114,42.0754"/>
	<path display="inline" clip-path="url(#SVGID_10_)" fill="#FFFFFF" d="M27.544,39.3421c0.403-0.179,0.807-0.314,1.21-0.493
		c0.224-0.089,0.493,0.045,0.582,0.269c0.09,0.224-0.045,0.493-0.269,0.582c-0.403,0.135-0.806,0.314-1.209,0.493
		c-0.045,0-0.09,0.045-0.18,0.045c-0.179,0-0.358-0.089-0.403-0.269C27.186,39.6561,27.32,39.4321,27.544,39.3421"/>
	<path display="inline" clip-path="url(#SVGID_10_)" fill="#FFFFFF" d="M26.2446,40.8208c-0.403,0.179-0.807,0.358-1.21,0.493
		c-0.045,0.045-0.134,0.045-0.179,0.045c-0.179,0-0.314-0.09-0.403-0.269c-0.09-0.224,0-0.493,0.224-0.583
		c0.403-0.179,0.806-0.358,1.21-0.537c0.224-0.09,0.492,0,0.582,0.224C26.6026,40.4628,26.4686,40.7308,26.2446,40.8208"/>
	<path display="inline" clip-path="url(#SVGID_10_)" fill="#FFFFFF" d="M30.3668,38.2219c0.403-0.179,0.807-0.314,1.21-0.493
		c0.224-0.089,0.493,0,0.582,0.269c0.09,0.224,0,0.493-0.269,0.582c-0.403,0.18-0.806,0.314-1.209,0.493
		c-0.045,0-0.09,0.045-0.18,0.045c-0.179,0-0.358-0.089-0.403-0.269C30.0528,38.5799,30.1428,38.3119,30.3668,38.2219"/>
	<path display="inline" clip-path="url(#SVGID_10_)" fill="#FFFFFF" d="M37.4836,35.892c-0.357,0.224-0.759,0.448-1.16,0.672
		c-0.09,0.045-0.134,0.045-0.223,0.045c-0.179,0-0.313-0.09-0.402-0.224c-0.134-0.224-0.045-0.493,0.178-0.627
		c0.402-0.224,0.759-0.404,1.116-0.628c0.223-0.134,0.491-0.045,0.625,0.135C37.7516,35.489,37.7066,35.758,37.4836,35.892"/>
	<path display="inline" clip-path="url(#SVGID_10_)" fill="#FFFFFF" d="M41.2998,31.1424c0.134-0.224,0.403-0.269,0.627-0.134
		c0.224,0.134,0.269,0.403,0.135,0.627c-0.269,0.358-0.538,0.762-0.807,1.075c-0.089,0.09-0.224,0.179-0.358,0.179
		c-0.09,0-0.179-0.044-0.269-0.089c-0.179-0.135-0.224-0.448-0.045-0.627C40.8068,31.8144,41.0308,31.4564,41.2998,31.1424"/>
	<path display="inline" clip-path="url(#SVGID_10_)" fill="#FFFFFF" d="M17.3728,47.497c0.224,0.045,0.403,0.314,0.314,0.538
		c-0.09,0.358-0.135,0.761-0.18,1.165c0,0.224-0.224,0.403-0.448,0.403h-0.044c-0.269,0-0.449-0.224-0.404-0.493
		c0.045-0.448,0.09-0.896,0.18-1.299C16.8798,47.587,17.1488,47.407,17.3728,47.497"/>
	<path display="inline" clip-path="url(#SVGID_10_)" fill="#FFFFFF" d="M46.363,20.7024c-0.09,0.09-0.224,0.134-0.314,0.134
		c-0.089,0-0.224-0.044-0.313-0.134l-1.613-1.613l-1.613,1.613c-0.09,0.09-0.224,0.134-0.314,0.134c-0.09,0-0.224-0.044-0.314-0.134
		c-0.179-0.179-0.179-0.448,0-0.627l1.613-1.613l-1.613-1.613c-0.179-0.18-0.179-0.448,0-0.628c0.18-0.179,0.448-0.179,0.628,0
		l1.613,1.613l1.613-1.613c0.179-0.179,0.448-0.179,0.627,0c0.179,0.18,0.179,0.448,0,0.628l-1.613,1.613l1.613,1.613
		C46.542,20.2544,46.542,20.5234,46.363,20.7024"/>
	<path display="inline" clip-path="url(#SVGID_10_)" fill="#FFFFFF" d="M17.1039,21.0608c-0.179,0.179-0.448,0.179-0.627,0
		c-0.18-0.179-0.18-0.448,0-0.627l3.091-3.092c0.09-0.09,0.18-0.134,0.314-0.134c0.134,0,0.224,0.044,0.314,0.134l3.091,3.092
		c0.18,0.179,0.18,0.448,0,0.627c-0.089,0.09-0.224,0.134-0.313,0.134c-0.135,0-0.224-0.044-0.314-0.134l-2.33-2.33v1.344
		l2.957,2.958c0.18,0.179,0.18,0.448,0,0.627c-0.179,0.179-0.448,0.179-0.627,0l-2.33-2.33v1.344l2.957,2.957
		c0.18,0.18,0.18,0.448,0,0.628c-0.089,0.089-0.224,0.134-0.313,0.134c-0.135,0-0.224-0.045-0.314-0.134l-2.33-2.33v4.57
		c0,0.269-0.179,0.448-0.448,0.448c-0.269,0-0.448-0.179-0.448-0.448v-4.615l-2.33,2.33c-0.179,0.179-0.448,0.179-0.627,0
		c-0.18-0.179-0.18-0.448,0-0.627l2.957-2.958v-1.344l-2.33,2.33c-0.09,0.134-0.224,0.134-0.314,0.134
		c-0.134,0-0.224-0.044-0.313-0.134c-0.18-0.179-0.18-0.448,0-0.627l2.957-2.958v-1.344L17.1039,21.0608z"/>
	<path display="inline" clip-path="url(#SVGID_10_)" fill="#FFFFFF" d="M27.6336,21.0608c-0.09,0.09-0.224,0.134-0.314,0.134
		c-0.134,0-0.224-0.044-0.313-0.134c-0.18-0.179-0.18-0.448,0-0.627l3.091-3.092c0.09-0.09,0.18-0.134,0.314-0.134
		c0.134,0,0.224,0.044,0.314,0.134l3.091,3.092c0.18,0.179,0.18,0.448,0,0.627c-0.179,0.179-0.448,0.179-0.627,0l-2.33-2.375v1.344
		l2.957,2.958c0.18,0.179,0.18,0.448,0,0.627c-0.179,0.179-0.448,0.179-0.627,0l-2.33-2.33v1.344l2.957,2.958
		c0.18,0.179,0.18,0.448,0,0.627c-0.179,0.179-0.448,0.179-0.627,0l-2.33-2.33v4.57c0,0.269-0.179,0.448-0.448,0.448
		c-0.269,0-0.448-0.179-0.448-0.448v-4.57l-2.33,2.33c-0.09,0.089-0.224,0.134-0.314,0.134c-0.134,0-0.224-0.045-0.313-0.134
		c-0.18-0.179-0.18-0.448,0-0.627l2.957-2.958v-1.344l-2.33,2.33c-0.09,0.134-0.224,0.134-0.314,0.134
		c-0.134,0-0.224-0.044-0.313-0.134c-0.18-0.179-0.18-0.448,0-0.627l2.957-2.958v-1.344L27.6336,21.0608z"/>
	<path display="inline" clip-path="url(#SVGID_10_)" fill="#FFFFFF" d="M44.5707,48.662c0,0.269-0.179,0.448-0.448,0.448
		s-0.448-0.179-0.448-0.448v-4.57l-2.33,2.33c-0.09,0.089-0.224,0.134-0.314,0.134c-0.134,0-0.224-0.045-0.313-0.134
		c-0.18-0.18-0.18-0.448,0-0.628l2.957-2.957v-1.344l-2.33,2.33c-0.09,0.089-0.224,0.134-0.314,0.134
		c-0.134,0-0.224-0.045-0.313-0.134c-0.18-0.179-0.18-0.448,0-0.627l2.957-2.958v-1.344l-2.33,2.33
		c-0.09,0.09-0.224,0.134-0.314,0.134c-0.134,0-0.224-0.044-0.313-0.134c-0.18-0.179-0.18-0.448,0-0.627l3.091-3.092
		c0.09-0.09,0.179-0.134,0.314-0.134c0.134,0,0.224,0.044,0.314,0.134l3.091,3.092c0.18,0.179,0.18,0.448,0,0.627
		c-0.179,0.179-0.448,0.179-0.627,0l-2.33-2.33v1.344l2.957,2.958c0.18,0.179,0.18,0.448,0,0.627c-0.179,0.179-0.448,0.179-0.627,0
		l-2.33-2.33v1.344l2.957,2.957c0.18,0.18,0.18,0.448,0,0.628c-0.179,0.179-0.448,0.179-0.627,0l-2.33-2.33V48.662z"/>
</g>
<g display="none">
	<defs>
		<rect id="SVGID_11_" x="3.9879" y="4.123" width="56.029" height="56.029"/>
	</defs>
	<clipPath id="SVGID_12_" display="inline">
		<use xlink:href="#SVGID_11_"  overflow="visible"/>
	</clipPath>
	<path display="inline" clip-path="url(#SVGID_12_)" fill="#DD7240" d="M32.0023,60.152c15.472,0,28.014-12.543,28.014-28.016
		c0-15.47-12.542-28.013-28.014-28.013S3.9883,16.666,3.9883,32.136C3.9883,47.609,16.5303,60.152,32.0023,60.152"/>
	<path display="inline" clip-path="url(#SVGID_12_)" fill="#FFFFFF" d="M25.6113,33.6882c2.393-0.103,4.578-1.013,6.285-2.464
		c1.33,3.294,4.461,5.501,8.051,5.661v10.047h-14.336V33.6882z M15.6403,23.3962c0-5.202,4.269-9.435,9.516-9.435
		s9.516,4.233,9.516,9.435c0,5.052-4.025,9.188-9.061,9.424v-5.029l3.574-3.455c0.172-0.167,0.177-0.441,0.01-0.614
		c-0.167-0.172-0.441-0.176-0.614-0.01l-2.971,2.872v-4.028c0-0.24-0.194-0.434-0.434-0.434c-0.24,0-0.434,0.194-0.434,0.434v7.094
		l-3.012-2.911c-0.172-0.167-0.447-0.163-0.614,0.01c-0.166,0.172-0.162,0.447,0.01,0.613l3.616,3.496v1.964
		C19.6873,32.6062,15.6403,28.4622,15.6403,23.3962 M40.3643,19.6542c4.555,0,8.26,3.674,8.26,8.19c0,4.365-3.465,7.933-7.809,8.167
		v-3.945l2.83-2.736c0.172-0.167,0.177-0.441,0.01-0.614c-0.166-0.171-0.441-0.176-0.613-0.01l-2.228,2.153v-3.015
		c0-0.24-0.194-0.434-0.434-0.434c-0.24,0-0.434,0.194-0.434,0.434v5.466l-2.26-2.184c-0.172-0.166-0.447-0.161-0.614,0.01
		c-0.166,0.172-0.161,0.447,0.01,0.614l2.864,2.767v1.501c-3.344-0.165-6.239-2.295-7.362-5.432
		c1.827-1.858,2.956-4.395,2.956-7.189c0-0.699-0.072-1.381-0.206-2.04C36.7713,20.2612,38.5453,19.6542,40.3643,19.6542
		 M15.2063,46.9322c-0.24,0-0.434,0.194-0.434,0.434c0,0.24,0.194,0.434,0.434,0.434h33.852c0.24,0,0.434-0.194,0.434-0.434
		c0-0.24-0.194-0.434-0.434-0.434h-8.243v-10.053c4.823-0.235,8.677-4.191,8.677-9.035c0-4.995-4.094-9.058-9.128-9.058
		c-1.885,0-3.728,0.59-5.26,1.662c-1.281-4.249-5.255-7.355-9.948-7.355c-5.726,0-10.384,4.622-10.384,10.303
		c0,5.544,4.436,10.077,9.971,10.293v13.243H15.2063z"/>
</g>
<g display="none">
	<defs>
		<rect id="SVGID_13_" x="3.9879" y="4.124" width="56.029" height="56.029"/>
	</defs>
	<clipPath id="SVGID_14_" display="inline">
		<use xlink:href="#SVGID_13_"  overflow="visible"/>
	</clipPath>
	<path display="inline" clip-path="url(#SVGID_14_)" fill="#DD7240" d="M32.0023,60.151c15.472,0,28.014-12.543,28.014-28.014
		c0-15.472-12.542-28.015-28.014-28.015S3.9883,16.665,3.9883,32.137C3.9883,47.608,16.5303,60.151,32.0023,60.151"/>
	<path display="inline" clip-path="url(#SVGID_14_)" fill="#FFFFFF" d="M22.6698,33.2107c0.986,0.896,2.062,1.748,3.271,2.644
		c0.135,1.927,0.359,3.764,0.673,5.377c-0.941,0.358-1.838,0.627-2.734,0.851c-3.047,0.762-5.197,0.582-5.914-0.493
		C17.0248,40.1107,18.7718,36.8407,22.6698,33.2107 M20.8328,30.1637c0.135-0.179,0.18-0.403,0.18-0.672
		c0-0.717-0.583-1.299-1.3-1.299c-0.134,0-0.269,0.045-0.403,0.089c-1.434-2.016-1.882-3.674-1.299-4.615
		c0.716-1.075,2.867-1.254,5.914-0.493c0.851,0.224,1.748,0.493,2.689,0.852c-0.314,1.658-0.538,3.495-0.673,5.421
		c-1.165,0.852-2.24,1.748-3.226,2.644C21.9978,31.3737,21.3708,30.7467,20.8328,30.1637 M31.9458,15.8257
		c1.657,0,3.405,2.868,4.391,7.662c-1.389,0.538-2.823,1.21-4.302,2.016c-1.523-0.806-3.047-1.523-4.481-2.106
		C28.5848,18.6487,30.2878,15.8257,31.9458,15.8257 M43.4608,22.6367c1.344,0,2.24,0.313,2.644,0.985
		c0.582,0.941,0.134,2.599-1.3,4.616c-0.134-0.045-0.313-0.09-0.493-0.09c-0.717,0-1.299,0.582-1.299,1.299
		c0,0.269,0.09,0.538,0.224,0.717c-0.538,0.583-1.12,1.21-1.792,1.793c-1.031-0.941-2.196-1.882-3.451-2.778
		c-0.134-1.838-0.313-3.585-0.627-5.198C39.7868,23.1297,41.8928,22.6367,43.4608,22.6367 M46.1488,41.5897
		c-0.896,1.389-4.256,1.3-8.827-0.403c0.314-1.568,0.538-3.316,0.672-5.153c1.255-0.941,2.42-1.837,3.451-2.778
		C45.3428,36.8407,47.0898,40.1107,46.1488,41.5897 M28.7638,37.7817c0.807,0.492,1.568,0.985,2.375,1.433
		c-1.255,0.672-2.464,1.21-3.674,1.703c-0.269-1.344-0.448-2.823-0.583-4.391C27.4648,36.9297,28.0918,37.3777,28.7638,37.7817
		 M35.3508,37.7817c0.582-0.359,1.12-0.717,1.658-1.121c-0.135,1.479-0.314,2.913-0.538,4.167c-1.12-0.448-2.285-0.985-3.495-1.657
		C33.7828,38.7667,34.5438,38.2737,35.3508,37.7817 M38.0388,30.3877c0.986,0.762,1.927,1.479,2.734,2.241
		c-0.852,0.717-1.748,1.478-2.734,2.24c0.045-0.762,0.045-1.523,0.045-2.33C38.0838,31.7767,38.0838,31.0597,38.0388,30.3877
		 M32.9758,26.0417c1.21-0.627,2.42-1.21,3.54-1.658c0.224,1.3,0.403,2.689,0.538,4.212c-0.538-0.358-1.121-0.762-1.703-1.12
		C34.5438,26.9377,33.7828,26.4897,32.9758,26.0417 M26.8378,28.7297c0.134-1.613,0.313-3.046,0.537-4.391
		c1.21,0.493,2.465,1.076,3.719,1.703c-0.762,0.448-1.568,0.896-2.375,1.434C28.0918,27.8787,27.4648,28.2817,26.8378,28.7297
		 M25.8518,34.6897c-0.896-0.717-1.748-1.389-2.554-2.061c0.761-0.672,1.613-1.389,2.509-2.061
		c-0.045,0.627-0.045,1.299-0.045,1.971C25.8068,33.2557,25.8518,33.9727,25.8518,34.6897 M26.7028,32.4937
		c0-0.896,0.045-1.792,0.045-2.643c0.762-0.538,1.613-1.121,2.464-1.658c0.941-0.628,1.882-1.165,2.823-1.658
		c0.941,0.538,1.882,1.075,2.823,1.658c0.807,0.493,1.523,0.986,2.24,1.523c0.045,0.896,0.09,1.837,0.09,2.823
		c0,1.031-0.045,2.061-0.09,3.002c-0.717,0.493-1.433,0.986-2.24,1.524c-0.941,0.582-1.882,1.165-2.823,1.657
		c-0.896-0.492-1.837-1.075-2.823-1.657c-0.851-0.538-1.658-1.121-2.464-1.658C26.7478,34.4657,26.7028,33.4797,26.7028,32.4937
		 M35.4848,44.6817L35.4848,44.6817c-0.761,0-1.344,0.582-1.344,1.299c0,0.359,0.135,0.672,0.403,0.941
		c-0.806,1.479-1.702,2.285-2.554,2.285c-1.613,0-3.315-2.778-4.346-7.393c1.434-0.582,2.913-1.254,4.436-2.061
		c1.479,0.807,2.912,1.479,4.257,2.016C36.0678,42.7997,35.7988,43.8297,35.4848,44.6817 M17.2038,42.0827
		c0.583,0.896,1.747,1.389,3.405,1.389c0.986,0,2.151-0.179,3.45-0.493c0.852-0.224,1.748-0.493,2.689-0.851
		c1.075,4.839,2.957,7.975,5.153,7.975c1.254,0,2.375-1.03,3.36-2.778h0.135c0.717,0,1.299-0.582,1.299-1.299
		c0-0.403-0.179-0.762-0.448-0.986c0.314-0.896,0.583-1.882,0.851-2.957c2.42,0.896,4.616,1.389,6.318,1.389
		c1.613,0,2.823-0.448,3.406-1.344c1.344-2.061-0.673-5.691-4.705-9.499c0.672-0.628,1.299-1.255,1.837-1.882
		c0.134,0.045,0.269,0.045,0.358,0.045c0.717,0,1.3-0.583,1.3-1.3c0-0.224-0.045-0.448-0.18-0.627
		c1.658-2.33,2.241-4.391,1.434-5.691c-1.209-1.882-4.973-1.747-9.723,0c-1.075-4.973-3.002-8.244-5.242-8.244
		c-2.241,0-4.123,3.226-5.198,8.155c-0.896-0.314-1.792-0.628-2.644-0.807c-3.494-0.896-5.959-0.582-6.9,0.896
		c-0.851,1.3-0.269,3.316,1.344,5.646c-0.134,0.224-0.224,0.448-0.224,0.717c0,0.717,0.583,1.299,1.3,1.299
		c0.179,0,0.313-0.044,0.448-0.089c0.582,0.627,1.165,1.254,1.882,1.926C17.9658,36.4367,15.9488,40.0667,17.2038,42.0827"/>
	<path display="inline" clip-path="url(#SVGID_14_)" fill="#FFFFFF" d="M31.9454,30.9262c0.896,0,1.613,0.716,1.613,1.613
		c0,0.896-0.717,1.613-1.613,1.613c-0.896,0-1.613-0.717-1.613-1.613C30.3324,31.6422,31.0494,30.9262,31.9454,30.9262
		 M31.9454,35.0032c1.389,0,2.509-1.12,2.509-2.509s-1.12-2.509-2.509-2.509c-1.389,0-2.509,1.12-2.509,2.509
		S30.5564,35.0032,31.9454,35.0032"/>
</g>
<g display="none">
	<defs>
		<rect id="SVGID_15_" x="3.9879" y="4.123" width="56.029" height="56.029"/>
	</defs>
	<clipPath id="SVGID_16_" display="inline">
		<use xlink:href="#SVGID_15_"  overflow="visible"/>
	</clipPath>
	<path display="inline" clip-path="url(#SVGID_16_)" fill="#DD7240" d="M32.0023,60.152c15.472,0,28.014-12.543,28.014-28.016
		c0-15.47-12.542-28.013-28.014-28.013S3.9883,16.666,3.9883,32.136C3.9883,47.609,16.5303,60.152,32.0023,60.152"/>
	<path display="inline" clip-path="url(#SVGID_16_)" fill="#FFFFFF" d="M31.9065,50.2563c-10.105,0-18.326-8.22-18.326-18.325
		s8.221-18.325,18.326-18.325s18.325,8.22,18.325,18.325S42.0115,50.2563,31.9065,50.2563 M31.9065,12.6413
		c-10.636,0-19.29,8.654-19.29,19.29s8.654,19.29,19.29,19.29s19.29-8.654,19.29-19.29S42.5425,12.6413,31.9065,12.6413"/>
	<path display="inline" clip-path="url(#SVGID_16_)" fill="#FFFFFF" d="M33.0885,45.6642c-0.386,0.033-0.778,0.049-1.167,0.049
		c-0.36-0.007-0.741-0.014-1.109-0.042c-0.263-0.018-0.498,0.178-0.519,0.443c-0.02,0.265,0.178,0.498,0.444,0.518
		c0.393,0.031,0.78,0.063,1.185,0.046c0.415,0,0.835-0.018,1.248-0.053c0.266-0.023,0.462-0.256,0.439-0.522
		C33.5875,45.8382,33.3595,45.6352,33.0885,45.6642"/>
	<path display="inline" clip-path="url(#SVGID_16_)" fill="#FFFFFF" d="M45.498,29.634c0.125,0.744,0.189,1.507,0.191,2.268
		c0,0.266,0.216,0.481,0.482,0.481h0.001c0.266-0.001,0.482-0.217,0.481-0.483c-0.002-0.815-0.07-1.63-0.204-2.425
		c-0.044-0.263-0.294-0.44-0.555-0.396C45.631,29.123,45.454,29.372,45.498,29.634"/>
	<path display="inline" clip-path="url(#SVGID_16_)" fill="#FFFFFF" d="M44.2123,24.6966c-0.234,0.127-0.32,0.42-0.193,0.654
		c0.363,0.666,0.672,1.366,0.918,2.08c0.069,0.2,0.256,0.325,0.456,0.325c0.052,0,0.105-0.009,0.157-0.027
		c0.252-0.086,0.386-0.361,0.299-0.613c-0.264-0.764-0.594-1.513-0.983-2.226C44.7393,24.6556,44.4473,24.5686,44.2123,24.6966"/>
	<path display="inline" clip-path="url(#SVGID_16_)" fill="#FFFFFF" d="M46.0613,33.7718c-0.265-0.045-0.511,0.136-0.554,0.398
		c-0.122,0.748-0.307,1.49-0.551,2.207c-0.086,0.252,0.049,0.526,0.301,0.612c0.051,0.017,0.104,0.025,0.155,0.025
		c0.201,0,0.389-0.126,0.457-0.326c0.261-0.767,0.46-1.562,0.59-2.362C46.5023,34.0628,46.3243,33.8148,46.0613,33.7718"/>
	<path display="inline" clip-path="url(#SVGID_16_)" fill="#FFFFFF" d="M41.267,42.0473c-0.556,0.515-1.159,0.987-1.791,1.403
		c-0.222,0.146-0.284,0.445-0.137,0.668c0.092,0.141,0.246,0.217,0.403,0.217c0.091,0,0.183-0.026,0.265-0.08
		c0.676-0.444,1.321-0.95,1.916-1.501c0.195-0.18,0.207-0.486,0.025-0.681C41.767,41.8773,41.462,41.8653,41.267,42.0473"/>
	<path display="inline" clip-path="url(#SVGID_16_)" fill="#FFFFFF" d="M44.6997,38.2665c-0.235-0.128-0.527-0.039-0.653,0.195
		c-0.359,0.665-0.776,1.307-1.242,1.908c-0.163,0.21-0.124,0.513,0.086,0.676c0.088,0.068,0.192,0.101,0.295,0.101
		c0.144,0,0.287-0.064,0.381-0.187c0.498-0.642,0.945-1.328,1.328-2.04C45.0217,38.6855,44.9347,38.3925,44.6997,38.2665"/>
	<path display="inline" clip-path="url(#SVGID_16_)" fill="#FFFFFF" d="M37.4806,44.54c-0.694,0.307-1.417,0.557-2.15,0.745
		c-0.257,0.066-0.413,0.328-0.347,0.586c0.055,0.218,0.251,0.363,0.466,0.363c0.04,0,0.08-0.005,0.12-0.015
		c0.785-0.2,1.559-0.469,2.301-0.797c0.244-0.108,0.354-0.393,0.246-0.636C38.0086,44.542,37.7226,44.431,37.4806,44.54"/>
	<path display="inline" clip-path="url(#SVGID_16_)" fill="#FFFFFF" d="M28.5675,45.3062c-0.735-0.183-1.46-0.429-2.155-0.731
		c-0.245-0.108-0.528,0.006-0.634,0.249c-0.107,0.245,0.005,0.529,0.249,0.635c0.744,0.324,1.52,0.587,2.307,0.783
		c0.039,0.01,0.079,0.014,0.117,0.014c0.216,0,0.413-0.146,0.468-0.366C28.9835,45.6322,28.8265,45.3712,28.5675,45.3062"/>
	<path display="inline" clip-path="url(#SVGID_16_)" fill="#FFFFFF" d="M20.6452,23.6563c0.144,0,0.286-0.064,0.381-0.186
		c0.465-0.598,0.984-1.161,1.541-1.675c0.196-0.18,0.208-0.485,0.028-0.681c-0.181-0.196-0.485-0.208-0.682-0.028
		c-0.596,0.55-1.15,1.152-1.648,1.792c-0.163,0.21-0.126,0.513,0.084,0.676C20.4372,23.6233,20.5412,23.6563,20.6452,23.6563"/>
	<path display="inline" clip-path="url(#SVGID_16_)" fill="#FFFFFF" d="M19.8083,38.5382c-0.128-0.234-0.421-0.32-0.655-0.191
		c-0.233,0.127-0.319,0.421-0.191,0.654c0.389,0.71,0.839,1.393,1.341,2.031c0.095,0.122,0.236,0.185,0.379,0.185
		c0.104,0,0.209-0.034,0.297-0.103c0.21-0.165,0.247-0.468,0.082-0.677C20.5933,39.8412,20.1713,39.2022,19.8083,38.5382"/>
	<path display="inline" clip-path="url(#SVGID_16_)" fill="#FFFFFF" d="M18.2537,27.7583c0.052,0.017,0.105,0.026,0.156,0.026
		c0.201,0,0.388-0.126,0.457-0.326c0.245-0.716,0.553-1.418,0.914-2.084c0.127-0.234,0.04-0.527-0.194-0.654
		c-0.234-0.126-0.527-0.04-0.654,0.194c-0.387,0.714-0.716,1.465-0.979,2.231C17.8677,27.3973,18.0017,27.6713,18.2537,27.7583"/>
	<path display="inline" clip-path="url(#SVGID_16_)" fill="#FFFFFF" d="M18.1242,31.9921v-0.061c0-0.759,0.063-1.522,0.186-2.267
		c0.043-0.263-0.135-0.511-0.397-0.555c-0.269-0.046-0.511,0.135-0.555,0.397c-0.132,0.798-0.198,1.613-0.198,2.425v0.061
		c0,0.267,0.215,0.482,0.482,0.482C17.9082,32.4741,18.1242,32.2591,18.1242,31.9921"/>
	<path display="inline" clip-path="url(#SVGID_16_)" fill="#FFFFFF" d="M42.7707,23.4491c0.095,0.122,0.237,0.185,0.38,0.185
		c0.104,0,0.209-0.033,0.297-0.103c0.209-0.163,0.247-0.467,0.082-0.676c-0.5-0.64-1.056-1.241-1.651-1.788
		c-0.196-0.18-0.502-0.167-0.681,0.03c-0.181,0.196-0.168,0.501,0.029,0.681C41.7827,22.2891,42.3027,22.8511,42.7707,23.4491"/>
	<path display="inline" clip-path="url(#SVGID_16_)" fill="#FFFFFF" d="M24.0977,20.4751c0.09,0,0.182-0.025,0.264-0.079
		c0.634-0.415,1.306-0.78,1.998-1.085c0.244-0.108,0.355-0.392,0.247-0.636c-0.107-0.243-0.389-0.355-0.636-0.247
		c-0.74,0.327-1.46,0.717-2.138,1.161c-0.222,0.146-0.285,0.445-0.139,0.668C23.7867,20.3981,23.9407,20.4751,24.0977,20.4751"/>
	<path display="inline" clip-path="url(#SVGID_16_)" fill="#FFFFFF" d="M24.4085,43.4973c-0.636-0.413-1.241-0.881-1.8-1.392
		c-0.196-0.18-0.501-0.167-0.681,0.03c-0.18,0.196-0.167,0.501,0.03,0.681c0.597,0.547,1.245,1.048,1.925,1.49
		c0.082,0.053,0.173,0.078,0.263,0.078c0.158,0,0.312-0.077,0.405-0.22C24.6955,43.9413,24.6315,43.6423,24.4085,43.4973"/>
	<path display="inline" clip-path="url(#SVGID_16_)" fill="#FFFFFF" d="M33.0302,18.1943c0.757,0.061,1.513,0.185,2.244,0.369
		c0.04,0.01,0.079,0.015,0.118,0.015c0.216,0,0.412-0.146,0.467-0.365c0.065-0.258-0.091-0.52-0.349-0.585
		c-0.784-0.197-1.592-0.33-2.403-0.396c-0.265-0.019-0.498,0.177-0.519,0.443C32.5672,17.9403,32.7642,18.1723,33.0302,18.1943"/>
	<path display="inline" clip-path="url(#SVGID_16_)" fill="#FFFFFF" d="M37.4273,19.2996c0.693,0.304,1.367,0.668,2.002,1.082
		c0.081,0.053,0.172,0.078,0.263,0.078c0.157,0,0.312-0.076,0.404-0.218c0.146-0.223,0.083-0.522-0.14-0.667
		c-0.68-0.444-1.4-0.834-2.142-1.158c-0.246-0.109-0.529,0.004-0.635,0.248C37.0723,18.9086,37.1833,19.1926,37.4273,19.2996"/>
	<path display="inline" clip-path="url(#SVGID_16_)" fill="#FFFFFF" d="M18.8852,36.4599c-0.249-0.715-0.439-1.456-0.566-2.202
		c-0.044-0.263-0.293-0.437-0.556-0.395c-0.263,0.045-0.439,0.294-0.395,0.556c0.136,0.799,0.34,1.592,0.606,2.358
		c0.069,0.199,0.256,0.324,0.456,0.324c0.052,0,0.106-0.009,0.158-0.027C18.8402,36.9869,18.9732,36.7119,18.8852,36.4599"/>
	<path display="inline" clip-path="url(#SVGID_16_)" fill="#FFFFFF" d="M28.3913,18.5856c0.04,0,0.079-0.005,0.119-0.015
		c0.733-0.186,1.488-0.311,2.244-0.374c0.265-0.022,0.463-0.254,0.441-0.52c-0.022-0.265-0.257-0.458-0.52-0.441
		c-0.809,0.067-1.618,0.201-2.402,0.4c-0.258,0.066-0.415,0.328-0.349,0.586C27.9793,18.4396,28.1763,18.5856,28.3913,18.5856"/>
	<path display="inline" clip-path="url(#SVGID_16_)" fill="#FFFFFF" d="M24.1587,29.163h4.497c0.267,0,0.483-0.216,0.483-0.482
		v-4.497h5.536v4.497c0,0.266,0.216,0.482,0.482,0.482h4.497V34.7h-4.497c-0.266,0-0.482,0.215-0.482,0.482v4.497h-5.536v-4.497
		c0-0.267-0.216-0.482-0.483-0.482h-4.497V29.163z M23.6767,35.664h4.497v4.497c0,0.267,0.216,0.482,0.482,0.482h6.501
		c0.267,0,0.483-0.215,0.483-0.482v-4.497h4.497c0.266,0,0.482-0.216,0.482-0.482v-6.501c0-0.267-0.216-0.482-0.482-0.482h-4.497
		v-4.497c0-0.267-0.216-0.483-0.483-0.483h-6.501c-0.266,0-0.482,0.216-0.482,0.483v4.497h-4.497c-0.267,0-0.482,0.215-0.482,0.482
		v6.501C23.1947,35.448,23.4097,35.664,23.6767,35.664"/>
</g>
<g display="none">
	<defs>
		<rect id="SVGID_17_" x="3.9879" y="4.123" width="56.029" height="56.029"/>
	</defs>
	<clipPath id="SVGID_18_" display="inline">
		<use xlink:href="#SVGID_17_"  overflow="visible"/>
	</clipPath>
	<path display="inline" clip-path="url(#SVGID_18_)" fill="#DD7240" d="M32.0023,60.152c15.472,0,28.014-12.543,28.014-28.014
		c0-15.472-12.542-28.015-28.014-28.015S3.9883,16.666,3.9883,32.138C3.9883,47.609,16.5303,60.152,32.0023,60.152"/>
	<path display="inline" clip-path="url(#SVGID_18_)" fill="#FFFFFF" d="M25.3359,23.5354c0-0.638,0.519-1.158,1.158-1.158
		c0.638,0,1.158,0.52,1.158,1.158v3.243h-2.316V23.5354z M24.9149,27.6204h3.158c0.232,0,0.421-0.188,0.421-0.421v-3.664
		c0-1.103-0.897-2-2-2c-1.103,0-2,0.897-2,2v3.664C24.4939,27.4324,24.6829,27.6204,24.9149,27.6204"/>
	<path display="inline" clip-path="url(#SVGID_18_)" fill="#FFFFFF" d="M30.8445,23.5354c0-0.638,0.519-1.158,1.158-1.158
		c0.638,0,1.158,0.52,1.158,1.158v3.243h-2.316V23.5354z M30.4235,27.6204h3.158c0.232,0,0.421-0.188,0.421-0.421v-3.664
		c0-1.103-0.897-2-2-2c-1.103,0-2,0.897-2,2v3.664C30.0025,27.4324,30.1915,27.6204,30.4235,27.6204"/>
	<path display="inline" clip-path="url(#SVGID_18_)" fill="#FFFFFF" d="M36.353,23.5354c0-0.638,0.519-1.158,1.158-1.158
		c0.638,0,1.158,0.52,1.158,1.158v3.243h-2.316V23.5354z M35.932,27.6204h3.158c0.232,0,0.421-0.188,0.421-0.421v-3.664
		c0-1.103-0.897-2-2-2s-2,0.897-2,2v3.664C35.511,27.4324,35.7,27.6204,35.932,27.6204"/>
	<path display="inline" clip-path="url(#SVGID_18_)" fill="#FFFFFF" d="M42.8355,48.2256v-8.672
		c0.451,0.235,0.948,0.392,1.477,0.446v8.226H42.8355z M19.6925,39.9996c0.528-0.054,1.026-0.211,1.476-0.446v8.672h-1.476V39.9996z
		 M16.0035,35.9106c0-1.802,1.466-3.268,3.268-3.268s3.268,1.466,3.268,3.268c0,1.802-1.466,3.268-3.268,3.268
		S16.0035,37.7126,16.0035,35.9106 M22.0105,31.3846h2.133v2.525c0,0.524-0.38,0.958-0.878,1.048
		c-0.197-0.826-0.643-1.554-1.255-2.103V31.3846z M41.9935,30.5426h-19.983v-11.929h19.983V30.5426z M21.1955,16.2276h21.613v1.544
		h-21.613V16.2276z M40.7385,34.9576c-0.498-0.09-0.878-0.524-0.878-1.048v-2.525h2.133v1.47
		C41.3815,33.4036,40.9355,34.1316,40.7385,34.9576 M30.0935,33.9096c0,0.588-0.478,1.067-1.066,1.067s-1.067-0.479-1.067-1.067
		v-2.525h2.133V33.9096z M33.0685,33.9096c0,0.588-0.478,1.067-1.066,1.067c-0.588,0-1.067-0.479-1.067-1.067v-2.525h2.133V33.9096z
		 M36.0435,33.9096c0,0.588-0.478,1.067-1.066,1.067c-0.588,0-1.067-0.479-1.067-1.067v-2.525h2.133V33.9096z M39.0185,33.9096
		c0,0.588-0.478,1.067-1.066,1.067c-0.588,0-1.067-0.479-1.067-1.067v-2.525h2.133V33.9096z M27.1185,31.3846v2.525
		c0,0.588-0.478,1.067-1.066,1.067c-0.588,0-1.067-0.479-1.067-1.067v-2.525H27.1185z M41.9935,42.3316h-6.605v-2.193
		c0-1.867-1.519-3.386-3.386-3.386c-1.867,0-3.386,1.519-3.386,3.386v2.193h-6.606v-3.365c0.84-0.753,1.371-1.842,1.371-3.056
		c0-0.041-0.005-0.081-0.006-0.122c0.481-0.077,0.898-0.332,1.189-0.698c0.35,0.44,0.883,0.728,1.488,0.728
		c0.604,0,1.137-0.288,1.487-0.728c0.35,0.44,0.883,0.728,1.488,0.728c0.604,0,1.137-0.288,1.487-0.728
		c0.35,0.44,0.883,0.728,1.488,0.728c0.604,0,1.137-0.288,1.487-0.728c0.35,0.44,0.883,0.728,1.488,0.728
		c0.604,0,1.137-0.288,1.487-0.728c0.35,0.44,0.884,0.728,1.488,0.728s1.137-0.288,1.487-0.728c0.291,0.366,0.708,0.621,1.189,0.698
		c-0.001,0.041-0.006,0.081-0.006,0.122c0,1.214,0.532,2.303,1.371,3.056V42.3316z M35.3885,43.1736h6.606v5.052h-6.606V43.1736z
		 M34.5455,48.2256h-5.087v-8.087c0-1.403,1.141-2.544,2.544-2.544c1.402,0,2.543,1.141,2.543,2.544V48.2256z M22.0105,43.1736
		h6.606v5.052h-6.606V43.1736z M48.0015,35.9106c0,1.802-1.466,3.268-3.268,3.268c-1.803,0-3.269-1.466-3.269-3.268
		c0-1.802,1.466-3.268,3.269-3.268C46.5355,32.6426,48.0015,34.1086,48.0015,35.9106 M48.8435,35.9106c0-2.266-1.844-4.11-4.11-4.11
		c-0.685,0-1.329,0.17-1.898,0.467v-13.654h0.394c0.233,0,0.421-0.189,0.421-0.421v-2.386c0-0.233-0.188-0.421-0.421-0.421h-22.455
		c-0.232,0-0.421,0.188-0.421,0.421v2.386c0,0.232,0.189,0.421,0.421,0.421h0.394v13.654c-0.568-0.297-1.213-0.467-1.897-0.467
		c-2.267,0-4.11,1.844-4.11,4.11c0,2.124,1.62,3.877,3.689,4.089v8.226h-3.268c-0.233,0-0.421,0.188-0.421,0.421
		c0,0.233,0.188,0.421,0.421,0.421h32.84c0.232,0,0.421-0.188,0.421-0.421c0-0.233-0.189-0.421-0.421-0.421h-3.268v-8.226
		C47.2235,39.7876,48.8435,38.0346,48.8435,35.9106"/>
</g>
<g display="none">
	<defs>
		<rect id="SVGID_19_" x="3.9879" y="4.122" width="56.029" height="56.029"/>
	</defs>
	<clipPath id="SVGID_20_" display="inline">
		<use xlink:href="#SVGID_19_"  overflow="visible"/>
	</clipPath>
	<path display="inline" clip-path="url(#SVGID_20_)" fill="#DD7240" d="M32.0024,60.153c15.472,0,28.014-12.543,28.014-28.016
		c0-15.472-12.542-28.013-28.014-28.013S3.9884,16.665,3.9884,32.137C3.9884,47.61,16.5304,60.153,32.0024,60.153"/>
	<path display="inline" clip-path="url(#SVGID_20_)" fill="#FFFFFF" d="M16.6785,34.9079c4.305-2.479,11.471-6.778,12.832-7.618
		c0.285-0.176,0.417-0.417,0.416-0.758c-0.004-1.68-0.004-3.072-0.004-4.512l-0.001-3.27c-0.001-0.628,0.172-1.124,0.543-1.559
		c0.425-0.497,1.051-0.751,1.712-0.695c0.664,0.056,1.239,0.411,1.576,0.974c0.224,0.375,0.328,0.786,0.328,1.293v2.132
		c0,1.855,0,3.498-0.006,5.596c-0.001,0.368,0.142,0.629,0.457,0.825l12.795,7.585v1.966l-12.763-2.587
		c-0.119-0.025-0.242,0.007-0.336,0.083c-0.093,0.076-0.148,0.191-0.148,0.312v1.935c0.001,1.935,0.001,3.409-0.005,5.661
		c0,0.33,0.124,0.576,0.392,0.774c0.52,0.383,1.036,0.77,1.553,1.158c0.446,0.333,0.891,0.667,1.338,0.998
		c0.027,0.02,0.035,0.031,0.036,0.031c0.001,0.002,0.004,0.015,0.003,0.045c-0.007,0.451-0.006,0.903-0.005,1.355v0.346
		l-2.329-0.667c-0.92-0.264-1.84-0.529-2.763-0.785c-0.093-0.025-0.186-0.035-0.275-0.035c-0.159,0-0.301,0.031-0.389,0.056
		c-1.393,0.392-2.784,0.789-4.176,1.186l-0.85,0.243l0.001-0.306c0.002-0.452,0.003-0.903-0.007-1.355
		c-0.001-0.075,0.001-0.086,0.072-0.138c0.532-0.393,1.061-0.789,1.59-1.186c0.433-0.325,0.867-0.65,1.302-0.972
		c0.242-0.179,0.359-0.41,0.358-0.707c-0.003-2.132-0.004-3.584-0.004-5.368v-2.002c0-0.057-0.004-0.113-0.01-0.186l-0.008-0.103
		c-0.008-0.116-0.066-0.222-0.158-0.293c-0.092-0.07-0.21-0.098-0.325-0.075l-12.742,2.582V34.9079z M16.3555,37.7549l12.76-2.585
		v1.774c0,1.785,0,3.237,0.006,5.398c0,0-0.008,0.01-0.034,0.03c-0.436,0.323-0.87,0.649-1.305,0.974
		c-0.527,0.395-1.054,0.791-1.584,1.182c-0.281,0.206-0.408,0.462-0.4,0.806c0.009,0.444,0.008,0.889,0.006,1.333l-0.002,0.842
		c0,0.126,0.059,0.244,0.159,0.32c0.071,0.055,0.157,0.083,0.245,0.083c0.035,0,0.07-0.005,0.105-0.014l1.37-0.388
		c1.391-0.397,2.781-0.794,4.173-1.186c0.103-0.029,0.192-0.031,0.23-0.02c0.92,0.255,1.838,0.52,2.756,0.783l2.831,0.809
		c0.118,0.034,0.245,0.012,0.345-0.059c0.1-0.071,0.162-0.185,0.168-0.307l0.006-0.101c0.004-0.071,0.008-0.131,0.008-0.192v-0.607
		c-0.001-0.446-0.002-0.893,0.005-1.34c0.005-0.31-0.115-0.551-0.366-0.737c-0.446-0.33-0.89-0.663-1.334-0.996
		c-0.519-0.388-1.037-0.777-1.558-1.161c-0.064-0.047-0.064-0.053-0.064-0.123c0.006-2.253,0.005-3.728,0.005-5.663v-1.442
		l12.763,2.587c0.118,0.024,0.242-0.007,0.336-0.083c0.094-0.077,0.148-0.192,0.148-0.313v-2.688c0-0.143-0.075-0.274-0.198-0.347
		l-12.986-7.697c-0.068-0.043-0.068-0.043-0.068-0.134c0.005-2.099,0.005-3.742,0.005-5.598v-2.131c0-0.651-0.144-1.21-0.443-1.707
		c-0.471-0.79-1.273-1.286-2.199-1.364c-0.925-0.077-1.797,0.277-2.393,0.975c-0.497,0.581-0.738,1.263-0.737,2.083l0.001,3.269
		c0,1.441,0,2.833,0.004,4.513c0,0.029-0.002,0.044-0.001,0.048c-0.005,0.004-0.014,0.012-0.032,0.023
		c-1.38,0.852-8.739,5.267-13.012,7.721c-0.126,0.072-0.203,0.206-0.203,0.35v2.685c0,0.121,0.055,0.235,0.148,0.312
		C16.1135,37.7489,16.2365,37.7799,16.3555,37.7549"/>
</g>
</svg>
