<?xml version="1.0" encoding="utf-8"?>
<!-- Generator: Adobe Illustrator 24.0.3, SVG Export Plug-In . SVG Version: 6.00 Build 0)  -->
<svg version="1.1" id="Layer_1" xmlns="http://www.w3.org/2000/svg" xmlns:xlink="http://www.w3.org/1999/xlink" x="0px" y="0px"
	 width="64px" height="64px" viewBox="0 0 64 64" style="enable-background:new 0 0 64 64;" xml:space="preserve">
<style type="text/css">
	.st0{clip-path:url(#SVGID_2_);fill:#DD7240;}
	.st1{clip-path:url(#SVGID_4_);fill:#FFFFFF;}
	.st2{clip-path:url(#SVGID_6_);fill:#FFFFFF;}
	.st3{clip-path:url(#SVGID_8_);fill:#FFFFFF;}
	.st4{clip-path:url(#SVGID_10_);fill:#FFFFFF;}
	.st5{clip-path:url(#SVGID_12_);fill:#FFFFFF;}
	.st6{clip-path:url(#SVGID_14_);fill:#FFFFFF;}
	.st7{clip-path:url(#SVGID_16_);fill:#FFFFFF;}
	.st8{clip-path:url(#SVGID_18_);fill:#FFFFFF;}
	.st9{clip-path:url(#SVGID_20_);fill:#FFFFFF;}
	.st10{clip-path:url(#SVGID_22_);fill:#FFFFFF;}
	.st11{clip-path:url(#SVGID_24_);fill:#FFFFFF;}
	.st12{clip-path:url(#SVGID_26_);fill:#FFFFFF;}
	.st13{clip-path:url(#SVGID_28_);fill:#FFFFFF;}
	.st14{clip-path:url(#SVGID_30_);fill:#FFFFFF;}
	.st15{clip-path:url(#SVGID_32_);fill:#FFFFFF;}
	.st16{clip-path:url(#SVGID_34_);fill:#FFFFFF;}
	.st17{clip-path:url(#SVGID_36_);fill:#FFFFFF;}
	.st18{clip-path:url(#SVGID_38_);fill:#FFFFFF;}
	.st19{clip-path:url(#SVGID_40_);fill:#FFFFFF;}
	.st20{clip-path:url(#SVGID_42_);fill:#FFFFFF;}
	.st21{clip-path:url(#SVGID_44_);fill:#FFFFFF;}
</style>
<g>
	<g>
		<defs>
			<rect id="SVGID_1_" x="4" y="4.1" width="56" height="56"/>
		</defs>
		<clipPath id="SVGID_2_">
			<use xlink:href="#SVGID_1_"  style="overflow:visible;"/>
		</clipPath>
		<path class="st0" d="M32,60.2c15.5,0,28-12.5,28-28c0-15.5-12.5-28-28-28S4,16.7,4,32.1C4,47.6,16.5,60.2,32,60.2"/>
	</g>
	<g>
		<defs>
			<rect id="SVGID_3_" x="4" y="4.1" width="56" height="56"/>
		</defs>
		<clipPath id="SVGID_4_">
			<use xlink:href="#SVGID_3_"  style="overflow:visible;"/>
		</clipPath>
		<path class="st1" d="M31.9,50.3c-10.1,0-18.3-8.2-18.3-18.3s8.2-18.3,18.3-18.3s18.3,8.2,18.3,18.3S42,50.3,31.9,50.3 M31.9,12.6
			c-10.6,0-19.3,8.7-19.3,19.3s8.7,19.3,19.3,19.3s19.3-8.7,19.3-19.3S42.5,12.6,31.9,12.6"/>
	</g>
	<g>
		<defs>
			<rect id="SVGID_5_" x="4" y="4.1" width="56" height="56"/>
		</defs>
		<clipPath id="SVGID_6_">
			<use xlink:href="#SVGID_5_"  style="overflow:visible;"/>
		</clipPath>
		<path class="st2" d="M33.1,45.7c-0.4,0-0.8,0-1.2,0c-0.4,0-0.7,0-1.1,0c-0.3,0-0.5,0.2-0.5,0.4c0,0.3,0.2,0.5,0.4,0.5
			c0.4,0,0.8,0.1,1.2,0c0.4,0,0.8,0,1.2-0.1c0.3,0,0.5-0.3,0.4-0.5C33.6,45.8,33.4,45.6,33.1,45.7"/>
	</g>
	<g>
		<defs>
			<rect id="SVGID_7_" x="4" y="4.1" width="56" height="56"/>
		</defs>
		<clipPath id="SVGID_8_">
			<use xlink:href="#SVGID_7_"  style="overflow:visible;"/>
		</clipPath>
		<path class="st3" d="M45.5,29.6c0.1,0.7,0.2,1.5,0.2,2.3c0,0.3,0.2,0.5,0.5,0.5h0c0.3,0,0.5-0.2,0.5-0.5c0-0.8-0.1-1.6-0.2-2.4
			c0-0.3-0.3-0.4-0.6-0.4C45.6,29.1,45.5,29.4,45.5,29.6"/>
	</g>
	<g>
		<defs>
			<rect id="SVGID_9_" x="4" y="4.1" width="56" height="56"/>
		</defs>
		<clipPath id="SVGID_10_">
			<use xlink:href="#SVGID_9_"  style="overflow:visible;"/>
		</clipPath>
		<path class="st4" d="M44.2,24.7c-0.2,0.1-0.3,0.4-0.2,0.7c0.4,0.7,0.7,1.4,0.9,2.1c0.1,0.2,0.3,0.3,0.5,0.3c0.1,0,0.1,0,0.2,0
			c0.3-0.1,0.4-0.4,0.3-0.6c-0.3-0.8-0.6-1.5-1-2.2C44.7,24.7,44.4,24.6,44.2,24.7"/>
	</g>
	<g>
		<defs>
			<rect id="SVGID_11_" x="4" y="4.1" width="56" height="56"/>
		</defs>
		<clipPath id="SVGID_12_">
			<use xlink:href="#SVGID_11_"  style="overflow:visible;"/>
		</clipPath>
		<path class="st5" d="M46.1,33.8c-0.3,0-0.5,0.1-0.6,0.4c-0.1,0.7-0.3,1.5-0.6,2.2c-0.1,0.3,0,0.5,0.3,0.6c0.1,0,0.1,0,0.2,0
			c0.2,0,0.4-0.1,0.5-0.3c0.3-0.8,0.5-1.6,0.6-2.4C46.5,34.1,46.3,33.8,46.1,33.8"/>
	</g>
	<g>
		<defs>
			<rect id="SVGID_13_" x="4" y="4.1" width="56" height="56"/>
		</defs>
		<clipPath id="SVGID_14_">
			<use xlink:href="#SVGID_13_"  style="overflow:visible;"/>
		</clipPath>
		<path class="st6" d="M41.3,42c-0.6,0.5-1.2,1-1.8,1.4c-0.2,0.1-0.3,0.4-0.1,0.7c0.1,0.1,0.2,0.2,0.4,0.2c0.1,0,0.2,0,0.3-0.1
			c0.7-0.4,1.3-1,1.9-1.5c0.2-0.2,0.2-0.5,0-0.7C41.8,41.9,41.5,41.9,41.3,42"/>
	</g>
	<g>
		<defs>
			<rect id="SVGID_15_" x="4" y="4.1" width="56" height="56"/>
		</defs>
		<clipPath id="SVGID_16_">
			<use xlink:href="#SVGID_15_"  style="overflow:visible;"/>
		</clipPath>
		<path class="st7" d="M44.7,38.3c-0.2-0.1-0.5,0-0.7,0.2c-0.4,0.7-0.8,1.3-1.2,1.9c-0.2,0.2-0.1,0.5,0.1,0.7
			c0.1,0.1,0.2,0.1,0.3,0.1c0.1,0,0.3-0.1,0.4-0.2c0.5-0.6,0.9-1.3,1.3-2C45,38.7,44.9,38.4,44.7,38.3"/>
	</g>
	<g>
		<defs>
			<rect id="SVGID_17_" x="4" y="4.1" width="56" height="56"/>
		</defs>
		<clipPath id="SVGID_18_">
			<use xlink:href="#SVGID_17_"  style="overflow:visible;"/>
		</clipPath>
		<path class="st8" d="M37.5,44.5c-0.7,0.3-1.4,0.6-2.2,0.7c-0.3,0.1-0.4,0.3-0.3,0.6c0.1,0.2,0.3,0.4,0.5,0.4c0,0,0.1,0,0.1,0
			c0.8-0.2,1.6-0.5,2.3-0.8c0.2-0.1,0.4-0.4,0.2-0.6C38,44.5,37.7,44.4,37.5,44.5"/>
	</g>
	<g>
		<defs>
			<rect id="SVGID_19_" x="4" y="4.1" width="56" height="56"/>
		</defs>
		<clipPath id="SVGID_20_">
			<use xlink:href="#SVGID_19_"  style="overflow:visible;"/>
		</clipPath>
		<path class="st9" d="M28.6,45.3c-0.7-0.2-1.5-0.4-2.2-0.7c-0.2-0.1-0.5,0-0.6,0.2c-0.1,0.2,0,0.5,0.2,0.6c0.7,0.3,1.5,0.6,2.3,0.8
			c0,0,0.1,0,0.1,0c0.2,0,0.4-0.1,0.5-0.4C29,45.6,28.8,45.4,28.6,45.3"/>
	</g>
	<g>
		<defs>
			<rect id="SVGID_21_" x="4" y="4.1" width="56" height="56"/>
		</defs>
		<clipPath id="SVGID_22_">
			<use xlink:href="#SVGID_21_"  style="overflow:visible;"/>
		</clipPath>
		<path class="st10" d="M20.6,23.7c0.1,0,0.3-0.1,0.4-0.2c0.5-0.6,1-1.2,1.5-1.7c0.2-0.2,0.2-0.5,0-0.7c-0.2-0.2-0.5-0.2-0.7,0
			c-0.6,0.5-1.1,1.2-1.6,1.8c-0.2,0.2-0.1,0.5,0.1,0.7C20.4,23.6,20.5,23.7,20.6,23.7"/>
	</g>
	<g>
		<defs>
			<rect id="SVGID_23_" x="4" y="4.1" width="56" height="56"/>
		</defs>
		<clipPath id="SVGID_24_">
			<use xlink:href="#SVGID_23_"  style="overflow:visible;"/>
		</clipPath>
		<path class="st11" d="M19.8,38.5c-0.1-0.2-0.4-0.3-0.7-0.2c-0.2,0.1-0.3,0.4-0.2,0.7c0.4,0.7,0.8,1.4,1.3,2
			c0.1,0.1,0.2,0.2,0.4,0.2c0.1,0,0.2,0,0.3-0.1c0.2-0.2,0.2-0.5,0.1-0.7C20.6,39.8,20.2,39.2,19.8,38.5"/>
	</g>
	<g>
		<defs>
			<rect id="SVGID_25_" x="4" y="4.1" width="56" height="56"/>
		</defs>
		<clipPath id="SVGID_26_">
			<use xlink:href="#SVGID_25_"  style="overflow:visible;"/>
		</clipPath>
		<path class="st12" d="M18.3,27.8c0.1,0,0.1,0,0.2,0c0.2,0,0.4-0.1,0.5-0.3c0.2-0.7,0.6-1.4,0.9-2.1c0.1-0.2,0-0.5-0.2-0.7
			c-0.2-0.1-0.5,0-0.7,0.2c-0.4,0.7-0.7,1.5-1,2.2C17.9,27.4,18,27.7,18.3,27.8"/>
	</g>
	<g>
		<defs>
			<rect id="SVGID_27_" x="4" y="4.1" width="56" height="56"/>
		</defs>
		<clipPath id="SVGID_28_">
			<use xlink:href="#SVGID_27_"  style="overflow:visible;"/>
		</clipPath>
		<path class="st13" d="M18.1,32L18.1,32c0-0.8,0.1-1.6,0.2-2.3c0-0.3-0.1-0.5-0.4-0.6c-0.3,0-0.5,0.1-0.6,0.4
			c-0.1,0.8-0.2,1.6-0.2,2.4V32c0,0.3,0.2,0.5,0.5,0.5C17.9,32.5,18.1,32.3,18.1,32"/>
	</g>
	<g>
		<defs>
			<rect id="SVGID_29_" x="4" y="4.1" width="56" height="56"/>
		</defs>
		<clipPath id="SVGID_30_">
			<use xlink:href="#SVGID_29_"  style="overflow:visible;"/>
		</clipPath>
		<path class="st14" d="M42.8,23.4c0.1,0.1,0.2,0.2,0.4,0.2c0.1,0,0.2,0,0.3-0.1c0.2-0.2,0.2-0.5,0.1-0.7c-0.5-0.6-1.1-1.2-1.7-1.8
			c-0.2-0.2-0.5-0.2-0.7,0c-0.2,0.2-0.2,0.5,0,0.7C41.8,22.3,42.3,22.9,42.8,23.4"/>
	</g>
	<g>
		<defs>
			<rect id="SVGID_31_" x="4" y="4.1" width="56" height="56"/>
		</defs>
		<clipPath id="SVGID_32_">
			<use xlink:href="#SVGID_31_"  style="overflow:visible;"/>
		</clipPath>
		<path class="st15" d="M24.1,20.5c0.1,0,0.2,0,0.3-0.1c0.6-0.4,1.3-0.8,2-1.1c0.2-0.1,0.4-0.4,0.2-0.6c-0.1-0.2-0.4-0.4-0.6-0.2
			c-0.7,0.3-1.5,0.7-2.1,1.2c-0.2,0.1-0.3,0.4-0.1,0.7C23.8,20.4,23.9,20.5,24.1,20.5"/>
	</g>
	<g>
		<defs>
			<rect id="SVGID_33_" x="4" y="4.1" width="56" height="56"/>
		</defs>
		<clipPath id="SVGID_34_">
			<use xlink:href="#SVGID_33_"  style="overflow:visible;"/>
		</clipPath>
		<path class="st16" d="M24.4,43.5c-0.6-0.4-1.2-0.9-1.8-1.4c-0.2-0.2-0.5-0.2-0.7,0c-0.2,0.2-0.2,0.5,0,0.7c0.6,0.5,1.2,1,1.9,1.5
			c0.1,0.1,0.2,0.1,0.3,0.1c0.2,0,0.3-0.1,0.4-0.2C24.7,43.9,24.6,43.6,24.4,43.5"/>
	</g>
	<g>
		<defs>
			<rect id="SVGID_35_" x="4" y="4.1" width="56" height="56"/>
		</defs>
		<clipPath id="SVGID_36_">
			<use xlink:href="#SVGID_35_"  style="overflow:visible;"/>
		</clipPath>
		<path class="st17" d="M33,18.2c0.8,0.1,1.5,0.2,2.2,0.4c0,0,0.1,0,0.1,0c0.2,0,0.4-0.1,0.5-0.4c0.1-0.3-0.1-0.5-0.3-0.6
			c-0.8-0.2-1.6-0.3-2.4-0.4c-0.3,0-0.5,0.2-0.5,0.4C32.6,17.9,32.8,18.2,33,18.2"/>
	</g>
	<g>
		<defs>
			<rect id="SVGID_37_" x="4" y="4.1" width="56" height="56"/>
		</defs>
		<clipPath id="SVGID_38_">
			<use xlink:href="#SVGID_37_"  style="overflow:visible;"/>
		</clipPath>
		<path class="st18" d="M37.4,19.3c0.7,0.3,1.4,0.7,2,1.1c0.1,0.1,0.2,0.1,0.3,0.1c0.2,0,0.3-0.1,0.4-0.2c0.1-0.2,0.1-0.5-0.1-0.7
			c-0.7-0.4-1.4-0.8-2.1-1.2c-0.2-0.1-0.5,0-0.6,0.2C37.1,18.9,37.2,19.2,37.4,19.3"/>
	</g>
	<g>
		<defs>
			<rect id="SVGID_39_" x="4" y="4.1" width="56" height="56"/>
		</defs>
		<clipPath id="SVGID_40_">
			<use xlink:href="#SVGID_39_"  style="overflow:visible;"/>
		</clipPath>
		<path class="st19" d="M18.9,36.5c-0.2-0.7-0.4-1.5-0.6-2.2c0-0.3-0.3-0.4-0.6-0.4c-0.3,0-0.4,0.3-0.4,0.6c0.1,0.8,0.3,1.6,0.6,2.4
			c0.1,0.2,0.3,0.3,0.5,0.3c0.1,0,0.1,0,0.2,0C18.8,37,19,36.7,18.9,36.5"/>
	</g>
	<g>
		<defs>
			<rect id="SVGID_41_" x="4" y="4.1" width="56" height="56"/>
		</defs>
		<clipPath id="SVGID_42_">
			<use xlink:href="#SVGID_41_"  style="overflow:visible;"/>
		</clipPath>
		<path class="st20" d="M28.4,18.6c0,0,0.1,0,0.1,0c0.7-0.2,1.5-0.3,2.2-0.4c0.3,0,0.5-0.3,0.4-0.5c0-0.3-0.3-0.5-0.5-0.4
			c-0.8,0.1-1.6,0.2-2.4,0.4c-0.3,0.1-0.4,0.3-0.3,0.6C28,18.4,28.2,18.6,28.4,18.6"/>
	</g>
	<g>
		<defs>
			<rect id="SVGID_43_" x="4" y="4.1" width="56" height="56"/>
		</defs>
		<clipPath id="SVGID_44_">
			<use xlink:href="#SVGID_43_"  style="overflow:visible;"/>
		</clipPath>
		<path class="st21" d="M24.2,29.2h4.5c0.3,0,0.5-0.2,0.5-0.5v-4.5h5.5v4.5c0,0.3,0.2,0.5,0.5,0.5h4.5v5.5h-4.5
			c-0.3,0-0.5,0.2-0.5,0.5v4.5h-5.5v-4.5c0-0.3-0.2-0.5-0.5-0.5h-4.5C24.2,34.7,24.2,29.2,24.2,29.2z M23.7,35.7h4.5v4.5
			c0,0.3,0.2,0.5,0.5,0.5h6.5c0.3,0,0.5-0.2,0.5-0.5v-4.5h4.5c0.3,0,0.5-0.2,0.5-0.5v-6.5c0-0.3-0.2-0.5-0.5-0.5h-4.5v-4.5
			c0-0.3-0.2-0.5-0.5-0.5h-6.5c-0.3,0-0.5,0.2-0.5,0.5v4.5h-4.5c-0.3,0-0.5,0.2-0.5,0.5v6.5C23.2,35.4,23.4,35.7,23.7,35.7"/>
	</g>
</g>
</svg>
