<?xml version="1.0" encoding="utf-8"?>
<!-- Generator: Adobe Illustrator 24.0.3, SVG Export Plug-In . SVG Version: 6.00 Build 0)  -->
<svg version="1.1" id="Layer_1" xmlns="http://www.w3.org/2000/svg" xmlns:xlink="http://www.w3.org/1999/xlink" x="0px" y="0px"
	 width="122px" height="46px" viewBox="0 0 122 46" enable-background="new 0 0 122 46" xml:space="preserve">
<polygon fill="#DD7240" points="120.8306,2 1.6923,2 1.6923,30.1038 50.0002,30.1038 61.2617,41.3649 72.5228,30.1038 
	120.8306,30.1038 "/>
<polygon fill="#FFFFFF" points="7.2108,8.3441 7.2108,17.0944 14.5934,17.0944 14.5934,13.4716 12.9774,13.4716 12.9774,15.5615 
	8.8273,15.5615 8.8273,8.3441 "/>
<path fill="#FFFFFF" d="M19.9964,8.1631c2.6194,0,4.6956,1.9926,4.6956,4.5559c0,2.5642-2.0762,4.5564-4.6956,4.5564
	s-4.6956-1.9922-4.6956-4.5564C15.3008,10.1557,17.377,8.1631,19.9964,8.1631 M19.9964,15.7429
	c1.5745,0,2.9956-1.3239,2.9956-3.0239c0-1.6996-1.4211-3.0234-2.9956-3.0234c-1.5745,0-2.9956,1.3239-2.9956,3.0234
	C17.0008,14.419,18.4219,15.7429,19.9964,15.7429"/>
<path fill="#FFFFFF" d="M29.9193,8.1631c2.6194,0,4.6956,1.9926,4.6956,4.5559c0,2.5642-2.0762,4.5564-4.6956,4.5564
	s-4.6956-1.9922-4.6956-4.5564C25.2237,10.1557,27.2999,8.1631,29.9193,8.1631 M29.9193,15.7429
	c1.5745,0,2.9956-1.3239,2.9956-3.0239c0-1.6996-1.4211-3.0234-2.9956-3.0234c-1.5745,0-2.9956,1.3239-2.9956,3.0234
	C26.9237,14.419,28.3448,15.7429,29.9193,15.7429"/>
<polygon fill="#FFFFFF" points="36.6037,13.3742 35.3848,13.3742 35.3848,11.8413 36.6037,11.8413 36.6037,8.3444 38.2202,8.3444 
	38.2202,11.8413 38.8191,11.8413 41.759,8.3444 43.7795,8.3444 40.4073,12.2037 43.9046,17.0943 41.8426,17.0943 39.293,13.3742 
	38.2202,13.3742 38.2202,17.0943 36.6037,17.0943 "/>
<rect x="45.3268" y="8.3441" fill="#FFFFFF" width="1.6165" height="8.7498"/>
<polygon fill="#FFFFFF" points="50.4146,11.73 50.4146,17.0944 48.7981,17.0944 48.7981,8.1629 54.441,13.7085 54.441,8.3441 
	56.0575,8.3441 56.0575,17.2756 "/>
<path fill="#FFFFFF" d="M62.1747,8.1629c1.3932,0,2.7587,0.5715,3.7342,1.7977l-1.338,1.0029
	c-0.5569-0.808-1.407-1.2677-2.3962-1.2677c-1.5745,0-2.9956,1.3234-2.9956,3.0234s1.4211,3.0234,2.9956,3.0234
	c1.4489,0,2.6194-0.8779,2.9677-2.3684h-2.9819v-1.5329h4.7098v1.1568c0,1.4348-1.296,4.277-4.6956,4.277
	c-2.6194,0-4.6952-1.9922-4.6952-4.5559S59.5552,8.1629,62.1747,8.1629"/>
<path fill="#FFFFFF" d="M76.024,8.1629c1.3937,0,2.7591,0.5715,3.7342,1.7977l-1.3376,1.0029
	c-0.5574-0.808-1.4074-1.2677-2.3967-1.2677c-1.5745,0-2.9956,1.3234-2.9956,3.0234s1.4211,3.0234,2.9956,3.0234
	c1.4489,0,2.6199-0.8779,2.9682-2.3684h-2.9819v-1.5329h4.7093v1.1568c0,1.4348-1.2956,4.277-4.6956,4.277
	c-2.6194,0-4.6952-1.9922-4.6952-4.5559S73.4046,8.1629,76.024,8.1629"/>
<polygon fill="#FFFFFF" points="81.919,8.3443 83.5355,8.3443 83.5355,15.5616 87.6851,15.5616 87.6851,13.4718 89.3016,13.4718 
	89.3016,17.0941 81.919,17.0941 "/>
<path fill="#FFFFFF" d="M93.5514,9.7936h-2.0059V8.3442h3.6224l3.7064,8.7503h-1.7416l-0.6688-1.6443h-3.7064l-0.6688,1.6443
	h-1.7279L93.5514,9.7936z M95.8923,14.0012l-1.2677-3.1348l-1.2819,3.1348H95.8923z"/>
<path fill="#FFFFFF" d="M100.7418,14.5584c0.6551,0.6966,1.5745,1.1846,2.5916,1.1846c1.2262-0.0142,2.0899-0.4743,2.0899-1.3102
	c0-1.9506-5.6429-0.0694-5.6429-3.6365c0-1.5603,1.6302-2.6336,3.6228-2.6336c1.449,0,2.6194,0.4602,3.4831,1.338l-1.1983,1.0728
	c-0.7943-0.7802-1.5188-1.0449-2.3684-1.0449c-1.338,0-1.8397,0.6551-1.8397,1.1842c0,1.9643,5.6433,0,5.6433,3.6365
	c0,1.8256-1.853,2.9262-3.8598,2.9262c-1.2262,0-2.6473-0.4597-3.7479-1.6165L100.7418,14.5584z"/>
<path fill="#FFFFFF" d="M109.2154,14.5584c0.6546,0.6966,1.5745,1.1846,2.5916,1.1846c1.2262-0.0142,2.0899-0.4743,2.0899-1.3102
	c0-1.9506-5.6429-0.0694-5.6429-3.6365c0-1.5603,1.6302-2.6336,3.6224-2.6336c1.4494,0,2.6199,0.4602,3.4836,1.338l-1.1983,1.0728
	c-0.7943-0.7802-1.5188-1.0449-2.3683-1.0449c-1.338,0-1.8397,0.6551-1.8397,1.1842c0,1.9643,5.6433,0,5.6433,3.6365
	c0,1.8256-1.853,2.9262-3.8597,2.9262c-1.2262,0-2.6473-0.4597-3.7479-1.6165L109.2154,14.5584z"/>
<path fill="#FFFFFF" d="M46.3626,21.7381h1.1079c0.6583,0,1.0678,0.373,1.0678,0.939v0.0078c0,0.6304-0.5058,0.9596-1.1239,0.9596
	h-0.5578v0.903h-0.4939V21.7381z M47.4303,23.1989c0.3734,0,0.6062-0.2086,0.6062-0.5017V22.689
	c0-0.3291-0.2369-0.5017-0.6062-0.5017h-0.5738v1.0116H47.4303z"/>
<path fill="#FFFFFF" d="M50.5613,21.7178h0.4579l1.2362,2.8299h-0.5218l-0.2849-0.6784h-1.3289l-0.289,0.6784h-0.5058
	L50.5613,21.7178z M51.268,23.4315l-0.4857-1.1235l-0.4816,1.1235H51.268z"/>
<path fill="#FFFFFF" d="M53.5403,21.7379h1.2522c0.3533,0,0.6304,0.1041,0.8108,0.2808c0.1488,0.1525,0.2328,0.3616,0.2328,0.6062
	v0.0082c0,0.4615-0.2766,0.7386-0.666,0.8509l0.7587,1.0637h-0.5862l-0.6907-0.9797h-0.6181v0.9797h-0.4935V21.7379z
	 M54.7565,23.1307c0.3533,0,0.5779-0.1844,0.5779-0.4697v-0.0078c0-0.3013-0.2168-0.4656-0.582-0.4656h-0.7185v0.9431H54.7565z"/>
<polygon fill="#FFFFFF" points="57.2453,21.7379 57.7393,21.7379 57.7393,23.1508 59.0759,21.7379 59.6858,21.7379 58.514,22.9458 
	59.7383,24.5473 59.1362,24.5473 58.1766,23.2832 57.7393,23.7329 57.7393,24.5473 57.2453,24.5473 "/>
<polygon fill="#FFFFFF" points="60.9626,21.7379 63.0456,21.7379 63.0456,22.1794 61.4565,22.1794 61.4565,22.9098 62.8653,22.9098 
	62.8653,23.3512 61.4565,23.3512 61.4565,24.1063 63.0657,24.1063 63.0657,24.5473 60.9626,24.5473 "/>
<path fill="#FFFFFF" d="M64.4552,21.7379h1.2522c0.3529,0,0.63,0.1041,0.8108,0.2808c0.1484,0.1525,0.2328,0.3616,0.2328,0.6062
	v0.0082c0,0.4615-0.2771,0.7386-0.666,0.8509l0.7583,1.0637h-0.5862l-0.6902-0.9797h-0.6181v0.9797h-0.4935V21.7379z
	 M65.6714,23.1307c0.3533,0,0.5779-0.1844,0.5779-0.4697v-0.0078c0-0.3013-0.2168-0.4656-0.582-0.4656h-0.7185v0.9431H65.6714z"/>
<path fill="#FFFFFF" d="M68.8965,23.0813v-0.0055c0-0.2214,0.184-0.3999,0.4017-0.3999c0.2155,0,0.3994,0.1785,0.3994,0.3999v0.0055
	c0,0.2209-0.1812,0.3962-0.3994,0.3962C69.0778,23.4776,68.8965,23.3023,68.8965,23.0813"/>
<path fill="#FFFFFF" d="M71.3634,23.1507v-0.0082c0-0.7989,0.598-1.4531,1.4489-1.4531c0.5177,0,0.8308,0.1808,1.0997,0.4378
	l-0.3168,0.3652c-0.2251-0.2086-0.4656-0.3492-0.787-0.3492c-0.5337,0-0.9272,0.4414-0.9272,0.9915v0.0078
	c0,0.5501,0.3894,0.9956,0.9272,0.9956c0.3451,0,0.5665-0.1365,0.8071-0.3616l0.3168,0.3214
	c-0.2926,0.3054-0.614,0.4976-1.1394,0.4976C71.9738,24.5956,71.3634,23.9578,71.3634,23.1507"/>
<path fill="#FFFFFF" d="M75.0486,23.1507v-0.0082c0-0.7907,0.6099-1.4531,1.4731-1.4531c0.8628,0,1.4649,0.6542,1.4649,1.4453
	v0.0078c0,0.7907-0.6099,1.4531-1.4727,1.4531C75.6507,24.5956,75.0486,23.9414,75.0486,23.1507 M77.469,23.1507v-0.0082
	c0-0.546-0.3976-0.9993-0.955-0.9993c-0.5583,0-0.9477,0.4455-0.9477,0.9915v0.0078c0,0.546,0.3972,0.9956,0.9555,0.9956
	C77.0796,24.1381,77.469,23.6962,77.469,23.1507"/>
</svg>
