<?xml version="1.0" encoding="UTF-8"?>
<svg width="251px" height="59px" viewBox="0 0 251 59" version="1.1" xmlns="http://www.w3.org/2000/svg" xmlns:xlink="http://www.w3.org/1999/xlink">
    <title>lgPos-logo</title>
    <g id="Page-1" stroke="none" stroke-width="1" fill="none" fill-rule="evenodd">
        <g id="lgPos-logo" transform="translate(0.692300, 0.000000)" fill-rule="nonzero">
            <polygon id="Path" fill="#E68050" points="250 0 0 0 0 58.973059 101.369375 58.973059 124.8077 59 148.630835 58.973059 250 58.973059"></polygon>
            <polygon id="Path" fill="#FFFFFF" points="11.5800293 13.3124696 11.5800293 31.6741132 27.071689 31.6741132 27.071689 24.0720239 23.680672 24.0720239 23.680672 28.4574734 14.9720955 28.4574734 14.9720955 13.3124696"></polygon>
            <path d="M38.4093528,12.9326589 C43.905906,12.9326589 48.2626074,17.113934 48.2626074,22.4927668 C48.2626074,27.8734882 43.905906,32.0539239 38.4093528,32.0539239 C32.9127997,32.0539239 28.5560982,27.8734882 28.5560982,22.4927668 C28.5560982,17.113934 32.9127997,12.9326589 38.4093528,12.9326589 M38.4093528,28.8381234 C41.7132862,28.8381234 44.6953247,26.0600495 44.6953247,22.4927668 C44.6953247,18.9263234 41.7132862,16.1484594 38.4093528,16.1484594 C35.1054195,16.1484594 32.123381,18.9265333 32.123381,22.4927668 C32.123381,26.0600495 35.1054195,28.8381234 38.4093528,28.8381234" id="Shape" fill="#FFFFFF"></path>
            <path d="M59.2315821,12.9326589 C64.7281353,12.9326589 69.0848367,17.113934 69.0848367,22.4927668 C69.0848367,27.8734882 64.7281353,32.0539239 59.2315821,32.0539239 C53.735029,32.0539239 49.3783275,27.8734882 49.3783275,22.4927668 C49.3783275,17.113934 53.735029,12.9326589 59.2315821,12.9326589 M59.2315821,28.8381234 C62.5355154,28.8381234 65.517554,26.0600495 65.517554,22.4927668 C65.517554,18.9263234 62.5355154,16.1484594 59.2315821,16.1484594 C55.9276488,16.1484594 52.9456103,18.9265333 52.9456103,22.4927668 C52.9456103,26.0600495 55.9276488,28.8381234 59.2315821,28.8381234" id="Shape" fill="#FFFFFF"></path>
            <polygon id="Path" fill="#FFFFFF" points="73.2581378 23.8676395 70.7003961 23.8676395 70.7003961 20.6509997 73.2581378 20.6509997 73.2581378 13.3130991 76.650204 13.3130991 76.650204 20.6509997 77.9069367 20.6509997 84.0760276 13.3130991 88.3158481 13.3130991 81.2396182 21.4114605 88.5783581 31.6739034 84.251454 31.6739034 78.9013692 23.8676395 76.650204 23.8676395 76.650204 31.6739034 73.2581378 31.6739034"></polygon>
            <rect id="Rectangle" fill="#FFFFFF" x="91.5627049" y="13.3124696" width="3.3920662" height="18.3605944"></rect>
            <polygon id="Path" fill="#FFFFFF" points="102.238953 20.4174476 102.238953 31.6741132 98.8468863 31.6741132 98.8468863 12.9322393 110.687957 24.5691352 110.687957 13.3124696 114.080023 13.3124696 114.080023 32.0543436"></polygon>
            <path d="M126.916365,12.9322393 C129.839858,12.9322393 132.705226,14.1314758 134.752217,16.7045358 L131.944555,18.8090228 C130.775955,17.1135143 128.992104,16.1488791 126.916365,16.1488791 C123.612432,16.1488791 120.630393,18.9259038 120.630393,22.4931865 C120.630393,26.0604692 123.612432,28.8374939 126.916365,28.8374939 C129.956739,28.8374939 132.412918,26.9953071 133.143792,23.8676395 L126.886568,23.8676395 L126.886568,20.6509997 L136.76962,20.6509997 L136.76962,23.0784307 C136.76962,26.0892173 134.050091,32.0532944 126.916365,32.0532944 C121.419812,32.0532944 117.06395,27.8728587 117.06395,22.4931865 C117.06395,17.1135143 121.419602,12.9322393 126.916365,12.9322393" id="Path" fill="#FFFFFF"></path>
            <path d="M155.977759,12.9322393 C158.902301,12.9322393 161.767458,14.1314758 163.81361,16.7045358 L161.006788,18.8090228 C159.837139,17.1135143 158.053497,16.1488791 155.977549,16.1488791 C152.673615,16.1488791 149.691577,18.9259038 149.691577,22.4931865 C149.691577,26.0604692 152.673615,28.8374939 155.977549,28.8374939 C159.017923,28.8374939 161.475151,26.9953071 162.206024,23.8676395 L155.948801,23.8676395 L155.948801,20.6509997 L165.830803,20.6509997 L165.830803,23.0784307 C165.830803,26.0892173 163.112114,32.0532944 155.977549,32.0532944 C150.480996,32.0532944 146.125134,27.8728587 146.125134,22.4931865 C146.125134,17.1135143 150.481205,12.9322393 155.977759,12.9322393" id="Path" fill="#FFFFFF"></path>
            <polygon id="Path" fill="#FFFFFF" points="168.347836 13.3128893 171.739902 13.3128893 171.739902 28.4576832 180.44743 28.4576832 180.44743 24.0724435 183.839496 24.0724435 183.839496 31.6734837 168.347836 31.6734837"></polygon>
            <path d="M192.757283,16.3541028 L188.548099,16.3541028 L188.548099,13.3126795 L196.149349,13.3126795 L203.926865,31.674323 L200.272289,31.674323 L198.868878,28.2239213 L191.091362,28.2239213 L189.687951,31.674323 L186.062123,31.674323 L192.757283,16.3541028 Z M197.669431,25.1833373 L195.009288,18.605268 L192.319347,25.1833373 L197.669431,25.1833373 Z" id="Shape" fill="#FFFFFF"></path>
            <path d="M207.84563,26.3525667 C209.220293,27.8143133 211.149563,28.8383333 213.283847,28.8383333 C215.856907,28.808536 217.669297,27.8430614 217.669297,26.0890075 C217.669297,21.9958653 205.828227,25.9433784 205.828227,18.45817 C205.828227,15.184034 209.249041,12.9318196 213.430316,12.9318196 C216.4709,12.9318196 218.926869,13.897504 220.739258,15.7394809 L218.224744,17.9906462 C216.557983,16.3534732 215.037691,15.7980263 213.254889,15.7980263 C210.447228,15.7980263 209.39446,17.1726892 209.39446,18.2829535 C209.39446,22.4048438 221.23637,18.2829535 221.23637,25.9137909 C221.23637,29.7446329 217.348032,32.0541337 213.136959,32.0541337 C210.563899,32.0541337 207.581861,31.0894985 205.27236,28.6620675 L207.84563,26.3525667 Z" id="Path" fill="#FFFFFF"></path>
            <path d="M225.626646,26.3525667 C227.000259,27.8143133 228.930579,28.8383333 231.064863,28.8383333 C233.637923,28.808536 235.450313,27.8430614 235.450313,26.0890075 C235.450313,21.9958653 223.609242,25.9433784 223.609242,18.45817 C223.609242,15.184034 227.030057,12.9318196 231.210492,12.9318196 C234.251916,12.9318196 236.708095,13.897504 238.520484,15.7394809 L236.00597,17.9906462 C234.339209,16.3534732 232.818917,15.7980263 231.036325,15.7980263 C228.228664,15.7980263 227.175896,17.1726892 227.175896,18.2829535 C227.175896,22.4048438 239.017805,18.2829535 239.017805,25.9137909 C239.017805,29.7446329 235.129467,32.0541337 230.918605,32.0541337 C228.345545,32.0541337 225.363506,31.0894985 223.054005,28.6620675 L225.626646,26.3525667 Z" id="Path" fill="#FFFFFF"></path>
            <path d="M93.7362292,41.4184607 L96.0610484,41.4184607 C97.4424262,41.4184607 98.3017216,42.2011645 98.3017216,43.3888598 L98.3017216,43.4052274 C98.3017216,44.7280597 97.2403501,45.4188536 95.943328,45.4188536 L94.7728396,45.4188536 L94.7728396,47.3137102 L93.7364391,47.3137102 L93.7364391,41.4184607 L93.7362292,41.4184607 Z M95.9766926,44.4838058 C96.7602358,44.4838058 97.2487437,44.0460792 97.2487437,43.4310377 L97.2487437,43.4138308 C97.2487437,42.7232468 96.7516323,42.3610627 95.9766926,42.3610627 L94.7726298,42.3610627 L94.7726298,44.4838058 L95.9766926,44.4838058 L95.9766926,44.4838058 Z" id="Shape" fill="#FFFFFF"></path>
            <path d="M102.546788,41.3758632 L103.507646,41.3758632 L106.10169,47.3141299 L105.006744,47.3141299 L104.40891,45.8905742 L101.620344,45.8905742 L101.013906,47.3141299 L99.9525342,47.3141299 L102.546788,41.3758632 Z M104.029728,44.971894 L103.010535,42.6143398 L101.999945,44.971894 L104.029728,44.971894 Z" id="Shape" fill="#FFFFFF"></path>
            <path d="M108.797926,41.418041 L111.425545,41.418041 C112.16691,41.418041 112.748377,41.6364847 113.126929,42.0072722 C113.439171,42.3272785 113.615437,42.7660542 113.615437,43.2793233 L113.615437,43.2965302 C113.615437,44.2649425 113.035019,44.8464096 112.217901,45.0820601 L113.809959,47.3141299 L112.579876,47.3141299 L111.13051,45.2583258 L109.833488,45.2583258 L109.833488,47.3141299 L108.797926,47.3141299 L108.797926,41.418041 L108.797926,41.418041 Z M111.350002,44.3406948 C112.091368,44.3406948 112.562669,43.9537495 112.562669,43.3550756 L112.562669,43.338708 C112.562669,42.7064596 112.107735,42.3616923 111.341399,42.3616923 L109.833697,42.3616923 L109.833697,44.3406948 L111.350002,44.3406948 L111.350002,44.3406948 Z" id="Shape" fill="#FFFFFF"></path>
            <polygon id="Path" fill="#FFFFFF" points="116.572504 41.418041 117.609115 41.418041 117.609115 44.3828727 120.413838 41.418041 121.693654 41.418041 119.234747 43.9527003 121.80382 47.3132905 120.540372 47.3132905 118.526746 44.6607011 117.609115 45.6043523 117.609115 47.3132905 116.572504 47.3132905"></polygon>
            <polygon id="Path" fill="#FFFFFF" points="124.372893 41.418041 128.743863 41.418041 128.743863 42.3444854 125.409293 42.3444854 125.409293 43.8771579 128.365521 43.8771579 128.365521 44.8033924 125.409293 44.8033924 125.409293 46.3878954 128.786041 46.3878954 128.786041 47.3132905 124.372893 47.3132905"></polygon>
            <path d="M131.70177,41.418041 L134.329389,41.418041 C135.069915,41.418041 135.651382,41.6364847 136.030773,42.0072722 C136.342175,42.3272785 136.519281,42.7660542 136.519281,43.2793233 L136.519281,43.2965302 C136.519281,44.2649425 135.937813,44.8464096 135.121745,45.0820601 L136.712963,47.3141299 L135.48288,47.3141299 L134.034563,45.2583258 L132.737541,45.2583258 L132.737541,47.3141299 L131.70198,47.3141299 L131.70198,41.418041 L131.70177,41.418041 Z M134.253846,44.3406948 C134.995211,44.3406948 135.466512,43.9537495 135.466512,43.3550756 L135.466512,43.338708 C135.466512,42.7064596 135.011579,42.3616923 134.245243,42.3616923 L132.737541,42.3616923 L132.737541,44.3406948 L134.253846,44.3406948 L134.253846,44.3406948 Z" id="Shape" fill="#FFFFFF"></path>
            <path d="M141.021401,44.2370338 L141.021401,44.2254926 C141.021401,43.7609064 141.407507,43.3863418 141.864329,43.3863418 C142.316535,43.3863418 142.702431,43.7609064 142.702431,44.2254926 L142.702431,44.2370338 C142.702431,44.7005707 142.3222,45.0684205 141.864329,45.0684205 C141.401841,45.0686303 141.021401,44.7007805 141.021401,44.2370338" id="Path" fill="#FFFFFF"></path>
            <path d="M146.197948,44.3826628 L146.197948,44.3654559 C146.197948,42.6890429 147.452792,41.3162686 149.238322,41.3162686 C150.324665,41.3162686 150.981674,41.6956596 151.545934,42.2349488 L150.881161,43.0012851 C150.408811,42.5635585 149.904145,42.2685232 149.229719,42.2685232 C148.109802,42.2685232 147.284081,43.1947577 147.284081,44.3490884 L147.284081,44.3654559 C147.284081,45.5197867 148.101198,46.4546246 149.229719,46.4546246 C149.953877,46.4546246 150.418463,46.1681928 150.923339,45.6958426 L151.588112,46.3702688 C150.97412,47.0111207 150.299694,47.4144335 149.197194,47.4144335 C147.478812,47.4146433 146.197948,46.0762828 146.197948,44.3826628" id="Path" fill="#FFFFFF"></path>
            <path d="M153.930978,44.3826628 L153.930978,44.3654559 C153.930978,42.7062498 155.210793,41.3162686 157.022133,41.3162686 C158.832634,41.3162686 160.096082,42.6890429 160.096082,44.3490884 L160.096082,44.3654559 C160.096082,46.0246621 158.816266,47.4146433 157.005766,47.4146433 C155.194425,47.4146433 153.930978,46.041869 153.930978,44.3826628 M159.009949,44.3826628 L159.009949,44.3654559 C159.009949,43.2197287 158.175624,42.2685232 157.005975,42.2685232 C155.834438,42.2685232 155.01732,43.2033611 155.01732,44.3490884 L155.01732,44.3654559 C155.01732,45.5111832 155.850805,46.4546246 157.022343,46.4546246 C158.192831,46.4546246 159.009949,45.5273409 159.009949,44.3826628" id="Shape" fill="#FFFFFF"></path>
        </g>
    </g>
</svg>