<?xml version="1.0" encoding="utf-8"?>
<!-- Generator: Adobe Illustrator 24.0.3, SVG Export Plug-In . SVG Version: 6.00 Build 0)  -->
<svg version="1.1" id="Layer_1" xmlns="http://www.w3.org/2000/svg" xmlns:xlink="http://www.w3.org/1999/xlink" x="0px" y="0px"
	 width="64px" height="64px" viewBox="0 0 64 64" style="enable-background:new 0 0 64 64;" xml:space="preserve">
<style type="text/css">
	.st0{clip-path:url(#SVGID_2_);fill:#DD7240;}
	.st1{clip-path:url(#SVGID_4_);fill:#FFFFFF;}
</style>
<g>
	<g>
		<defs>
			<rect id="SVGID_1_" x="4" y="4.1" width="56" height="56"/>
		</defs>
		<clipPath id="SVGID_2_">
			<use xlink:href="#SVGID_1_"  style="overflow:visible;"/>
		</clipPath>
		<path class="st0" d="M32,60.2c15.5,0,28-12.5,28-28c0-15.5-12.5-28-28-28S4,16.7,4,32.1C4,47.6,16.5,60.2,32,60.2"/>
	</g>
	<g>
		<defs>
			<rect id="SVGID_3_" x="4" y="4.1" width="56" height="56"/>
		</defs>
		<clipPath id="SVGID_4_">
			<use xlink:href="#SVGID_3_"  style="overflow:visible;"/>
		</clipPath>
		<path class="st1" d="M25.6,33.7c2.4-0.1,4.6-1,6.3-2.5c1.3,3.3,4.5,5.5,8.1,5.7v10H25.6V33.7z M15.6,23.4c0-5.2,4.3-9.4,9.5-9.4
			s9.5,4.2,9.5,9.4c0,5.1-4,9.2-9.1,9.4v-5l3.6-3.5c0.2-0.2,0.2-0.4,0-0.6c-0.2-0.2-0.4-0.2-0.6,0l-3,2.9v-4c0-0.2-0.2-0.4-0.4-0.4
			s-0.4,0.2-0.4,0.4v7.1l-3-2.9c-0.2-0.2-0.4-0.2-0.6,0c-0.2,0.2-0.2,0.4,0,0.6l3.6,3.5v2C19.7,32.6,15.6,28.5,15.6,23.4 M40.4,19.7
			c4.6,0,8.3,3.7,8.3,8.2c0,4.4-3.5,7.9-7.8,8.2v-3.9l2.8-2.7c0.2-0.2,0.2-0.4,0-0.6c-0.2-0.2-0.4-0.2-0.6,0l-2.2,2.2v-3
			c0-0.2-0.2-0.4-0.4-0.4c-0.2,0-0.4,0.2-0.4,0.4v5.5l-2.3-2.2c-0.2-0.2-0.4-0.2-0.6,0c-0.2,0.2-0.2,0.4,0,0.6l2.9,2.8V36
			c-3.3-0.2-6.2-2.3-7.4-5.4c1.8-1.9,3-4.4,3-7.2c0-0.7-0.1-1.4-0.2-2C36.8,20.3,38.5,19.7,40.4,19.7 M15.2,46.9
			c-0.2,0-0.4,0.2-0.4,0.4c0,0.2,0.2,0.4,0.4,0.4h33.9c0.2,0,0.4-0.2,0.4-0.4c0-0.2-0.2-0.4-0.4-0.4h-8.2V36.9
			c4.8-0.2,8.7-4.2,8.7-9c0-5-4.1-9.1-9.1-9.1c-1.9,0-3.7,0.6-5.3,1.7c-1.3-4.2-5.3-7.4-9.9-7.4c-5.7,0-10.4,4.6-10.4,10.3
			c0,5.5,4.4,10.1,10,10.3v13.2H15.2z"/>
	</g>
</g>
</svg>
