<?xml version="1.0" encoding="utf-8"?>
<!-- Generator: Adobe Illustrator 24.0.3, SVG Export Plug-In . SVG Version: 6.00 Build 0)  -->
<svg version="1.1" id="Layer_1" xmlns="http://www.w3.org/2000/svg" xmlns:xlink="http://www.w3.org/1999/xlink" x="0px" y="0px"
	 width="64px" height="64px" viewBox="0 0 64 64" style="enable-background:new 0 0 64 64;" xml:space="preserve">
<style type="text/css">
	.st0{clip-path:url(#SVGID_2_);fill:#DD7240;}
	.st1{clip-path:url(#SVGID_4_);fill:#FFFFFF;}
	.st2{clip-path:url(#SVGID_6_);fill:#FFFFFF;}
</style>
<g>
	<g>
		<defs>
			<rect id="SVGID_1_" x="4" y="4.1" width="56" height="56"/>
		</defs>
		<clipPath id="SVGID_2_">
			<use xlink:href="#SVGID_1_"  style="overflow:visible;"/>
		</clipPath>
		<path class="st0" d="M32,60.2c15.5,0,28-12.5,28-28c0-15.5-12.5-28-28-28S4,16.7,4,32.1C4,47.6,16.5,60.2,32,60.2"/>
	</g>
	<g>
		<defs>
			<rect id="SVGID_3_" x="4" y="4.1" width="56" height="56"/>
		</defs>
		<clipPath id="SVGID_4_">
			<use xlink:href="#SVGID_3_"  style="overflow:visible;"/>
		</clipPath>
		<path class="st1" d="M22.7,33.2c1,0.9,2.1,1.7,3.3,2.6c0.1,1.9,0.4,3.8,0.7,5.4c-0.9,0.4-1.8,0.6-2.7,0.9c-3,0.8-5.2,0.6-5.9-0.5
			C17,40.1,18.8,36.8,22.7,33.2 M20.8,30.2C21,30,21,29.8,21,29.5c0-0.7-0.6-1.3-1.3-1.3c-0.1,0-0.3,0-0.4,0.1
			c-1.4-2-1.9-3.7-1.3-4.6c0.7-1.1,2.9-1.3,5.9-0.5c0.9,0.2,1.7,0.5,2.7,0.9c-0.3,1.7-0.5,3.5-0.7,5.4c-1.2,0.9-2.2,1.7-3.2,2.6
			C22,31.4,21.4,30.7,20.8,30.2 M31.9,15.8c1.7,0,3.4,2.9,4.4,7.7c-1.4,0.5-2.8,1.2-4.3,2c-1.5-0.8-3-1.5-4.5-2.1
			C28.6,18.6,30.3,15.8,31.9,15.8 M43.5,22.6c1.3,0,2.2,0.3,2.6,1c0.6,0.9,0.1,2.6-1.3,4.6c-0.1,0-0.3-0.1-0.5-0.1
			c-0.7,0-1.3,0.6-1.3,1.3c0,0.3,0.1,0.5,0.2,0.7c-0.5,0.6-1.1,1.2-1.8,1.8c-1-0.9-2.2-1.9-3.5-2.8c-0.1-1.8-0.3-3.6-0.6-5.2
			C39.8,23.1,41.9,22.6,43.5,22.6 M46.1,41.6c-0.9,1.4-4.3,1.3-8.8-0.4c0.3-1.6,0.5-3.3,0.7-5.2c1.3-0.9,2.4-1.8,3.5-2.8
			C45.3,36.8,47.1,40.1,46.1,41.6 M28.8,37.8c0.8,0.5,1.6,1,2.4,1.4c-1.3,0.7-2.5,1.2-3.7,1.7c-0.3-1.3-0.4-2.8-0.6-4.4
			C27.5,36.9,28.1,37.4,28.8,37.8 M35.4,37.8c0.6-0.4,1.1-0.7,1.7-1.1c-0.1,1.5-0.3,2.9-0.5,4.2c-1.1-0.4-2.3-1-3.5-1.7
			C33.8,38.8,34.5,38.3,35.4,37.8 M38,30.4c1,0.8,1.9,1.5,2.7,2.2c-0.9,0.7-1.7,1.5-2.7,2.2c0-0.8,0-1.5,0-2.3
			C38.1,31.8,38.1,31.1,38,30.4 M33,26c1.2-0.6,2.4-1.2,3.5-1.7c0.2,1.3,0.4,2.7,0.5,4.2c-0.5-0.4-1.1-0.8-1.7-1.1
			C34.5,26.9,33.8,26.5,33,26 M26.8,28.7c0.1-1.6,0.3-3,0.5-4.4c1.2,0.5,2.5,1.1,3.7,1.7c-0.8,0.4-1.6,0.9-2.4,1.4
			C28.1,27.9,27.5,28.3,26.8,28.7 M25.9,34.7c-0.9-0.7-1.7-1.4-2.6-2.1c0.8-0.7,1.6-1.4,2.5-2.1c0,0.6,0,1.3,0,2
			C25.8,33.3,25.9,34,25.9,34.7 M26.7,32.5c0-0.9,0-1.8,0-2.6c0.8-0.5,1.6-1.1,2.5-1.7c0.9-0.6,1.9-1.2,2.8-1.7
			c0.9,0.5,1.9,1.1,2.8,1.7c0.8,0.5,1.5,1,2.2,1.5c0,0.9,0.1,1.8,0.1,2.8c0,1,0,2.1-0.1,3c-0.7,0.5-1.4,1-2.2,1.5
			c-0.9,0.6-1.9,1.2-2.8,1.7c-0.9-0.5-1.8-1.1-2.8-1.7c-0.9-0.5-1.7-1.1-2.5-1.7C26.7,34.5,26.7,33.5,26.7,32.5 M35.5,44.7
			L35.5,44.7c-0.8,0-1.3,0.6-1.3,1.3c0,0.4,0.1,0.7,0.4,0.9c-0.8,1.5-1.7,2.3-2.6,2.3c-1.6,0-3.3-2.8-4.3-7.4
			c1.4-0.6,2.9-1.3,4.4-2.1c1.5,0.8,2.9,1.5,4.3,2C36.1,42.8,35.8,43.8,35.5,44.7 M17.2,42.1c0.6,0.9,1.7,1.4,3.4,1.4
			c1,0,2.2-0.2,3.5-0.5c0.9-0.2,1.7-0.5,2.7-0.9c1.1,4.8,3,8,5.2,8c1.3,0,2.4-1,3.4-2.8h0.1c0.7,0,1.3-0.6,1.3-1.3
			c0-0.4-0.2-0.8-0.4-1c0.3-0.9,0.6-1.9,0.9-3c2.4,0.9,4.6,1.4,6.3,1.4c1.6,0,2.8-0.4,3.4-1.3c1.3-2.1-0.7-5.7-4.7-9.5
			c0.7-0.6,1.3-1.3,1.8-1.9c0.1,0,0.3,0,0.4,0c0.7,0,1.3-0.6,1.3-1.3c0-0.2,0-0.4-0.2-0.6c1.7-2.3,2.2-4.4,1.4-5.7
			c-1.2-1.9-5-1.7-9.7,0c-1.1-5-3-8.2-5.2-8.2c-2.2,0-4.1,3.2-5.2,8.2c-0.9-0.3-1.8-0.6-2.6-0.8c-3.5-0.9-6-0.6-6.9,0.9
			c-0.9,1.3-0.3,3.3,1.3,5.6c-0.1,0.2-0.2,0.4-0.2,0.7c0,0.7,0.6,1.3,1.3,1.3c0.2,0,0.3,0,0.4-0.1c0.6,0.6,1.2,1.3,1.9,1.9
			C18,36.4,15.9,40.1,17.2,42.1"/>
	</g>
	<g>
		<defs>
			<rect id="SVGID_5_" x="4" y="4.1" width="56" height="56"/>
		</defs>
		<clipPath id="SVGID_6_">
			<use xlink:href="#SVGID_5_"  style="overflow:visible;"/>
		</clipPath>
		<path class="st2" d="M31.9,30.9c0.9,0,1.6,0.7,1.6,1.6c0,0.9-0.7,1.6-1.6,1.6c-0.9,0-1.6-0.7-1.6-1.6C30.3,31.6,31,30.9,31.9,30.9
			 M31.9,35c1.4,0,2.5-1.1,2.5-2.5S33.3,30,31.9,30c-1.4,0-2.5,1.1-2.5,2.5S30.6,35,31.9,35"/>
	</g>
</g>
</svg>
