<?xml version="1.0" encoding="utf-8"?>
<!-- Generator: Adobe Illustrator 24.0.3, SVG Export Plug-In . SVG Version: 6.00 Build 0)  -->
<svg version="1.1" id="Layer_1" xmlns="http://www.w3.org/2000/svg" xmlns:xlink="http://www.w3.org/1999/xlink" x="0px" y="0px"
	 width="64px" height="64px" viewBox="0 0 64 64" style="enable-background:new 0 0 64 64;" xml:space="preserve">
<style type="text/css">
	.st0{clip-path:url(#SVGID_2_);fill:#DD7240;}
	.st1{clip-path:url(#SVGID_4_);fill:#FFFFFF;}
</style>
<g>
	<g>
		<defs>
			<rect id="SVGID_1_" x="4" y="4.1" width="56" height="56"/>
		</defs>
		<clipPath id="SVGID_2_">
			<use xlink:href="#SVGID_1_"  style="overflow:visible;"/>
		</clipPath>
		<path class="st0" d="M32,60.2c15.5,0,28-12.5,28-28c0-15.5-12.5-28-28-28S4,16.7,4,32.1C4,47.6,16.5,60.2,32,60.2"/>
	</g>
	<g>
		<defs>
			<rect id="SVGID_3_" x="4" y="4.1" width="56" height="56"/>
		</defs>
		<clipPath id="SVGID_4_">
			<use xlink:href="#SVGID_3_"  style="overflow:visible;"/>
		</clipPath>
		<path class="st1" d="M44.4,45.9H19.6c-1.2,0-2.1-1-2.1-2.1v-3.5h29.1v3.5C46.5,45,45.6,45.9,44.4,45.9 M17.6,37.2l1-7.7
			c0.2-1.8,1.4-3.2,3-3.9v13.8h-4v-0.7C17.5,38.3,17.5,37.7,17.6,37.2 M23.8,24.6c0-4.3,3.7-7.8,8.3-7.8c4.6,0,8.3,3.5,8.3,7.8v2.7
			c0,0.3-0.3,0.6-0.6,0.6s-0.6-0.3-0.6-0.6v-2.7c0-3.7-3.2-6.7-7.1-6.7c-3.9,0-7.1,3-7.1,6.7v2.7c0,0.3-0.3,0.6-0.6,0.6
			s-0.6-0.3-0.6-0.6V24.6z M37.6,25.3h0.7v2c0,0.8,0.6,1.4,1.4,1.4s1.4-0.6,1.4-1.4v-2c0.3,0,0.6,0.1,0.8,0.1v14h-4.3V25.3z
			 M27.3,25.3h9.6v14.2h-9.6C27.3,39.5,27.3,25.3,27.3,25.3z M25.8,24.6c0-3.2,2.9-5.9,6.3-5.9c3.5,0,6.3,2.6,6.3,5.9H25.8z
			 M24.4,28.7c0.8,0,1.4-0.6,1.4-1.4v-2h0.8v14.2h-4.3V25.4c0.3,0,0.5-0.1,0.8-0.1v2C23,28.1,23.6,28.7,24.4,28.7 M45.5,29.5l1,7.7
			c0.1,0.5,0.1,1.1,0.1,1.6v0.7h-3.8V25.7C44.2,26.4,45.3,27.8,45.5,29.5 M46.2,29.4c-0.3-2.7-2.5-4.7-5.1-4.8c0-4.7-4.1-8.5-9-8.5
			c-5,0-9,3.8-9,8.5c-2.7,0.1-5,2.1-5.3,4.8l-1,7.7c-0.1,0.6-0.1,1.1-0.1,1.7v5c0,1.6,1.3,2.9,2.9,2.9h24.8c1.6,0,2.9-1.3,2.9-2.9
			v-5c0-0.6,0-1.1-0.1-1.7L46.2,29.4z"/>
	</g>
</g>
</svg>
