<?xml version="1.0" encoding="utf-8"?>
<!-- Generator: Adobe Illustrator 24.0.3, SVG Export Plug-In . SVG Version: 6.00 Build 0)  -->
<svg version="1.1" id="Layer_1" xmlns="http://www.w3.org/2000/svg" xmlns:xlink="http://www.w3.org/1999/xlink" x="0px" y="0px"
	 width="64px" height="64px" viewBox="0 0 64 64" style="enable-background:new 0 0 64 64;" xml:space="preserve">
<style type="text/css">
	.st0{clip-path:url(#SVGID_2_);fill:#DD7240;}
	.st1{clip-path:url(#SVGID_4_);fill:#FFFFFF;}
	.st2{clip-path:url(#SVGID_6_);fill:#FFFFFF;}
	.st3{clip-path:url(#SVGID_8_);fill:#FFFFFF;}
	.st4{clip-path:url(#SVGID_10_);fill:#FFFFFF;}
</style>
<g>
	<g>
		<defs>
			<rect id="SVGID_1_" x="4" y="4.1" width="56" height="56"/>
		</defs>
		<clipPath id="SVGID_2_">
			<use xlink:href="#SVGID_1_"  style="overflow:visible;"/>
		</clipPath>
		<path class="st0" d="M32,60.2c15.5,0,28-12.5,28-28c0-15.5-12.5-28-28-28S4,16.7,4,32.1C4,47.6,16.5,60.2,32,60.2"/>
	</g>
	<g>
		<defs>
			<rect id="SVGID_3_" x="4" y="4.1" width="56" height="56"/>
		</defs>
		<clipPath id="SVGID_4_">
			<use xlink:href="#SVGID_3_"  style="overflow:visible;"/>
		</clipPath>
		<path class="st1" d="M25.3,23.5c0-0.6,0.5-1.2,1.2-1.2c0.6,0,1.2,0.5,1.2,1.2v3.2h-2.3C25.3,26.8,25.3,23.5,25.3,23.5z M24.9,27.6
			h3.2c0.2,0,0.4-0.2,0.4-0.4v-3.7c0-1.1-0.9-2-2-2s-2,0.9-2,2v3.7C24.5,27.4,24.7,27.6,24.9,27.6"/>
	</g>
	<g>
		<defs>
			<rect id="SVGID_5_" x="4" y="4.1" width="56" height="56"/>
		</defs>
		<clipPath id="SVGID_6_">
			<use xlink:href="#SVGID_5_"  style="overflow:visible;"/>
		</clipPath>
		<path class="st2" d="M30.8,23.5c0-0.6,0.5-1.2,1.2-1.2c0.6,0,1.2,0.5,1.2,1.2v3.2h-2.3V23.5z M30.4,27.6h3.2
			c0.2,0,0.4-0.2,0.4-0.4v-3.7c0-1.1-0.9-2-2-2s-2,0.9-2,2v3.7C30,27.4,30.2,27.6,30.4,27.6"/>
	</g>
	<g>
		<defs>
			<rect id="SVGID_7_" x="4" y="4.1" width="56" height="56"/>
		</defs>
		<clipPath id="SVGID_8_">
			<use xlink:href="#SVGID_7_"  style="overflow:visible;"/>
		</clipPath>
		<path class="st3" d="M36.4,23.5c0-0.6,0.5-1.2,1.2-1.2c0.6,0,1.2,0.5,1.2,1.2v3.2h-2.3C36.4,26.8,36.4,23.5,36.4,23.5z M35.9,27.6
			h3.2c0.2,0,0.4-0.2,0.4-0.4v-3.7c0-1.1-0.9-2-2-2s-2,0.9-2,2v3.7C35.5,27.4,35.7,27.6,35.9,27.6"/>
	</g>
	<g>
		<defs>
			<rect id="SVGID_9_" x="4" y="4.1" width="56" height="56"/>
		</defs>
		<clipPath id="SVGID_10_">
			<use xlink:href="#SVGID_9_"  style="overflow:visible;"/>
		</clipPath>
		<path class="st4" d="M42.8,48.2v-8.7c0.5,0.2,0.9,0.4,1.5,0.4v8.2H42.8z M19.7,40c0.5-0.1,1-0.2,1.5-0.4v8.7h-1.5V40z M16,35.9
			c0-1.8,1.5-3.3,3.3-3.3s3.3,1.5,3.3,3.3s-1.5,3.3-3.3,3.3S16,37.7,16,35.9 M22,31.4h2.1v2.5c0,0.5-0.4,1-0.9,1
			c-0.2-0.8-0.6-1.6-1.3-2.1V31.4z M42,30.5H22V18.6h20V30.5z M21.2,16.2h21.6v1.5H21.2C21.2,17.8,21.2,16.2,21.2,16.2z M40.7,35
			c-0.5-0.1-0.9-0.5-0.9-1v-2.5H42v1.5C41.4,33.4,40.9,34.1,40.7,35 M30.1,33.9c0,0.6-0.5,1.1-1.1,1.1S28,34.5,28,33.9v-2.5h2.1
			V33.9z M33.1,33.9c0,0.6-0.5,1.1-1.1,1.1c-0.6,0-1.1-0.5-1.1-1.1v-2.5h2.1C33.1,31.4,33.1,33.9,33.1,33.9z M36,33.9
			c0,0.6-0.5,1.1-1.1,1.1c-0.6,0-1.1-0.5-1.1-1.1v-2.5H36V33.9z M39,33.9c0,0.6-0.5,1.1-1.1,1.1s-1.1-0.5-1.1-1.1v-2.5H39
			C39,31.4,39,33.9,39,33.9z M27.1,31.4v2.5c0,0.6-0.5,1.1-1.1,1.1S25,34.5,25,33.9v-2.5H27.1z M42,42.3h-6.6v-2.2
			c0-1.9-1.5-3.4-3.4-3.4s-3.4,1.5-3.4,3.4v2.2H22V39c0.8-0.8,1.4-1.8,1.4-3.1c0,0,0-0.1,0-0.1c0.5-0.1,0.9-0.3,1.2-0.7
			c0.4,0.4,0.9,0.7,1.5,0.7c0.6,0,1.1-0.3,1.5-0.7c0.4,0.4,0.9,0.7,1.5,0.7c0.6,0,1.1-0.3,1.5-0.7c0.4,0.4,0.9,0.7,1.5,0.7
			c0.6,0,1.1-0.3,1.5-0.7c0.3,0.4,0.9,0.7,1.5,0.7c0.6,0,1.1-0.3,1.5-0.7c0.3,0.4,0.9,0.7,1.5,0.7s1.1-0.3,1.5-0.7
			c0.3,0.4,0.7,0.6,1.2,0.7c0,0,0,0.1,0,0.1c0,1.2,0.5,2.3,1.4,3.1C42,39,42,42.3,42,42.3z M35.4,43.2H42v5.1h-6.6V43.2z M34.5,48.2
			h-5.1v-8.1c0-1.4,1.1-2.5,2.5-2.5c1.4,0,2.5,1.1,2.5,2.5V48.2z M22,43.2h6.6v5.1H22C22,48.2,22,43.2,22,43.2z M48,35.9
			c0,1.8-1.5,3.3-3.3,3.3c-1.8,0-3.3-1.5-3.3-3.3s1.5-3.3,3.3-3.3C46.5,32.6,48,34.1,48,35.9 M48.8,35.9c0-2.3-1.8-4.1-4.1-4.1
			c-0.7,0-1.3,0.2-1.9,0.5V18.6h0.4c0.2,0,0.4-0.2,0.4-0.4v-2.4c0-0.2-0.2-0.4-0.4-0.4H20.8c-0.2,0-0.4,0.2-0.4,0.4v2.4
			c0,0.2,0.2,0.4,0.4,0.4h0.4v13.7c-0.6-0.3-1.2-0.5-1.9-0.5c-2.3,0-4.1,1.8-4.1,4.1c0,2.1,1.6,3.9,3.7,4.1v8.2h-3.3
			c-0.2,0-0.4,0.2-0.4,0.4s0.2,0.4,0.4,0.4h32.8c0.2,0,0.4-0.2,0.4-0.4s-0.2-0.4-0.4-0.4h-3.3V40C47.2,39.8,48.8,38,48.8,35.9"/>
	</g>
</g>
</svg>
