<?xml version="1.0" encoding="utf-8"?>
<!-- Generator: Adobe Illustrator 24.0.3, SVG Export Plug-In . SVG Version: 6.00 Build 0)  -->
<svg version="1.1" id="Layer_1" xmlns="http://www.w3.org/2000/svg" xmlns:xlink="http://www.w3.org/1999/xlink" x="0px" y="0px"
	 width="64px" height="64px" viewBox="0 0 64 64" style="enable-background:new 0 0 64 64;" xml:space="preserve">
<style type="text/css">
	.st0{clip-path:url(#SVGID_2_);fill:#DD7240;}
	.st1{clip-path:url(#SVGID_4_);fill:#FFFFFF;}
	.st2{clip-path:url(#SVGID_6_);fill:#FFFFFF;}
	.st3{clip-path:url(#SVGID_8_);fill:#FFFFFF;}
	.st4{clip-path:url(#SVGID_10_);fill:#FFFFFF;}
	.st5{clip-path:url(#SVGID_12_);fill:#FFFFFF;}
	.st6{clip-path:url(#SVGID_14_);fill:#FFFFFF;}
	.st7{clip-path:url(#SVGID_16_);fill:#FFFFFF;}
	.st8{clip-path:url(#SVGID_18_);fill:#FFFFFF;}
	.st9{clip-path:url(#SVGID_20_);fill:#FFFFFF;}
	.st10{clip-path:url(#SVGID_22_);fill:#FFFFFF;}
	.st11{clip-path:url(#SVGID_24_);fill:#FFFFFF;}
	.st12{clip-path:url(#SVGID_26_);fill:#FFFFFF;}
	.st13{clip-path:url(#SVGID_28_);fill:#FFFFFF;}
	.st14{clip-path:url(#SVGID_30_);fill:#FFFFFF;}
	.st15{clip-path:url(#SVGID_32_);fill:#FFFFFF;}
	.st16{clip-path:url(#SVGID_34_);fill:#FFFFFF;}
	.st17{clip-path:url(#SVGID_36_);fill:#FFFFFF;}
	.st18{clip-path:url(#SVGID_38_);fill:#FFFFFF;}
</style>
<g>
	<g>
		<defs>
			<rect id="SVGID_1_" x="4" y="4.1" width="56" height="56"/>
		</defs>
		<clipPath id="SVGID_2_">
			<use xlink:href="#SVGID_1_"  style="overflow:visible;"/>
		</clipPath>
		<path class="st0" d="M32,60.2c15.5,0,28-12.5,28-28c0-15.5-12.5-28-28-28S4,16.7,4,32.1C4,47.6,16.5,60.2,32,60.2"/>
	</g>
	<g>
		<defs>
			<rect id="SVGID_3_" x="4" y="4.1" width="56" height="56"/>
		</defs>
		<clipPath id="SVGID_4_">
			<use xlink:href="#SVGID_3_"  style="overflow:visible;"/>
		</clipPath>
		<path class="st1" d="M44,24.4c-0.3,0-0.4-0.2-0.4-0.5c0-0.4,0-0.9,0-1.3c0-0.3,0.2-0.4,0.4-0.4c0.3,0,0.4,0.2,0.4,0.4
			c0,0.4,0,0.9-0.1,1.3C44.5,24.2,44.3,24.4,44,24.4C44,24.4,44,24.4,44,24.4"/>
	</g>
	<g>
		<defs>
			<rect id="SVGID_5_" x="4" y="4.1" width="56" height="56"/>
		</defs>
		<clipPath id="SVGID_6_">
			<use xlink:href="#SVGID_5_"  style="overflow:visible;"/>
		</clipPath>
		<path class="st2" d="M39.5,34.5c-0.2,0.1-0.4,0.3-0.5,0.4c-0.1,0-0.2,0.1-0.3,0.1c-0.1,0-0.3,0-0.4-0.2c-0.1-0.2-0.1-0.5,0.1-0.6
			c0.2-0.1,0.3-0.3,0.5-0.4c0.2-0.1,0.3-0.3,0.5-0.4c0.2-0.2,0.4-0.2,0.6,0c0.2,0.2,0.2,0.4,0,0.6C39.8,34.2,39.7,34.3,39.5,34.5"/>
	</g>
	<g>
		<defs>
			<rect id="SVGID_7_" x="4" y="4.1" width="56" height="56"/>
		</defs>
		<clipPath id="SVGID_8_">
			<use xlink:href="#SVGID_7_"  style="overflow:visible;"/>
		</clipPath>
		<path class="st3" d="M43.5,27.4L43.5,27.4c-0.3,0-0.5-0.3-0.4-0.5c0.1-0.4,0.2-0.8,0.3-1.3c0-0.2,0.3-0.4,0.5-0.4
			c0.2,0,0.4,0.3,0.4,0.5c-0.1,0.4-0.2,0.9-0.3,1.3C43.9,27.3,43.8,27.4,43.5,27.4"/>
	</g>
	<g>
		<defs>
			<rect id="SVGID_9_" x="4" y="4.1" width="56" height="56"/>
		</defs>
		<clipPath id="SVGID_10_">
			<use xlink:href="#SVGID_9_"  style="overflow:visible;"/>
		</clipPath>
		<path class="st4" d="M42.9,30.1c-0.1,0.2-0.2,0.3-0.4,0.3c0,0-0.1,0-0.2,0c-0.2-0.1-0.3-0.4-0.2-0.6c0.2-0.4,0.4-0.8,0.5-1.2
			c0.1-0.2,0.4-0.4,0.6-0.3c0.2,0.1,0.4,0.4,0.3,0.6C43.3,29.2,43.1,29.7,42.9,30.1"/>
	</g>
	<g>
		<defs>
			<rect id="SVGID_11_" x="4" y="4.1" width="56" height="56"/>
		</defs>
		<clipPath id="SVGID_12_">
			<use xlink:href="#SVGID_11_"  style="overflow:visible;"/>
		</clipPath>
		<path class="st5" d="M34.8,37.4c-0.4,0.2-0.8,0.4-1.2,0.5c0,0-0.1,0-0.2,0c-0.2,0-0.4-0.1-0.4-0.3c-0.1-0.2,0-0.5,0.2-0.6
			c0.4-0.2,0.8-0.4,1.2-0.5c0.2-0.1,0.5,0,0.6,0.2C35.1,37,35,37.3,34.8,37.4"/>
	</g>
	<g>
		<defs>
			<rect id="SVGID_13_" x="4" y="4.1" width="56" height="56"/>
		</defs>
		<clipPath id="SVGID_14_">
			<use xlink:href="#SVGID_13_"  style="overflow:visible;"/>
		</clipPath>
		<path class="st6" d="M20,44.4c-0.1,0.1-0.2,0.1-0.3,0.1c-0.1,0-0.2,0-0.3-0.1c-0.2-0.2-0.1-0.4,0-0.6c0.3-0.3,0.7-0.6,1-0.9
			c0.2-0.1,0.5-0.1,0.6,0.1c0.1,0.2,0.1,0.5-0.1,0.6C20.6,43.9,20.3,44.1,20,44.4"/>
	</g>
	<g>
		<defs>
			<rect id="SVGID_15_" x="4" y="4.1" width="56" height="56"/>
		</defs>
		<clipPath id="SVGID_16_">
			<use xlink:href="#SVGID_15_"  style="overflow:visible;"/>
		</clipPath>
		<path class="st7" d="M17.8,46.9c-0.1,0-0.1,0-0.2,0c-0.2-0.1-0.3-0.4-0.2-0.6c0.2-0.4,0.4-0.8,0.7-1.1c0.1-0.2,0.4-0.2,0.6-0.1
			c0.2,0.1,0.2,0.4,0.1,0.6c-0.2,0.3-0.4,0.7-0.6,1C18.1,46.8,18,46.9,17.8,46.9"/>
	</g>
	<g>
		<defs>
			<rect id="SVGID_17_" x="4" y="4.1" width="56" height="56"/>
		</defs>
		<clipPath id="SVGID_18_">
			<use xlink:href="#SVGID_17_"  style="overflow:visible;"/>
		</clipPath>
		<path class="st8" d="M23.5,42.1c-0.4,0.2-0.8,0.4-1.1,0.6c-0.1,0-0.1,0-0.2,0c-0.1,0-0.3-0.1-0.4-0.2c-0.1-0.2,0-0.5,0.2-0.6
			c0.4-0.2,0.8-0.4,1.2-0.6c0.2-0.1,0.5,0,0.6,0.2C23.8,41.7,23.7,41.9,23.5,42.1"/>
	</g>
	<g>
		<defs>
			<rect id="SVGID_19_" x="4" y="4.1" width="56" height="56"/>
		</defs>
		<clipPath id="SVGID_20_">
			<use xlink:href="#SVGID_19_"  style="overflow:visible;"/>
		</clipPath>
		<path class="st9" d="M27.5,39.3c0.4-0.2,0.8-0.3,1.2-0.5c0.2-0.1,0.5,0,0.6,0.3c0.1,0.2,0,0.5-0.3,0.6c-0.4,0.1-0.8,0.3-1.2,0.5
			c0,0-0.1,0-0.2,0c-0.2,0-0.4-0.1-0.4-0.3C27.2,39.7,27.3,39.4,27.5,39.3"/>
	</g>
	<g>
		<defs>
			<rect id="SVGID_21_" x="4" y="4.1" width="56" height="56"/>
		</defs>
		<clipPath id="SVGID_22_">
			<use xlink:href="#SVGID_21_"  style="overflow:visible;"/>
		</clipPath>
		<path class="st10" d="M26.2,40.8c-0.4,0.2-0.8,0.4-1.2,0.5c0,0-0.1,0-0.2,0c-0.2,0-0.3-0.1-0.4-0.3c-0.1-0.2,0-0.5,0.2-0.6
			c0.4-0.2,0.8-0.4,1.2-0.5c0.2-0.1,0.5,0,0.6,0.2C26.6,40.5,26.5,40.7,26.2,40.8"/>
	</g>
	<g>
		<defs>
			<rect id="SVGID_23_" x="4" y="4.1" width="56" height="56"/>
		</defs>
		<clipPath id="SVGID_24_">
			<use xlink:href="#SVGID_23_"  style="overflow:visible;"/>
		</clipPath>
		<path class="st11" d="M30.4,38.2c0.4-0.2,0.8-0.3,1.2-0.5c0.2-0.1,0.5,0,0.6,0.3c0.1,0.2,0,0.5-0.3,0.6c-0.4,0.2-0.8,0.3-1.2,0.5
			c0,0-0.1,0-0.2,0c-0.2,0-0.4-0.1-0.4-0.3C30.1,38.6,30.1,38.3,30.4,38.2"/>
	</g>
	<g>
		<defs>
			<rect id="SVGID_25_" x="4" y="4.1" width="56" height="56"/>
		</defs>
		<clipPath id="SVGID_26_">
			<use xlink:href="#SVGID_25_"  style="overflow:visible;"/>
		</clipPath>
		<path class="st12" d="M37.5,35.9c-0.4,0.2-0.8,0.4-1.2,0.7c-0.1,0-0.1,0-0.2,0c-0.2,0-0.3-0.1-0.4-0.2c-0.1-0.2,0-0.5,0.2-0.6
			c0.4-0.2,0.8-0.4,1.1-0.6c0.2-0.1,0.5,0,0.6,0.1C37.8,35.5,37.7,35.8,37.5,35.9"/>
	</g>
	<g>
		<defs>
			<rect id="SVGID_27_" x="4" y="4.1" width="56" height="56"/>
		</defs>
		<clipPath id="SVGID_28_">
			<use xlink:href="#SVGID_27_"  style="overflow:visible;"/>
		</clipPath>
		<path class="st13" d="M41.3,31.1c0.1-0.2,0.4-0.3,0.6-0.1c0.2,0.1,0.3,0.4,0.1,0.6c-0.3,0.4-0.5,0.8-0.8,1.1
			c-0.1,0.1-0.2,0.2-0.4,0.2c-0.1,0-0.2,0-0.3-0.1c-0.2-0.1-0.2-0.4,0-0.6C40.8,31.8,41,31.5,41.3,31.1"/>
	</g>
	<g>
		<defs>
			<rect id="SVGID_29_" x="4" y="4.1" width="56" height="56"/>
		</defs>
		<clipPath id="SVGID_30_">
			<use xlink:href="#SVGID_29_"  style="overflow:visible;"/>
		</clipPath>
		<path class="st14" d="M17.4,47.5c0.2,0,0.4,0.3,0.3,0.5c-0.1,0.4-0.1,0.8-0.2,1.2c0,0.2-0.2,0.4-0.4,0.4h0c-0.3,0-0.4-0.2-0.4-0.5
			c0-0.4,0.1-0.9,0.2-1.3C16.9,47.6,17.1,47.4,17.4,47.5"/>
	</g>
	<g>
		<defs>
			<rect id="SVGID_31_" x="4" y="4.1" width="56" height="56"/>
		</defs>
		<clipPath id="SVGID_32_">
			<use xlink:href="#SVGID_31_"  style="overflow:visible;"/>
		</clipPath>
		<path class="st15" d="M46.4,20.7c-0.1,0.1-0.2,0.1-0.3,0.1c-0.1,0-0.2,0-0.3-0.1l-1.6-1.6l-1.6,1.6c-0.1,0.1-0.2,0.1-0.3,0.1
			s-0.2,0-0.3-0.1c-0.2-0.2-0.2-0.4,0-0.6l1.6-1.6l-1.6-1.6c-0.2-0.2-0.2-0.4,0-0.6c0.2-0.2,0.4-0.2,0.6,0l1.6,1.6l1.6-1.6
			c0.2-0.2,0.4-0.2,0.6,0c0.2,0.2,0.2,0.4,0,0.6l-1.6,1.6l1.6,1.6C46.5,20.3,46.5,20.5,46.4,20.7"/>
	</g>
	<g>
		<defs>
			<rect id="SVGID_33_" x="4" y="4.1" width="56" height="56"/>
		</defs>
		<clipPath id="SVGID_34_">
			<use xlink:href="#SVGID_33_"  style="overflow:visible;"/>
		</clipPath>
		<path class="st16" d="M17.1,21.1c-0.2,0.2-0.4,0.2-0.6,0c-0.2-0.2-0.2-0.4,0-0.6l3.1-3.1c0.1-0.1,0.2-0.1,0.3-0.1
			c0.1,0,0.2,0,0.3,0.1l3.1,3.1c0.2,0.2,0.2,0.4,0,0.6c-0.1,0.1-0.2,0.1-0.3,0.1c-0.1,0-0.2,0-0.3-0.1l-2.3-2.3v1.3l3,3
			c0.2,0.2,0.2,0.4,0,0.6c-0.2,0.2-0.4,0.2-0.6,0l-2.3-2.3v1.3l3,3c0.2,0.2,0.2,0.4,0,0.6c-0.1,0.1-0.2,0.1-0.3,0.1
			c-0.1,0-0.2,0-0.3-0.1l-2.3-2.3v4.6c0,0.3-0.2,0.4-0.4,0.4s-0.4-0.2-0.4-0.4v-4.6l-2.3,2.3c-0.2,0.2-0.4,0.2-0.6,0
			c-0.2-0.2-0.2-0.4,0-0.6l3-3v-1.3l-2.3,2.3c-0.1,0.1-0.2,0.1-0.3,0.1c-0.1,0-0.2,0-0.3-0.1c-0.2-0.2-0.2-0.4,0-0.6l3-3v-1.3
			L17.1,21.1z"/>
	</g>
	<g>
		<defs>
			<rect id="SVGID_35_" x="4" y="4.1" width="56" height="56"/>
		</defs>
		<clipPath id="SVGID_36_">
			<use xlink:href="#SVGID_35_"  style="overflow:visible;"/>
		</clipPath>
		<path class="st17" d="M27.6,21.1c-0.1,0.1-0.2,0.1-0.3,0.1c-0.1,0-0.2,0-0.3-0.1c-0.2-0.2-0.2-0.4,0-0.6l3.1-3.1
			c0.1-0.1,0.2-0.1,0.3-0.1c0.1,0,0.2,0,0.3,0.1l3.1,3.1c0.2,0.2,0.2,0.4,0,0.6c-0.2,0.2-0.4,0.2-0.6,0l-2.3-2.4V20l3,3
			c0.2,0.2,0.2,0.4,0,0.6c-0.2,0.2-0.4,0.2-0.6,0l-2.3-2.3v1.3l3,3c0.2,0.2,0.2,0.4,0,0.6c-0.2,0.2-0.4,0.2-0.6,0l-2.3-2.3v4.6
			c0,0.3-0.2,0.4-0.4,0.4S30,28.7,30,28.5v-4.6l-2.3,2.3c-0.1,0.1-0.2,0.1-0.3,0.1c-0.1,0-0.2,0-0.3-0.1c-0.2-0.2-0.2-0.4,0-0.6l3-3
			v-1.3l-2.3,2.3c-0.1,0.1-0.2,0.1-0.3,0.1c-0.1,0-0.2,0-0.3-0.1c-0.2-0.2-0.2-0.4,0-0.6l3-3v-1.3L27.6,21.1z"/>
	</g>
	<g>
		<defs>
			<rect id="SVGID_37_" x="4" y="4.1" width="56" height="56"/>
		</defs>
		<clipPath id="SVGID_38_">
			<use xlink:href="#SVGID_37_"  style="overflow:visible;"/>
		</clipPath>
		<path class="st18" d="M44.6,48.7c0,0.3-0.2,0.4-0.4,0.4s-0.4-0.2-0.4-0.4v-4.6l-2.3,2.3c-0.1,0.1-0.2,0.1-0.3,0.1
			c-0.1,0-0.2,0-0.3-0.1c-0.2-0.2-0.2-0.4,0-0.6l3-3v-1.3l-2.3,2.3C41.3,43.9,41.1,44,41,44c-0.1,0-0.2,0-0.3-0.1
			c-0.2-0.2-0.2-0.4,0-0.6l3-3v-1.3l-2.3,2.3c-0.1,0.1-0.2,0.1-0.3,0.1c-0.1,0-0.2,0-0.3-0.1c-0.2-0.2-0.2-0.4,0-0.6l3.1-3.1
			c0.1-0.1,0.2-0.1,0.3-0.1c0.1,0,0.2,0,0.3,0.1l3.1,3.1c0.2,0.2,0.2,0.4,0,0.6c-0.2,0.2-0.4,0.2-0.6,0l-2.3-2.3v1.3l3,3
			c0.2,0.2,0.2,0.4,0,0.6c-0.2,0.2-0.4,0.2-0.6,0l-2.3-2.3v1.3l3,3c0.2,0.2,0.2,0.4,0,0.6c-0.2,0.2-0.4,0.2-0.6,0l-2.3-2.3
			C44.6,44.1,44.6,48.7,44.6,48.7z"/>
	</g>
</g>
</svg>
