<?xml version="1.0" standalone="no"?>
<!DOCTYPE svg PUBLIC "-//W3C//DTD SVG 1.1//EN" "http://www.w3.org/Graphics/SVG/1.1/DTD/svg11.dtd" >
<svg>
<metadata>
Created by FontForge 20120731 at Fri Aug  9 16:24:44 2019
 By www-data
 (C) Copyright 1991, 1998, 2002 The Monotype Corporation PLC. All Rights Reserved. 
</metadata>
<defs>
<font id="JoannaMTStd" horiz-adv-x="521" >
  <font-face 
    font-family="Joanna MT Std"
    font-weight="400"
    font-stretch="normal"
    units-per-em="1000"
    panose-1="2 6 6 4 5 4 5 3 2 3"
    ascent="658"
    descent="-342"
    x-height="408"
    cap-height="599"
    bbox="-145 -251 1006 835"
    underline-thickness="50"
    underline-position="-50"
    stemh="32"
    stemv="66"
    unicode-range="U+0020-FB02"
  />
<missing-glyph horiz-adv-x="500" 
d="M0 0v700h500v-700h-500zM250 395l170 255h-340zM280 350l170 -255v510zM80 50h340l-170 255zM50 605v-510l170 255z" />
    <glyph glyph-name="f_i" unicode="fi" horiz-adv-x="531" 
d="M100 32v338h-61v38h61v37c0 121 80 244 258 244c27 0 46 -1 69 -5v-120h-16c-17 59 -49 85 -103 85c-88 0 -142 -79 -142 -207v-34h268v-376h75v-32h-213v32h72v338h-202v-338h75v-32h-216v32h75z" />
    <glyph glyph-name="f_l" unicode="fl" horiz-adv-x="531" 
d="M100 32v338h-61v38h61v34c0 120 61 247 265 247c34 0 52 -2 69 -7v-650h75v-32h-213v32h72v338h-202v-338h73v-32h-214v32h75zM368 408v188c0 27 -19 52 -58 52c-31 0 -63 -13 -89 -39c-43 -43 -50 -88 -55 -201h202z" />
    <glyph glyph-name=".notdef" horiz-adv-x="500" 
d="M0 0v700h500v-700h-500zM250 395l170 255h-340zM280 350l170 -255v510zM80 50h340l-170 255zM50 605v-510l170 255z" />
    <glyph glyph-name="space" unicode=" " horiz-adv-x="260" 
 />
    <glyph glyph-name="exclam" unicode="!" horiz-adv-x="281" 
d="M142 81c26 0 46 -20 46 -46s-20 -47 -46 -47s-47 21 -47 47s21 46 47 46zM148 170h-14c-14 74 -30 213 -30 271c0 73 11 158 37 158s37 -85 37 -158c0 -58 -16 -197 -30 -271z" />
    <glyph glyph-name="quotedbl" unicode="&#x22;" horiz-adv-x="408" 
d="M283 392l-26 144c-5 27 -11 54 -11 81c0 39 16 60 47 60s47 -21 47 -60c0 -27 -6 -54 -11 -81l-26 -144h-20zM104 392l-26 144c-5 27 -11 54 -11 81c0 39 16 60 47 60s47 -21 47 -60c0 -27 -6 -54 -11 -81l-26 -144h-20z" />
    <glyph glyph-name="numbersign" unicode="#" horiz-adv-x="668" 
d="M45 481h161l42 199h52l-42 -199h213l41 199h52l-41 -199h99v-52h-110l-40 -189h150v-52h-160l-42 -200h-52l42 200h-213l-42 -200h-52l42 200h-100v52h111l39 189h-150v52zM247 429l-39 -189h212l40 189h-213z" />
    <glyph glyph-name="dollar" unicode="$" 
d="M195 -90v84c-75 11 -120 86 -131 103l13 66c21 -39 65 -112 118 -123v270c-97 64 -129 99 -129 156c0 66 53 120 129 136v44h27v-37c18 3 57 2 69 0v37h27v-44c35 -11 81 -35 101 -58l-16 -50c-29 29 -55 48 -85 58v-242c85 -42 131 -95 131 -163
c0 -76 -54 -140 -131 -153v-84h-27v80c-18 -3 -49 -4 -69 0v-80h-27zM222 291v-259c29 -6 49 -6 69 0v222c-24 15 -42 24 -69 37zM318 237v-201c48 13 82 52 82 99c0 36 -30 75 -82 102zM222 366l69 -39v234c-14 7 -43 13 -69 10v-205zM195 382v187c-49 -7 -82 -41 -82 -80
c0 -38 27 -74 82 -107z" />
    <glyph glyph-name="percent" unicode="%" horiz-adv-x="740" 
d="M516 151c0 -88 21 -136 61 -136s62 48 62 136c0 87 -22 135 -62 135s-61 -48 -61 -135zM163 -12l376 623h39l-376 -623h-39zM101 449c0 -88 21 -136 61 -136s62 48 62 136c0 87 -22 135 -62 135s-61 -48 -61 -135zM458 151c0 99 46 162 119 162s120 -63 120 -162
c0 -100 -47 -163 -120 -163s-119 63 -119 163zM43 449c0 99 46 162 119 162s120 -63 120 -162c0 -100 -47 -163 -120 -163s-119 63 -119 163z" />
    <glyph glyph-name="ampersand" unicode="&#x26;" horiz-adv-x="625" 
d="M425 363v34h177v-34h-66c-13 -79 -57 -169 -104 -233c65 -65 112 -97 150 -97c14 0 23 3 38 11v-20c-21 -24 -47 -36 -75 -36c-44 0 -99 33 -158 92c-57 -58 -116 -92 -189 -92c-92 0 -160 66 -160 155c0 75 52 132 122 178c-60 74 -74 102 -74 150c0 75 56 128 136 128
c75 0 131 -50 131 -118c0 -56 -39 -108 -112 -150c53 -61 103 -111 162 -173c39 48 79 133 96 205h-74zM216 363c49 31 75 72 75 120c0 50 -31 84 -77 84c-41 0 -74 -32 -74 -70c0 -32 26 -78 76 -134zM344 122c-55 55 -104 109 -156 168c-50 -38 -74 -83 -74 -129
c0 -70 47 -120 114 -120c50 0 85 18 131 66z" />
    <glyph glyph-name="quoteright" unicode="&#x2019;" horiz-adv-x="281" 
d="M194 612c0 -77 -66 -126 -102 -126c-7 0 -13 4 -13 9c0 6 9 13 18 21c21 17 29 23 37 65c-34 18 -47 34 -47 60c0 27 20 48 46 48c34 0 61 -34 61 -77z" />
    <glyph glyph-name="parenleft" unicode="(" horiz-adv-x="396" 
d="M370 -233l-17 -18c-154 103 -242 278 -242 460s68 352 233 462l9 6l17 -21c-143 -114 -186 -259 -186 -454c0 -199 51 -323 186 -435z" />
    <glyph glyph-name="parenright" unicode=")" horiz-adv-x="396" 
d="M43 -251l-17 18c130 108 187 231 187 437c0 201 -49 339 -187 452l17 21c112 -78 242 -223 242 -470c0 -199 -100 -363 -242 -458z" />
    <glyph glyph-name="asterisk" unicode="*" horiz-adv-x="479" 
d="M205 247l22 165c-10 3 -13 4 -22 9l-124 -100l-37 59l150 64c-1 9 -1 14 0 22l-150 60l37 64l124 -101c9 5 12 7 22 10l-22 159h69l-22 -159c10 -3 13 -5 22 -10l124 101l38 -64l-151 -60c2 -7 2 -16 0 -22l151 -64l-38 -59l-124 100c-9 -5 -12 -6 -22 -9l22 -165h-69z
" />
    <glyph glyph-name="plus" unicode="+" horiz-adv-x="667" 
d="M69 290h238v238h52v-238h238v-52h-238v-238h-52v238h-238v52z" />
    <glyph glyph-name="comma" unicode="," horiz-adv-x="281" 
d="M122 -69l12 38c-34 18 -47 34 -47 60c0 27 20 48 46 48c34 0 61 -34 61 -77c0 -77 -66 -126 -102 -126c-7 0 -13 4 -13 9c0 12 37 30 43 48z" />
    <glyph glyph-name="hyphen" unicode="-" horiz-adv-x="354" 
d="M44 181l16 44h250l-14 -44h-252z" />
    <glyph glyph-name="period" unicode="." horiz-adv-x="250" 
d="M126 84c26 0 46 -20 46 -46s-20 -47 -46 -47s-47 21 -47 47s21 46 47 46z" />
    <glyph glyph-name="slash" unicode="/" horiz-adv-x="510" 
d="M391 658h54l-327 -670h-53z" />
    <glyph glyph-name="zero" unicode="0" 
d="M68 300c0 189 76 311 192 311c117 0 192 -122 192 -311c0 -190 -75 -312 -192 -312c-116 0 -192 122 -192 312zM144 299c0 -179 40 -275 119 -275c85 0 113 127 113 275c0 175 -36 276 -118 276c-95 0 -114 -157 -114 -276z" />
    <glyph glyph-name="one" unicode="1" 
d="M235 32v524l-82 -43l-11 24l159 72v-577h64v-32h-202v32h72z" />
    <glyph glyph-name="two" unicode="2" 
d="M439 85v-85h-349c99 130 219 298 219 433c0 82 -42 133 -109 133c-43 0 -85 -22 -115 -63l-21 14c35 63 87 94 156 94c99 0 165 -63 165 -156c0 -109 -81 -214 -214 -405h214c22 0 26 5 29 35h25z" />
    <glyph glyph-name="three" unicode="3" 
d="M67 97l24 14c46 -56 86 -78 135 -78c70 0 117 54 117 129c0 71 -48 145 -179 140v27c108 23 164 92 164 151c0 50 -43 86 -103 86c-47 0 -85 -22 -111 -64l-23 13c36 64 88 96 155 96c90 0 148 -57 148 -126c0 -57 -50 -120 -137 -148v-2c104 -13 162 -70 162 -160
c0 -108 -79 -187 -186 -187c-76 0 -127 33 -166 109z" />
    <glyph glyph-name="four" unicode="4" 
d="M285 32v171h-251v29l315 379v-358h148v-50h-148v-171h65v-32h-197v32h68zM283 491l-191 -238h193v238h-2z" />
    <glyph glyph-name="five" unicode="5" 
d="M142 312l8 287h262v-50h-202l-6 -198c164 -8 220 -97 220 -179c0 -98 -75 -184 -193 -184c-69 0 -128 27 -165 75l17 17c59 -45 88 -56 133 -56c78 0 132 56 132 133c0 92 -79 153 -206 155z" />
    <glyph glyph-name="six" unicode="6" 
d="M407 611l9 -19c-144 -48 -226 -160 -252 -286c44 30 86 45 129 45c96 0 167 -77 167 -179c0 -106 -75 -184 -177 -184c-115 0 -206 102 -206 231c0 158 117 344 330 392zM262 309c-78 0 -109 -70 -109 -122c0 -54 41 -163 139 -163c62 0 106 53 106 127
c0 92 -57 158 -136 158z" />
    <glyph glyph-name="seven" unicode="7" 
d="M98 510v89h343l-269 -611h-82l283 561h-249v-39h-26z" />
    <glyph glyph-name="eight" unicode="8" 
d="M314 320c94 -49 129 -101 129 -168c0 -93 -80 -164 -186 -164c-100 0 -180 67 -180 150c0 67 43 120 130 160c-76 40 -119 99 -119 165c0 84 75 148 172 148c96 0 168 -61 168 -140c0 -59 -37 -112 -114 -151zM275 339c56 33 87 79 87 129c0 62 -46 107 -112 107
c-57 0 -104 -42 -104 -93c0 -58 46 -101 129 -143zM242 278c-65 -38 -99 -83 -99 -134c0 -65 56 -120 124 -120c66 0 114 47 114 109c0 56 -48 100 -139 145z" />
    <glyph glyph-name="nine" unicode="9" 
d="M88 -12l-10 22c151 53 261 177 276 281c-21 -16 -41 -28 -62 -35c-21 -8 -41 -12 -63 -12c-92 0 -164 80 -164 182c0 105 77 185 178 185c117 0 206 -101 206 -235c0 -191 -184 -352 -361 -388zM127 452c0 -94 57 -163 135 -163c64 0 111 49 111 117
c0 65 -41 169 -137 169c-63 0 -109 -52 -109 -123z" />
    <glyph glyph-name="colon" unicode=":" horiz-adv-x="292" 
d="M147 398c26 0 46 -20 46 -46s-20 -47 -46 -47s-47 21 -47 47s21 46 47 46zM147 81c26 0 46 -20 46 -46s-20 -47 -46 -47s-47 21 -47 47s21 46 47 46z" />
    <glyph glyph-name="semicolon" unicode=";" horiz-adv-x="281" 
d="M122 -69l12 38c-34 18 -47 34 -47 60c0 27 20 48 46 48c34 0 61 -34 61 -77c0 -77 -66 -126 -102 -126c-7 0 -13 4 -13 9c0 12 37 30 43 48zM141 397c26 0 46 -20 46 -46s-20 -47 -46 -47s-47 21 -47 47s21 46 47 46z" />
    <glyph glyph-name="less" unicode="&#x3c;" horiz-adv-x="667" 
d="M71 288l526 222v-57l-456 -188l456 -188v-57l-526 222v46z" />
    <glyph glyph-name="equal" unicode="=" horiz-adv-x="667" 
d="M69 409h528v-52h-528v52zM69 173h528v-52h-528v52z" />
    <glyph glyph-name="greater" unicode="&#x3e;" horiz-adv-x="667" 
d="M596 242l-526 -222v57l456 188l-456 188v57l526 -222v-46z" />
    <glyph glyph-name="question" unicode="?" horiz-adv-x="365" 
d="M79 499l13 63c34 33 69 49 107 49c68 0 122 -56 122 -125c0 -149 -156 -196 -179 -325l-17 22c25 141 134 178 134 283c0 53 -35 95 -81 95c-36 0 -61 -17 -99 -62zM170 81c26 0 46 -20 46 -46s-20 -47 -46 -47s-47 21 -47 47s21 46 47 46z" />
    <glyph glyph-name="at" unicode="@" horiz-adv-x="921" 
d="M690 462l-84 -290c-14 -49 -18 -68 -18 -86c0 -22 16 -38 37 -38c76 0 205 114 205 315c0 175 -131 299 -316 299c-260 0 -419 -237 -419 -466s158 -390 382 -390c178 0 319 98 393 273h28c-50 -168 -215 -300 -423 -300c-245 0 -426 183 -426 432c0 268 203 478 462 478
c208 0 349 -136 349 -335c0 -139 -87 -344 -268 -344c-50 0 -76 23 -76 68c0 20 2 37 8 69l-2 2c-63 -86 -133 -139 -189 -139c-50 0 -89 49 -89 114c0 149 155 341 269 341c39 0 77 -20 83 -62h2l15 49zM519 443c-95 0 -199 -219 -199 -303c0 -40 26 -71 58 -71
c88 0 201 172 201 302c0 43 -25 72 -60 72z" />
    <glyph glyph-name="A" unicode="A" horiz-adv-x="583" 
d="M267 611h40l211 -573h51v-38h-178v38h54l-66 178h-212l-63 -178h56v-38h-145v38h50zM367 254l-99 264h-2l-86 -264h187z" />
    <glyph glyph-name="B" unicode="B" 
d="M24 561v38h221c133 0 190 -74 190 -153c0 -60 -26 -101 -94 -131v-2c99 -15 154 -76 154 -150c0 -89 -47 -163 -190 -163h-281v38h83v523h-83zM176 323h62c64 0 121 37 121 118c0 68 -45 120 -114 120h-69v-238zM176 38h118c76 0 122 32 122 121c0 83 -58 126 -180 126
h-60v-247z" />
    <glyph glyph-name="C" unicode="C" horiz-adv-x="563" 
d="M479 583l9 35h31v-161h-31c-29 79 -81 116 -162 116c-133 0 -212 -99 -212 -268c0 -193 114 -279 224 -279c72 0 135 24 199 76v-38c-71 -56 -123 -76 -199 -76c-173 0 -308 135 -308 308c0 181 133 315 311 315c43 0 74 -6 138 -28z" />
    <glyph glyph-name="D" unicode="D" horiz-adv-x="635" 
d="M103 38v523h-84v38h276c177 0 306 -129 306 -307c0 -155 -87 -292 -310 -292h-272v38h84zM172 38h80c204 0 271 90 271 235c0 205 -119 288 -289 288h-62v-523z" />
    <glyph glyph-name="E" unicode="E" horiz-adv-x="458" 
d="M177 325h167v75h40v-199h-40v86h-167v-249h216v84h40v-122h-409v38h84v523h-84v38h401v-118h-40v80h-208v-236z" />
    <glyph glyph-name="F" unicode="F" horiz-adv-x="458" 
d="M178 319h166v75h40v-200h-40v87h-166v-243h83v-38h-236v38h84v523h-84v38h398v-117h-40v79h-205v-242z" />
    <glyph glyph-name="G" unicode="G" horiz-adv-x="625" 
d="M488 581l8 37h32v-164h-32c-19 75 -80 119 -164 119c-136 0 -219 -99 -219 -265c0 -167 95 -282 234 -282c39 0 118 9 118 55v157h-82v38h227v-38h-76v-224c-53 -17 -118 -26 -183 -26c-194 0 -322 135 -322 307c0 187 130 316 310 316c50 0 104 -11 149 -30z" />
    <glyph glyph-name="H" unicode="H" horiz-adv-x="698" 
d="M177 323h343v238h-84v38h237v-38h-84v-523h84v-38h-237v38h84v243h-343v-243h84v-38h-237v38h84v523h-84v38h237v-38h-84v-238z" />
    <glyph glyph-name="I" unicode="I" horiz-adv-x="292" 
d="M111 38v523h-83v38h235v-38h-83v-523h83v-38h-235v38h83z" />
    <glyph glyph-name="J" unicode="J" horiz-adv-x="292" 
d="M189 561v-425c0 -46 2 -111 -11 -156c-30 -101 -114 -128 -162 -128c-21 0 -36 2 -59 11v17c102 -2 163 71 163 186v495h-87v38h234v-38h-78z" />
    <glyph glyph-name="K" unicode="K" horiz-adv-x="573" 
d="M114 38v523h-83v38h236v-38h-84v-247l239 247h-78v38h211v-38h-82l-222 -229l251 -294h67v-38h-235v38h80l-231 270v-270h84v-38h-236v38h83z" />
    <glyph glyph-name="L" unicode="L" horiz-adv-x="458" 
d="M181 38h221v84h40v-122h-414v38h84v523h-84v38h237v-38h-84v-523z" />
    <glyph glyph-name="M" unicode="M" horiz-adv-x="802" 
d="M108 38v523h-84v38h165v-38l214 -451l212 451v38h163v-38h-82v-523h82v-38h-232v38h81v455h-2l-229 -493h-15l-231 492h-2v-454h81v-38h-205v38h84z" />
    <glyph glyph-name="N" unicode="N" horiz-adv-x="698" 
d="M110 38v523h-82v38h149v-38l372 -457h2v457h-87v38h206v-38h-79v-561h-40l-399 489h-2v-451h85v-38h-207v38h82z" />
    <glyph glyph-name="O" unicode="O" horiz-adv-x="698" 
d="M34 300c0 138 106 311 315 311c213 0 315 -177 315 -311c0 -136 -102 -312 -315 -312c-223 0 -315 189 -315 312zM118 299c0 -167 89 -273 231 -273c105 0 231 63 231 279c0 162 -91 268 -231 268c-136 0 -231 -95 -231 -274z" />
    <glyph glyph-name="P" unicode="P" horiz-adv-x="469" 
d="M105 38v523h-81v38h218c150 0 209 -75 209 -176c0 -99 -72 -172 -170 -172c-33 0 -57 4 -107 18v-231h84v-38h-234v38h81zM174 561v-251c36 -11 55 -14 81 -14c73 0 120 47 120 119c0 76 -51 146 -151 146h-50z" />
    <glyph glyph-name="Q" unicode="Q" horiz-adv-x="698" 
d="M304 -12c-169 21 -270 171 -270 310c0 119 88 313 315 313c223 0 315 -189 315 -313c0 -119 -84 -287 -266 -310c64 -99 116 -139 188 -139c23 0 41 4 65 13v-18c-43 -33 -73 -44 -116 -44c-96 0 -147 61 -231 188zM118 299c0 -167 89 -273 231 -273
c102 0 231 60 231 279c0 174 -102 268 -231 268c-132 0 -231 -89 -231 -274z" />
    <glyph glyph-name="R" unicode="R" horiz-adv-x="563" 
d="M103 38v523h-83v38h226c135 0 188 -78 188 -156c0 -58 -37 -135 -130 -151v-2c71 -28 103 -65 143 -147l51 -105h59v-38h-113l-75 152c-44 89 -92 125 -165 125h-32v-239h85v-38h-237v38h83zM172 315h28c100 0 158 45 158 124c0 57 -32 122 -130 122h-56v-246z" />
    <glyph glyph-name="S" unicode="S" horiz-adv-x="406" 
d="M35 -15v175h40v-72c27 -39 70 -62 116 -62c68 0 120 49 120 109c0 138 -277 140 -277 317c0 92 65 159 166 159c44 0 79 -10 107 -31v36h40v-151h-40v60c-24 33 -56 48 -103 48c-65 0 -108 -37 -108 -95c0 -154 277 -130 277 -328c0 -95 -73 -162 -174 -162
c-47 0 -88 15 -124 44v-47h-40z" />
    <glyph glyph-name="T" unicode="T" horiz-adv-x="531" 
d="M233 38v507h-170v-69h-40v151h40v-28h406v28h40v-151h-40v69h-170v-507h84v-38h-234v38h84z" />
    <glyph glyph-name="U" unicode="U" horiz-adv-x="698" 
d="M107 561h-81v38h236v-38h-86v-336c0 -126 65 -199 173 -199c107 0 173 76 173 195v340h-86v38h236v-38h-81v-346c0 -149 -102 -227 -242 -227c-143 0 -242 81 -242 227v346z" />
    <glyph glyph-name="V" unicode="V" horiz-adv-x="583" 
d="M291 -12l-203 573h-73v38h218v-38h-72l148 -424h2l141 424h-74v38h190v-38h-72l-195 -573h-10z" />
    <glyph glyph-name="W" unicode="W" horiz-adv-x="927" 
d="M286 -12l-215 573h-61v38h196v-38h-63l161 -426l140 393l-13 33h-71v38h209v-38h-66l157 -426h2l149 426h-64v38h169v-38h-61l-202 -573h-10l-176 480h-2l-169 -480h-10z" />
    <glyph glyph-name="X" unicode="X" horiz-adv-x="583" 
d="M72 38l185 260l-174 263h-68v38h215v-38h-67l135 -204l145 204h-70v38h187v-38h-68l-169 -241l190 -282h55v-38h-195v38h59l-151 224l-159 -224h60v-38h-167v38h57z" />
    <glyph glyph-name="Y" unicode="Y" horiz-adv-x="573" 
d="M258 38v285l-175 238h-73v38h222v-38h-66l142 -192l142 192h-66v38h179v-38h-60l-176 -238v-285h81v-38h-232v38h82z" />
    <glyph glyph-name="Z" unicode="Z" 
d="M455 38v85h40v-123h-477l379 561h-314v-82h-40v120h460l-379 -561h331z" />
    <glyph glyph-name="bracketleft" unicode="[" horiz-adv-x="385" 
d="M109 -244v902h248v-32h-182v-838h182v-32h-248z" />
    <glyph glyph-name="backslash" unicode="\" horiz-adv-x="510" 
d="M118 658l327 -670h-54l-326 670h53z" />
    <glyph glyph-name="bracketright" unicode="]" horiz-adv-x="385" 
d="M276 -244h-248v32h182v838h-182v32h248v-902z" />
    <glyph glyph-name="asciicircum" unicode="^" horiz-adv-x="469" 
d="M242 658l208 -350h-45l-171 286l-171 -286h-46l210 350h15z" />
    <glyph glyph-name="underscore" unicode="_" horiz-adv-x="500" 
d="M506 -125h-512v50h512v-50z" />
    <glyph glyph-name="quoteleft" unicode="&#x2018;" horiz-adv-x="281" 
d="M87 563c0 77 66 126 102 126c7 0 13 -4 13 -9c0 -6 -9 -13 -18 -21c-21 -17 -29 -23 -37 -65c34 -18 47 -34 47 -60c0 -27 -20 -48 -46 -48c-34 0 -61 34 -61 77z" />
    <glyph glyph-name="a" unicode="a" horiz-adv-x="406" 
d="M393 45v-28c-30 -20 -50 -29 -69 -29c-28 0 -51 16 -73 57c-67 -46 -94 -57 -123 -57c-50 0 -93 51 -93 111c0 56 33 89 100 106l106 27v55c0 59 -21 84 -72 84c-39 0 -75 -19 -113 -41l-7 23c49 47 90 67 138 67c65 0 120 -40 120 -135v-172c0 -42 22 -80 52 -80
c9 0 17 3 34 12zM241 78v117c-100 -14 -144 -42 -144 -90c0 -34 30 -61 66 -61c22 0 47 11 78 34z" />
    <glyph glyph-name="b" unicode="b" horiz-adv-x="510" 
d="M162 658v-289c50 39 78 51 123 51c109 0 193 -93 193 -215c0 -134 -88 -217 -233 -217c-43 0 -98 7 -149 18v620h-73v32h139zM162 330v-291c22 -14 62 -24 97 -24c90 0 147 67 147 171c0 51 -12 98 -34 134c-24 40 -57 59 -101 59c-43 0 -75 -15 -109 -49z" />
    <glyph glyph-name="c" unicode="c" horiz-adv-x="406" 
d="M367 418v-119h-16c-17 61 -59 94 -116 94c-83 0 -128 -67 -128 -163c0 -115 62 -196 149 -196c98 0 113 46 127 46c5 0 8 -7 8 -17c0 -18 -61 -75 -147 -75c-147 0 -209 125 -209 225c0 104 63 207 199 207c45 0 77 -10 106 -32l5 30h22z" />
    <glyph glyph-name="d" unicode="d" horiz-adv-x="510" 
d="M355 370v256h-76v32h142v-626h76v-32h-238c-146 0 -224 93 -224 209c0 114 91 211 198 211c43 0 73 -13 122 -50zM355 32v281c-31 44 -73 69 -118 69c-75 0 -130 -71 -130 -167c0 -80 45 -183 167 -183h81z" />
    <glyph glyph-name="e" unicode="e" horiz-adv-x="427" 
d="M396 241h-286c-8 -88 37 -213 159 -213c44 0 81 14 134 48l-7 -37c-51 -36 -95 -51 -150 -51c-122 0 -208 96 -208 230c0 121 72 202 180 202c95 0 166 -71 178 -179zM110 273h214c-5 79 -58 120 -116 120c-54 0 -96 -57 -98 -120z" />
    <glyph glyph-name="f" unicode="f" horiz-adv-x="302" 
d="M103 32v338h-68v38h68v63c0 134 68 218 217 218c20 0 41 -1 64 -4v-117h-16c-12 62 -37 86 -85 86c-73 0 -114 -55 -114 -157v-89h96v-38h-96v-338h78v-32h-218v32h74z" />
    <glyph glyph-name="g" unicode="g" horiz-adv-x="490" 
d="M450 408v-38h-72c26 -38 37 -73 37 -108c0 -47 -22 -84 -47 -109c-56 -56 -137 -60 -183 -81c-4 -2 -6 -9 -6 -15c0 -66 263 -48 263 -177c0 -85 -87 -131 -204 -131c-111 0 -194 51 -194 121c0 47 39 81 117 106c-31 21 -44 40 -44 66c0 33 22 51 79 66v2
c-104 29 -135 98 -135 154c0 71 50 156 173 156c27 0 48 -3 87 -12h129zM343 262c0 76 -43 131 -110 131c-64 0 -100 -53 -100 -121c0 -77 50 -137 112 -137c56 0 98 55 98 127zM387 -143c0 64 -109 77 -193 105c-56 -25 -81 -51 -81 -86c0 -52 60 -89 144 -89
c77 0 130 29 130 70z" />
    <glyph glyph-name="h" unicode="h" 
d="M96 32v594h-77v32h143v-299c61 44 102 61 147 61c68 0 122 -48 122 -129v-259h77v-32h-219v32h76v257c0 67 -50 92 -93 92c-37 0 -66 -13 -110 -50v-299h75v-32h-218v32h77z" />
    <glyph glyph-name="i" unicode="i" horiz-adv-x="271" 
d="M168 408v-376h79v-32h-224v32h79v344h-79v32h145zM126 589c24 0 43 -19 43 -43s-19 -43 -43 -43s-43 19 -43 43s19 43 43 43z" />
    <glyph glyph-name="j" unicode="j" horiz-adv-x="250" 
d="M22 408h139v-433c0 -78 -16 -141 -50 -175c-31 -31 -70 -51 -84 -51c-8 0 -15 7 -15 14c0 25 83 32 83 174v63v376h-73v32zM116 589c24 0 43 -19 43 -43s-19 -43 -43 -43s-43 19 -43 43s19 43 43 43z" />
    <glyph glyph-name="k" unicode="k" horiz-adv-x="458" 
d="M93 32v594h-76v32h142v-439l152 157h-75v32h185v-32h-67l-137 -141l179 -203h51v-32h-182v32h54l-160 181v-181h63v-32h-205v32h76z" />
    <glyph glyph-name="l" unicode="l" horiz-adv-x="250" 
d="M92 32v594h-75v32h141v-626h73v-32h-214v32h75z" />
    <glyph glyph-name="m" unicode="m" horiz-adv-x="802" 
d="M93 32v344h-73v32h139v-58c51 45 109 70 162 70c47 0 89 -28 107 -70c66 50 113 70 166 70c70 0 121 -44 121 -139v-249h67v-32h-205v32h72v239c0 71 -30 108 -88 108c-42 0 -69 -12 -124 -54v-293h72v-32h-210v32h72v251c0 61 -39 96 -88 96c-37 0 -67 -13 -124 -54
v-293h72v-32h-211v32h73z" />
    <glyph glyph-name="n" unicode="n" 
d="M96 32v344h-79v32h145v-47c63 43 100 59 145 59c68 0 122 -42 122 -121v-267h74v-32h-214v32h74v236c0 76 -26 111 -85 111c-41 0 -77 -15 -116 -47v-300h72v-32h-217v32h79z" />
    <glyph glyph-name="o" unicode="o" horiz-adv-x="510" 
d="M34 204c0 124 94 216 221 216s221 -92 221 -216s-94 -216 -221 -216s-221 92 -221 216zM106 204c0 -111 62 -189 149 -189c88 0 149 78 149 188c0 112 -61 190 -149 190c-87 0 -149 -78 -149 -189z" />
    <glyph glyph-name="p" unicode="p" horiz-adv-x="510" 
d="M91 -212v588h-74v32h140v-44c46 41 82 56 137 56c109 0 181 -85 181 -211c0 -132 -78 -221 -194 -221c-50 0 -85 17 -124 38v-238h76v-32h-216v32h74zM157 328v-248c39 -45 76 -65 118 -65c75 0 128 64 128 183c0 123 -71 181 -138 181c-38 0 -73 -17 -108 -51z" />
    <glyph glyph-name="q" unicode="q" horiz-adv-x="510" 
d="M351 -212v235c-55 -26 -80 -35 -127 -35c-106 0 -190 95 -190 215c0 122 81 217 263 217c43 0 76 -3 120 -12v-620h77v-32h-220v32h77zM351 59v317c-27 7 -45 9 -68 9c-96 0 -177 -49 -177 -183c0 -105 55 -174 137 -174c32 0 62 9 108 31z" />
    <glyph glyph-name="r" unicode="r" horiz-adv-x="344" 
d="M93 32v344h-75v32h141v-74h2c25 45 75 86 105 86c33 0 62 -32 62 -43c0 -13 -11 -51 -23 -74c-24 38 -41 51 -63 51c-28 0 -61 -26 -83 -68v-254h80v-32h-221v32h75z" />
    <glyph glyph-name="s" unicode="s" horiz-adv-x="344" 
d="M73 21l-7 -29h-23v121h17c12 -69 64 -98 111 -98c44 0 83 31 83 67c0 92 -212 91 -212 225c0 64 51 113 119 113c30 0 55 -7 92 -27l8 24h18v-104h-18c-18 54 -47 80 -92 80c-43 0 -72 -29 -72 -65c0 -95 215 -99 215 -222c0 -67 -50 -118 -132 -118c-34 0 -62 9 -107 33
z" />
    <glyph glyph-name="t" unicode="t" horiz-adv-x="281" 
d="M141 408h115v-32h-115v-244c0 -62 22 -99 59 -99c35 0 49 26 65 26c4 0 7 -4 7 -8c0 -9 -39 -63 -91 -63c-56 0 -106 33 -106 126v262h-51l117 134v-102z" />
    <glyph glyph-name="u" unicode="u" 
d="M429 408v-376h72v-32h-138v49c-54 -42 -98 -61 -143 -61c-68 0 -124 42 -124 132v256h-77v32h143v-282c0 -67 47 -98 88 -98c35 0 69 15 113 48v300h-75v32h141z" />
    <glyph glyph-name="v" unicode="v" horiz-adv-x="448" 
d="M248 106l97 270h-60v32h154v-32h-61l-140 -385h-12l-159 385h-58v32h186v-32h-59z" />
    <glyph glyph-name="w" unicode="w" horiz-adv-x="740" 
d="M256 96l106 280h-62v32h171v-32h-55l116 -280l104 280h-67v32h161v-32h-62l-143 -384h-19l-135 324l-122 -324h-19l-161 384h-60v32h190v-32h-60z" />
    <glyph glyph-name="x" unicode="x" horiz-adv-x="469" 
d="M86 32l118 162l-128 182h-55v32h183v-32h-51l89 -127l90 127h-55v32h153v-32h-60l-110 -153l135 -191h58v-32h-193v32h59l-98 137l-97 -137h66v-32h-175v32h71z" />
    <glyph glyph-name="y" unicode="y" horiz-adv-x="469" 
d="M90 -244l116 276l-131 344h-55v32h176v-32h-54l109 -286l115 286h-50v32h135v-32h-52l-250 -620h-59z" />
    <glyph glyph-name="z" unicode="z" horiz-adv-x="406" 
d="M355 32v68h26v-100h-355v16l255 360h-216v-53h-26v85h330v-15l-255 -361h241z" />
    <glyph glyph-name="braceleft" unicode="{" horiz-adv-x="480" 
d="M143 196v22c66 9 112 52 112 104c0 22 -6 45 -12 70s-11 51 -11 80c0 95 76 174 183 188v-13c-78 -19 -111 -64 -111 -116c0 -21 5 -47 11 -74s12 -55 12 -80c0 -71 -56 -137 -144 -170c88 -33 144 -99 144 -170c0 -25 -6 -53 -12 -80s-11 -53 -11 -74
c0 -52 33 -97 111 -116v-13c-107 14 -183 93 -183 188c0 29 5 56 11 81s12 48 12 69c0 52 -46 95 -112 104z" />
    <glyph glyph-name="bar" unicode="|" horiz-adv-x="510" 
d="M229 750h52v-1000h-52v1000z" />
    <glyph glyph-name="braceright" unicode="}" horiz-adv-x="480" 
d="M337 218v-22c-66 -9 -112 -52 -112 -104c0 -21 5 -44 11 -69s12 -52 12 -81c0 -95 -76 -174 -183 -188v13c78 19 111 64 111 116c0 21 -6 47 -12 74s-11 55 -11 80c0 71 56 137 144 170c-88 33 -144 99 -144 170c0 25 5 53 11 80s12 53 12 74c0 52 -33 97 -111 116v13
c107 -14 183 -93 183 -188c0 -29 -6 -55 -12 -80s-11 -48 -11 -70c0 -52 46 -95 112 -104z" />
    <glyph glyph-name="asciitilde" unicode="~" horiz-adv-x="667" 
d="M572 335h23c-2 -83 -51 -140 -122 -140c-72 0 -227 89 -288 89c-48 0 -80 -30 -90 -88h-23c-2 77 45 140 121 140c74 0 224 -91 290 -91c49 0 83 32 89 90z" />
    <glyph glyph-name="exclamdown" unicode="&#xa1;" horiz-adv-x="281" 
d="M139 279c-26 0 -46 20 -46 46s20 47 46 47s47 -21 47 -47s-21 -46 -47 -46zM132 178h14c14 -74 30 -213 30 -271c0 -73 -11 -158 -37 -158s-37 85 -37 158c0 58 16 197 30 271z" />
    <glyph glyph-name="cent" unicode="&#xa2;" horiz-adv-x="406" 
d="M85 -159l56 175c-64 33 -106 111 -106 197c0 137 97 223 235 204l41 121h27l-42 -130c18 -6 25 -9 42 -20l7 29h22v-119h-16c-21 47 -34 63 -65 81l-104 -322c25 -16 51 -24 82 -24c81 0 97 46 119 46c5 0 8 -3 8 -15c0 -18 -62 -76 -144 -76c-22 0 -47 4 -82 12
l-53 -159h-27zM161 75l100 316c-122 18 -154 -83 -154 -165c0 -63 19 -114 54 -151z" />
    <glyph glyph-name="sterling" unicode="&#xa3;" 
d="M126 262h-93v37h93c-3 27 -4 44 -4 65c0 148 80 247 206 247c80 0 114 -62 114 -80c0 -12 -17 -28 -41 -39c-27 60 -54 82 -101 82c-60 0 -116 -48 -116 -129c0 -37 5 -89 7 -146h149v-37h-149c-2 -58 -6 -77 -25 -130c101 2 146 -91 206 -91c45 0 92 48 99 127h25
c-4 -97 -76 -180 -147 -180c-82 0 -132 84 -171 102c-9 4 -18 6 -27 6c-30 -56 -66 -108 -96 -108c-13 0 -24 14 -24 30c0 26 31 87 95 108c8 49 5 90 0 136z" />
    <glyph glyph-name="fraction" unicode="&#x2044;" horiz-adv-x="125" 
d="M-145 -12l376 623h39l-375 -623h-40z" />
    <glyph glyph-name="yen" unicode="&#xa5;" horiz-adv-x="573" 
d="M327 314v-106h199v-32h-199v-138h81v-38h-232v38h82v138h-199v32h199v106h-199v32h198l-159 215h-74v38h222v-38h-68l130 -171l128 171h-64v38h179v-38h-62l-161 -215h198v-32h-199z" />
    <glyph glyph-name="florin" unicode="&#x192;" horiz-adv-x="488" 
d="M283 355h64v-32h-64l-15 -362c-7 -161 -87 -212 -150 -212c-17 0 -33 3 -53 9l17 98h20c5 -60 14 -80 35 -80c36 0 63 75 67 172l17 375h-67v32h67v96c0 139 51 231 149 231c18 0 34 -3 54 -10l-18 -99h-20c-2 61 -11 83 -34 83c-53 0 -69 -114 -69 -200v-101z" />
    <glyph glyph-name="section" unicode="&#xa7;" horiz-adv-x="542" 
d="M402 -41c0 110 -199 87 -302 190c-22 22 -41 59 -41 96c0 52 30 95 89 129c-39 31 -58 64 -58 101c0 64 55 124 171 124c138 0 183 -80 183 -120c0 -13 -13 -23 -31 -23c-8 0 -14 1 -25 5c-18 65 -65 100 -131 100c-68 0 -109 -31 -109 -76c0 -84 214 -108 290 -184
c31 -31 44 -64 44 -105c0 -48 -21 -92 -64 -136c27 -31 36 -52 36 -83c0 -84 -79 -143 -190 -143c-118 0 -174 66 -174 98c0 19 18 31 58 39c28 -68 72 -99 138 -99s116 37 116 87zM117 260c0 -106 182 -112 277 -177c28 30 41 60 41 90c0 113 -166 126 -259 183
c-41 -32 -59 -60 -59 -96z" />
    <glyph glyph-name="currency" unicode="&#xa4;" horiz-adv-x="681" 
d="M476 494l62 61l36 -37l-61 -61c34 -48 46 -85 46 -136s-12 -87 -46 -135l61 -61l-36 -36l-62 61c-47 -34 -84 -47 -136 -47c-51 0 -87 13 -135 47l-61 -61l-37 36l62 61c-35 49 -48 84 -48 136c0 51 13 86 48 135l-62 61l37 37l61 -61c50 35 84 47 135 47
c52 0 87 -12 136 -47zM174 322c0 -92 75 -167 167 -167s166 75 166 167s-74 167 -166 167s-167 -75 -167 -167z" />
    <glyph glyph-name="quotesingle" unicode="'" horiz-adv-x="180" 
d="M80 392l-26 144c-5 27 -11 54 -11 81c0 39 16 60 47 60s47 -21 47 -60c0 -27 -6 -54 -11 -81l-26 -144h-20z" />
    <glyph glyph-name="quotedblleft" unicode="&#x201c;" horiz-adv-x="479" 
d="M287 563c0 77 66 126 102 126c7 0 13 -4 13 -9c0 -6 -9 -13 -18 -21c-21 -17 -29 -23 -37 -65c34 -18 47 -34 47 -60c0 -27 -20 -48 -46 -48c-34 0 -61 34 -61 77zM85 563c0 77 66 126 102 126c7 0 13 -4 13 -9c0 -6 -9 -13 -18 -21c-21 -17 -29 -23 -37 -65
c34 -18 47 -34 47 -60c0 -27 -20 -48 -46 -48c-34 0 -61 34 -61 77z" />
    <glyph glyph-name="guillemotleft" unicode="&#xab;" 
d="M340 205l147 -190h-28l-202 190l202 190h28zM121 205l147 -190h-28l-202 190l202 190h28z" />
    <glyph glyph-name="guilsinglleft" unicode="&#x2039;" horiz-adv-x="302" 
d="M121 205l147 -190h-28l-202 190l202 190h28z" />
    <glyph glyph-name="guilsinglright" unicode="&#x203a;" horiz-adv-x="302" 
d="M181 205l-147 190h28l202 -190l-202 -190h-28z" />
    <glyph glyph-name="endash" unicode="&#x2013;" horiz-adv-x="500" 
d="M-6 273h512v-46h-512v46z" />
    <glyph glyph-name="dagger" unicode="&#x2020;" horiz-adv-x="500" 
d="M203 -244l30 641l-204 -27v84l204 -28l-30 232h94l-30 -232l204 28v-84l-204 27l30 -641h-94z" />
    <glyph glyph-name="daggerdbl" unicode="&#x2021;" horiz-adv-x="490" 
d="M201 -244l28 208l-201 -24v84l201 -24l-22 206l22 206l-201 -23v84l201 -24l-28 209h88l-28 -209l201 24v-84l-201 23l23 -206l-23 -206l201 24v-84l-201 24l28 -208h-88z" />
    <glyph glyph-name="periodcentered" unicode="&#xb7;" horiz-adv-x="313" 
d="M157 343c26 0 46 -20 46 -46s-20 -47 -46 -47s-47 21 -47 47s21 46 47 46z" />
    <glyph glyph-name="paragraph" unicode="&#xb6;" horiz-adv-x="453" 
d="M391 631v-847h-36v847h-91v-847h-36v505c-155 7 -234 59 -234 187c0 108 77 182 220 182h241v-27h-64z" />
    <glyph glyph-name="bullet" unicode="&#x2022;" horiz-adv-x="350" 
d="M176 453c68 0 122 -54 122 -122s-54 -123 -122 -123s-123 55 -123 123s55 122 123 122z" />
    <glyph glyph-name="quotesinglbase" unicode="&#x201a;" horiz-adv-x="281" 
d="M194 0c0 -77 -66 -126 -102 -126c-7 0 -13 4 -13 9c0 6 9 13 18 21c21 17 29 23 37 65c-34 18 -47 34 -47 60c0 27 20 48 46 48c34 0 61 -34 61 -77z" />
    <glyph glyph-name="quotedblbase" unicode="&#x201e;" horiz-adv-x="479" 
d="M394 0c0 -77 -66 -126 -102 -126c-7 0 -13 4 -13 9c0 6 9 13 18 21c21 17 29 23 37 65c-34 18 -47 34 -47 60c0 27 20 48 46 48c34 0 61 -34 61 -77zM192 0c0 -77 -66 -126 -102 -126c-7 0 -13 4 -13 9c0 6 9 13 18 21c21 17 29 23 37 65c-34 18 -47 34 -47 60
c0 27 20 48 46 48c34 0 61 -34 61 -77z" />
    <glyph glyph-name="quotedblright" unicode="&#x201d;" horiz-adv-x="479" 
d="M394 612c0 -77 -66 -126 -102 -126c-7 0 -13 4 -13 9c0 6 9 13 18 21c21 17 29 23 37 65c-34 18 -47 34 -47 60c0 27 20 48 46 48c34 0 61 -34 61 -77zM192 612c0 -77 -66 -126 -102 -126c-7 0 -13 4 -13 9c0 6 9 13 18 21c21 17 29 23 37 65c-34 18 -47 34 -47 60
c0 27 20 48 46 48c34 0 61 -34 61 -77z" />
    <glyph glyph-name="guillemotright" unicode="&#xbb;" 
d="M400 205l-147 190h28l202 -190l-202 -190h-28zM181 205l-147 190h28l202 -190l-202 -190h-28z" />
    <glyph glyph-name="ellipsis" unicode="&#x2026;" horiz-adv-x="1000" 
d="M833 84c26 0 46 -20 46 -46s-20 -47 -46 -47s-47 21 -47 47s21 46 47 46zM500 84c26 0 46 -20 46 -46s-20 -47 -46 -47s-47 21 -47 47s21 46 47 46zM167 84c26 0 46 -20 46 -46s-20 -47 -46 -47s-47 21 -47 47s21 46 47 46z" />
    <glyph glyph-name="perthousand" unicode="&#x2030;" horiz-adv-x="1000" 
d="M782 151c0 -88 21 -136 61 -136s62 48 62 136c0 87 -22 135 -62 135s-61 -48 -61 -135zM152 -12l376 623h39l-376 -623h-39zM95 449c0 -88 21 -136 61 -136s62 48 62 136c0 87 -22 135 -62 135s-61 -48 -61 -135zM724 151c0 99 46 162 119 162s120 -63 120 -162
c0 -100 -47 -163 -120 -163s-119 63 -119 163zM37 449c0 99 46 162 119 162s120 -63 120 -162c0 -100 -47 -163 -120 -163s-119 63 -119 163zM446 151c0 99 46 162 119 162s120 -63 120 -162c0 -100 -47 -163 -120 -163s-119 63 -119 163zM504 151c0 -88 21 -136 61 -136
s62 48 62 136c0 87 -22 135 -62 135s-61 -48 -61 -135z" />
    <glyph glyph-name="questiondown" unicode="&#xbf;" horiz-adv-x="365" 
d="M286 -139l-13 -63c-34 -33 -69 -49 -107 -49c-68 0 -122 56 -122 125c0 149 156 196 179 325l17 -22c-25 -141 -134 -178 -134 -283c0 -53 35 -95 81 -95c36 0 61 17 99 62zM195 279c-26 0 -46 20 -46 46s20 47 46 47s47 -21 47 -47s-21 -46 -47 -46z" />
    <glyph glyph-name="grave" unicode="`" horiz-adv-x="333" 
d="M228 499h-20l-157 164h103z" />
    <glyph glyph-name="acute" unicode="&#xb4;" horiz-adv-x="333" 
d="M105 499l74 164h103l-157 -164h-20z" />
    <glyph glyph-name="circumflex" unicode="&#x2c6;" horiz-adv-x="333" 
d="M36 503l107 151h48l107 -151h-28l-103 79l-104 -79h-27z" />
    <glyph glyph-name="tilde" unicode="&#x2dc;" horiz-adv-x="333" 
d="M51 528h-22c7 56 43 102 81 102c36 0 94 -41 128 -41c25 0 38 13 45 41h21c-3 -54 -40 -103 -79 -103c-40 0 -94 41 -129 41c-24 0 -38 -12 -45 -40z" />
    <glyph glyph-name="macron" unicode="&#xaf;" horiz-adv-x="333" 
d="M18 540v68h297v-68h-297z" />
    <glyph glyph-name="breve" unicode="&#x2d8;" horiz-adv-x="333" 
d="M46 645h19c22 -46 56 -68 102 -68c47 0 85 26 100 68h20c1 -54 -45 -134 -120 -134c-66 0 -116 56 -121 134z" />
    <glyph glyph-name="dotaccent" unicode="&#x2d9;" horiz-adv-x="333" 
d="M167 623c27 0 49 -22 49 -49s-22 -50 -49 -50s-50 23 -50 50s23 49 50 49z" />
    <glyph glyph-name="dieresis" unicode="&#xa8;" horiz-adv-x="333" 
d="M96 623c27 0 49 -22 49 -49s-22 -50 -49 -50s-50 23 -50 50s23 49 50 49zM238 623c27 0 49 -22 49 -49s-22 -50 -49 -50s-50 23 -50 50s23 49 50 49z" />
    <glyph glyph-name="ring" unicode="&#x2da;" horiz-adv-x="333" 
d="M167 670c50 0 91 -41 91 -91s-41 -91 -91 -91s-91 41 -91 91s41 91 91 91zM167 643c-35 0 -64 -29 -64 -64s29 -64 64 -64s64 29 64 64s-29 64 -64 64z" />
    <glyph glyph-name="cedilla" unicode="&#xb8;" horiz-adv-x="333" 
d="M186 7l-18 -50c33 -6 52 -30 52 -64c0 -47 -43 -91 -123 -81v26c55 -3 73 26 73 43c0 22 -15 36 -41 38l33 88h24z" />
    <glyph glyph-name="hungarumlaut" unicode="&#x2dd;" horiz-adv-x="333" 
d="M203 499l74 164h103l-157 -164h-20zM55 499l74 164h103l-157 -164h-20z" />
    <glyph glyph-name="ogonek" unicode="&#x2db;" horiz-adv-x="333" 
d="M111 0h49c-13 -26 -18 -44 -18 -68c0 -53 25 -82 69 -82c14 0 22 2 38 10v-40c-30 -15 -51 -21 -75 -21c-53 0 -89 40 -89 98c0 30 6 57 26 103z" />
    <glyph glyph-name="caron" unicode="&#x2c7;" horiz-adv-x="333" 
d="M35 655h27l104 -79l103 79h28l-107 -151h-48z" />
    <glyph glyph-name="emdash" unicode="&#x2014;" horiz-adv-x="1000" 
d="M-6 273h1012v-46h-1012v46z" />
    <glyph glyph-name="AE" unicode="&#xc6;" horiz-adv-x="750" 
d="M55 38l317 561h336v-117h-40v79h-218v-249h170v76h40v-196h-40v82h-170v-236h218v85h40v-123h-410v38h83v236h-151l-135 -236h53v-38h-142v38h49zM250 312h131v231h-2z" />
    <glyph glyph-name="ordfeminine" unicode="&#xaa;" horiz-adv-x="260" 
d="M259 392v-22c-23 -14 -36 -19 -51 -19c-21 0 -39 11 -48 32c-37 -24 -56 -32 -76 -32c-36 0 -66 31 -66 68c0 38 21 54 86 70l46 11v30c0 32 -12 45 -41 45c-21 0 -44 -6 -76 -27l-6 22c32 29 59 41 95 41c56 0 82 -37 82 -84v-88c0 -36 9 -56 27 -56c6 0 17 5 28 9z
M150 407v65c-61 -11 -79 -23 -79 -50c0 -19 15 -33 35 -33c13 0 23 5 44 18z" />
    <glyph glyph-name="Lslash" unicode="&#x141;" horiz-adv-x="458" 
d="M181 271v-233h221v84h40v-122h-414v38h84v181l-83 -83v48l83 83v294h-84v38h237v-38h-84v-242l161 161v-48z" />
    <glyph glyph-name="Oslash" unicode="&#xd8;" horiz-adv-x="698" 
d="M545 545l60 68l25 -22l-59 -67c61 -68 93 -145 93 -224c0 -136 -102 -312 -315 -312c-79 0 -150 27 -197 66l-63 -71l-25 22l64 72c-53 49 -94 142 -94 223c0 138 106 311 315 311c74 0 140 -20 196 -66zM166 119l344 387c-39 42 -92 67 -161 67
c-136 0 -231 -95 -231 -274c0 -78 21 -141 48 -180zM532 481l-345 -388c39 -45 97 -67 162 -67c105 0 231 63 231 279c0 79 -22 136 -48 176z" />
    <glyph glyph-name="OE" unicode="&#x152;" horiz-adv-x="802" 
d="M498 287v-249h227v84h40v-122h-418c-249 0 -317 192 -317 301c0 172 132 298 312 298h423v-116h-40v78h-227v-236h180v73h40v-195h-40v84h-180zM429 561h-68c-156 0 -247 -97 -247 -265c0 -109 45 -258 249 -258h66v523z" />
    <glyph glyph-name="ordmasculine" unicode="&#xba;" horiz-adv-x="323" 
d="M14 481c0 75 63 130 148 130c84 0 147 -55 147 -130s-63 -130 -147 -130c-85 0 -148 55 -148 130zM72 483c0 -62 37 -105 90 -105c52 0 89 43 89 105s-37 105 -89 105c-53 0 -90 -43 -90 -105z" />
    <glyph glyph-name="ae" unicode="&#xe6;" horiz-adv-x="677" 
d="M637 241l-296 -47c9 -84 64 -166 157 -166c42 0 84 14 145 47l-6 -33c-64 -39 -108 -54 -160 -54c-68 0 -123 28 -166 87c-86 -66 -129 -87 -170 -87c-55 0 -99 44 -99 99c0 57 52 89 228 125c0 115 -28 154 -92 154c-40 0 -80 -20 -121 -62l-10 23c51 63 100 93 153 93
c46 0 79 -19 111 -65c42 45 84 65 141 65c95 0 163 -65 185 -179zM339 223l226 36c-13 72 -56 134 -124 134c-62 0 -117 -61 -102 -170zM269 184c-109 -15 -159 -42 -159 -89c0 -28 29 -54 62 -54s77 20 122 61c-14 24 -20 43 -25 82z" />
    <glyph glyph-name="dotlessi" unicode="&#x131;" horiz-adv-x="271" 
d="M168 408v-376h79v-32h-224v32h79v344h-79v32h145z" />
    <glyph glyph-name="lslash" unicode="&#x142;" horiz-adv-x="250" 
d="M158 347v-315h73v-32h-214v32h75v249h-2l-98 -120v48l100 120v297h-75v32h141v-263l98 116v-48z" />
    <glyph glyph-name="oslash" unicode="&#xf8;" horiz-adv-x="510" 
d="M390 378l39 46l20 -16l-40 -46c39 -33 67 -94 67 -158c0 -124 -94 -216 -221 -216c-59 0 -106 20 -134 41l-34 -38l-20 16l34 39c-42 37 -67 96 -67 158c0 124 94 216 221 216c48 0 92 -13 135 -42zM135 86l225 257c-29 32 -60 50 -105 50c-87 0 -149 -80 -149 -190
c0 -52 13 -89 29 -117zM375 322l-224 -258c27 -33 64 -49 104 -49c88 0 149 77 149 187c0 49 -14 97 -29 120z" />
    <glyph glyph-name="oe" unicode="&#x153;" horiz-adv-x="813" 
d="M777 239h-307c9 -129 76 -211 174 -211c49 0 92 16 144 55l-7 -38c-62 -42 -105 -57 -161 -57c-77 0 -131 27 -179 89c-57 -65 -106 -89 -180 -89c-126 0 -223 93 -223 214c0 100 72 218 219 218c68 0 115 -21 175 -79c44 55 91 79 155 79c104 0 172 -78 190 -181z
M472 271h231c-5 70 -63 122 -122 122c-51 0 -108 -45 -109 -122zM110 205c0 -113 58 -190 145 -190c43 0 146 26 146 189c0 114 -58 189 -148 189c-85 0 -143 -77 -143 -188z" />
    <glyph glyph-name="germandbls" unicode="&#xdf;" horiz-adv-x="510" 
d="M160 525v-493h57v-32h-200v32h77v436c0 83 10 135 50 175c25 25 75 46 124 46c104 0 187 -74 187 -165c0 -70 -43 -120 -130 -147v-2c101 -37 149 -103 149 -195c0 -106 -65 -192 -143 -192c-57 0 -102 45 -85 66l28 36c25 -40 44 -57 67 -57c39 0 61 48 61 134
c0 132 -75 191 -147 191h-19v27h19c76 0 124 50 124 128c0 79 -49 138 -115 138c-62 0 -104 -52 -104 -126z" />
    <glyph glyph-name="logicalnot" unicode="&#xac;" horiz-adv-x="667" 
d="M69 409h528v-288h-52v236h-476v52z" />
    <glyph glyph-name="mu" unicode="&#xb5;" horiz-adv-x="500" 
d="M64 408h66v-275c0 -70 47 -93 81 -93c41 0 78 19 120 61v307h66v-319c0 -41 15 -54 32 -54c20 0 32 18 38 55h20c2 -55 -39 -102 -88 -102c-34 0 -67 30 -68 83c-57 -60 -98 -83 -149 -83c-41 0 -70 13 -94 44h-2c0 -100 23 -142 23 -181c0 -28 -15 -47 -36 -47
c-22 0 -38 22 -38 49c0 47 29 96 29 190v365z" />
    <glyph glyph-name="trademark" unicode="&#x2122;" horiz-adv-x="980" 
d="M26 658h356l11 -98h-17c-8 52 -32 69 -94 69h-36v-282c0 -55 7 -64 51 -66v-17h-183v17c44 4 50 11 50 66v282h-39c-60 0 -82 -17 -92 -69h-17zM567 658l133 -280l130 280h135v-18c-47 -1 -53 -9 -53 -67v-226c0 -57 5 -63 53 -66v-17h-195v17c51 1 60 11 60 66v236h-2
l-149 -319h-16l-149 319h-2v-236c0 -55 8 -66 47 -66h18v-17h-151v17c48 0 56 9 56 66v226c0 60 -7 67 -56 67v18h141z" />
    <glyph glyph-name="Eth" unicode="&#xd0;" horiz-adv-x="635" 
d="M103 38v243h-84v38h84v242h-84v38h276c177 0 306 -129 306 -307c0 -155 -87 -292 -310 -292h-272v38h84zM172 38h80c204 0 271 90 271 235c0 205 -119 288 -289 288h-62v-242h164v-38h-164v-243z" />
    <glyph glyph-name="onehalf" unicode="&#xbd;" horiz-adv-x="740" 
d="M132 316v257l-43 -20l-12 20l105 38v-295h39v-23h-132v23h43zM162 -12l376 623h39l-375 -623h-40zM703 50v-50h-214c11 31 124 128 124 225c0 41 -22 68 -58 68c-26 0 -47 -14 -66 -39l-19 12c22 36 55 54 98 54c61 0 103 -34 103 -83c0 -50 -40 -104 -123 -205h113
c13 0 16 5 16 18h26z" />
    <glyph glyph-name="plusminus" unicode="&#xb1;" horiz-adv-x="667" 
d="M69 448h238v238h52v-238h238v-52h-238v-238h-52v238h-238v52zM69 52h528v-52h-528v52z" />
    <glyph glyph-name="Thorn" unicode="&#xde;" horiz-adv-x="469" 
d="M105 38v523h-81v38h233v-38h-83v-86h68c149 0 209 -75 209 -176c0 -99 -72 -172 -170 -172c-33 0 -57 4 -107 18v-107h84v-38h-234v38h81zM174 437v-251c36 -11 55 -14 81 -14c73 0 120 47 120 119c0 76 -51 146 -151 146h-50z" />
    <glyph glyph-name="onequarter" unicode="&#xbc;" horiz-adv-x="740" 
d="M577 23v81h-149v18l185 197h13v-183h87v-32h-87v-81h38v-23h-128v23h41zM577 239l-100 -106h100v106zM162 -12l376 623h39l-375 -623h-40zM132 316v257l-43 -20l-12 20l105 38v-295h39v-23h-132v23h43z" />
    <glyph glyph-name="divide" unicode="&#xf7;" horiz-adv-x="668" 
d="M334 71c20 0 35 -16 35 -35s-15 -35 -35 -35c-19 0 -35 16 -35 35s16 35 35 35zM334 527c20 0 35 -16 35 -35s-15 -35 -35 -35c-19 0 -35 16 -35 35s16 35 35 35zM70 290h528v-52h-528v52z" />
    <glyph glyph-name="brokenbar" unicode="&#xa6;" horiz-adv-x="510" 
d="M229 125h52v-375h-52v375zM229 750h52v-375h-52v375z" />
    <glyph glyph-name="degree" unicode="&#xb0;" horiz-adv-x="399" 
d="M199 677c83 0 150 -67 150 -150s-67 -150 -150 -150s-150 67 -150 150s67 150 150 150zM199 637c-61 0 -110 -49 -110 -110s49 -110 110 -110s110 49 110 110s-49 110 -110 110z" />
    <glyph glyph-name="thorn" unicode="&#xfe;" horiz-adv-x="510" 
d="M91 -212v838h-74v32h140v-294c46 41 82 56 137 56c109 0 181 -85 181 -211c0 -132 -78 -221 -194 -221c-50 0 -85 17 -124 38v-238h76v-32h-216v32h74zM157 328v-248c39 -45 76 -65 118 -65c75 0 128 64 128 183c0 123 -71 181 -138 181c-38 0 -73 -17 -108 -51z" />
    <glyph glyph-name="threequarters" unicode="&#xbe;" horiz-adv-x="740" 
d="M176 -12l376 623h39l-375 -623h-40zM36 344l21 7c29 -30 49 -41 76 -41c37 0 64 27 64 64c0 49 -40 74 -104 71v20c61 11 96 38 96 73c0 26 -22 42 -55 42c-27 0 -46 -10 -63 -33l-22 11c23 36 56 53 98 53c55 0 94 -29 94 -70c0 -31 -24 -56 -73 -75v-2
c59 -13 87 -39 87 -83c0 -56 -50 -98 -116 -98c-47 0 -83 21 -103 61zM591 23v81h-149v18l185 197h13v-183h87v-32h-87v-81h38v-23h-128v23h41zM591 239l-100 -106h100v106z" />
    <glyph glyph-name="registered" unicode="&#xae;" horiz-adv-x="760" 
d="M234 180v307c0 27 -13 39 -45 39v18h188c88 0 146 -44 146 -110c0 -54 -36 -90 -109 -108l102 -146c23 -32 35 -41 59 -43v-16h-90l-144 198h-38v-115v-36c5 -24 18 -31 59 -31v-16h-179v16c37 0 51 15 51 43zM303 340h15c80 0 126 33 126 89c0 54 -42 93 -100 93
c-14 0 -23 -2 -41 -7v-175zM36 333c0 190 155 344 345 344s344 -154 344 -344s-154 -345 -344 -345s-345 155 -345 345zM63 333c0 -175 142 -318 317 -318s318 143 318 318s-143 317 -318 317s-317 -142 -317 -317z" />
    <glyph glyph-name="minus" unicode="&#x2212;" horiz-adv-x="667" 
d="M69 290h528v-52h-528v52z" />
    <glyph glyph-name="eth" unicode="&#xf0;" horiz-adv-x="526" 
d="M118 204c0 -111 62 -189 149 -189c88 0 149 78 149 188c0 112 -61 190 -149 190c-87 0 -149 -78 -149 -189zM422 658l-111 -71c122 -118 176 -264 176 -356c0 -180 -124 -243 -219 -243c-126 0 -222 93 -222 215s94 217 217 217c38 0 69 -9 100 -29l2 2
c-12 32 -40 99 -95 168l-120 -76l-15 23l117 74c-23 29 -53 58 -88 85l25 14c37 -23 71 -47 100 -75l118 75z" />
    <glyph glyph-name="multiply" unicode="&#xd7;" horiz-adv-x="668" 
d="M93 468l38 38l204 -204l203 203l37 -37l-203 -203l203 -203l-37 -37l-203 203l-204 -204l-38 38l203 203z" />
    <glyph glyph-name="copyright" unicode="&#xa9;" horiz-adv-x="760" 
d="M551 554l10 -137h-19c-23 76 -73 115 -147 115c-95 0 -155 -74 -155 -191c0 -138 62 -203 160 -203c64 0 113 26 151 82l19 -10c-46 -67 -107 -99 -188 -99c-128 0 -226 94 -226 217c0 128 105 226 243 226c57 0 91 -22 109 -22c11 0 17 5 24 22h19zM36 333
c0 190 155 344 345 344s344 -154 344 -344s-154 -345 -344 -345s-345 155 -345 345zM63 333c0 -175 142 -318 317 -318s318 143 318 318s-143 317 -318 317s-317 -142 -317 -317z" />
    <glyph glyph-name="Aacute" unicode="&#xc1;" horiz-adv-x="583" 
d="M267 611h40l211 -573h51v-38h-178v38h54l-66 178h-212l-63 -178h56v-38h-145v38h50zM367 254l-99 264h-2l-86 -264h187zM230 664l74 164h103l-157 -164h-20z" />
    <glyph glyph-name="Acircumflex" unicode="&#xc2;" horiz-adv-x="583" 
d="M267 611h40l211 -573h51v-38h-178v38h54l-66 178h-212l-63 -178h56v-38h-145v38h50zM367 254l-99 264h-2l-86 -264h187zM161 668l107 151h48l107 -151h-28l-103 79l-104 -79h-27z" />
    <glyph glyph-name="Adieresis" unicode="&#xc4;" horiz-adv-x="583" 
d="M267 611h40l211 -573h51v-38h-178v38h54l-66 178h-212l-63 -178h56v-38h-145v38h50zM367 254l-99 264h-2l-86 -264h187zM221 788c27 0 49 -22 49 -49s-22 -50 -49 -50s-50 23 -50 50s23 49 50 49zM363 788c27 0 49 -22 49 -49s-22 -50 -49 -50s-50 23 -50 50s23 49 50 49
z" />
    <glyph glyph-name="Agrave" unicode="&#xc0;" horiz-adv-x="583" 
d="M267 611h40l211 -573h51v-38h-178v38h54l-66 178h-212l-63 -178h56v-38h-145v38h50zM367 254l-99 264h-2l-86 -264h187zM353 664h-20l-157 164h103z" />
    <glyph glyph-name="Aring" unicode="&#xc5;" horiz-adv-x="583" 
d="M267 611h40l211 -573h51v-38h-178v38h54l-66 178h-212l-63 -178h56v-38h-145v38h50zM367 254l-99 264h-2l-86 -264h187zM292 835c50 0 91 -41 91 -91s-41 -91 -91 -91s-91 41 -91 91s41 91 91 91zM292 808c-35 0 -64 -29 -64 -64s29 -64 64 -64s64 29 64 64
s-29 64 -64 64z" />
    <glyph glyph-name="Atilde" unicode="&#xc3;" horiz-adv-x="583" 
d="M267 611h40l211 -573h51v-38h-178v38h54l-66 178h-212l-63 -178h56v-38h-145v38h50zM367 254l-99 264h-2l-86 -264h187zM176 693h-22c7 56 43 102 81 102c36 0 94 -41 128 -41c25 0 38 13 45 41h21c-3 -54 -40 -103 -79 -103c-40 0 -94 41 -129 41c-24 0 -38 -12 -45 -40
z" />
    <glyph glyph-name="Ccedilla" unicode="&#xc7;" horiz-adv-x="563" 
d="M264 -81l27 73c-150 22 -261 147 -261 304c0 181 133 315 311 315c43 0 74 -6 138 -28l9 35h31v-161h-31c-29 79 -81 116 -162 116c-133 0 -212 -99 -212 -268c0 -193 114 -279 224 -279c72 0 135 24 199 76v-38c-71 -56 -123 -76 -199 -76c-8 0 -16 1 -23 2l-12 -33
c33 -6 52 -30 52 -64c0 -47 -43 -91 -123 -81v26c55 -3 73 26 73 43c0 22 -15 36 -41 38z" />
    <glyph glyph-name="Eacute" unicode="&#xc9;" horiz-adv-x="458" 
d="M177 325h167v75h40v-199h-40v86h-167v-249h216v84h40v-122h-409v38h84v523h-84v38h401v-118h-40v80h-208v-236zM168 664l74 164h103l-157 -164h-20z" />
    <glyph glyph-name="Ecircumflex" unicode="&#xca;" horiz-adv-x="458" 
d="M177 325h167v75h40v-199h-40v86h-167v-249h216v84h40v-122h-409v38h84v523h-84v38h401v-118h-40v80h-208v-236zM99 668l107 151h48l107 -151h-28l-103 79l-104 -79h-27z" />
    <glyph glyph-name="Edieresis" unicode="&#xcb;" horiz-adv-x="458" 
d="M177 325h167v75h40v-199h-40v86h-167v-249h216v84h40v-122h-409v38h84v523h-84v38h401v-118h-40v80h-208v-236zM159 788c27 0 49 -22 49 -49s-22 -50 -49 -50s-50 23 -50 50s23 49 50 49zM301 788c27 0 49 -22 49 -49s-22 -50 -49 -50s-50 23 -50 50s23 49 50 49z" />
    <glyph glyph-name="Egrave" unicode="&#xc8;" horiz-adv-x="458" 
d="M177 325h167v75h40v-199h-40v86h-167v-249h216v84h40v-122h-409v38h84v523h-84v38h401v-118h-40v80h-208v-236zM291 664h-20l-157 164h103z" />
    <glyph glyph-name="Iacute" unicode="&#xcd;" horiz-adv-x="292" 
d="M111 38v523h-83v38h235v-38h-83v-523h83v-38h-235v38h83zM85 664l74 164h103l-157 -164h-20z" />
    <glyph glyph-name="Icircumflex" unicode="&#xce;" horiz-adv-x="292" 
d="M111 38v523h-83v38h235v-38h-83v-523h83v-38h-235v38h83zM16 668l107 151h48l107 -151h-28l-103 79l-104 -79h-27z" />
    <glyph glyph-name="Idieresis" unicode="&#xcf;" horiz-adv-x="292" 
d="M111 38v523h-83v38h235v-38h-83v-523h83v-38h-235v38h83zM76 788c27 0 49 -22 49 -49s-22 -50 -49 -50s-50 23 -50 50s23 49 50 49zM218 788c27 0 49 -22 49 -49s-22 -50 -49 -50s-50 23 -50 50s23 49 50 49z" />
    <glyph glyph-name="Igrave" unicode="&#xcc;" horiz-adv-x="292" 
d="M111 38v523h-83v38h235v-38h-83v-523h83v-38h-235v38h83zM208 664h-20l-157 164h103z" />
    <glyph glyph-name="Ntilde" unicode="&#xd1;" horiz-adv-x="698" 
d="M110 38v523h-82v38h149v-38l372 -457h2v457h-87v38h206v-38h-79v-561h-40l-399 489h-2v-451h85v-38h-207v38h82zM234 693h-22c7 56 43 102 81 102c36 0 94 -41 128 -41c25 0 38 13 45 41h21c-3 -54 -40 -103 -79 -103c-40 0 -94 41 -129 41c-24 0 -38 -12 -45 -40z" />
    <glyph glyph-name="Oacute" unicode="&#xd3;" horiz-adv-x="698" 
d="M34 300c0 138 106 311 315 311c213 0 315 -177 315 -311c0 -136 -102 -312 -315 -312c-223 0 -315 189 -315 312zM118 299c0 -167 89 -273 231 -273c105 0 231 63 231 279c0 162 -91 268 -231 268c-136 0 -231 -95 -231 -274zM288 664l74 164h103l-157 -164h-20z" />
    <glyph glyph-name="Ocircumflex" unicode="&#xd4;" horiz-adv-x="698" 
d="M34 300c0 138 106 311 315 311c213 0 315 -177 315 -311c0 -136 -102 -312 -315 -312c-223 0 -315 189 -315 312zM118 299c0 -167 89 -273 231 -273c105 0 231 63 231 279c0 162 -91 268 -231 268c-136 0 -231 -95 -231 -274zM219 668l107 151h48l107 -151h-28l-103 79
l-104 -79h-27z" />
    <glyph glyph-name="Odieresis" unicode="&#xd6;" horiz-adv-x="698" 
d="M34 300c0 138 106 311 315 311c213 0 315 -177 315 -311c0 -136 -102 -312 -315 -312c-223 0 -315 189 -315 312zM118 299c0 -167 89 -273 231 -273c105 0 231 63 231 279c0 162 -91 268 -231 268c-136 0 -231 -95 -231 -274zM279 788c27 0 49 -22 49 -49
s-22 -50 -49 -50s-50 23 -50 50s23 49 50 49zM421 788c27 0 49 -22 49 -49s-22 -50 -49 -50s-50 23 -50 50s23 49 50 49z" />
    <glyph glyph-name="Ograve" unicode="&#xd2;" horiz-adv-x="698" 
d="M34 300c0 138 106 311 315 311c213 0 315 -177 315 -311c0 -136 -102 -312 -315 -312c-223 0 -315 189 -315 312zM118 299c0 -167 89 -273 231 -273c105 0 231 63 231 279c0 162 -91 268 -231 268c-136 0 -231 -95 -231 -274zM411 664h-20l-157 164h103z" />
    <glyph glyph-name="Otilde" unicode="&#xd5;" horiz-adv-x="698" 
d="M34 300c0 138 106 311 315 311c213 0 315 -177 315 -311c0 -136 -102 -312 -315 -312c-223 0 -315 189 -315 312zM118 299c0 -167 89 -273 231 -273c105 0 231 63 231 279c0 162 -91 268 -231 268c-136 0 -231 -95 -231 -274zM234 693h-22c7 56 43 102 81 102
c36 0 94 -41 128 -41c25 0 38 13 45 41h21c-3 -54 -40 -103 -79 -103c-40 0 -94 41 -129 41c-24 0 -38 -12 -45 -40z" />
    <glyph glyph-name="Scaron" unicode="&#x160;" horiz-adv-x="406" 
d="M35 -15v175h40v-72c27 -39 70 -62 116 -62c68 0 120 49 120 109c0 138 -277 140 -277 317c0 92 65 159 166 159c44 0 79 -10 107 -31v36h40v-151h-40v60c-24 33 -56 48 -103 48c-65 0 -108 -37 -108 -95c0 -154 277 -130 277 -328c0 -95 -73 -162 -174 -162
c-47 0 -88 15 -124 44v-47h-40zM72 820h27l104 -79l103 79h28l-107 -151h-48z" />
    <glyph glyph-name="Uacute" unicode="&#xda;" horiz-adv-x="698" 
d="M107 561h-81v38h236v-38h-86v-336c0 -126 65 -199 173 -199c107 0 173 76 173 195v340h-86v38h236v-38h-81v-346c0 -149 -102 -227 -242 -227c-143 0 -242 81 -242 227v346zM288 664l74 164h103l-157 -164h-20z" />
    <glyph glyph-name="Ucircumflex" unicode="&#xdb;" horiz-adv-x="698" 
d="M107 561h-81v38h236v-38h-86v-336c0 -126 65 -199 173 -199c107 0 173 76 173 195v340h-86v38h236v-38h-81v-346c0 -149 -102 -227 -242 -227c-143 0 -242 81 -242 227v346zM219 668l107 151h48l107 -151h-28l-103 79l-104 -79h-27z" />
    <glyph glyph-name="Udieresis" unicode="&#xdc;" horiz-adv-x="698" 
d="M107 561h-81v38h236v-38h-86v-336c0 -126 65 -199 173 -199c107 0 173 76 173 195v340h-86v38h236v-38h-81v-346c0 -149 -102 -227 -242 -227c-143 0 -242 81 -242 227v346zM279 788c27 0 49 -22 49 -49s-22 -50 -49 -50s-50 23 -50 50s23 49 50 49zM421 788
c27 0 49 -22 49 -49s-22 -50 -49 -50s-50 23 -50 50s23 49 50 49z" />
    <glyph glyph-name="Ugrave" unicode="&#xd9;" horiz-adv-x="698" 
d="M107 561h-81v38h236v-38h-86v-336c0 -126 65 -199 173 -199c107 0 173 76 173 195v340h-86v38h236v-38h-81v-346c0 -149 -102 -227 -242 -227c-143 0 -242 81 -242 227v346zM411 664h-20l-157 164h103z" />
    <glyph glyph-name="Yacute" unicode="&#xdd;" horiz-adv-x="573" 
d="M258 38v285l-175 238h-73v38h222v-38h-66l142 -192l142 192h-66v38h179v-38h-60l-176 -238v-285h81v-38h-232v38h82zM225 664l74 164h103l-157 -164h-20z" />
    <glyph glyph-name="Ydieresis" unicode="&#x178;" horiz-adv-x="573" 
d="M258 38v285l-175 238h-73v38h222v-38h-66l142 -192l142 192h-66v38h179v-38h-60l-176 -238v-285h81v-38h-232v38h82zM216 788c27 0 49 -22 49 -49s-22 -50 -49 -50s-50 23 -50 50s23 49 50 49zM358 788c27 0 49 -22 49 -49s-22 -50 -49 -50s-50 23 -50 50s23 49 50 49z
" />
    <glyph glyph-name="Zcaron" unicode="&#x17d;" 
d="M455 38v85h40v-123h-477l379 561h-314v-82h-40v120h460l-379 -561h331zM129 820h27l104 -79l103 79h28l-107 -151h-48z" />
    <glyph glyph-name="aacute" unicode="&#xe1;" horiz-adv-x="406" 
d="M393 45v-28c-30 -20 -50 -29 -69 -29c-28 0 -51 16 -73 57c-67 -46 -94 -57 -123 -57c-50 0 -93 51 -93 111c0 56 33 89 100 106l106 27v55c0 59 -21 84 -72 84c-39 0 -75 -19 -113 -41l-7 23c49 47 90 67 138 67c65 0 120 -40 120 -135v-172c0 -42 22 -80 52 -80
c9 0 17 3 34 12zM241 78v117c-100 -14 -144 -42 -144 -90c0 -34 30 -61 66 -61c22 0 47 11 78 34zM142 499l74 164h103l-157 -164h-20z" />
    <glyph glyph-name="acircumflex" unicode="&#xe2;" horiz-adv-x="406" 
d="M393 45v-28c-30 -20 -50 -29 -69 -29c-28 0 -51 16 -73 57c-67 -46 -94 -57 -123 -57c-50 0 -93 51 -93 111c0 56 33 89 100 106l106 27v55c0 59 -21 84 -72 84c-39 0 -75 -19 -113 -41l-7 23c49 47 90 67 138 67c65 0 120 -40 120 -135v-172c0 -42 22 -80 52 -80
c9 0 17 3 34 12zM241 78v117c-100 -14 -144 -42 -144 -90c0 -34 30 -61 66 -61c22 0 47 11 78 34zM66 503l107 151h48l107 -151h-28l-103 79l-104 -79h-27z" />
    <glyph glyph-name="adieresis" unicode="&#xe4;" horiz-adv-x="406" 
d="M393 45v-28c-30 -20 -50 -29 -69 -29c-28 0 -51 16 -73 57c-67 -46 -94 -57 -123 -57c-50 0 -93 51 -93 111c0 56 33 89 100 106l106 27v55c0 59 -21 84 -72 84c-39 0 -75 -19 -113 -41l-7 23c49 47 90 67 138 67c65 0 120 -40 120 -135v-172c0 -42 22 -80 52 -80
c9 0 17 3 34 12zM241 78v117c-100 -14 -144 -42 -144 -90c0 -34 30 -61 66 -61c22 0 47 11 78 34zM126 623c27 0 49 -22 49 -49s-22 -50 -49 -50s-50 23 -50 50s23 49 50 49zM268 623c27 0 49 -22 49 -49s-22 -50 -49 -50s-50 23 -50 50s23 49 50 49z" />
    <glyph glyph-name="agrave" unicode="&#xe0;" horiz-adv-x="406" 
d="M393 45v-28c-30 -20 -50 -29 -69 -29c-28 0 -51 16 -73 57c-67 -46 -94 -57 -123 -57c-50 0 -93 51 -93 111c0 56 33 89 100 106l106 27v55c0 59 -21 84 -72 84c-39 0 -75 -19 -113 -41l-7 23c49 47 90 67 138 67c65 0 120 -40 120 -135v-172c0 -42 22 -80 52 -80
c9 0 17 3 34 12zM241 78v117c-100 -14 -144 -42 -144 -90c0 -34 30 -61 66 -61c22 0 47 11 78 34zM265 499h-20l-157 164h103z" />
    <glyph glyph-name="aring" unicode="&#xe5;" horiz-adv-x="406" 
d="M393 45v-28c-30 -20 -50 -29 -69 -29c-28 0 -51 16 -73 57c-67 -46 -94 -57 -123 -57c-50 0 -93 51 -93 111c0 56 33 89 100 106l106 27v55c0 59 -21 84 -72 84c-39 0 -75 -19 -113 -41l-7 23c49 47 90 67 138 67c65 0 120 -40 120 -135v-172c0 -42 22 -80 52 -80
c9 0 17 3 34 12zM241 78v117c-100 -14 -144 -42 -144 -90c0 -34 30 -61 66 -61c22 0 47 11 78 34zM197 670c50 0 91 -41 91 -91s-41 -91 -91 -91s-91 41 -91 91s41 91 91 91zM197 643c-35 0 -64 -29 -64 -64s29 -64 64 -64s64 29 64 64s-29 64 -64 64z" />
    <glyph glyph-name="atilde" unicode="&#xe3;" horiz-adv-x="406" 
d="M393 45v-28c-30 -20 -50 -29 -69 -29c-28 0 -51 16 -73 57c-67 -46 -94 -57 -123 -57c-50 0 -93 51 -93 111c0 56 33 89 100 106l106 27v55c0 59 -21 84 -72 84c-39 0 -75 -19 -113 -41l-7 23c49 47 90 67 138 67c65 0 120 -40 120 -135v-172c0 -42 22 -80 52 -80
c9 0 17 3 34 12zM241 78v117c-100 -14 -144 -42 -144 -90c0 -34 30 -61 66 -61c22 0 47 11 78 34zM88 528h-22c7 56 43 102 81 102c36 0 94 -41 128 -41c25 0 38 13 45 41h21c-3 -54 -40 -103 -79 -103c-40 0 -94 41 -129 41c-24 0 -38 -12 -45 -40z" />
    <glyph glyph-name="ccedilla" unicode="&#xe7;" horiz-adv-x="406" 
d="M174 -81l27 73c-116 22 -166 132 -166 221c0 104 63 207 199 207c45 0 77 -10 106 -32l5 30h22v-119h-16c-17 61 -59 94 -116 94c-83 0 -128 -67 -128 -163c0 -115 62 -196 149 -196c98 0 113 46 127 46c5 0 8 -7 8 -17c0 -18 -61 -75 -147 -75c-7 0 -14 1 -19 2l-12 -33
c33 -6 52 -30 52 -64c0 -47 -43 -91 -123 -81v26c55 -3 73 26 73 43c0 22 -15 36 -41 38z" />
    <glyph glyph-name="eacute" unicode="&#xe9;" horiz-adv-x="427" 
d="M396 241h-286c-8 -88 37 -213 159 -213c44 0 81 14 134 48l-7 -37c-51 -36 -95 -51 -150 -51c-122 0 -208 96 -208 230c0 121 72 202 180 202c95 0 166 -71 178 -179zM110 273h214c-5 79 -58 120 -116 120c-54 0 -96 -57 -98 -120zM152 499l74 164h103l-157 -164h-20z
" />
    <glyph glyph-name="ecircumflex" unicode="&#xea;" horiz-adv-x="427" 
d="M396 241h-286c-8 -88 37 -213 159 -213c44 0 81 14 134 48l-7 -37c-51 -36 -95 -51 -150 -51c-122 0 -208 96 -208 230c0 121 72 202 180 202c95 0 166 -71 178 -179zM110 273h214c-5 79 -58 120 -116 120c-54 0 -96 -57 -98 -120zM83 503l107 151h48l107 -151h-28
l-103 79l-104 -79h-27z" />
    <glyph glyph-name="edieresis" unicode="&#xeb;" horiz-adv-x="427" 
d="M396 241h-286c-8 -88 37 -213 159 -213c44 0 81 14 134 48l-7 -37c-51 -36 -95 -51 -150 -51c-122 0 -208 96 -208 230c0 121 72 202 180 202c95 0 166 -71 178 -179zM110 273h214c-5 79 -58 120 -116 120c-54 0 -96 -57 -98 -120zM143 623c27 0 49 -22 49 -49
s-22 -50 -49 -50s-50 23 -50 50s23 49 50 49zM285 623c27 0 49 -22 49 -49s-22 -50 -49 -50s-50 23 -50 50s23 49 50 49z" />
    <glyph glyph-name="egrave" unicode="&#xe8;" horiz-adv-x="427" 
d="M396 241h-286c-8 -88 37 -213 159 -213c44 0 81 14 134 48l-7 -37c-51 -36 -95 -51 -150 -51c-122 0 -208 96 -208 230c0 121 72 202 180 202c95 0 166 -71 178 -179zM110 273h214c-5 79 -58 120 -116 120c-54 0 -96 -57 -98 -120zM275 499h-20l-157 164h103z" />
    <glyph glyph-name="iacute" unicode="&#xed;" horiz-adv-x="271" 
d="M168 408v-376h79v-32h-224v32h79v344h-79v32h145zM74 499l74 164h103l-157 -164h-20z" />
    <glyph glyph-name="icircumflex" unicode="&#xee;" horiz-adv-x="271" 
d="M168 408v-376h79v-32h-224v32h79v344h-79v32h145zM5 503l107 151h48l107 -151h-28l-103 79l-104 -79h-27z" />
    <glyph glyph-name="idieresis" unicode="&#xef;" horiz-adv-x="271" 
d="M168 408v-376h79v-32h-224v32h79v344h-79v32h145zM65 623c27 0 49 -22 49 -49s-22 -50 -49 -50s-50 23 -50 50s23 49 50 49zM207 623c27 0 49 -22 49 -49s-22 -50 -49 -50s-50 23 -50 50s23 49 50 49z" />
    <glyph glyph-name="igrave" unicode="&#xec;" horiz-adv-x="271" 
d="M168 408v-376h79v-32h-224v32h79v344h-79v32h145zM197 499h-20l-157 164h103z" />
    <glyph glyph-name="ntilde" unicode="&#xf1;" 
d="M96 32v344h-79v32h145v-47c63 43 100 59 145 59c68 0 122 -42 122 -121v-267h74v-32h-214v32h74v236c0 76 -26 111 -85 111c-41 0 -77 -15 -116 -47v-300h72v-32h-217v32h79zM145 528h-22c7 56 43 102 81 102c36 0 94 -41 128 -41c25 0 38 13 45 41h21
c-3 -54 -40 -103 -79 -103c-40 0 -94 41 -129 41c-24 0 -38 -12 -45 -40z" />
    <glyph glyph-name="oacute" unicode="&#xf3;" horiz-adv-x="510" 
d="M34 204c0 124 94 216 221 216s221 -92 221 -216s-94 -216 -221 -216s-221 92 -221 216zM106 204c0 -111 62 -189 149 -189c88 0 149 78 149 188c0 112 -61 190 -149 190c-87 0 -149 -78 -149 -189zM194 499l74 164h103l-157 -164h-20z" />
    <glyph glyph-name="ocircumflex" unicode="&#xf4;" horiz-adv-x="510" 
d="M34 204c0 124 94 216 221 216s221 -92 221 -216s-94 -216 -221 -216s-221 92 -221 216zM106 204c0 -111 62 -189 149 -189c88 0 149 78 149 188c0 112 -61 190 -149 190c-87 0 -149 -78 -149 -189zM125 503l107 151h48l107 -151h-28l-103 79l-104 -79h-27z" />
    <glyph glyph-name="odieresis" unicode="&#xf6;" horiz-adv-x="510" 
d="M34 204c0 124 94 216 221 216s221 -92 221 -216s-94 -216 -221 -216s-221 92 -221 216zM106 204c0 -111 62 -189 149 -189c88 0 149 78 149 188c0 112 -61 190 -149 190c-87 0 -149 -78 -149 -189zM185 623c27 0 49 -22 49 -49s-22 -50 -49 -50s-50 23 -50 50
s23 49 50 49zM327 623c27 0 49 -22 49 -49s-22 -50 -49 -50s-50 23 -50 50s23 49 50 49z" />
    <glyph glyph-name="ograve" unicode="&#xf2;" horiz-adv-x="510" 
d="M34 204c0 124 94 216 221 216s221 -92 221 -216s-94 -216 -221 -216s-221 92 -221 216zM106 204c0 -111 62 -189 149 -189c88 0 149 78 149 188c0 112 -61 190 -149 190c-87 0 -149 -78 -149 -189zM317 499h-20l-157 164h103z" />
    <glyph glyph-name="otilde" unicode="&#xf5;" horiz-adv-x="510" 
d="M34 204c0 124 94 216 221 216s221 -92 221 -216s-94 -216 -221 -216s-221 92 -221 216zM106 204c0 -111 62 -189 149 -189c88 0 149 78 149 188c0 112 -61 190 -149 190c-87 0 -149 -78 -149 -189zM140 528h-22c7 56 43 102 81 102c36 0 94 -41 128 -41c25 0 38 13 45 41
h21c-3 -54 -40 -103 -79 -103c-40 0 -94 41 -129 41c-24 0 -38 -12 -45 -40z" />
    <glyph glyph-name="scaron" unicode="&#x161;" horiz-adv-x="344" 
d="M73 21l-7 -29h-23v121h17c12 -69 64 -98 111 -98c44 0 83 31 83 67c0 92 -212 91 -212 225c0 64 51 113 119 113c30 0 55 -7 92 -27l8 24h18v-104h-18c-18 54 -47 80 -92 80c-43 0 -72 -29 -72 -65c0 -95 215 -99 215 -222c0 -67 -50 -118 -132 -118c-34 0 -62 9 -107 33
zM41 655h27l104 -79l103 79h28l-107 -151h-48z" />
    <glyph glyph-name="uacute" unicode="&#xfa;" 
d="M429 408v-376h72v-32h-138v49c-54 -42 -98 -61 -143 -61c-68 0 -124 42 -124 132v256h-77v32h143v-282c0 -67 47 -98 88 -98c35 0 69 15 113 48v300h-75v32h141zM199 499l74 164h103l-157 -164h-20z" />
    <glyph glyph-name="ucircumflex" unicode="&#xfb;" 
d="M429 408v-376h72v-32h-138v49c-54 -42 -98 -61 -143 -61c-68 0 -124 42 -124 132v256h-77v32h143v-282c0 -67 47 -98 88 -98c35 0 69 15 113 48v300h-75v32h141zM130 503l107 151h48l107 -151h-28l-103 79l-104 -79h-27z" />
    <glyph glyph-name="udieresis" unicode="&#xfc;" 
d="M429 408v-376h72v-32h-138v49c-54 -42 -98 -61 -143 -61c-68 0 -124 42 -124 132v256h-77v32h143v-282c0 -67 47 -98 88 -98c35 0 69 15 113 48v300h-75v32h141zM190 623c27 0 49 -22 49 -49s-22 -50 -49 -50s-50 23 -50 50s23 49 50 49zM332 623c27 0 49 -22 49 -49
s-22 -50 -49 -50s-50 23 -50 50s23 49 50 49z" />
    <glyph glyph-name="ugrave" unicode="&#xf9;" 
d="M429 408v-376h72v-32h-138v49c-54 -42 -98 -61 -143 -61c-68 0 -124 42 -124 132v256h-77v32h143v-282c0 -67 47 -98 88 -98c35 0 69 15 113 48v300h-75v32h141zM322 499h-20l-157 164h103z" />
    <glyph glyph-name="yacute" unicode="&#xfd;" horiz-adv-x="469" 
d="M90 -244l116 276l-131 344h-55v32h176v-32h-54l109 -286l115 286h-50v32h135v-32h-52l-250 -620h-59zM173 499l74 164h103l-157 -164h-20z" />
    <glyph glyph-name="ydieresis" unicode="&#xff;" horiz-adv-x="469" 
d="M90 -244l116 276l-131 344h-55v32h176v-32h-54l109 -286l115 286h-50v32h135v-32h-52l-250 -620h-59zM164 623c27 0 49 -22 49 -49s-22 -50 -49 -50s-50 23 -50 50s23 49 50 49zM306 623c27 0 49 -22 49 -49s-22 -50 -49 -50s-50 23 -50 50s23 49 50 49z" />
    <glyph glyph-name="zcaron" unicode="&#x17e;" horiz-adv-x="406" 
d="M355 32v68h26v-100h-355v16l255 360h-216v-53h-26v85h330v-15l-255 -361h241zM72 655h27l104 -79l103 79h28l-107 -151h-48z" />
    <glyph glyph-name="one.superior" unicode="&#xb9;" horiz-adv-x="302" 
d="M130 314v257l-43 -20l-12 20l105 38v-295h39v-23h-132v23h43z" />
    <glyph glyph-name="two.superior" unicode="&#xb2;" horiz-adv-x="302" 
d="M268 341v-50h-214c11 31 124 128 124 225c0 41 -22 68 -58 68c-26 0 -47 -14 -66 -39l-19 12c22 36 55 54 98 54c61 0 103 -34 103 -83c0 -50 -40 -104 -123 -205h113c13 0 16 5 16 18h26z" />
    <glyph glyph-name="three.superior" unicode="&#xb3;" horiz-adv-x="302" 
d="M34 344l21 7c29 -30 49 -41 76 -41c37 0 64 27 64 64c0 49 -40 74 -104 71v20c61 11 96 38 96 73c0 26 -22 42 -55 42c-27 0 -46 -10 -63 -33l-22 11c23 36 56 53 98 53c55 0 94 -29 94 -70c0 -31 -24 -56 -73 -75v-2c59 -13 87 -39 87 -83c0 -56 -50 -98 -116 -98
c-47 0 -83 21 -103 61z" />
    <glyph glyph-name="Delta" unicode="&#x2206;" horiz-adv-x="581" 
d="M547 0h-515v19l239 580l31 10l245 -590v-19zM463 37l-195 478l-191 -478h386z" />
    <glyph glyph-name="Omega" unicode="&#x2126;" horiz-adv-x="682" 
d="M649 120l-23 -120h-215l-6 17c41 65 129 175 128 310c-1 191 -98 257 -193 257c-104 0 -191 -72 -191 -262c0 -128 74 -227 125 -305l-7 -17h-214l-21 120l20 2c20 -59 34 -70 71 -70h101c-58 49 -154 134 -154 276c0 172 119 281 272 281c156 0 268 -102 268 -272
c0 -125 -88 -219 -156 -285h104c40 0 49 8 70 70z" />
    <glyph glyph-name="uni03BC" unicode="&#x3bc;" horiz-adv-x="500" 
d="M64 408h66v-275c0 -70 47 -93 81 -93c41 0 78 19 120 61v307h66v-319c0 -41 15 -54 32 -54c20 0 32 18 38 55h20c2 -55 -39 -102 -88 -102c-34 0 -67 30 -68 83c-57 -60 -98 -83 -149 -83c-41 0 -70 13 -94 44h-2c0 -100 23 -142 23 -181c0 -28 -15 -47 -36 -47
c-22 0 -38 22 -38 49c0 47 29 96 29 190v365z" />
    <glyph glyph-name="pi" unicode="&#x3c0;" horiz-adv-x="514" 
d="M467 416l20 -8c-7 -33 -20 -58 -32 -73c-14 -3 -38 -4 -64 -4c-4 -52 -3 -152 -3 -215c0 -51 11 -80 41 -80c20 0 31 10 47 28l12 -16c-24 -42 -59 -58 -91 -58c-45 0 -76 23 -76 110c0 79 5 164 10 233c-57 1 -118 2 -155 2v-18c0 -199 -47 -299 -60 -313
c-14 -5 -37 -13 -50 -14l-5 13c67 79 84 243 84 333c-62 0 -87 -19 -118 -43l-13 17c28 32 60 79 151 79c66 -1 159 -3 248 -3c26 0 39 4 54 30z" />
    <glyph glyph-name="Euro" unicode="&#x20ac;" horiz-adv-x="515" 
d="M379 272l-6 -27h-212c14 -151 82 -219 157 -219c49 0 103 18 152 70v-40c-57 -53 -103 -68 -152 -68c-119 0 -216 109 -234 257h-57l6 27h49c0 8 -1 16 -1 24c0 11 0 22 1 32h-54l6 27h51c20 150 115 256 229 256c42 0 55 -6 104 -28l7 35h31v-161h-31
c-22 79 -63 116 -117 116c-92 0 -139 -80 -148 -218h234l-6 -27h-229v-23c0 -11 -1 -22 0 -33h220z" />
    <glyph glyph-name="afii61289" unicode="&#x2113;" horiz-adv-x="365" 
d="M333 99l16 -14c-35 -62 -82 -95 -146 -95c-41 0 -70 12 -89 34c-20 24 -31 56 -31 126v74l-57 -43l-10 19l67 54v110c0 148 7 196 47 239c22 26 46 38 73 38c53 0 78 -56 78 -115c0 -104 -59 -186 -135 -262v-80c0 -119 33 -151 85 -151c44 0 77 30 102 66zM146 418v-117
c53 62 93 144 93 223c0 49 -15 91 -45 91c-35 0 -48 -57 -48 -197z" />
    <glyph glyph-name="estimated" unicode="&#x212e;" horiz-adv-x="750" 
d="M720 290h-559c-3 0 -5 -1 -5 -3v-170c0 -7 3 -14 7 -19c55 -56 129 -92 212 -92c89 0 168 40 223 103h49c-61 -73 -162 -120 -273 -120c-190 0 -345 138 -345 310s155 311 345 311c191 0 346 -139 346 -311v-9zM593 312v171c0 7 -3 14 -8 20c-55 53 -128 88 -210 88
s-156 -36 -211 -91c-5 -5 -8 -13 -8 -21v-167c0 -1 2 -5 5 -5h428c3 0 4 4 4 5z" />
    <glyph glyph-name="partialdiff" unicode="&#x2202;" horiz-adv-x="483" 
d="M239 379h1c44 0 99 -22 131 -68c3 29 6 58 6 92c1 45 -6 94 -25 141c-19 43 -68 92 -126 92c-48 0 -93 -24 -126 -51c-14 -2 -33 30 -25 50c31 20 75 38 129 38c87 0 144 -47 186 -124c37 -66 45 -151 45 -201c0 -65 -11 -155 -44 -224c-38 -79 -97 -134 -184 -134
c-100 0 -167 69 -167 178c0 61 24 112 53 146c34 37 89 65 146 65zM258 346h-1c-41 0 -77 -14 -107 -52c-29 -40 -41 -96 -41 -155c-1 -67 37 -123 98 -123c53 0 90 45 112 91c26 54 35 99 46 169c-12 25 -55 70 -107 70z" />
    <glyph glyph-name="product" unicode="&#x220f;" horiz-adv-x="622" 
d="M596 602v-21c-80 -5 -83 -10 -83 -54v-516c0 -53 6 -60 81 -65v-21h-227v21c75 5 80 8 80 65v536c0 25 -6 28 -32 28h-210c-26 0 -30 -3 -30 -24v-540c0 -52 0 -59 72 -65v-21h-219v21c73 6 80 10 80 65v516c0 45 -5 49 -83 54v21h571z" />
    <glyph glyph-name="summation" unicode="&#x2211;" horiz-adv-x="506" 
d="M484 84l-38 -161h-420v19l207 309l-202 332v19h414c1 -15 7 -84 11 -141l-21 -4c-8 45 -19 76 -31 93c-11 19 -25 26 -94 26h-193l176 -285l-205 -310h247c79 0 89 4 127 109z" />
    <glyph glyph-name="uni2219" unicode="&#x2219;" horiz-adv-x="313" 
d="M157 343c26 0 46 -20 46 -46s-20 -47 -46 -47s-47 21 -47 47s21 46 47 46z" />
    <glyph glyph-name="radical" unicode="&#x221a;" horiz-adv-x="498" 
d="M481 776l-148 -898l-17 -10l-201 483l-78 -40l-10 27l133 65l162 -401h2l125 783z" />
    <glyph glyph-name="infinity" unicode="&#x221e;" horiz-adv-x="680" 
d="M635 249v-1c0 -86 -64 -140 -134 -140c-54 0 -99 34 -160 105c-47 -54 -94 -105 -166 -105c-71 0 -131 59 -131 137c0 81 59 139 138 139c66 0 116 -49 162 -104c45 50 89 105 163 104c76 0 128 -55 128 -135zM181 151h1c56 0 99 55 135 93c-39 47 -78 99 -141 99
c-54 0 -87 -46 -87 -99c0 -51 37 -93 92 -93zM502 343c-59 0 -105 -64 -135 -95c57 -65 91 -97 137 -97c55 0 87 49 87 94c0 62 -38 98 -89 98z" />
    <glyph glyph-name="integral" unicode="&#x222b;" horiz-adv-x="329" 
d="M145 20l-17 360c-14 291 52 360 129 360c20 0 50 -12 50 -37c0 -23 -16 -35 -34 -35c-27 0 -25 38 -46 38c-20 0 -47 -29 -41 -153l16 -341c15 -320 -55 -384 -130 -384c-30 0 -50 19 -50 39c-1 20 18 37 40 37c23 0 23 -39 43 -39c29 0 45 62 40 155z" />
    <glyph glyph-name="approxequal" unicode="&#x2248;" horiz-adv-x="500" 
d="M430 374l28 -26c-25 -46 -62 -83 -115 -83c-37 0 -62 14 -104 37c-26 15 -52 29 -82 29c-41 0 -66 -30 -89 -64l-29 25c27 50 72 82 124 82c42 0 74 -22 98 -35c32 -17 52 -30 83 -30c36 0 60 22 86 65zM430 224l28 -26c-25 -46 -61 -82 -115 -82c-37 0 -62 13 -104 36
c-27 15 -52 29 -82 29c-41 0 -66 -31 -89 -65l-29 26c27 50 72 83 123 83c44 0 74 -22 99 -35c29 -16 51 -31 84 -31c36 0 58 22 85 65z" />
    <glyph glyph-name="notequal" unicode="&#x2260;" horiz-adv-x="500" 
d="M355 437l-39 -86h138v-44h-157l-59 -127h216v-44h-234l-48 -104l-36 17l40 87h-132v44h152l58 127h-210v44h228l47 102z" />
    <glyph glyph-name="lessequal" unicode="&#x2264;" horiz-adv-x="500" 
d="M452 83l-402 196v47l402 195v-52l-354 -165v-2l354 -167v-52zM454 3h-409v45h409v-45z" />
    <glyph glyph-name="greaterequal" unicode="&#x2265;" horiz-adv-x="500" 
d="M50 521l402 -195v-47l-402 -196v52l353 167v1l-353 166v52zM453 3h-407v45h407v-45z" />
    <glyph glyph-name="lozenge" unicode="&#x25ca;" horiz-adv-x="506" 
d="M462 289l-184 -352h-51l-183 352l184 356h50zM410 289l-155 306h-3l-157 -304l157 -306h3z" />
    <glyph glyph-name="uni00A0" unicode="&#xa0;" horiz-adv-x="260" 
 />
    <glyph glyph-name="uni00AD" unicode="&#xad;" horiz-adv-x="354" 
d="M44 181l16 44h250l-14 -44h-252z" />
    <glyph glyph-name="uni02C9" unicode="&#x2c9;" horiz-adv-x="333" 
d="M18 540v68h297v-68h-297z" />
    <glyph glyph-name="uni2215" unicode="&#x2215;" horiz-adv-x="125" 
d="M-145 -12l376 623h39l-375 -623h-40z" />
    <glyph glyph-name="uni03A9" unicode="&#x3a9;" horiz-adv-x="682" 
d="M649 120l-23 -120h-215l-6 17c41 65 129 175 128 310c-1 191 -98 257 -193 257c-104 0 -191 -72 -191 -262c0 -128 74 -227 125 -305l-7 -17h-214l-21 120l20 2c20 -59 34 -70 71 -70h101c-58 49 -154 134 -154 276c0 172 119 281 272 281c156 0 268 -102 268 -272
c0 -125 -88 -219 -156 -285h104c40 0 49 8 70 70z" />
    </font>
</defs>
</svg>
