<?xml version="1.0" standalone="no"?>
<!DOCTYPE svg PUBLIC "-//W3C//DTD SVG 1.1//EN" "http://www.w3.org/Graphics/SVG/1.1/DTD/svg11.dtd" >
<svg>
<metadata>
Created by FontForge 20120731 at Fri Aug  9 16:23:04 2019
 By www-data
 (C) Copyright 1991, 1998, 2002 The Monotype Corporation PLC. All Rights Reserved. 
</metadata>
<defs>
<font id="JoannaMTStd-Bold" horiz-adv-x="531" >
  <font-face 
    font-family="Joanna MT Std"
    font-weight="700"
    font-stretch="normal"
    units-per-em="1000"
    panose-1="2 6 8 4 5 4 5 3 2 3"
    ascent="658"
    descent="-342"
    x-height="427"
    cap-height="599"
    bbox="-174 -250 1006 839"
    underline-thickness="50"
    underline-position="-50"
    stemh="46"
    stemv="115"
    unicode-range="U+0020-FB02"
  />
<missing-glyph horiz-adv-x="500" 
d="M0 0v700h500v-700h-500zM250 395l170 255h-340zM280 350l170 -255v510zM80 50h340l-170 255zM50 605v-510l170 255z" />
    <glyph glyph-name="f_i" unicode="fi" horiz-adv-x="583" 
d="M30 0v46h71v319h-65v62h65c0 79 25 140 76 193c56 58 148 67 304 60v-137h-39c-6 65 -34 98 -83 98c-99 0 -152 -93 -143 -214h272v-381h73v-46h-247v46h59v319h-157v-319h63v-46h-249z" />
    <glyph glyph-name="f_l" unicode="fl" 
d="M30 0v46h71v319h-65v62h65c0 76 25 139 70 184c64 64 130 79 317 69v-634h73v-46h-247v46h59v319h-157v-319h63v-46h-249zM373 427v172c0 29 -9 42 -28 42c-48 0 -139 -49 -128 -214h156z" />
    <glyph glyph-name=".notdef" horiz-adv-x="500" 
d="M0 0v700h500v-700h-500zM250 395l170 255h-340zM280 350l170 -255v510zM80 50h340l-170 255zM50 605v-510l170 255z" />
    <glyph glyph-name="space" unicode=" " horiz-adv-x="224" 
 />
    <glyph glyph-name="exclam" unicode="!" horiz-adv-x="323" 
d="M176 189h-30l-20 110c-17 93 -22 109 -22 152c0 101 22 160 57 160s57 -59 57 -160c0 -43 -5 -59 -22 -152zM161 146c44 0 79 -35 79 -79s-35 -79 -79 -79s-79 35 -79 79s35 79 79 79z" />
    <glyph glyph-name="quotedbl" unicode="&#x22;" horiz-adv-x="555" 
d="M395 683c41 0 72 -32 72 -75c0 -18 -4 -41 -10 -63l-51 -187h-22l-51 187c-6 22 -10 45 -10 63c0 43 31 75 72 75zM159 683c41 0 72 -32 72 -75c0 -18 -4 -41 -10 -63l-51 -187h-22l-51 187c-6 22 -10 45 -10 63c0 43 31 75 72 75z" />
    <glyph glyph-name="numbersign" unicode="#" horiz-adv-x="668" 
d="M40 492h155l40 191h81l-40 -191h184l40 191h81l-40 -191h86v-81h-103l-33 -159h136v-81h-153l-40 -190h-81l40 190h-184l-40 -190h-81l40 190h-88v81h105l33 159h-138v81zM259 411l-33 -159h184l33 159h-184z" />
    <glyph glyph-name="dollar" unicode="$" horiz-adv-x="542" 
d="M71 86l17 92c40 -68 70 -102 125 -121v231c-100 63 -142 117 -142 181c0 75 55 129 142 141v48h41v-48c14 1 30 1 44 0v48h40v-54c44 -14 83 -35 107 -56l-21 -71c-23 18 -61 42 -86 55v-200c82 -39 135 -108 135 -175c0 -84 -69 -141 -135 -161v-87h-40v79
c-15 -2 -30 -2 -44 0v-79h-41v81c-66 14 -113 44 -142 96zM254 50c15 -3 30 -2 44 0v184l-44 28v-212zM338 205v-144c36 18 50 37 50 68c0 32 -16 57 -50 76zM254 554v-167l44 -29v188c-17 6 -26 7 -44 8zM213 417v136c-37 -8 -55 -27 -55 -57c0 -27 16 -49 55 -79z" />
    <glyph glyph-name="percent" unicode="%" horiz-adv-x="708" 
d="M189 447c0 83 -10 124 -40 124s-40 -41 -40 -124s10 -124 40 -124c33 0 40 41 40 124zM206 -14h-61l356 625h62zM599 150c0 83 -10 124 -40 124s-40 -41 -40 -124s10 -124 40 -124c33 0 40 41 40 124zM281 447c0 -111 -82 -164 -132 -164c-75 0 -132 53 -132 164
c0 109 57 164 132 164c70 0 132 -55 132 -164zM691 150c0 -111 -82 -164 -132 -164c-75 0 -132 53 -132 164c0 109 57 164 132 164c70 0 132 -55 132 -164z" />
    <glyph glyph-name="ampersand" unicode="&#x26;" horiz-adv-x="677" 
d="M441 405h201v-50h-64c-11 -60 -58 -155 -100 -214c66 -64 98 -97 138 -97c13 0 23 3 43 12v-34c-32 -23 -63 -34 -101 -34c-45 0 -111 29 -151 68c-49 -43 -116 -68 -179 -68c-111 0 -183 60 -183 153c0 66 41 127 118 174c-42 52 -71 107 -71 151c0 79 60 133 148 133
c92 0 150 -46 150 -120c0 -51 -32 -99 -95 -144c35 -35 104 -113 138 -147c44 65 67 115 79 167h-71v50zM252 380c36 35 46 68 46 101c0 36 -29 67 -61 67c-25 0 -46 -26 -46 -57c0 -27 23 -69 61 -111zM356 103c-60 55 -103 105 -153 162c-24 -22 -36 -51 -36 -86
c0 -58 48 -106 107 -106c27 0 51 9 82 30z" />
    <glyph glyph-name="quoteright" unicode="&#x2019;" horiz-adv-x="250" 
d="M37 432c0 40 57 13 71 101c-42 11 -67 37 -67 71c0 43 36 79 80 79c50 0 89 -47 89 -108c0 -80 -75 -161 -152 -161c-11 0 -21 9 -21 18z" />
    <glyph glyph-name="parenleft" unicode="(" horiz-adv-x="417" 
d="M367 683l25 -37c-131 -103 -155 -267 -155 -429s24 -326 155 -429l-25 -37c-168 115 -258 280 -258 466s89 352 258 466z" />
    <glyph glyph-name="parenright" unicode=")" horiz-adv-x="417" 
d="M50 -249l-25 37c131 103 155 267 155 429s-24 326 -155 429l25 37c168 -115 258 -280 258 -466s-89 -352 -258 -466z" />
    <glyph glyph-name="asterisk" unicode="*" 
d="M203 459l-154 35l65 118l108 -118c10 6 13 8 25 12l-44 152h125l-43 -152c11 -4 15 -6 25 -12l107 118l66 -118l-155 -35c1 -10 2 -20 0 -32l155 -31l-66 -113l-107 113c-10 -8 -13 -10 -25 -15l43 -149h-125l44 149c-12 5 -16 7 -25 15l-108 -113l-65 113l154 31
c-1 10 -1 22 0 32z" />
    <glyph glyph-name="plus" unicode="+" horiz-adv-x="667" 
d="M64 314h224v224h90v-224h224v-90h-224v-224h-90v224h-224v90z" />
    <glyph glyph-name="comma" unicode="," horiz-adv-x="250" 
d="M37 -105c0 40 57 13 71 101c-42 11 -67 37 -67 71c0 43 36 79 80 79c50 0 89 -47 89 -108c0 -80 -75 -161 -152 -161c-11 0 -21 9 -21 18z" />
    <glyph glyph-name="hyphen" unicode="-" horiz-adv-x="417" 
d="M373 252l-28 -78h-302l27 78h303z" />
    <glyph glyph-name="period" unicode="." horiz-adv-x="250" 
d="M125 146c44 0 79 -35 79 -79s-35 -79 -79 -79s-79 35 -79 79s35 79 79 79z" />
    <glyph glyph-name="slash" unicode="/" horiz-adv-x="547" 
d="M399 658h82l-334 -670h-81z" />
    <glyph glyph-name="zero" unicode="0" 
d="M55 338c0 181 107 273 211 273c103 0 211 -95 211 -272v-53c0 -243 -135 -298 -211 -298c-120 0 -211 113 -211 274v76zM189 301c0 -182 21 -251 76 -251c57 0 78 67 78 251c0 182 -21 251 -77 251c-57 0 -77 -67 -77 -251z" />
    <glyph glyph-name="one" unicode="1" 
d="M321 46h72v-46h-255v46h72v481l-79 -32l-14 41l184 75h20v-565z" />
    <glyph glyph-name="two" unicode="2" 
d="M83 493l-38 21c35 60 104 97 181 97c101 0 179 -71 179 -163s-73 -189 -209 -359h201c18 0 23 9 25 36h44v-125h-397c86 108 208 297 208 425c0 73 -37 119 -94 119c-36 0 -76 -20 -100 -51z" />
    <glyph glyph-name="three" unicode="3" 
d="M138 508l-43 10c38 59 100 93 168 93c93 0 163 -56 163 -130c0 -64 -43 -113 -149 -142v-2c106 -8 176 -74 176 -165c0 -102 -90 -184 -203 -184c-77 0 -148 40 -181 102l39 21c34 -39 66 -56 103 -56c60 0 108 49 108 111c0 66 -51 129 -153 128v44
c87 25 144 79 144 140c0 41 -34 71 -80 71c-33 0 -72 -18 -92 -41z" />
    <glyph glyph-name="four" unicode="4" 
d="M260 167h-239v46l332 396h18v-360h139v-82h-139v-121h65v-46h-244v46h68v121zM260 249v177h-2l-146 -177h148z" />
    <glyph glyph-name="five" unicode="5" 
d="M234 517v-164c147 -11 208 -94 208 -183c0 -105 -90 -182 -211 -182c-74 0 -129 21 -182 70l30 30c41 -35 72 -48 109 -48c72 0 120 47 120 119c0 84 -66 140 -181 147l7 293h296v-82h-196z" />
    <glyph glyph-name="six" unicode="6" 
d="M404 611l13 -38c-117 -47 -194 -140 -215 -230c37 14 62 21 94 21c125 0 175 -103 175 -184c0 -109 -87 -192 -202 -192c-124 0 -218 98 -218 225c0 195 153 356 353 398zM177 198c0 -89 47 -158 106 -158c42 0 75 42 75 96c0 89 -45 161 -101 161c-48 0 -80 -39 -80 -99
z" />
    <glyph glyph-name="seven" unicode="7" 
d="M140 477h-40v122h390l-274 -611h-135l295 526h-236v-37z" />
    <glyph glyph-name="eight" unicode="8" 
d="M173 287c-61 42 -95 96 -95 159c0 99 74 165 184 165c103 0 180 -61 180 -142c0 -56 -36 -112 -91 -142c78 -40 116 -95 116 -166c0 -102 -82 -173 -208 -173c-132 0 -195 85 -195 153c0 59 36 107 109 146zM288 356c33 33 48 67 48 107c0 53 -35 96 -86 96
c-43 0 -79 -37 -79 -80c0 -49 35 -86 117 -123zM234 256c-38 -28 -56 -60 -56 -103c0 -56 45 -113 102 -113c46 0 81 37 81 85c0 49 -36 89 -127 131z" />
    <glyph glyph-name="nine" unicode="9" 
d="M89 -12l-15 36c149 51 212 133 240 230c-40 -19 -66 -22 -95 -22c-94 0 -167 84 -167 190s87 189 200 189c125 0 217 -99 217 -234c0 -206 -207 -358 -380 -389zM163 460c0 -46 25 -161 102 -161c48 0 77 34 77 88c0 68 -31 167 -102 167c-46 0 -77 -37 -77 -94z" />
    <glyph glyph-name="colon" unicode=":" horiz-adv-x="250" 
d="M125 439c44 0 79 -35 79 -79s-35 -79 -79 -79s-79 35 -79 79s35 79 79 79zM125 146c44 0 79 -35 79 -79s-35 -79 -79 -79s-79 35 -79 79s35 79 79 79z" />
    <glyph glyph-name="semicolon" unicode=";" horiz-adv-x="250" 
d="M37 -105c0 40 57 13 71 101c-42 11 -67 37 -67 71c0 43 36 79 80 79c50 0 89 -47 89 -108c0 -80 -75 -161 -152 -161c-11 0 -21 9 -21 18zM125 439c44 0 79 -35 79 -79s-35 -79 -79 -79s-79 35 -79 79s35 79 79 79z" />
    <glyph glyph-name="less" unicode="&#x3c;" horiz-adv-x="667" 
d="M64 228v82l538 225v-98l-415 -168l415 -168v-98z" />
    <glyph glyph-name="equal" unicode="=" horiz-adv-x="667" 
d="M64 430h538v-90h-538v90zM64 198h538v-90h-538v90z" />
    <glyph glyph-name="greater" unicode="&#x3e;" horiz-adv-x="667" 
d="M603 228l-538 -225v98l415 168l-415 168v98l538 -225v-82z" />
    <glyph glyph-name="question" unicode="?" horiz-adv-x="385" 
d="M137 177l-24 27c6 106 119 188 119 262c0 36 -30 65 -67 65c-38 0 -74 -28 -109 -78h-8l15 104c49 37 92 54 136 54c80 0 139 -56 139 -131c0 -141 -173 -179 -201 -303zM162 146c44 0 79 -35 79 -79s-35 -79 -79 -79s-79 35 -79 79s35 79 79 79z" />
    <glyph glyph-name="at" unicode="@" horiz-adv-x="930" 
d="M576 454h119l-90 -302c-9 -31 -15 -62 -15 -77c0 -23 17 -41 40 -41c53 0 211 93 211 304c0 182 -129 308 -313 308c-299 0 -432 -248 -432 -451c0 -225 158 -384 382 -384c157 0 338 89 400 270h30c-77 -191 -231 -297 -431 -297c-251 0 -432 179 -432 428
c0 269 199 465 472 465c210 0 351 -132 351 -330c0 -195 -128 -347 -293 -347c-62 0 -99 33 -99 86c0 15 4 41 12 64l-2 2c-54 -99 -109 -152 -166 -152c-51 0 -82 43 -82 110c0 192 161 360 251 360c41 0 62 -23 69 -76h2zM505 439c-56 0 -139 -209 -139 -303
c0 -26 12 -46 28 -46c40 0 143 147 143 283c0 38 -14 66 -32 66z" />
    <glyph glyph-name="A" unicode="A" horiz-adv-x="615" 
d="M72 56l199 555h63l210 -555h50v-56h-230v56h56l-56 147h-178l-52 -147h52v-56h-165v56h51zM206 259h137l-69 189h-2z" />
    <glyph glyph-name="B" unicode="B" horiz-adv-x="573" 
d="M105 56v487h-80v56h256c134 0 197 -65 197 -148c0 -66 -37 -115 -120 -137v-2c133 -14 171 -79 171 -146c0 -79 -62 -166 -206 -166h-298v56h80zM226 332h16c59 0 101 31 101 114c0 62 -33 97 -91 97h-26v-211zM226 56h28c97 0 135 41 135 110c0 71 -49 110 -137 110h-26
v-220z" />
    <glyph glyph-name="C" unicode="C" horiz-adv-x="583" 
d="M562 117v-61c-50 -41 -139 -68 -223 -68c-178 0 -308 128 -308 301c0 149 98 320 327 320c48 0 84 -6 132 -21l8 31h44v-180h-52c-13 71 -66 114 -140 114c-110 0 -175 -92 -175 -251c0 -190 106 -258 194 -258c64 0 139 29 193 73z" />
    <glyph glyph-name="D" unicode="D" horiz-adv-x="667" 
d="M109 56v487h-83v56h236c156 0 231 -30 286 -85c66 -66 87 -154 87 -226c0 -140 -76 -288 -317 -288h-292v56h83zM230 56h71c107 0 190 66 190 231c0 128 -58 256 -223 256h-38v-487z" />
    <glyph glyph-name="E" unicode="E" horiz-adv-x="479" 
d="M108 56v487h-81v56h435v-139h-62v83h-171v-210h129v73h62v-214h-62v85h-129v-221h178v88h62v-144h-442v56h81z" />
    <glyph glyph-name="F" unicode="F" horiz-adv-x="479" 
d="M107 56v487h-81v56h433v-138h-62v82h-169v-215h127v73h62v-213h-62v84h-127v-216h83v-56h-285v56h81z" />
    <glyph glyph-name="G" unicode="G" horiz-adv-x="667" 
d="M563 619v-179h-58c-25 77 -93 115 -158 115c-107 0 -176 -100 -176 -257s76 -254 200 -254c47 0 71 11 71 53v147h-82v56h280v-56h-77v-229c-68 -18 -133 -27 -200 -27c-215 0 -332 142 -332 311c0 185 129 312 318 312c53 0 101 -9 150 -28l13 36h51z" />
    <glyph glyph-name="H" unicode="H" horiz-adv-x="729" 
d="M227 338h276v205h-83v56h287v-56h-83v-487h83v-56h-287v56h83v210h-276v-210h84v-56h-289v56h84v487h-84v56h289v-56h-84v-205z" />
    <glyph glyph-name="I" unicode="I" horiz-adv-x="365" 
d="M123 56v487h-83v56h284v-56h-80v-487h80v-56h-284v56h83z" />
    <glyph glyph-name="J" unicode="J" horiz-adv-x="344" 
d="M-47 -130v33c123 -27 161 76 161 156v484h-83v56h286v-56h-82v-447c0 -128 -57 -244 -186 -244c-36 0 -67 6 -96 18z" />
    <glyph glyph-name="K" unicode="K" horiz-adv-x="625" 
d="M107 56v487h-81v56h283v-56h-81v-227l195 227h-81v56h241v-56h-84l-157 -184l212 -303h67v-56h-285v56h77l-185 259v-259h81v-56h-283v56h81z" />
    <glyph glyph-name="L" unicode="L" horiz-adv-x="500" 
d="M106 56v487h-80v56h283v-56h-82v-487h191v91h62v-147h-454v56h80z" />
    <glyph glyph-name="M" unicode="M" horiz-adv-x="833" 
d="M107 56v487h-81v56h218v-56l171 -353l168 353v56h225v-56h-80v-487h80v-56h-285v56h84v378h-2l-205 -434h-23l-200 417h-2v-361h81v-56h-230v56h81z" />
    <glyph glyph-name="N" unicode="N" horiz-adv-x="729" 
d="M104 56v487h-80v56h192v-56l338 -370v370h-85v56h236v-56h-83v-543h-62l-388 418v-362h82v-56h-230v56h80z" />
    <glyph glyph-name="O" unicode="O" horiz-adv-x="719" 
d="M29 300c0 181 138 311 330 311c193 0 330 -130 330 -311c0 -182 -137 -312 -330 -312c-192 0 -330 130 -330 312zM173 300c0 -172 89 -256 186 -256c96 0 186 82 186 262c0 126 -66 249 -186 249c-101 0 -186 -88 -186 -255z" />
    <glyph glyph-name="P" unicode="P" 
d="M109 56v487h-80v56h280c140 0 185 -102 185 -174c0 -101 -76 -176 -179 -176c-29 0 -50 3 -85 11v-204h84v-56h-285v56h80zM230 543v-220c21 -4 33 -5 44 -5c56 0 91 40 91 104c0 77 -41 121 -111 121h-24z" />
    <glyph glyph-name="Q" unicode="Q" horiz-adv-x="719" 
d="M280 -7c-151 28 -251 153 -251 305c0 182 138 313 330 313c193 0 330 -131 330 -313c0 -153 -99 -275 -250 -305c57 -88 106 -126 161 -126c21 0 44 4 78 14v-34c-51 -35 -89 -48 -143 -48c-94 0 -175 41 -255 194zM173 304c0 -153 73 -260 186 -260
c103 0 186 95 186 259c0 138 -68 252 -186 252c-113 0 -186 -107 -186 -251z" />
    <glyph glyph-name="R" unicode="R" horiz-adv-x="604" 
d="M108 56v487h-80v56h261c127 0 192 -72 192 -156c0 -65 -41 -131 -141 -149v-2c37 -10 63 -19 91 -47c33 -33 77 -98 121 -189h56v-56h-167l-3 7l-59 121c-45 93 -87 136 -123 136h-27v-208h82v-56h-283v56h80zM229 320h22c63 0 102 42 102 110c0 70 -39 113 -102 113h-22
v-223z" />
    <glyph glyph-name="S" unicode="S" horiz-adv-x="469" 
d="M53 -14v207h62v-72c32 -48 81 -77 126 -77c44 0 83 39 83 84c0 95 -118 98 -216 196c-40 40 -57 73 -57 130c0 93 72 157 177 157c47 0 83 -10 119 -35v43h62v-187h-62v68c-30 35 -63 51 -101 51c-50 0 -89 -33 -89 -76c0 -119 273 -109 273 -315
c0 -100 -76 -172 -181 -172c-53 0 -98 15 -134 44v-46h-62z" />
    <glyph glyph-name="T" unicode="T" horiz-adv-x="594" 
d="M236 56v458h-142v-82h-62v197h62v-30h405v30h62v-197h-62v82h-142v-458h82v-56h-285v56h82z" />
    <glyph glyph-name="U" unicode="U" horiz-adv-x="729" 
d="M108 543h-82v56h286v-56h-83v-302c0 -111 49 -188 146 -188c83 0 142 58 142 194v296h-81v56h263v-56h-78v-292c0 -168 -94 -263 -259 -263c-173 0 -254 102 -254 259v296z" />
    <glyph glyph-name="V" unicode="V" horiz-adv-x="625" 
d="M93 543h-72v56h269v-56h-73l125 -325l119 325h-74v56h217v-56h-74l-206 -555h-19z" />
    <glyph glyph-name="W" unicode="W" horiz-adv-x="958" 
d="M72 543h-64v56h249v-56h-61l131 -335l113 297l-11 38h-70v56h263v-56h-69l133 -335l125 335h-65v56h195v-56h-61l-211 -555h-18l-175 430l-165 -430h-17z" />
    <glyph glyph-name="X" unicode="X" horiz-adv-x="625" 
d="M6 543v56h279v-56h-69l106 -157l115 157h-70v56h221v-56h-69l-159 -212l187 -275h56v-56h-257v56h60l-121 177l-129 -177h60v-56h-199v56h58l174 234l-174 253h-69z" />
    <glyph glyph-name="Y" unicode="Y" horiz-adv-x="604" 
d="M11 543v56h281v-56h-65l120 -162l109 162h-65v56h206v-56h-61l-161 -233v-254h81v-56h-284v56h82v254l-171 233h-72z" />
    <glyph glyph-name="Z" unicode="Z" horiz-adv-x="573" 
d="M47 456v143h495v-24l-355 -513h277v85h62v-147h-507v23l356 514h-266v-81h-62z" />
    <glyph glyph-name="bracketleft" unicode="[" horiz-adv-x="427" 
d="M217 612v-810h184v-46h-295v902h295v-46h-184z" />
    <glyph glyph-name="backslash" unicode="\" horiz-adv-x="547" 
d="M147 658l334 -670h-82l-333 670h81z" />
    <glyph glyph-name="bracketright" unicode="]" horiz-adv-x="427" 
d="M210 612h-184v46h295v-902h-295v46h184v810z" />
    <glyph glyph-name="asciicircum" unicode="^" horiz-adv-x="581" 
d="M72 307l198 351h41l198 -351h-74l-145 250l-144 -250h-74z" />
    <glyph glyph-name="underscore" unicode="_" horiz-adv-x="500" 
d="M-6 -75h512v-50h-512v50z" />
    <glyph glyph-name="quoteleft" unicode="&#x2018;" horiz-adv-x="250" 
d="M213 665c0 -40 -57 -13 -71 -101c42 -11 67 -37 67 -71c0 -43 -36 -79 -80 -79c-50 0 -89 47 -89 108c0 80 75 161 152 161c11 0 21 -9 21 -18z" />
    <glyph glyph-name="a" unicode="a" horiz-adv-x="438" 
d="M434 61v-43c-32 -20 -65 -30 -100 -30c-40 0 -74 21 -87 53c-49 -37 -86 -53 -124 -53c-58 0 -100 49 -100 116c0 58 33 90 111 110l103 26v50c0 55 -26 84 -74 84c-33 0 -68 -12 -119 -43l-8 35c50 45 116 73 172 73c83 0 144 -59 144 -141v-190c0 -35 24 -55 50 -55
c11 0 20 2 32 8zM237 191c-85 -20 -108 -40 -108 -79c0 -29 20 -52 46 -52c18 0 41 11 62 28v103z" />
    <glyph glyph-name="b" unicode="b" 
d="M79 612h-73v46h188v-269c33 32 77 50 123 50c104 0 185 -98 185 -225c0 -89 -40 -226 -260 -226c-53 0 -111 5 -163 16v608zM194 335v-289c24 -8 46 -12 66 -12c71 0 114 60 114 160c0 104 -42 173 -105 173c-26 0 -49 -10 -75 -32z" />
    <glyph glyph-name="c" unicode="c" horiz-adv-x="427" 
d="M386 437v-134h-35c-22 63 -52 90 -100 90c-61 0 -96 -61 -96 -164c0 -117 44 -185 119 -185c87 0 98 47 119 47c9 0 17 -20 17 -30s-50 -73 -164 -73c-155 0 -219 127 -219 235c0 125 88 216 210 216c42 0 76 -15 105 -29l9 27h35z" />
    <glyph glyph-name="d" unicode="d" 
d="M336 612h-72v46h187v-612h74v-46h-261c-148 0 -239 86 -239 226c0 118 86 213 194 213c46 0 84 -16 117 -50v223zM336 46v285c-32 31 -57 43 -87 43c-59 0 -96 -59 -96 -156c0 -92 34 -172 152 -172h31z" />
    <glyph glyph-name="e" unicode="e" horiz-adv-x="448" 
d="M420 241h-269c0 -117 56 -197 141 -197c45 0 103 18 136 44l-8 -56c-56 -32 -100 -44 -161 -44c-177 0 -230 133 -230 234c0 128 80 217 196 217c106 0 182 -77 195 -198zM151 287h150c-9 68 -38 106 -79 106c-47 0 -70 -53 -71 -106z" />
    <glyph glyph-name="f" unicode="f" horiz-adv-x="323" 
d="M98 46v319h-70v62h70v14c0 137 43 242 243 242c24 0 54 -2 80 -4v-137h-40c-13 69 -33 95 -75 95c-68 0 -93 -69 -93 -141v-69h103v-62h-103v-319h82v-46h-267v46h70z" />
    <glyph glyph-name="g" unicode="g" horiz-adv-x="469" 
d="M462 427v-52h-70c22 -25 35 -62 35 -98c0 -43 -18 -83 -51 -116c-73 -73 -175 -45 -175 -86c0 -42 152 -33 229 -110c17 -17 30 -43 30 -68c0 -86 -90 -146 -219 -146c-95 0 -216 34 -216 113c0 50 34 83 119 107c-34 22 -49 43 -49 70c0 32 35 61 93 73v2
c-47 10 -84 31 -109 59s-38 63 -38 105c0 98 70 159 181 159c24 0 48 -3 70 -6s42 -6 56 -6h114zM160 265c0 -77 27 -118 76 -118c48 0 74 42 74 117c0 82 -27 129 -74 129c-48 0 -76 -46 -76 -128zM189 -46c-44 -32 -58 -49 -58 -74c0 -39 48 -64 126 -64
c63 0 104 20 104 49c0 46 -100 62 -172 89z" />
    <glyph glyph-name="h" unicode="h" horiz-adv-x="552" 
d="M200 658v-282c53 38 107 63 152 63c68 0 118 -53 118 -126v-267h75v-46h-252v46h62v244c0 50 -23 77 -65 77c-24 0 -56 -13 -90 -35v-286h61v-46h-252v46h76v566h-76v46h191z" />
    <glyph glyph-name="i" unicode="i" horiz-adv-x="302" 
d="M96 46v335h-76v46h191v-381h68v-46h-259v46h76zM146 512c-40 0 -73 33 -73 73s33 73 73 73s73 -33 73 -73s-33 -73 -73 -73z" />
    <glyph glyph-name="j" unicode="j" horiz-adv-x="292" 
d="M21 381v46h189v-450c0 -194 -133 -226 -178 -226c-12 0 -21 9 -21 21c0 36 84 41 84 151v458h-74zM145 512c-40 0 -73 33 -73 73s33 73 73 73s73 -33 73 -73s-33 -73 -73 -73z" />
    <glyph glyph-name="k" unicode="k" horiz-adv-x="510" 
d="M84 46v566h-74v46h189v-431l143 154h-77v46h212v-46h-69l-110 -119l165 -216h41v-46h-215v46h47l-135 179h-2v-179h60v-46h-249v46h74z" />
    <glyph glyph-name="l" unicode="l" horiz-adv-x="302" 
d="M96 46v566h-74v46h189v-612h74v-46h-263v46h74z" />
    <glyph glyph-name="m" unicode="m" horiz-adv-x="833" 
d="M84 46v335h-75v46h190v-51c50 40 109 63 159 63c47 0 82 -24 107 -74c44 42 118 74 171 74c76 0 115 -65 115 -133v-260h75v-46h-248v46h58v221c0 70 -18 103 -62 103c-28 0 -68 -14 -99 -37v-287h60v-46h-233v46h58v221c0 70 -16 103 -64 103c-27 0 -61 -11 -97 -37
v-287h60v-46h-250v46h75z" />
    <glyph glyph-name="n" unicode="n" horiz-adv-x="552" 
d="M86 46v335h-75v46h190v-52c57 39 98 64 151 64c75 0 119 -49 119 -131v-262h75v-46h-252v46h62v255c0 43 -29 66 -61 66c-28 0 -55 -10 -94 -34v-287h60v-46h-250v46h75z" />
    <glyph glyph-name="o" unicode="o" 
d="M26 213c0 100 67 226 241 226c159 0 238 -115 238 -226c0 -106 -72 -225 -239 -225c-178 0 -240 132 -240 225zM154 215c0 -114 42 -181 112 -181c68 0 111 65 111 175c0 116 -38 184 -111 184c-78 0 -112 -77 -112 -178z" />
    <glyph glyph-name="p" unicode="p" 
d="M79 -198v579h-73v46h188v-46c48 40 91 58 136 58c103 0 174 -92 174 -224s-82 -227 -196 -227c-40 0 -72 10 -114 36v-222h73v-46h-261v46h73zM194 326v-235c26 -31 57 -47 88 -47c56 0 94 64 94 157c0 98 -39 163 -98 163c-27 0 -50 -11 -84 -38z" />
    <glyph glyph-name="q" unicode="q" 
d="M262 -198h75v211c-27 -15 -71 -25 -114 -25c-113 0 -196 92 -196 216c0 118 59 235 287 235c55 0 110 -5 138 -12v-625h75v-46h-265v46zM337 70v311c-13 3 -21 4 -35 4c-98 0 -147 -57 -147 -171c0 -102 46 -170 115 -170c21 0 39 7 67 26z" />
    <glyph glyph-name="r" unicode="r" horiz-adv-x="396" 
d="M86 46v335h-75v46h190v-72h2c18 27 35 48 52 62c17 15 35 22 53 22c21 0 50 -18 69 -42c-5 -39 -21 -87 -42 -121c-24 44 -44 61 -72 61c-24 0 -36 -13 -62 -42v-249h74v-46h-264v46h75z" />
    <glyph glyph-name="s" unicode="s" horiz-adv-x="354" 
d="M29 -7v133h29c18 -58 57 -92 106 -92c33 0 59 17 59 51c0 69 -198 88 -198 223c0 74 63 131 145 131c30 0 54 -7 82 -25l8 22h32v-114h-32c-18 51 -39 71 -78 71c-36 0 -59 -16 -59 -41c0 -87 203 -86 203 -231c0 -79 -63 -133 -152 -133c-37 0 -72 8 -105 25l-5 -20h-35
z" />
    <glyph glyph-name="t" unicode="t" horiz-adv-x="323" 
d="M66 371h-64l179 172v-116h120v-56h-120v-244c0 -55 19 -93 57 -93c34 0 55 32 71 32c8 0 13 -4 13 -12c0 -21 -39 -66 -127 -66c-89 0 -129 45 -129 144v239z" />
    <glyph glyph-name="u" unicode="u" horiz-adv-x="552" 
d="M469 46h75v-46h-190v41c-56 -39 -106 -53 -147 -53c-94 0 -122 57 -122 120v273h-75v46h190v-310c0 -40 21 -69 58 -69c26 0 53 11 96 37v296h-74v46h189v-381z" />
    <glyph glyph-name="v" unicode="v" horiz-adv-x="469" 
d="M63 381h-55v46h229v-46h-54l95 -212l74 212h-59v46h169v-46h-58l-144 -390h-23z" />
    <glyph glyph-name="w" unicode="w" horiz-adv-x="771" 
d="M69 381h-55v46h236v-46h-58l96 -214l79 214h-60v46h218v-46h-55l97 -214l79 214h-65v46h176v-46h-60l-148 -390h-24l-141 303l-114 -303h-20z" />
    <glyph glyph-name="x" unicode="x" horiz-adv-x="500" 
d="M66 381h-55v46h244v-46h-52l62 -94l69 94h-54v46h174v-46h-58l-99 -135l135 -200h60v-46h-249v46h52l-69 105l-77 -105h66v-46h-197v46h69l109 147z" />
    <glyph glyph-name="y" unicode="y" horiz-adv-x="479" 
d="M63 381h-53v46h225v-46h-54l92 -258l97 258h-49v46h146v-46h-48l-238 -625h-100l119 256z" />
    <glyph glyph-name="z" unicode="z" horiz-adv-x="406" 
d="M69 319h-45v108h375v-23l-232 -358h186v75h46v-121h-391v23l238 358h-177v-62z" />
    <glyph glyph-name="braceleft" unicode="{" horiz-adv-x="394" 
d="M80 221c63 6 93 54 93 107c0 49 -23 115 -23 158c0 77 69 159 201 159v-19c-56 -6 -95 -50 -95 -93c0 -59 24 -95 24 -165c0 -65 -49 -137 -160 -160v-2c111 -23 160 -95 160 -160c0 -70 -24 -106 -24 -165c0 -43 39 -87 95 -93v-19c-132 0 -201 82 -201 159
c0 43 23 109 23 158c0 53 -30 101 -93 107v28z" />
    <glyph glyph-name="bar" unicode="|" horiz-adv-x="566" 
d="M237 750h91v-1000h-91v1000z" />
    <glyph glyph-name="braceright" unicode="}" horiz-adv-x="394" 
d="M314 193c-63 -6 -93 -54 -93 -107c0 -49 23 -115 23 -158c0 -77 -69 -159 -201 -159v19c56 6 95 50 95 93c0 59 -24 95 -24 165c0 65 49 137 160 160v2c-111 23 -160 95 -160 160c0 70 24 106 24 165c0 43 -39 87 -95 93v19c132 0 201 -82 201 -159
c0 -43 -23 -109 -23 -158c0 -53 30 -101 93 -107v-28z" />
    <glyph glyph-name="asciitilde" unicode="~" horiz-adv-x="667" 
d="M571 353h31c-5 -105 -56 -168 -137 -168c-46 0 -100 22 -152 44c-51 22 -99 44 -133 44c-47 0 -75 -29 -84 -87h-31c1 110 59 168 133 168c49 0 104 -22 156 -44c51 -22 99 -45 132 -45c48 0 79 32 85 88z" />
    <glyph glyph-name="exclamdown" unicode="&#xa1;" horiz-adv-x="323" 
d="M147 173h30l20 -110c17 -93 22 -109 22 -152c0 -101 -22 -160 -57 -160s-57 59 -57 160c0 43 5 59 22 152zM162 216c-44 0 -79 35 -79 79s35 79 79 79s79 -35 79 -79s-35 -79 -79 -79z" />
    <glyph glyph-name="cent" unicode="&#xa2;" horiz-adv-x="427" 
d="M82 -162l56 176c-71 40 -111 119 -111 208c0 101 69 238 251 214l38 122h42l-42 -136c10 -4 17 -8 26 -12l9 26h35v-136h-35c-15 44 -29 64 -52 77l-100 -302c17 -18 46 -31 72 -31c80 0 104 46 122 46c10 0 17 -18 17 -23c0 -20 -68 -79 -160 -79c-26 0 -53 3 -78 11
l-50 -161h-40zM174 118l89 272c-80 21 -108 -83 -108 -160c0 -40 6 -81 17 -112h2z" />
    <glyph glyph-name="sterling" unicode="&#xa3;" horiz-adv-x="583" 
d="M144 268h-97v62h87c-17 160 59 281 201 281c51 0 92 -16 126 -47c10 -10 19 -27 19 -36c0 -17 -17 -28 -67 -56c-30 60 -52 77 -93 77c-49 0 -87 -36 -87 -88c0 -13 7 -65 14 -131h146v-62h-146c-3 -55 -8 -78 -18 -107c106 0 132 -90 193 -90c22 0 76 38 77 126h50
c2 -124 -69 -209 -165 -209c-114 0 -102 87 -180 104c-30 -52 -78 -104 -132 -104c-18 0 -35 16 -35 34c0 49 54 107 121 129c4 44 -3 73 -14 117z" />
    <glyph glyph-name="fraction" unicode="&#x2044;" horiz-adv-x="83" 
d="M-112 -37h-62l370 648h62z" />
    <glyph glyph-name="yen" unicode="&#xa5;" horiz-adv-x="604" 
d="M375 298v-90h198v-42h-198v-110h81v-56h-284v56h82v110h-198v42h198v90h-198v44h198l-149 201h-72v56h277v-56h-61l98 -133l89 133h-61v56h202v-56h-61l-141 -201h198v-44h-198z" />
    <glyph glyph-name="florin" unicode="&#x192;" horiz-adv-x="500" 
d="M307 365h63v-46h-63l-21 -367c-8 -138 -82 -201 -160 -201c-28 0 -58 7 -85 21l21 113h28c6 -65 16 -98 41 -98c35 0 48 50 52 134l21 398h-67v46h67l8 115c9 134 69 203 162 203c29 0 56 -7 85 -21l-22 -110h-30c-8 73 -18 96 -39 96c-42 0 -48 -73 -53 -156z" />
    <glyph glyph-name="section" unicode="&#xa7;" horiz-adv-x="583" 
d="M405 -43c0 84 -198 74 -300 176c-29 29 -45 70 -45 107c0 47 28 97 75 132c-34 32 -45 56 -45 91c0 74 61 136 201 136c171 0 196 -104 196 -110c0 -21 -25 -35 -61 -35h-42c-20 59 -57 89 -110 89c-49 0 -86 -24 -86 -54c0 -64 211 -95 285 -169c36 -36 51 -82 51 -119
c0 -41 -18 -82 -59 -128c22 -30 33 -57 33 -89c0 -86 -86 -150 -204 -150c-128 0 -204 53 -204 84c0 32 33 57 110 65c18 -63 59 -97 116 -97c49 0 89 32 89 71zM144 272c0 -91 186 -103 285 -172c10 24 16 45 16 61c0 94 -138 103 -272 182c-20 -30 -29 -52 -29 -71z" />
    <glyph glyph-name="currency" unicode="&#xa4;" horiz-adv-x="692" 
d="M473 516l62 62l61 -62l-61 -62c25 -43 36 -80 36 -127s-11 -83 -36 -126l61 -61l-61 -61l-62 61c-42 -26 -81 -38 -129 -38c-46 0 -83 11 -125 38l-62 -61l-61 61l61 61c-26 43 -37 80 -37 127s10 82 37 126l-61 62l61 62l62 -62c44 26 81 37 127 37s83 -11 127 -37z
M205 328c0 -78 63 -141 141 -141s140 63 140 141c0 77 -62 140 -140 140s-141 -63 -141 -140z" />
    <glyph glyph-name="quotesingle" unicode="'" horiz-adv-x="278" 
d="M139 683c41 0 72 -32 72 -75c0 -18 -4 -41 -10 -63l-51 -187h-22l-51 187c-6 22 -10 45 -10 63c0 43 31 75 72 75z" />
    <glyph glyph-name="quotedblleft" unicode="&#x201c;" horiz-adv-x="469" 
d="M424 493c0 -43 -36 -79 -80 -79c-50 0 -89 47 -89 108c0 80 75 161 152 161c11 0 21 -9 21 -18c0 -40 -57 -13 -71 -101c42 -11 67 -37 67 -71zM215 493c0 -43 -36 -79 -80 -79c-50 0 -89 47 -89 108c0 80 75 161 152 161c11 0 21 -9 21 -18c0 -40 -57 -13 -71 -101
c42 -11 67 -37 67 -71z" />
    <glyph glyph-name="guillemotleft" unicode="&#xab;" horiz-adv-x="563" 
d="M403 207l124 -192h-43l-221 192l221 192h43zM182 207l124 -192h-43l-221 192l221 192h43z" />
    <glyph glyph-name="guilsinglleft" unicode="&#x2039;" horiz-adv-x="344" 
d="M183 207l124 -192h-43l-221 192l221 192h43z" />
    <glyph glyph-name="guilsinglright" unicode="&#x203a;" horiz-adv-x="344" 
d="M161 207l-124 192h43l221 -192l-221 -192h-43z" />
    <glyph glyph-name="endash" unicode="&#x2013;" horiz-adv-x="500" 
d="M-6 282h512v-64h-512v64z" />
    <glyph glyph-name="dagger" unicode="&#x2020;" horiz-adv-x="542" 
d="M28 335v149l217 -49l-60 223h171l-60 -223l218 49v-149l-218 46l60 -625h-171l60 625z" />
    <glyph glyph-name="daggerdbl" unicode="&#x2021;" horiz-adv-x="542" 
d="M28 -97v152l217 -55l-42 207l42 203l-217 -51v152l217 -51l-52 198h156l-53 -198l218 51v-152l-218 51l43 -203l-43 -207l218 55v-152l-218 51l53 -198h-156l52 198z" />
    <glyph glyph-name="periodcentered" unicode="&#xb7;" horiz-adv-x="250" 
d="M125 348c44 0 79 -35 79 -79s-35 -79 -79 -79s-79 35 -79 79s35 79 79 79z" />
    <glyph glyph-name="paragraph" unicode="&#xb6;" horiz-adv-x="540" 
d="M312 625v-841h-49v425c-209 2 -263 129 -263 226c0 113 63 223 246 223h295v-17h-16c-56 0 -76 -21 -76 -73v-784h-49v841h-88z" />
    <glyph glyph-name="bullet" unicode="&#x2022;" horiz-adv-x="350" 
d="M176 470c77 0 139 -62 139 -139s-62 -140 -139 -140s-140 63 -140 140s63 139 140 139z" />
    <glyph glyph-name="quotesinglbase" unicode="&#x201a;" horiz-adv-x="250" 
d="M37 -105c0 40 57 13 71 101c-42 11 -67 37 -67 71c0 43 36 79 80 79c50 0 89 -47 89 -108c0 -80 -75 -161 -152 -161c-11 0 -21 9 -21 18z" />
    <glyph glyph-name="quotedblbase" unicode="&#x201e;" horiz-adv-x="469" 
d="M250 -105c0 40 57 13 71 101c-42 11 -67 37 -67 71c0 43 36 79 80 79c50 0 89 -47 89 -108c0 -80 -75 -161 -152 -161c-11 0 -21 9 -21 18zM41 -105c0 40 57 13 71 101c-42 11 -67 37 -67 71c0 43 36 79 80 79c50 0 89 -47 89 -108c0 -80 -75 -161 -152 -161
c-11 0 -21 9 -21 18z" />
    <glyph glyph-name="quotedblright" unicode="&#x201d;" horiz-adv-x="469" 
d="M254 604c0 43 36 79 80 79c50 0 89 -47 89 -108c0 -80 -75 -161 -152 -161c-11 0 -21 9 -21 18c0 40 57 13 71 101c-42 11 -67 37 -67 71zM45 604c0 43 36 79 80 79c50 0 89 -47 89 -108c0 -80 -75 -161 -152 -161c-11 0 -21 9 -21 18c0 40 57 13 71 101
c-42 11 -67 37 -67 71z" />
    <glyph glyph-name="guillemotright" unicode="&#xbb;" horiz-adv-x="563" 
d="M381 207l-124 192h43l221 -192l-221 -192h-43zM160 207l-124 192h43l221 -192l-221 -192h-43z" />
    <glyph glyph-name="ellipsis" unicode="&#x2026;" horiz-adv-x="1000" 
d="M833 151c44 0 79 -35 79 -79s-35 -79 -79 -79s-79 35 -79 79s35 79 79 79zM500 151c44 0 79 -35 79 -79s-35 -79 -79 -79s-79 35 -79 79s35 79 79 79zM167 151c44 0 79 -35 79 -79s-35 -79 -79 -79s-79 35 -79 79s35 79 79 79z" />
    <glyph glyph-name="perthousand" unicode="&#x2030;" horiz-adv-x="1000" 
d="M110 447c0 -83 10 -124 40 -124c33 0 40 41 40 124s-10 124 -40 124s-40 -41 -40 -124zM202 -14h-61l356 625h62zM812 150c0 -83 10 -124 40 -124c33 0 40 41 40 124s-10 124 -40 124s-40 -41 -40 -124zM18 447c0 109 57 164 132 164c70 0 132 -55 132 -164
c0 -111 -82 -164 -132 -164c-75 0 -132 53 -132 164zM719 150c0 109 57 164 132 164c70 0 132 -55 132 -164c0 -111 -82 -164 -132 -164c-75 0 -132 53 -132 164zM417 150c0 109 57 164 132 164c70 0 132 -55 132 -164c0 -111 -82 -164 -132 -164c-75 0 -132 53 -132 164z
M509 150c0 -83 10 -124 40 -124c33 0 40 41 40 124s-10 124 -40 124s-40 -41 -40 -124z" />
    <glyph glyph-name="questiondown" unicode="&#xbf;" horiz-adv-x="385" 
d="M248 185l24 -27c-6 -106 -119 -188 -119 -262c0 -36 30 -65 67 -65c38 0 74 28 109 78h8l-15 -104c-49 -37 -92 -54 -136 -54c-80 0 -139 56 -139 131c0 141 173 179 201 303zM223 216c-44 0 -79 35 -79 79s35 79 79 79s79 -35 79 -79s-35 -79 -79 -79z" />
    <glyph glyph-name="grave" unicode="`" horiz-adv-x="333" 
d="M201 492l-168 172h122l75 -172h-29z" />
    <glyph glyph-name="acute" unicode="&#xb4;" horiz-adv-x="333" 
d="M132 492h-29l75 172h122z" />
    <glyph glyph-name="circumflex" unicode="&#x2c6;" horiz-adv-x="333" 
d="M167 573l-107 -77h-37l115 162h57l115 -162h-37z" />
    <glyph glyph-name="tilde" unicode="&#x2dc;" horiz-adv-x="333" 
d="M55 521h-32c0 61 42 113 90 113c45 0 93 -37 120 -37c20 0 36 11 42 37h35c-13 -75 -43 -112 -91 -112c-44 0 -94 36 -125 36c-18 0 -34 -15 -39 -37z" />
    <glyph glyph-name="macron" unicode="&#xaf;" horiz-adv-x="333" 
d="M316 542h-298v72h298v-72z" />
    <glyph glyph-name="breve" unicode="&#x2d8;" horiz-adv-x="333" 
d="M38 648h33c12 -35 50 -58 94 -58c46 0 80 20 97 58h33c-8 -76 -61 -141 -128 -141s-120 61 -129 141z" />
    <glyph glyph-name="dotaccent" unicode="&#x2d9;" horiz-adv-x="333" 
d="M167 630c30 0 54 -24 54 -54s-24 -54 -54 -54s-54 24 -54 54s24 54 54 54z" />
    <glyph glyph-name="dieresis" unicode="&#xa8;" horiz-adv-x="333" 
d="M89 630c30 0 54 -24 54 -54s-24 -54 -54 -54s-54 24 -54 54s24 54 54 54zM244 630c30 0 54 -24 54 -54s-24 -54 -54 -54s-54 24 -54 54s24 54 54 54z" />
    <glyph glyph-name="ring" unicode="&#x2da;" horiz-adv-x="333" 
d="M167 674c54 0 97 -43 97 -97s-43 -98 -97 -98s-98 44 -98 98s44 97 98 97zM167 628c-28 0 -51 -23 -51 -51s23 -52 51 -52s52 24 52 52s-24 51 -52 51z" />
    <glyph glyph-name="cedilla" unicode="&#xb8;" horiz-adv-x="333" 
d="M146 8h61l-20 -42c38 -10 65 -43 65 -79c0 -67 -66 -122 -189 -110v50c62 -5 93 17 93 37c0 18 -16 34 -62 32z" />
    <glyph glyph-name="hungarumlaut" unicode="&#x2dd;" horiz-adv-x="333" 
d="M216 492h-29l75 172h122zM54 492h-29l75 172h122z" />
    <glyph glyph-name="ogonek" unicode="&#x2db;" horiz-adv-x="333" 
d="M94 0h79c-13 -26 -18 -44 -18 -63c0 -37 25 -61 65 -61c17 0 29 2 51 9v-98c-27 -8 -48 -11 -69 -11c-83 0 -138 54 -138 128c0 38 7 61 30 96z" />
    <glyph glyph-name="caron" unicode="&#x2c7;" horiz-adv-x="333" 
d="M167 581l106 77h37l-115 -162h-57l-115 162h37z" />
    <glyph glyph-name="emdash" unicode="&#x2014;" horiz-adv-x="1000" 
d="M-6 282h1012v-64h-1012v64z" />
    <glyph glyph-name="AE" unicode="&#xc6;" horiz-adv-x="771" 
d="M7 56h52l303 543h385v-141h-62v85h-181v-221h136v75h62v-215h-62v84h-136v-210h181v87h62v-143h-444v56h80v210h-150l-112 -210h54v-56h-168v56zM383 322v201h-2l-111 -201h113z" />
    <glyph glyph-name="ordfeminine" unicode="&#xaa;" horiz-adv-x="281" 
d="M285 396v-31c-23 -15 -46 -22 -70 -22c-26 0 -41 7 -59 28c-35 -21 -53 -28 -76 -28c-41 0 -71 30 -71 71c0 54 51 63 137 82v28c0 29 -14 44 -42 44c-21 0 -40 -6 -80 -27l-7 28c34 26 78 42 116 42c57 0 99 -35 99 -83v-112c0 -18 11 -30 25 -30c8 0 13 2 28 10z
M146 407v54c-45 -11 -57 -19 -57 -40c0 -15 10 -26 24 -26c8 0 16 3 33 12z" />
    <glyph glyph-name="Lslash" unicode="&#x141;" horiz-adv-x="500" 
d="M106 56v152l-80 -85v66l80 86v268h-80v56h283v-56h-82v-148l85 90v-72l-85 -88v-269h191v91h62v-147h-454v56h80z" />
    <glyph glyph-name="Oslash" unicode="&#xd8;" horiz-adv-x="719" 
d="M521 432l-295 -319c30 -44 84 -69 133 -69c96 0 186 82 186 262c0 55 -12 99 -24 126zM559 554l52 56l40 -37l-51 -55c53 -48 89 -128 89 -218c0 -182 -137 -312 -330 -312c-74 0 -148 22 -197 56l-53 -58l-40 37l51 55c-55 53 -91 132 -91 222c0 181 138 311 330 311
c69 0 141 -19 200 -57zM198 163l295 319c-30 47 -82 73 -134 73c-101 0 -186 -88 -186 -255c0 -42 9 -110 25 -137z" />
    <glyph glyph-name="OE" unicode="&#x152;" horiz-adv-x="823" 
d="M799 0h-447c-203 0 -320 134 -320 298c0 157 104 301 314 301h453v-139h-62v83h-191v-210h145v73h62v-214h-62v85h-145v-221h191v88h62v-144zM425 543h-21c-169 0 -228 -83 -228 -248c0 -181 95 -239 207 -239h42v487z" />
    <glyph glyph-name="ordmasculine" unicode="&#xba;" horiz-adv-x="344" 
d="M13 477c0 78 66 134 159 134s159 -56 159 -134s-66 -134 -159 -134s-159 56 -159 134zM106 478c0 -64 24 -101 65 -101c42 0 66 37 66 101s-24 101 -66 101c-41 0 -65 -37 -65 -101z" />
    <glyph glyph-name="ae" unicode="&#xe6;" horiz-adv-x="688" 
d="M38 305l-14 34c64 67 125 100 185 100c49 0 89 -21 109 -58c42 39 88 58 139 58c110 0 195 -82 202 -194l-281 -43c16 -104 67 -158 147 -158c46 0 99 23 144 48l-10 -57c-54 -29 -121 -47 -174 -47c-70 0 -123 25 -173 82c-56 -48 -126 -82 -177 -82
c-66 0 -111 39 -111 96c0 76 73 115 240 138c0 114 -35 149 -87 149c-43 0 -84 -24 -139 -66zM265 184c-89 -11 -135 -37 -135 -77c0 -31 23 -54 55 -54c28 0 61 16 105 50c-12 21 -20 48 -25 81zM374 241l173 25c-11 79 -47 127 -95 127c-71 0 -87 -80 -78 -152z" />
    <glyph glyph-name="dotlessi" unicode="&#x131;" horiz-adv-x="302" 
d="M96 46v335h-76v46h191v-381h68v-46h-259v46h76z" />
    <glyph glyph-name="lslash" unicode="&#x142;" horiz-adv-x="302" 
d="M96 46v215l-74 -86v57l74 86v294h-74v46h189v-216l75 89v-57l-75 -93v-335h74v-46h-263v46h74z" />
    <glyph glyph-name="oslash" unicode="&#xf8;" 
d="M368 300l-186 -215c19 -34 49 -51 84 -51c68 0 111 65 111 175c0 35 -3 66 -9 91zM406 402l33 37l30 -23l-33 -38c47 -45 69 -109 69 -165c0 -106 -72 -225 -239 -225c-57 0 -107 16 -137 35l-32 -35l-30 23l31 35c-45 42 -72 102 -72 167c0 100 67 226 241 226
c57 0 98 -13 139 -37zM165 124l187 215c-16 37 -50 54 -86 54c-78 0 -112 -77 -112 -178c0 -35 3 -67 11 -91z" />
    <glyph glyph-name="oe" unicode="&#x153;" horiz-adv-x="813" 
d="M783 238h-293c-2 -119 65 -194 162 -194c43 0 88 15 140 47l-9 -61c-52 -27 -116 -42 -179 -42c-70 0 -125 26 -164 78c-54 -59 -96 -78 -172 -78c-135 0 -237 94 -237 229c0 130 99 222 238 222c69 0 120 -23 163 -73c40 49 90 73 154 73c111 0 189 -85 197 -201z
M493 284h172c-3 65 -38 109 -86 109c-49 0 -80 -39 -86 -109zM159 216c0 -118 38 -182 108 -182s105 59 105 176c0 112 -30 183 -106 183c-80 0 -107 -82 -107 -177z" />
    <glyph glyph-name="germandbls" unicode="&#xdf;" 
d="M9 0v46h77v470c0 101 76 167 192 167c110 0 199 -72 199 -163c0 -47 -25 -86 -71 -113c-17 -9 -33 -16 -65 -26l14 -6c60 -26 81 -39 105 -69c29 -34 43 -75 43 -123c0 -106 -75 -195 -164 -195c-48 0 -94 25 -97 53c2 13 4 17 28 45l14 17l8 7c21 -46 40 -66 60 -66
c25 0 40 34 40 90c0 112 -24 180 -74 207c-18 10 -39 15 -71 16v33c80 7 112 42 112 122c0 78 -35 129 -88 129c-24 0 -44 -11 -54 -31c-13 -24 -16 -48 -16 -117v-13v-480h-192z" />
    <glyph glyph-name="logicalnot" unicode="&#xac;" horiz-adv-x="667" 
d="M64 430h538v-322h-90v232h-448v90z" />
    <glyph glyph-name="mu" unicode="&#xb5;" horiz-adv-x="556" 
d="M79 427h126v-319c0 -44 10 -64 39 -64c30 0 52 17 77 59v324h124v-328c0 -28 16 -46 31 -46c19 0 31 22 35 65h20c0 -91 -65 -130 -119 -130c-47 0 -76 22 -91 70c-46 -50 -83 -70 -131 -70c-25 0 -40 5 -68 24c0 -78 27 -104 27 -150c0 -37 -21 -60 -54 -60
c-31 0 -49 20 -49 54c0 46 33 97 33 217v354z" />
    <glyph glyph-name="trademark" unicode="&#x2122;" horiz-adv-x="1000" 
d="M-3 658h379v-110h-17c-4 62 -29 85 -94 85h-19v-287c0 -55 8 -65 50 -65v-21h-221v21c48 3 50 6 50 65v287h-16c-63 0 -90 -24 -96 -85h-16v110zM430 658h180l113 -242l110 242h171v-19c-42 1 -50 -8 -50 -64v-248c0 -30 16 -46 50 -46v-21h-225v21c47 0 54 9 54 65v249
h-2l-152 -335h-12l-154 335h-2v-270c0 -33 14 -44 56 -44v-21h-137v21c49 2 54 8 54 65v229c0 54 -7 64 -45 65l-9 -1v19z" />
    <glyph glyph-name="Eth" unicode="&#xd0;" horiz-adv-x="667" 
d="M109 56v211h-83v65h83v211h-83v56h236c156 0 231 -30 286 -85c66 -66 87 -154 87 -226c0 -140 -76 -288 -317 -288h-292v56h83zM230 56h71c138 0 190 93 190 230c0 128 -58 257 -223 257h-38v-211h155v-65h-155v-211z" />
    <glyph glyph-name="onehalf" unicode="&#xbd;" horiz-adv-x="708" 
d="M207 326h39v-32h-161v32h44v234l-44 -15l-12 27l134 39v-285zM203 -14h-62l358 625h62zM452 250l-30 15c22 32 64 52 113 52c62 0 111 -38 111 -86c0 -41 -30 -87 -120 -182h105c11 0 14 5 14 21h37v-70h-250c50 49 127 155 127 222c0 33 -19 55 -49 55
c-22 0 -43 -10 -58 -27z" />
    <glyph glyph-name="plusminus" unicode="&#xb1;" horiz-adv-x="668" 
d="M65 90h538v-90h-538v90zM65 475h224v214h90v-214h224v-90h-224v-214h-90v214h-224v90z" />
    <glyph glyph-name="Thorn" unicode="&#xde;" 
d="M109 56v487h-80v56h285v-56h-84v-69h79c140 0 185 -102 185 -174c0 -101 -76 -176 -179 -176c-29 0 -50 3 -85 11v-79h84v-56h-285v56h80zM230 418v-220c21 -4 33 -5 44 -5c56 0 91 40 91 104c0 77 -41 121 -111 121h-24z" />
    <glyph glyph-name="onequarter" unicode="&#xbc;" horiz-adv-x="708" 
d="M544 85h-141v26l198 206h20v-186h82v-46h-82v-56h38v-29h-156v29h41v56zM544 131v75l-73 -75h73zM207 326h39v-32h-161v32h44v234l-44 -15l-12 27l134 39v-285zM141 -14l358 625h62l-358 -625h-62z" />
    <glyph glyph-name="divide" unicode="&#xf7;" horiz-adv-x="668" 
d="M65 314h538v-90h-538v90zM334 110c30 0 55 -25 55 -55s-25 -55 -55 -55s-55 25 -55 55s25 55 55 55zM334 538c30 0 55 -25 55 -55s-25 -55 -55 -55s-55 25 -55 55s25 55 55 55z" />
    <glyph glyph-name="brokenbar" unicode="&#xa6;" horiz-adv-x="566" 
d="M237 125h91v-375h-91v375zM237 750h91v-375h-91v375z" />
    <glyph glyph-name="degree" unicode="&#xb0;" horiz-adv-x="400" 
d="M200 683c93 0 169 -76 169 -169s-76 -169 -169 -169s-169 76 -169 169s76 169 169 169zM200 621c-59 0 -107 -48 -107 -107s48 -107 107 -107s107 48 107 107s-48 107 -107 107z" />
    <glyph glyph-name="thorn" unicode="&#xfe;" 
d="M79 -198v810h-73v46h188v-277c48 40 91 58 136 58c103 0 174 -92 174 -224s-82 -227 -196 -227c-40 0 -72 10 -114 36v-222h73v-46h-261v46h73zM194 326v-235c26 -31 57 -47 88 -47c56 0 94 64 94 157c0 98 -39 163 -98 163c-27 0 -50 -11 -84 -38z" />
    <glyph glyph-name="threequarters" unicode="&#xbe;" horiz-adv-x="708" 
d="M83 553l-35 7c25 33 63 51 107 51c58 0 101 -30 101 -69c0 -22 -13 -54 -75 -70v-2c60 -12 92 -42 92 -87c0 -53 -57 -97 -126 -97c-49 0 -92 21 -113 57l31 15c22 -22 39 -31 60 -31c32 0 57 24 57 54c0 40 -33 63 -91 63v27c62 15 85 42 85 68c0 21 -16 34 -41 34
c-19 0 -41 -9 -52 -20zM509 611h62l-358 -625h-62zM554 85h-141v26l198 206h20v-186h82v-46h-82v-56h38v-29h-156v29h41v56zM554 131v75l-73 -75h73z" />
    <glyph glyph-name="registered" unicode="&#xae;" horiz-adv-x="747" 
d="M188 532h207c86 0 143 -39 143 -107c0 -49 -31 -85 -87 -101l67 -122c17 -32 31 -45 51 -49v-16h-118l-100 180h-23v-97c0 -55 8 -65 59 -67v-16h-207v16c40 -1 51 13 51 67v231c0 47 -7 57 -43 60v21zM328 342h28c46 0 76 34 76 86c0 55 -29 83 -86 83h-18v-169z
M373 631c-165 0 -298 -133 -298 -298s133 -299 298 -299s299 134 299 299s-134 298 -299 298zM374 677c190 0 344 -154 344 -344s-154 -345 -344 -345s-345 155 -345 345s155 344 345 344z" />
    <glyph glyph-name="minus" unicode="&#x2212;" horiz-adv-x="667" 
d="M64 314h538v-90h-538v90z" />
    <glyph glyph-name="eth" unicode="&#xf0;" horiz-adv-x="530" 
d="M154 215c0 -114 42 -181 112 -181c68 0 111 65 111 175c0 116 -38 184 -111 184c-78 0 -112 -77 -112 -178zM414 652l-89 -56c132 -115 180 -254 180 -350c0 -163 -97 -258 -241 -258c-165 0 -238 120 -238 228c0 96 73 223 220 223c23 0 44 -4 78 -17l2 2
c-24 64 -45 92 -78 124l-107 -67l-22 31l103 64c-23 23 -51 46 -89 72l55 35c40 -18 76 -39 106 -62l98 62z" />
    <glyph glyph-name="multiply" unicode="&#xd7;" horiz-adv-x="667" 
d="M82 457l63 63l189 -189l189 189l63 -63l-189 -189l188 -188l-63 -63l-188 188l-188 -188l-64 64l188 188z" />
    <glyph glyph-name="copyright" unicode="&#xa9;" horiz-adv-x="747" 
d="M537 540v-129h-17c-13 65 -59 105 -121 105c-80 0 -127 -65 -127 -178c0 -132 50 -181 128 -181c50 0 87 27 120 67v-35c-39 -41 -90 -62 -154 -62c-120 0 -204 82 -204 199c0 124 91 215 216 215c70 0 98 -26 119 -26c13 0 20 8 23 25h17zM373 631
c-165 0 -298 -133 -298 -298s133 -299 298 -299s299 134 299 299s-134 298 -299 298zM374 677c190 0 344 -154 344 -344s-154 -345 -344 -345s-345 155 -345 345s155 344 345 344z" />
    <glyph glyph-name="Aacute" unicode="&#xc1;" horiz-adv-x="615" 
d="M72 56l199 555h63l210 -555h50v-56h-230v56h56l-56 147h-178l-52 -147h52v-56h-165v56h51zM206 259h137l-69 189h-2zM273 657h-29l75 172h122z" />
    <glyph glyph-name="Acircumflex" unicode="&#xc2;" horiz-adv-x="615" 
d="M72 56l199 555h63l210 -555h50v-56h-230v56h56l-56 147h-178l-52 -147h52v-56h-165v56h51zM206 259h137l-69 189h-2zM308 738l-107 -77h-37l115 162h57l115 -162h-37z" />
    <glyph glyph-name="Adieresis" unicode="&#xc4;" horiz-adv-x="615" 
d="M72 56l199 555h63l210 -555h50v-56h-230v56h56l-56 147h-178l-52 -147h52v-56h-165v56h51zM206 259h137l-69 189h-2zM230 795c30 0 54 -24 54 -54s-24 -54 -54 -54s-54 24 -54 54s24 54 54 54zM385 795c30 0 54 -24 54 -54s-24 -54 -54 -54s-54 24 -54 54s24 54 54 54z
" />
    <glyph glyph-name="Agrave" unicode="&#xc0;" horiz-adv-x="615" 
d="M72 56l199 555h63l210 -555h50v-56h-230v56h56l-56 147h-178l-52 -147h52v-56h-165v56h51zM206 259h137l-69 189h-2zM342 657l-168 172h122l75 -172h-29z" />
    <glyph glyph-name="Aring" unicode="&#xc5;" horiz-adv-x="615" 
d="M72 56l199 555h63l210 -555h50v-56h-230v56h56l-56 147h-178l-52 -147h52v-56h-165v56h51zM206 259h137l-69 189h-2zM308 839c54 0 97 -43 97 -97s-43 -98 -97 -98s-98 44 -98 98s44 97 98 97zM308 793c-28 0 -51 -23 -51 -51s23 -52 51 -52s52 24 52 52s-24 51 -52 51z
" />
    <glyph glyph-name="Atilde" unicode="&#xc3;" horiz-adv-x="615" 
d="M72 56l199 555h63l210 -555h50v-56h-230v56h56l-56 147h-178l-52 -147h52v-56h-165v56h51zM206 259h137l-69 189h-2zM196 686h-32c0 61 42 113 90 113c45 0 93 -37 120 -37c20 0 36 11 42 37h35c-13 -75 -43 -112 -91 -112c-44 0 -94 36 -125 36c-18 0 -34 -15 -39 -37z
" />
    <glyph glyph-name="Ccedilla" unicode="&#xc7;" horiz-adv-x="583" 
d="M224 -104l46 99c-141 28 -239 144 -239 296c0 149 98 320 327 320c48 0 84 -6 132 -21l8 33h44v-182h-52c-13 71 -66 114 -140 114c-110 0 -175 -92 -175 -251c0 -192 106 -260 194 -260c64 0 139 29 193 73v-61c-50 -41 -139 -68 -234 -68l-11 -22c38 -10 65 -43 65 -79
c0 -67 -66 -122 -189 -110v50c62 -5 93 17 93 37c0 18 -16 34 -62 32z" />
    <glyph glyph-name="Eacute" unicode="&#xc9;" horiz-adv-x="479" 
d="M108 56v487h-81v56h435v-139h-62v83h-171v-210h129v73h62v-214h-62v85h-129v-221h178v88h62v-144h-442v56h81zM205 657h-29l75 172h122z" />
    <glyph glyph-name="Ecircumflex" unicode="&#xca;" horiz-adv-x="479" 
d="M108 56v487h-81v56h435v-139h-62v83h-171v-210h129v73h62v-214h-62v85h-129v-221h178v88h62v-144h-442v56h81zM240 738l-107 -77h-37l115 162h57l115 -162h-37z" />
    <glyph glyph-name="Edieresis" unicode="&#xcb;" horiz-adv-x="479" 
d="M108 56v487h-81v56h435v-139h-62v83h-171v-210h129v73h62v-214h-62v85h-129v-221h178v88h62v-144h-442v56h81zM162 795c30 0 54 -24 54 -54s-24 -54 -54 -54s-54 24 -54 54s24 54 54 54zM317 795c30 0 54 -24 54 -54s-24 -54 -54 -54s-54 24 -54 54s24 54 54 54z" />
    <glyph glyph-name="Egrave" unicode="&#xc8;" horiz-adv-x="479" 
d="M108 56v487h-81v56h435v-139h-62v83h-171v-210h129v73h62v-214h-62v85h-129v-221h178v88h62v-144h-442v56h81zM274 657l-168 172h122l75 -172h-29z" />
    <glyph glyph-name="Iacute" unicode="&#xcd;" horiz-adv-x="365" 
d="M123 56v487h-83v56h284v-56h-80v-487h80v-56h-284v56h83zM148 657h-29l75 172h122z" />
    <glyph glyph-name="Icircumflex" unicode="&#xce;" horiz-adv-x="365" 
d="M123 56v487h-83v56h284v-56h-80v-487h80v-56h-284v56h83zM183 738l-107 -77h-37l115 162h57l115 -162h-37z" />
    <glyph glyph-name="Idieresis" unicode="&#xcf;" horiz-adv-x="365" 
d="M123 56v487h-83v56h284v-56h-80v-487h80v-56h-284v56h83zM105 795c30 0 54 -24 54 -54s-24 -54 -54 -54s-54 24 -54 54s24 54 54 54zM260 795c30 0 54 -24 54 -54s-24 -54 -54 -54s-54 24 -54 54s24 54 54 54z" />
    <glyph glyph-name="Igrave" unicode="&#xcc;" horiz-adv-x="365" 
d="M123 56v487h-83v56h284v-56h-80v-487h80v-56h-284v56h83zM217 657l-168 172h122l75 -172h-29z" />
    <glyph glyph-name="Ntilde" unicode="&#xd1;" horiz-adv-x="729" 
d="M104 56v487h-80v56h192v-56l338 -370v370h-85v56h236v-56h-83v-543h-62l-388 418v-362h82v-56h-230v56h80zM253 686h-32c0 61 42 113 90 113c45 0 93 -37 120 -37c20 0 36 11 42 37h35c-13 -75 -43 -112 -91 -112c-44 0 -94 36 -125 36c-18 0 -34 -15 -39 -37z" />
    <glyph glyph-name="Oacute" unicode="&#xd3;" horiz-adv-x="719" 
d="M29 300c0 181 138 311 330 311c193 0 330 -130 330 -311c0 -182 -137 -312 -330 -312c-192 0 -330 130 -330 312zM173 300c0 -172 89 -256 186 -256c96 0 186 82 186 262c0 126 -66 249 -186 249c-101 0 -186 -88 -186 -255zM325 657h-29l75 172h122z" />
    <glyph glyph-name="Ocircumflex" unicode="&#xd4;" horiz-adv-x="719" 
d="M29 300c0 181 138 311 330 311c193 0 330 -130 330 -311c0 -182 -137 -312 -330 -312c-192 0 -330 130 -330 312zM173 300c0 -172 89 -256 186 -256c96 0 186 82 186 262c0 126 -66 249 -186 249c-101 0 -186 -88 -186 -255zM360 738l-107 -77h-37l115 162h57l115 -162
h-37z" />
    <glyph glyph-name="Odieresis" unicode="&#xd6;" horiz-adv-x="719" 
d="M29 300c0 181 138 311 330 311c193 0 330 -130 330 -311c0 -182 -137 -312 -330 -312c-192 0 -330 130 -330 312zM173 300c0 -172 89 -256 186 -256c96 0 186 82 186 262c0 126 -66 249 -186 249c-101 0 -186 -88 -186 -255zM282 795c30 0 54 -24 54 -54s-24 -54 -54 -54
s-54 24 -54 54s24 54 54 54zM437 795c30 0 54 -24 54 -54s-24 -54 -54 -54s-54 24 -54 54s24 54 54 54z" />
    <glyph glyph-name="Ograve" unicode="&#xd2;" horiz-adv-x="719" 
d="M29 300c0 181 138 311 330 311c193 0 330 -130 330 -311c0 -182 -137 -312 -330 -312c-192 0 -330 130 -330 312zM173 300c0 -172 89 -256 186 -256c96 0 186 82 186 262c0 126 -66 249 -186 249c-101 0 -186 -88 -186 -255zM394 657l-168 172h122l75 -172h-29z" />
    <glyph glyph-name="Otilde" unicode="&#xd5;" horiz-adv-x="719" 
d="M29 300c0 181 138 311 330 311c193 0 330 -130 330 -311c0 -182 -137 -312 -330 -312c-192 0 -330 130 -330 312zM173 300c0 -172 89 -256 186 -256c96 0 186 82 186 262c0 126 -66 249 -186 249c-101 0 -186 -88 -186 -255zM248 686h-32c0 61 42 113 90 113
c45 0 93 -37 120 -37c20 0 36 11 42 37h35c-13 -75 -43 -112 -91 -112c-44 0 -94 36 -125 36c-18 0 -34 -15 -39 -37z" />
    <glyph glyph-name="Scaron" unicode="&#x160;" horiz-adv-x="469" 
d="M53 -14v207h62v-72c32 -48 81 -77 126 -77c44 0 83 39 83 84c0 95 -118 98 -216 196c-40 40 -57 73 -57 130c0 93 72 157 177 157c47 0 83 -10 119 -35v43h62v-187h-62v68c-30 35 -63 51 -101 51c-50 0 -89 -33 -89 -76c0 -119 273 -109 273 -315
c0 -100 -76 -172 -181 -172c-53 0 -98 15 -134 44v-46h-62zM235 746l106 77h37l-115 -162h-57l-115 162h37z" />
    <glyph glyph-name="Uacute" unicode="&#xda;" horiz-adv-x="729" 
d="M108 543h-82v56h286v-56h-83v-302c0 -111 49 -188 146 -188c83 0 142 58 142 194v296h-81v56h263v-56h-78v-292c0 -168 -94 -263 -259 -263c-173 0 -254 102 -254 259v296zM330 657h-29l75 172h122z" />
    <glyph glyph-name="Ucircumflex" unicode="&#xdb;" horiz-adv-x="729" 
d="M108 543h-82v56h286v-56h-83v-302c0 -111 49 -188 146 -188c83 0 142 58 142 194v296h-81v56h263v-56h-78v-292c0 -168 -94 -263 -259 -263c-173 0 -254 102 -254 259v296zM365 738l-107 -77h-37l115 162h57l115 -162h-37z" />
    <glyph glyph-name="Udieresis" unicode="&#xdc;" horiz-adv-x="729" 
d="M108 543h-82v56h286v-56h-83v-302c0 -111 49 -188 146 -188c83 0 142 58 142 194v296h-81v56h263v-56h-78v-292c0 -168 -94 -263 -259 -263c-173 0 -254 102 -254 259v296zM287 795c30 0 54 -24 54 -54s-24 -54 -54 -54s-54 24 -54 54s24 54 54 54zM442 795
c30 0 54 -24 54 -54s-24 -54 -54 -54s-54 24 -54 54s24 54 54 54z" />
    <glyph glyph-name="Ugrave" unicode="&#xd9;" horiz-adv-x="729" 
d="M108 543h-82v56h286v-56h-83v-302c0 -111 49 -188 146 -188c83 0 142 58 142 194v296h-81v56h263v-56h-78v-292c0 -168 -94 -263 -259 -263c-173 0 -254 102 -254 259v296zM399 657l-168 172h122l75 -172h-29z" />
    <glyph glyph-name="Yacute" unicode="&#xdd;" horiz-adv-x="604" 
d="M11 543v56h281v-56h-65l120 -162l109 162h-65v56h206v-56h-61l-161 -233v-254h81v-56h-284v56h82v254l-171 233h-72zM268 657h-29l75 172h122z" />
    <glyph glyph-name="Ydieresis" unicode="&#x178;" horiz-adv-x="604" 
d="M11 543v56h281v-56h-65l120 -162l109 162h-65v56h206v-56h-61l-161 -233v-254h81v-56h-284v56h82v254l-171 233h-72zM225 795c30 0 54 -24 54 -54s-24 -54 -54 -54s-54 24 -54 54s24 54 54 54zM380 795c30 0 54 -24 54 -54s-24 -54 -54 -54s-54 24 -54 54s24 54 54 54z
" />
    <glyph glyph-name="Zcaron" unicode="&#x17d;" horiz-adv-x="573" 
d="M47 456v143h495v-24l-355 -513h277v85h62v-147h-507v23l356 514h-266v-81h-62zM287 746l106 77h37l-115 -162h-57l-115 162h37z" />
    <glyph glyph-name="aacute" unicode="&#xe1;" horiz-adv-x="438" 
d="M434 61v-43c-32 -20 -65 -30 -100 -30c-40 0 -74 21 -87 53c-49 -37 -86 -53 -124 -53c-58 0 -100 49 -100 116c0 58 33 90 111 110l103 26v50c0 55 -26 84 -74 84c-33 0 -68 -12 -119 -43l-8 35c50 45 116 73 172 73c83 0 144 -59 144 -141v-190c0 -35 24 -55 50 -55
c11 0 20 2 32 8zM237 191c-85 -20 -108 -40 -108 -79c0 -29 20 -52 46 -52c18 0 41 11 62 28v103zM185 492h-29l75 172h122z" />
    <glyph glyph-name="acircumflex" unicode="&#xe2;" horiz-adv-x="438" 
d="M434 61v-43c-32 -20 -65 -30 -100 -30c-40 0 -74 21 -87 53c-49 -37 -86 -53 -124 -53c-58 0 -100 49 -100 116c0 58 33 90 111 110l103 26v50c0 55 -26 84 -74 84c-33 0 -68 -12 -119 -43l-8 35c50 45 116 73 172 73c83 0 144 -59 144 -141v-190c0 -35 24 -55 50 -55
c11 0 20 2 32 8zM237 191c-85 -20 -108 -40 -108 -79c0 -29 20 -52 46 -52c18 0 41 11 62 28v103zM215 573l-107 -77h-37l115 162h57l115 -162h-37z" />
    <glyph glyph-name="adieresis" unicode="&#xe4;" horiz-adv-x="438" 
d="M434 61v-43c-32 -20 -65 -30 -100 -30c-40 0 -74 21 -87 53c-49 -37 -86 -53 -124 -53c-58 0 -100 49 -100 116c0 58 33 90 111 110l103 26v50c0 55 -26 84 -74 84c-33 0 -68 -12 -119 -43l-8 35c50 45 116 73 172 73c83 0 144 -59 144 -141v-190c0 -35 24 -55 50 -55
c11 0 20 2 32 8zM237 191c-85 -20 -108 -40 -108 -79c0 -29 20 -52 46 -52c18 0 41 11 62 28v103zM137 630c30 0 54 -24 54 -54s-24 -54 -54 -54s-54 24 -54 54s24 54 54 54zM292 630c30 0 54 -24 54 -54s-24 -54 -54 -54s-54 24 -54 54s24 54 54 54z" />
    <glyph glyph-name="agrave" unicode="&#xe0;" horiz-adv-x="438" 
d="M434 61v-43c-32 -20 -65 -30 -100 -30c-40 0 -74 21 -87 53c-49 -37 -86 -53 -124 -53c-58 0 -100 49 -100 116c0 58 33 90 111 110l103 26v50c0 55 -26 84 -74 84c-33 0 -68 -12 -119 -43l-8 35c50 45 116 73 172 73c83 0 144 -59 144 -141v-190c0 -35 24 -55 50 -55
c11 0 20 2 32 8zM237 191c-85 -20 -108 -40 -108 -79c0 -29 20 -52 46 -52c18 0 41 11 62 28v103zM254 492l-168 172h122l75 -172h-29z" />
    <glyph glyph-name="aring" unicode="&#xe5;" horiz-adv-x="438" 
d="M434 61v-43c-32 -20 -65 -30 -100 -30c-40 0 -74 21 -87 53c-49 -37 -86 -53 -124 -53c-58 0 -100 49 -100 116c0 58 33 90 111 110l103 26v50c0 55 -26 84 -74 84c-33 0 -68 -12 -119 -43l-8 35c50 45 116 73 172 73c83 0 144 -59 144 -141v-190c0 -35 24 -55 50 -55
c11 0 20 2 32 8zM237 191c-85 -20 -108 -40 -108 -79c0 -29 20 -52 46 -52c18 0 41 11 62 28v103zM215 674c54 0 97 -43 97 -97s-43 -98 -97 -98s-98 44 -98 98s44 97 98 97zM215 628c-28 0 -51 -23 -51 -51s23 -52 51 -52s52 24 52 52s-24 51 -52 51z" />
    <glyph glyph-name="atilde" unicode="&#xe3;" horiz-adv-x="438" 
d="M434 61v-43c-32 -20 -65 -30 -100 -30c-40 0 -74 21 -87 53c-49 -37 -86 -53 -124 -53c-58 0 -100 49 -100 116c0 58 33 90 111 110l103 26v50c0 55 -26 84 -74 84c-33 0 -68 -12 -119 -43l-8 35c50 45 116 73 172 73c83 0 144 -59 144 -141v-190c0 -35 24 -55 50 -55
c11 0 20 2 32 8zM237 191c-85 -20 -108 -40 -108 -79c0 -29 20 -52 46 -52c18 0 41 11 62 28v103zM108 521h-32c0 61 42 113 90 113c45 0 93 -37 120 -37c20 0 36 11 42 37h35c-13 -75 -43 -112 -91 -112c-44 0 -94 36 -125 36c-18 0 -34 -15 -39 -37z" />
    <glyph glyph-name="ccedilla" unicode="&#xe7;" horiz-adv-x="427" 
d="M124 -104l48 103c-102 35 -145 135 -145 224c0 125 88 216 210 216c42 0 76 -15 105 -29l9 27h35v-134h-35c-22 63 -52 90 -100 90c-61 0 -96 -61 -96 -164c0 -117 44 -185 119 -185c87 0 98 47 119 47c9 0 17 -20 17 -30s-47 -73 -167 -73h-15l-11 -22
c38 -10 65 -43 65 -79c0 -67 -66 -122 -189 -110v50c62 -5 93 17 93 37c0 18 -16 34 -62 32z" />
    <glyph glyph-name="eacute" unicode="&#xe9;" horiz-adv-x="448" 
d="M420 241h-269c0 -117 56 -197 141 -197c45 0 103 18 136 44l-8 -56c-56 -32 -100 -44 -161 -44c-177 0 -230 133 -230 234c0 128 80 217 196 217c106 0 182 -77 195 -198zM151 287h150c-9 68 -38 106 -79 106c-47 0 -70 -53 -71 -106zM190 492h-29l75 172h122z" />
    <glyph glyph-name="ecircumflex" unicode="&#xea;" horiz-adv-x="448" 
d="M420 241h-269c0 -117 56 -197 141 -197c45 0 103 18 136 44l-8 -56c-56 -32 -100 -44 -161 -44c-177 0 -230 133 -230 234c0 128 80 217 196 217c106 0 182 -77 195 -198zM151 287h150c-9 68 -38 106 -79 106c-47 0 -70 -53 -71 -106zM225 573l-107 -77h-37l115 162h57
l115 -162h-37z" />
    <glyph glyph-name="edieresis" unicode="&#xeb;" horiz-adv-x="448" 
d="M420 241h-269c0 -117 56 -197 141 -197c45 0 103 18 136 44l-8 -56c-56 -32 -100 -44 -161 -44c-177 0 -230 133 -230 234c0 128 80 217 196 217c106 0 182 -77 195 -198zM151 287h150c-9 68 -38 106 -79 106c-47 0 -70 -53 -71 -106zM147 630c30 0 54 -24 54 -54
s-24 -54 -54 -54s-54 24 -54 54s24 54 54 54zM302 630c30 0 54 -24 54 -54s-24 -54 -54 -54s-54 24 -54 54s24 54 54 54z" />
    <glyph glyph-name="egrave" unicode="&#xe8;" horiz-adv-x="448" 
d="M420 241h-269c0 -117 56 -197 141 -197c45 0 103 18 136 44l-8 -56c-56 -32 -100 -44 -161 -44c-177 0 -230 133 -230 234c0 128 80 217 196 217c106 0 182 -77 195 -198zM151 287h150c-9 68 -38 106 -79 106c-47 0 -70 -53 -71 -106zM259 492l-168 172h122l75 -172h-29z
" />
    <glyph glyph-name="iacute" unicode="&#xed;" horiz-adv-x="302" 
d="M96 46v335h-76v46h191v-381h68v-46h-259v46h76zM117 492h-29l75 172h122z" />
    <glyph glyph-name="icircumflex" unicode="&#xee;" horiz-adv-x="302" 
d="M96 46v335h-76v46h191v-381h68v-46h-259v46h76zM152 573l-107 -77h-37l115 162h57l115 -162h-37z" />
    <glyph glyph-name="idieresis" unicode="&#xef;" horiz-adv-x="302" 
d="M96 46v335h-76v46h191v-381h68v-46h-259v46h76zM74 630c30 0 54 -24 54 -54s-24 -54 -54 -54s-54 24 -54 54s24 54 54 54zM229 630c30 0 54 -24 54 -54s-24 -54 -54 -54s-54 24 -54 54s24 54 54 54z" />
    <glyph glyph-name="igrave" unicode="&#xec;" horiz-adv-x="302" 
d="M96 46v335h-76v46h191v-381h68v-46h-259v46h76zM186 492l-168 172h122l75 -172h-29z" />
    <glyph glyph-name="ntilde" unicode="&#xf1;" horiz-adv-x="552" 
d="M86 46v335h-75v46h190v-52c57 39 98 64 151 64c75 0 119 -49 119 -131v-262h75v-46h-252v46h62v255c0 43 -29 66 -61 66c-28 0 -55 -10 -94 -34v-287h60v-46h-250v46h75zM165 521h-32c0 61 42 113 90 113c45 0 93 -37 120 -37c20 0 36 11 42 37h35
c-13 -75 -43 -112 -91 -112c-44 0 -94 36 -125 36c-18 0 -34 -15 -39 -37z" />
    <glyph glyph-name="oacute" unicode="&#xf3;" 
d="M26 213c0 100 67 226 241 226c159 0 238 -115 238 -226c0 -106 -72 -225 -239 -225c-178 0 -240 132 -240 225zM154 215c0 -114 42 -181 112 -181c68 0 111 65 111 175c0 116 -38 184 -111 184c-78 0 -112 -77 -112 -178zM231 492h-29l75 172h122z" />
    <glyph glyph-name="ocircumflex" unicode="&#xf4;" 
d="M26 213c0 100 67 226 241 226c159 0 238 -115 238 -226c0 -106 -72 -225 -239 -225c-178 0 -240 132 -240 225zM154 215c0 -114 42 -181 112 -181c68 0 111 65 111 175c0 116 -38 184 -111 184c-78 0 -112 -77 -112 -178zM266 573l-107 -77h-37l115 162h57l115 -162h-37z
" />
    <glyph glyph-name="odieresis" unicode="&#xf6;" 
d="M26 213c0 100 67 226 241 226c159 0 238 -115 238 -226c0 -106 -72 -225 -239 -225c-178 0 -240 132 -240 225zM154 215c0 -114 42 -181 112 -181c68 0 111 65 111 175c0 116 -38 184 -111 184c-78 0 -112 -77 -112 -178zM188 630c30 0 54 -24 54 -54s-24 -54 -54 -54
s-54 24 -54 54s24 54 54 54zM343 630c30 0 54 -24 54 -54s-24 -54 -54 -54s-54 24 -54 54s24 54 54 54z" />
    <glyph glyph-name="ograve" unicode="&#xf2;" 
d="M26 213c0 100 67 226 241 226c159 0 238 -115 238 -226c0 -106 -72 -225 -239 -225c-178 0 -240 132 -240 225zM154 215c0 -114 42 -181 112 -181c68 0 111 65 111 175c0 116 -38 184 -111 184c-78 0 -112 -77 -112 -178zM300 492l-168 172h122l75 -172h-29z" />
    <glyph glyph-name="otilde" unicode="&#xf5;" 
d="M26 213c0 100 67 226 241 226c159 0 238 -115 238 -226c0 -106 -72 -225 -239 -225c-178 0 -240 132 -240 225zM154 215c0 -114 42 -181 112 -181c68 0 111 65 111 175c0 116 -38 184 -111 184c-78 0 -112 -77 -112 -178zM154 521h-32c0 61 42 113 90 113
c45 0 93 -37 120 -37c20 0 36 11 42 37h35c-13 -75 -43 -112 -91 -112c-44 0 -94 36 -125 36c-18 0 -34 -15 -39 -37z" />
    <glyph glyph-name="scaron" unicode="&#x161;" horiz-adv-x="354" 
d="M29 -7v133h29c18 -58 57 -92 106 -92c33 0 59 17 59 51c0 69 -198 88 -198 223c0 74 63 131 145 131c30 0 54 -7 82 -25l8 22h32v-114h-32c-18 51 -39 71 -78 71c-36 0 -59 -16 -59 -41c0 -87 203 -86 203 -231c0 -79 -63 -133 -152 -133c-37 0 -72 8 -105 25l-5 -20h-35
zM178 581l106 77h37l-115 -162h-57l-115 162h37z" />
    <glyph glyph-name="uacute" unicode="&#xfa;" horiz-adv-x="552" 
d="M469 46h75v-46h-190v41c-56 -39 -106 -53 -147 -53c-94 0 -122 57 -122 120v273h-75v46h190v-310c0 -40 21 -69 58 -69c26 0 53 11 96 37v296h-74v46h189v-381zM242 492h-29l75 172h122z" />
    <glyph glyph-name="ucircumflex" unicode="&#xfb;" horiz-adv-x="552" 
d="M469 46h75v-46h-190v41c-56 -39 -106 -53 -147 -53c-94 0 -122 57 -122 120v273h-75v46h190v-310c0 -40 21 -69 58 -69c26 0 53 11 96 37v296h-74v46h189v-381zM277 573l-107 -77h-37l115 162h57l115 -162h-37z" />
    <glyph glyph-name="udieresis" unicode="&#xfc;" horiz-adv-x="552" 
d="M469 46h75v-46h-190v41c-56 -39 -106 -53 -147 -53c-94 0 -122 57 -122 120v273h-75v46h190v-310c0 -40 21 -69 58 -69c26 0 53 11 96 37v296h-74v46h189v-381zM199 630c30 0 54 -24 54 -54s-24 -54 -54 -54s-54 24 -54 54s24 54 54 54zM354 630c30 0 54 -24 54 -54
s-24 -54 -54 -54s-54 24 -54 54s24 54 54 54z" />
    <glyph glyph-name="ugrave" unicode="&#xf9;" horiz-adv-x="552" 
d="M469 46h75v-46h-190v41c-56 -39 -106 -53 -147 -53c-94 0 -122 57 -122 120v273h-75v46h190v-310c0 -40 21 -69 58 -69c26 0 53 11 96 37v296h-74v46h189v-381zM311 492l-168 172h122l75 -172h-29z" />
    <glyph glyph-name="yacute" unicode="&#xfd;" horiz-adv-x="479" 
d="M63 381h-53v46h225v-46h-54l92 -258l97 258h-49v46h146v-46h-48l-238 -625h-100l119 256zM205 492h-29l75 172h122z" />
    <glyph glyph-name="ydieresis" unicode="&#xff;" horiz-adv-x="479" 
d="M63 381h-53v46h225v-46h-54l92 -258l97 258h-49v46h146v-46h-48l-238 -625h-100l119 256zM162 630c30 0 54 -24 54 -54s-24 -54 -54 -54s-54 24 -54 54s24 54 54 54zM317 630c30 0 54 -24 54 -54s-24 -54 -54 -54s-54 24 -54 54s24 54 54 54z" />
    <glyph glyph-name="zcaron" unicode="&#x17e;" horiz-adv-x="406" 
d="M69 319h-45v108h375v-23l-232 -358h186v75h46v-121h-391v23l238 358h-177v-62zM204 581l106 77h37l-115 -162h-57l-115 162h37z" />
    <glyph glyph-name="one.superior" unicode="&#xb9;" horiz-adv-x="313" 
d="M207 326h39v-32h-161v32h44v234l-44 -15l-12 27l134 39v-285z" />
    <glyph glyph-name="two.superior" unicode="&#xb2;" horiz-adv-x="313" 
d="M56 544l-30 15c22 32 64 52 113 52c62 0 111 -38 111 -86c0 -41 -30 -87 -120 -182h105c11 0 14 5 14 21h37v-70h-250c50 49 127 155 127 222c0 33 -19 55 -49 55c-22 0 -43 -10 -58 -27z" />
    <glyph glyph-name="three.superior" unicode="&#xb3;" horiz-adv-x="313" 
d="M83 553l-35 7c25 33 63 51 107 51c58 0 101 -30 101 -69c0 -22 -13 -54 -75 -70v-2c60 -12 92 -42 92 -87c0 -53 -57 -97 -126 -97c-49 0 -92 21 -113 57l31 15c22 -22 39 -31 60 -31c32 0 57 24 57 54c0 40 -33 63 -91 63v27c62 15 85 42 85 68c0 21 -16 34 -41 34
c-19 0 -41 -9 -52 -20z" />
    <glyph glyph-name="Delta" unicode="&#x2206;" horiz-adv-x="611" 
d="M578 0h-546v32l242 564l53 13l251 -577v-32zM433 55l-171 405l-166 -405h337z" />
    <glyph glyph-name="Omega" unicode="&#x2126;" horiz-adv-x="695" 
d="M663 149l-27 -149h-239l-9 21c38 74 108 192 107 312c-1 177 -67 241 -150 241c-86 0 -146 -60 -146 -244c0 -116 59 -225 104 -309l-8 -21h-241l-23 149l30 1c21 -53 34 -64 75 -64h89c-66 47 -161 119 -161 251c0 166 121 272 284 272c165 0 281 -101 281 -266
c0 -118 -91 -195 -166 -257h98c39 0 51 9 71 64z" />
    <glyph glyph-name="uni03BC" unicode="&#x3bc;" horiz-adv-x="556" 
d="M79 427h126v-319c0 -44 10 -64 39 -64c30 0 52 17 77 59v324h124v-328c0 -28 16 -46 31 -46c19 0 31 22 35 65h20c0 -91 -65 -130 -119 -130c-47 0 -76 22 -91 70c-46 -50 -83 -70 -131 -70c-25 0 -40 5 -68 24c0 -78 27 -104 27 -150c0 -37 -21 -60 -54 -60
c-31 0 -49 20 -49 54c0 46 33 97 33 217v354z" />
    <glyph glyph-name="pi" unicode="&#x3c0;" horiz-adv-x="548" 
d="M497 425l27 -8c-5 -37 -23 -89 -36 -105c-15 -4 -37 -5 -60 -5c-5 -56 -5 -112 -4 -173c0 -56 15 -76 38 -76c16 0 26 7 41 19l12 -25c-24 -37 -70 -63 -111 -63c-53 0 -96 25 -96 118c0 81 5 140 9 202c-52 0 -86 2 -121 2v-10c0 -201 -46 -279 -60 -296
c-23 -9 -46 -15 -64 -16l-7 19c65 86 87 221 87 304c-56 1 -80 -10 -119 -35l-15 27c31 41 64 95 167 94c72 -1 170 -3 256 -3c29 0 42 6 56 30z" />
    <glyph glyph-name="Euro" unicode="&#x20ac;" horiz-adv-x="544" 
d="M427 271l-9 -41h-213c18 -136 88 -186 153 -186c55 0 120 29 166 73v-61c-43 -41 -120 -68 -192 -68c-135 0 -238 100 -260 242h-59l9 41h45v18c0 12 1 25 2 37h-56l9 41h53c25 125 110 242 273 242c37 0 80 -9 107 -21l7 31h44v-180h-51c-11 71 -58 114 -114 114
c-81 0 -126 -67 -137 -186h244l-9 -41h-238v-24c0 -11 0 -21 1 -31h225z" />
    <glyph glyph-name="afii61289" unicode="&#x2113;" horiz-adv-x="414" 
d="M376 126l22 -20c-41 -74 -97 -117 -174 -117c-52 0 -84 14 -106 36c-22 25 -36 53 -36 134v52l-54 -34l-12 29l66 46v118c0 126 11 176 50 223c32 40 69 55 105 55c68 0 99 -58 99 -124c0 -100 -52 -170 -142 -250v-68c0 -109 23 -149 79 -149c44 0 78 34 103 69z
M194 420v-95c43 49 76 113 76 197c0 50 -11 93 -38 93c-32 0 -38 -46 -38 -195z" />
    <glyph glyph-name="estimated" unicode="&#x212e;" horiz-adv-x="750" 
d="M720 290h-559c-3 0 -5 -1 -5 -3v-170c0 -7 3 -14 7 -19c55 -56 129 -92 212 -92c89 0 168 40 223 103h49c-61 -73 -162 -120 -273 -120c-190 0 -345 138 -345 310s155 311 345 311c191 0 346 -139 346 -311v-9zM593 312v171c0 7 -3 14 -8 20c-55 53 -128 88 -210 88
s-156 -36 -211 -91c-5 -5 -8 -13 -8 -21v-167c0 -1 2 -5 5 -5h428c3 0 4 4 4 5z" />
    <glyph glyph-name="partialdiff" unicode="&#x2202;" horiz-adv-x="515" 
d="M249 380h1c41 0 88 -18 114 -54c5 28 9 64 10 96c2 44 -1 90 -22 133c-18 35 -54 61 -101 61c-53 0 -103 -34 -137 -62c-18 0 -49 53 -38 79c32 18 73 36 137 36c96 0 163 -49 208 -126c39 -68 50 -150 50 -205c0 -70 -13 -151 -48 -215c-41 -79 -107 -134 -206 -134
c-108 0 -179 69 -179 179c0 63 26 115 57 148c38 40 93 64 154 64zM279 336h-1c-29 0 -59 -9 -86 -49c-27 -44 -39 -110 -39 -172c-1 -56 23 -92 68 -92c41 0 71 47 90 89c23 52 34 99 45 171c-11 22 -40 53 -77 53z" />
    <glyph glyph-name="product" unicode="&#x220f;" horiz-adv-x="670" 
d="M644 609v-30c-80 -6 -85 -15 -85 -81v-454c0 -72 6 -80 84 -86v-31h-275v31c68 5 72 10 72 86v495c0 29 -6 32 -34 32h-146c-27 0 -31 -4 -31 -30v-497c0 -72 1 -80 65 -86v-31h-268v31c76 6 84 15 84 86v454c0 67 -7 75 -87 81v30h621z" />
    <glyph glyph-name="summation" unicode="&#x2211;" 
d="M509 116l-44 -195h-441v30l201 279l-196 348v31h435c1 -16 7 -96 12 -160l-31 -7c-10 40 -22 74 -35 96c-15 26 -29 35 -97 35h-141l152 -268l-204 -288h223c82 0 92 4 135 108z" />
    <glyph glyph-name="uni2219" unicode="&#x2219;" horiz-adv-x="250" 
d="M125 348c44 0 79 -35 79 -79s-35 -79 -79 -79s-79 35 -79 79s35 79 79 79z" />
    <glyph glyph-name="radical" unicode="&#x221a;" horiz-adv-x="518" 
d="M509 761l-160 -900l-28 -12l-197 473l-80 -37l-13 36l170 77l137 -345h2l124 717z" />
    <glyph glyph-name="infinity" unicode="&#x221e;" horiz-adv-x="686" 
d="M645 248v-1c0 -97 -71 -155 -144 -155c-49 0 -99 21 -158 99c-45 -56 -91 -99 -161 -99c-74 0 -141 61 -141 151s64 153 148 153c66 0 113 -38 159 -96c35 40 78 97 158 96c77 -1 139 -58 139 -148zM189 158h2c48 0 84 43 116 82c-35 48 -64 92 -120 92
c-48 0 -79 -37 -79 -90c0 -46 35 -84 81 -84zM499 332h-1c-52 0 -90 -54 -117 -86c52 -66 79 -88 121 -88c48 0 75 47 75 84c0 52 -31 90 -78 90z" />
    <glyph glyph-name="integral" unicode="&#x222b;" horiz-adv-x="370" 
d="M148 -9l-19 347c-17 326 87 390 161 390c30 0 68 -17 68 -51c0 -36 -26 -53 -52 -53c-35 0 -33 57 -53 57c-17 0 -30 -23 -24 -133l17 -323c16 -305 -70 -411 -165 -411c-38 0 -68 24 -68 53c-1 33 32 56 61 56c30 0 29 -62 48 -62c24 0 31 51 26 130z" />
    <glyph glyph-name="approxequal" unicode="&#x2248;" horiz-adv-x="497" 
d="M419 396l45 -42c-32 -55 -77 -91 -126 -91c-37 0 -62 12 -101 35c-24 15 -47 28 -76 28c-39 0 -63 -30 -86 -62l-45 43c27 49 80 89 136 89c42 0 70 -17 94 -31c33 -20 50 -31 76 -31c34 0 57 24 83 62zM419 230l45 -43c-32 -54 -76 -90 -127 -90c-37 0 -63 12 -100 34
c-26 16 -48 29 -75 29c-41 0 -64 -31 -87 -63l-45 43c27 50 80 89 136 89c43 0 70 -17 93 -30c27 -16 47 -32 77 -32c34 0 56 24 83 63z" />
    <glyph glyph-name="notequal" unicode="&#x2260;" horiz-adv-x="497" 
d="M368 445l-34 -74h120v-70h-148l-50 -115h198v-70h-227l-44 -101l-56 24l34 77h-119v70h147l51 115h-198v70h226l44 98z" />
    <glyph glyph-name="lessequal" unicode="&#x2264;" horiz-adv-x="497" 
d="M452 92l-406 194v75l406 193v-80l-334 -149v-2l334 -150v-81zM455 -10h-412v71h412v-71z" />
    <glyph glyph-name="greaterequal" unicode="&#x2265;" horiz-adv-x="497" 
d="M47 554l406 -193v-75l-405 -194v80l333 151v2l-334 149v80zM452 -10h-408v71h408v-71z" />
    <glyph glyph-name="lozenge" unicode="&#x25ca;" 
d="M490 290l-182 -355h-86l-181 355l184 357h83zM409 290l-141 285h-4l-142 -285l143 -287h2z" />
    <glyph glyph-name="uni00A0" unicode="&#xa0;" horiz-adv-x="224" 
 />
    <glyph glyph-name="uni00AD" unicode="&#xad;" horiz-adv-x="417" 
d="M373 252l-28 -78h-302l27 78h303z" />
    <glyph glyph-name="uni02C9" unicode="&#x2c9;" horiz-adv-x="333" 
d="M316 542h-298v72h298v-72z" />
    <glyph glyph-name="uni2215" unicode="&#x2215;" horiz-adv-x="83" 
d="M-112 -37h-62l370 648h62z" />
    <glyph glyph-name="uni03A9" unicode="&#x3a9;" horiz-adv-x="695" 
d="M663 149l-27 -149h-239l-9 21c38 74 108 192 107 312c-1 177 -67 241 -150 241c-86 0 -146 -60 -146 -244c0 -116 59 -225 104 -309l-8 -21h-241l-23 149l30 1c21 -53 34 -64 75 -64h89c-66 47 -161 119 -161 251c0 166 121 272 284 272c165 0 281 -101 281 -266
c0 -118 -91 -195 -166 -257h98c39 0 51 9 71 64z" />
    </font>
</defs>
</svg>
