<?xml version="1.0" standalone="no"?>
<!DOCTYPE svg PUBLIC "-//W3C//DTD SVG 1.1//EN" "http://www.w3.org/Graphics/SVG/1.1/DTD/svg11.dtd" >
<svg>
<metadata>
Created by FontForge 20120731 at Fri Aug  9 16:24:24 2019
 By www-data
 (C) Copyright 1991, 1998, 2002 The Monotype Corporation PLC. All Rights Reserved. 
</metadata>
<defs>
<font id="JoannaMTStd-Italic" horiz-adv-x="469" >
  <font-face 
    font-family="Joanna MT Std"
    font-weight="400"
    font-style="italic"
    font-stretch="normal"
    units-per-em="1000"
    panose-1="2 6 6 4 5 4 5 10 2 3"
    ascent="658"
    descent="-342"
    x-height="408"
    cap-height="599"
    bbox="-162 -251 1005 838"
    underline-thickness="50"
    underline-position="-50"
    slope="-3"
    stemh="32"
    stemv="68"
    unicode-range="U+0020-FB02"
  />
<missing-glyph horiz-adv-x="516" 
d="M16 0v700h500v-700h-500zM266 395l170 255h-340zM296 350l170 -255v510zM96 50h340l-170 255zM66 605v-510l170 255z" />
    <glyph glyph-name="f_i" unicode="fi" horiz-adv-x="406" 
d="M59 32l18 344h-62l1 32h62c3 26 1 62 1 102c0 116 82 179 161 179c37 0 86 -7 108 -16l-14 -99h-14c0 52 -29 86 -80 86c-77 0 -97 -65 -97 -108c0 -42 4 -96 -1 -144h198l-19 -376h58l-2 -32h-168l2 32h46l17 344h-133l-18 -344h50l-2 -32h-156l2 32h42z" />
    <glyph glyph-name="f_l" unicode="fl" horiz-adv-x="406" 
d="M59 32l18 344h-62l2 32h61c3 32 1 94 1 109c0 77 50 172 172 172c27 0 76 -8 104 -16l-34 -641h58l-2 -32h-168l2 32h46l17 344h-133l-18 -344h50l-2 -32h-156l2 32h42zM277 408l10 190c2 37 -20 59 -55 59c-53 0 -90 -44 -90 -114c0 -42 4 -87 1 -135h134z" />
    <glyph glyph-name=".notdef" horiz-adv-x="516" 
d="M16 0v700h500v-700h-500zM266 395l170 255h-340zM296 350l170 -255v510zM96 50h340l-170 255zM66 605v-510l170 255z" />
    <glyph glyph-name="space" unicode=" " horiz-adv-x="235" 
 />
    <glyph glyph-name="exclam" unicode="!" horiz-adv-x="240" 
d="M118 184h-15c-10 38 -18 194 -18 233c0 107 21 196 46 196c19 0 32 -50 32 -122c0 -95 -22 -197 -45 -307zM104 81c26 0 47 -21 47 -47s-21 -48 -47 -48s-48 22 -48 48s22 47 48 47z" />
    <glyph glyph-name="quotedbl" unicode="&#x22;" horiz-adv-x="420" 
d="M310 392l-26 144c-5 27 -11 54 -11 81c0 39 16 60 47 60s47 -21 47 -60c0 -27 -6 -54 -11 -81l-26 -144h-20zM131 392l-26 144c-5 27 -11 54 -11 81c0 39 16 60 47 60s47 -21 47 -60c0 -27 -6 -54 -11 -81l-26 -144h-20z" />
    <glyph glyph-name="numbersign" unicode="#" horiz-adv-x="668" 
d="M45 479h161l42 199h52l-42 -199h213l41 199h52l-41 -199h99v-52h-110l-40 -189h150v-52h-160l-42 -200h-52l42 200h-213l-42 -200h-52l42 200h-100v52h111l39 189h-150v52zM247 427l-39 -189h212l40 189h-213z" />
    <glyph glyph-name="dollar" unicode="$" 
d="M38 90l13 74c22 -53 59 -93 110 -117l14 271c-73 52 -115 87 -115 160c0 50 44 121 131 132l2 39h27l-2 -38c14 0 45 -1 70 -7l2 45h27l-2 -50c39 -14 65 -30 89 -52l-15 -54c-24 23 -54 44 -77 54l-13 -239c79 -50 114 -106 114 -156c0 -71 -44 -124 -130 -153l-5 -86
h-27l4 78c-26 -6 -48 -7 -69 -2l-4 -76h-27l4 81c-57 19 -87 40 -121 96zM258 32l11 226l-67 43l-13 -262c15 -10 48 -12 69 -7zM296 238l-11 -202c46 11 77 50 77 98c0 38 -24 76 -66 104zM180 388l9 184c-43 -2 -82 -38 -82 -79s31 -75 73 -105zM272 327l13 231
c-23 7 -46 14 -69 14l-9 -202z" />
    <glyph glyph-name="percent" unicode="%" horiz-adv-x="677" 
d="M76 410c0 -67 17 -98 54 -98c47 0 68 53 68 168c0 76 -14 107 -54 107c-47 0 -68 -53 -68 -177zM523 613h38l-402 -627h-39zM478 110c0 -67 17 -98 54 -98c47 0 68 53 68 168c0 76 -14 107 -54 107c-47 0 -68 -53 -68 -177zM21 431c0 110 49 182 123 182
c59 0 109 -45 109 -142c0 -115 -47 -185 -123 -185c-66 0 -109 56 -109 145zM423 131c0 110 49 182 123 182c59 0 109 -45 109 -142c0 -115 -47 -185 -123 -185c-66 0 -109 56 -109 145z" />
    <glyph glyph-name="ampersand" unicode="&#x26;" horiz-adv-x="542" 
d="M332 348h95c-2 -103 -31 -181 -65 -235c45 -54 92 -79 135 -79c15 0 32 2 47 4l-1 -16c-24 -20 -57 -32 -84 -32c-38 0 -81 20 -132 74c-56 -57 -92 -74 -144 -74c-87 0 -122 63 -122 116c0 60 27 110 99 177c-31 60 -45 86 -45 138c0 68 50 119 117 119
c58 0 98 -35 98 -86s-33 -88 -113 -154c53 -71 64 -106 125 -167c31 46 51 125 48 181h-60zM117 139c0 -58 41 -101 95 -101c34 0 70 17 95 45c-63 74 -97 113 -133 176c-32 -27 -57 -80 -57 -120zM166 441c0 -34 14 -74 38 -117c59 52 75 78 75 122c0 39 -23 67 -54 67
c-34 0 -59 -30 -59 -72z" />
    <glyph glyph-name="quoteright" unicode="&#x2019;" horiz-adv-x="240" 
d="M204 613c0 -86 -68 -134 -112 -134c-6 0 -12 5 -12 10c0 20 59 23 66 84c-30 15 -43 33 -43 58c0 31 20 52 47 52c34 0 54 -26 54 -70z" />
    <glyph glyph-name="parenleft" unicode="(" horiz-adv-x="344" 
d="M338 685l-1 -26c-136 -91 -197 -246 -197 -485c0 -175 43 -281 156 -389l-2 -29c-109 73 -222 227 -222 439c0 220 101 406 266 490z" />
    <glyph glyph-name="parenright" unicode=")" horiz-adv-x="344" 
d="M6 -244l1 26c136 91 197 246 197 485c0 175 -43 281 -156 389l2 29c109 -73 222 -227 222 -439c0 -220 -101 -406 -266 -490z" />
    <glyph glyph-name="asterisk" unicode="*" horiz-adv-x="479" 
d="M85 315l-36 61l149 60c-1 7 -1 15 1 22l-150 60l36 63l126 -100c8 6 11 7 22 11l-23 166h73l-25 -166c7 -4 9 -5 16 -11l128 100l36 -63l-148 -60c1 -7 0 -13 -1 -22l149 -60l-36 -61l-126 98c-9 -5 -12 -7 -22 -11l25 -162h-69l19 162c-10 5 -13 6 -21 11z" />
    <glyph glyph-name="plus" unicode="+" horiz-adv-x="667" 
d="M69 290h238v238h52v-238h238v-52h-238v-238h-52v238h-238v52z" />
    <glyph glyph-name="comma" unicode="," horiz-adv-x="240" 
d="M101 -26c-30 15 -43 33 -43 58c0 31 20 52 47 52c34 0 54 -26 54 -70c0 -86 -68 -134 -112 -134c-6 0 -12 5 -12 10c0 20 59 23 66 84z" />
    <glyph glyph-name="hyphen" unicode="-" horiz-adv-x="354" 
d="M44 181l14 44h252l-15 -44h-251z" />
    <glyph glyph-name="period" unicode="." horiz-adv-x="240" 
d="M111 84c26 0 47 -21 47 -47s-21 -48 -47 -48s-48 22 -48 48s22 47 48 47z" />
    <glyph glyph-name="slash" unicode="/" horiz-adv-x="510" 
d="M391 658h54l-327 -672h-53z" />
    <glyph glyph-name="zero" unicode="0" 
d="M47 262c0 184 63 351 199 351c98 0 175 -97 175 -276c0 -247 -94 -351 -198 -351c-108 0 -176 108 -176 276zM120 216c0 -118 29 -192 101 -192c99 0 127 124 127 353c0 117 -23 198 -103 198c-113 0 -125 -177 -125 -359z" />
    <glyph glyph-name="one" unicode="1" 
d="M197 32l28 525l-93 -41l2 29l158 68l-31 -581h68l-2 -32h-201l2 32h69z" />
    <glyph glyph-name="two" unicode="2" 
d="M382 86l-4 -86h-326l105 148c76 108 117 215 117 282c0 73 -25 135 -97 135c-45 0 -71 -16 -119 -64l-18 17c46 62 103 95 164 95c84 0 143 -61 143 -148s-46 -188 -163 -343l-56 -74h186c30 0 40 9 42 38h26z" />
    <glyph glyph-name="three" unicode="3" 
d="M30 79l20 15c42 -48 80 -70 128 -70c79 0 119 63 119 135c0 87 -61 143 -169 145l1 26c98 10 167 79 167 151c0 53 -35 94 -95 94c-35 0 -70 -18 -108 -53l-20 18c37 42 92 73 150 73c79 0 138 -55 138 -127c0 -49 -26 -116 -144 -155v-2c96 -13 153 -73 153 -162
c0 -103 -76 -181 -177 -181c-67 0 -126 34 -163 93z" />
    <glyph glyph-name="four" unicode="4" 
d="M256 200h-238l1 31l323 382l-21 -365h150l-1 -48h-150l-9 -168h67l-2 -32h-201l2 32h70zM257 248l14 237l-2 2l-197 -239h185z" />
    <glyph glyph-name="five" unicode="5" 
d="M119 300l22 299h258l-3 -48h-200l-11 -206c127 -8 194 -89 194 -182c0 -103 -78 -177 -187 -177c-59 0 -120 20 -165 55l14 23c39 -27 87 -43 132 -43c78 0 133 54 133 129c0 60 -41 155 -187 150z" />
    <glyph glyph-name="six" unicode="6" 
d="M438 613l-2 -25c-193 -48 -246 -132 -306 -295l2 -2c34 38 68 60 122 60c94 0 166 -77 166 -177c0 -108 -76 -188 -177 -188c-88 0 -195 68 -195 217c0 211 169 390 390 410zM116 171c0 -81 61 -147 134 -147c63 0 112 54 112 124c0 85 -57 154 -128 154
c-66 0 -118 -57 -118 -131z" />
    <glyph glyph-name="seven" unicode="7" 
d="M62 -14l306 565h-250l-2 -45h-27l5 93h341l-293 -613h-80z" />
    <glyph glyph-name="eight" unicode="8" 
d="M180 301c-68 48 -104 103 -104 159c0 84 74 153 164 153s158 -61 158 -141c0 -56 -32 -122 -123 -155c91 -61 124 -107 124 -173c0 -91 -78 -158 -180 -158c-101 0 -173 63 -173 148c0 57 33 116 134 167zM243 338c59 35 92 85 92 136c0 59 -44 101 -102 101
c-61 0 -102 -43 -102 -98c0 -49 33 -89 112 -139zM210 279c-59 -35 -99 -93 -99 -145c0 -66 51 -110 120 -110c61 0 109 44 109 102c0 63 -51 108 -130 153z" />
    <glyph glyph-name="nine" unicode="9" 
d="M29 -14l1 25c199 47 269 153 305 293l-2 2c-41 -43 -72 -58 -121 -58c-94 0 -166 77 -166 177c0 107 76 188 177 188c88 0 195 -67 195 -217c0 -212 -169 -390 -389 -410zM350 427c0 82 -61 148 -134 148c-63 0 -112 -54 -112 -124c0 -85 57 -154 129 -154
c65 0 117 57 117 130z" />
    <glyph glyph-name="colon" unicode=":" horiz-adv-x="240" 
d="M133 418c26 0 47 -21 47 -47s-21 -48 -47 -48s-48 22 -48 48s22 47 48 47zM111 81c26 0 47 -21 47 -47s-21 -48 -47 -48s-48 22 -48 48s22 47 48 47z" />
    <glyph glyph-name="semicolon" unicode=";" horiz-adv-x="240" 
d="M101 -26c-30 15 -43 33 -43 58c0 31 20 52 47 52c34 0 54 -26 54 -70c0 -86 -68 -134 -112 -134c-6 0 -12 5 -12 10c0 20 59 23 66 84zM125 418c26 0 47 -21 47 -47s-21 -48 -47 -48s-48 22 -48 48s22 47 48 47z" />
    <glyph glyph-name="less" unicode="&#x3c;" horiz-adv-x="667" 
d="M71 288l526 222v-57l-456 -188l456 -188v-57l-526 222v46z" />
    <glyph glyph-name="equal" unicode="=" horiz-adv-x="667" 
d="M69 409h528v-52h-528v52zM69 173h528v-52h-528v52z" />
    <glyph glyph-name="greater" unicode="&#x3e;" horiz-adv-x="667" 
d="M596 242l-526 -222v57l456 188l-456 188v57l526 -222v-46z" />
    <glyph glyph-name="question" unicode="?" horiz-adv-x="323" 
d="M50 501l13 60c38 35 67 52 111 52c65 0 119 -57 119 -125c0 -75 -36 -118 -83 -165c-80 -80 -112 -124 -115 -159l-16 22c18 99 154 182 154 289c0 51 -35 88 -81 88c-36 0 -66 -18 -102 -62zM80 81c26 0 47 -21 47 -47s-21 -48 -47 -48s-48 22 -48 48s22 47 48 47z" />
    <glyph glyph-name="at" unicode="@" horiz-adv-x="920" 
d="M690 462l-84 -290c-14 -49 -18 -68 -18 -86c0 -22 16 -38 37 -38c76 0 205 114 205 315c0 175 -131 299 -316 299c-260 0 -419 -237 -419 -466s158 -390 382 -390c178 0 319 98 393 273h28c-50 -168 -215 -300 -423 -300c-245 0 -426 183 -426 432c0 268 203 478 462 478
c208 0 349 -136 349 -335c0 -139 -87 -344 -268 -344c-50 0 -76 23 -76 68c0 20 2 37 8 69l-2 2c-63 -86 -133 -139 -189 -139c-50 0 -89 49 -89 114c0 149 155 341 269 341c39 0 77 -20 83 -62h2l15 49zM519 443c-95 0 -199 -219 -199 -303c0 -40 26 -71 58 -71
c88 0 201 172 201 302c0 43 -25 72 -60 72z" />
    <glyph glyph-name="A" unicode="A" horiz-adv-x="510" 
d="M48 38l298 575h22l87 -575h64l-2 -38h-193l2 38h64l-28 181h-170l-95 -181h64l-2 -38h-176l2 38h63zM209 257h147l-31 222h-2z" />
    <glyph glyph-name="B" unicode="B" 
d="M79 38l27 523h-69l2 38h197c117 0 158 -71 158 -143c0 -66 -29 -110 -95 -145v-2c82 -8 127 -71 127 -138c0 -78 -60 -171 -175 -171h-238l2 38h64zM160 286l-13 -248h80c61 0 128 53 128 140c0 77 -57 108 -125 108h-70zM162 324h34c79 0 127 44 127 129
c0 71 -36 108 -105 108h-44z" />
    <glyph glyph-name="C" unicode="C" horiz-adv-x="531" 
d="M497 616l-9 -164h-33c-25 86 -67 122 -141 122c-162 0 -205 -198 -205 -308c0 -142 74 -241 181 -241c66 0 129 34 191 104l-2 -53c-70 -67 -123 -90 -202 -90c-148 0 -245 110 -245 279c0 163 92 348 294 348c48 0 81 -9 127 -34l11 37h33z" />
    <glyph glyph-name="D" unicode="D" horiz-adv-x="542" 
d="M92 38l27 523h-64l2 38h228c160 0 221 -126 221 -265c0 -140 -70 -260 -150 -303c-48 -26 -118 -31 -148 -31h-182l2 38h64zM187 561l-27 -523h49c59 0 97 15 124 36c54 43 96 146 96 273c0 121 -39 214 -164 214h-78z" />
    <glyph glyph-name="E" unicode="E" horiz-adv-x="427" 
d="M81 38l27 523h-65l2 38h340l-6 -118h-38l4 80h-169l-12 -233h129l4 77h38l-10 -201h-38l4 86h-129l-13 -252h179l5 86h38l-7 -124h-349l2 38h64z" />
    <glyph glyph-name="F" unicode="F" horiz-adv-x="427" 
d="M84 38l27 523h-65l2 38h339l-6 -118h-38l4 80h-168l-12 -241h129l3 76h38l-10 -200h-38l5 86h-129l-13 -244h64l-2 -38h-196l2 38h64z" />
    <glyph glyph-name="G" unicode="G" horiz-adv-x="542" 
d="M452 241l-10 -203c-75 -38 -118 -52 -176 -52c-146 0 -241 112 -241 283c0 164 101 344 292 344c45 0 92 -12 127 -31l17 37h34l-8 -165h-35c-23 82 -64 120 -147 120c-157 0 -203 -198 -203 -305c0 -145 74 -244 184 -244c32 0 88 7 90 56l8 160h-55l2 38h164l-2 -38
h-41z" />
    <glyph glyph-name="H" unicode="H" horiz-adv-x="594" 
d="M83 38l27 523h-64l2 38h196l-2 -38h-64l-12 -235h266l12 235h-64l2 38h196l-2 -38h-64l-27 -523h64l-2 -38h-196l2 38h64l13 245h-266l-13 -245h64l-2 -38h-196l2 38h64z" />
    <glyph glyph-name="I" unicode="I" horiz-adv-x="281" 
d="M93 38l27 523h-64l2 38h196l-2 -38h-64l-27 -523h64l-2 -38h-196l2 38h64z" />
    <glyph glyph-name="J" unicode="J" horiz-adv-x="250" 
d="M112 561h-66l2 38h196l-2 -38h-62l-26 -498c-8 -149 -84 -208 -178 -208c-16 0 -26 1 -44 5l1 20c102 -4 147 59 152 155z" />
    <glyph glyph-name="K" unicode="K" horiz-adv-x="448" 
d="M82 38l28 523h-64l2 38h196l-2 -38h-64l-13 -239l2 -2l196 241h-64l2 38h159l-2 -38h-46l-182 -227l182 -296h33l-2 -38h-173l2 38h64l-171 271h-2l-13 -271h64l-2 -38h-196l2 38h64z" />
    <glyph glyph-name="L" unicode="L" horiz-adv-x="406" 
d="M82 38l27 523h-64l2 38h196l-2 -38h-64l-27 -523h179l5 86h38l-7 -124h-349l2 38h64z" />
    <glyph glyph-name="M" unicode="M" horiz-adv-x="698" 
d="M83 38l27 523h-64l2 38h143l-2 -38l150 -435l192 435l2 38h147l-2 -38h-64l-27 -523h64l-2 -38h-196l2 38h64l23 441l-2 2l-208 -481h-18l-165 488h-2l-22 -450h64l-2 -38h-170l2 38h64z" />
    <glyph glyph-name="N" unicode="N" horiz-adv-x="594" 
d="M84 38l27 523h-64l2 38h133l-2 -38l267 -439h2l22 439h-65l2 38h171l-2 -38h-64l-29 -561h-36l-298 488h-2l-22 -450h64l-2 -38h-170l2 38h64z" />
    <glyph glyph-name="O" unicode="O" horiz-adv-x="573" 
d="M29 271c0 148 93 342 276 342c156 0 235 -135 235 -286c0 -141 -85 -341 -276 -341c-160 0 -235 148 -235 285zM106 270c0 -140 69 -245 162 -245c120 0 195 163 195 300c0 145 -69 249 -165 249c-104 0 -192 -140 -192 -304z" />
    <glyph glyph-name="P" unicode="P" horiz-adv-x="427" 
d="M84 38l27 523h-64l2 38h176c134 0 171 -84 171 -164c0 -104 -74 -185 -169 -185c-20 0 -38 2 -64 9l-11 -221h64l-2 -38h-196l2 38h64zM179 561l-14 -262c20 -8 34 -10 51 -10c65 0 109 57 109 143c0 52 -17 129 -94 129h-52z" />
    <glyph glyph-name="Q" unicode="Q" horiz-adv-x="573" 
d="M507 -142l-1 -25c-37 -22 -77 -35 -113 -35c-89 0 -133 81 -174 192c-112 20 -190 135 -190 282c0 148 93 341 276 341c164 0 235 -145 235 -286c0 -139 -78 -316 -243 -339c47 -114 77 -144 142 -144c22 0 40 4 68 14zM106 270c0 -140 69 -245 162 -245
c122 0 195 167 195 300c0 145 -69 249 -165 249c-104 0 -192 -140 -192 -304z" />
    <glyph glyph-name="R" unicode="R" horiz-adv-x="448" 
d="M81 38l27 523h-65l2 38h207c97 0 140 -74 140 -141c0 -82 -45 -143 -126 -173c64 -31 93 -96 139 -247h40l-2 -38h-94c-61 194 -84 275 -176 275h-12l-12 -237h63l-2 -38h-196l2 38h65zM163 313h19c91 0 139 49 139 148c0 66 -32 100 -93 100h-52z" />
    <glyph glyph-name="S" unicode="S" horiz-adv-x="354" 
d="M18 -14l10 172h38l-4 -62c24 -46 61 -69 106 -69c57 0 100 44 100 102c0 135 -223 185 -223 343c0 77 51 138 134 138c48 0 82 -13 113 -44l3 47h38l-9 -157h-38l3 58c-26 38 -60 57 -103 57c-50 0 -85 -32 -85 -78c0 -117 226 -188 226 -343c0 -91 -73 -162 -163 -162
c-41 0 -76 14 -105 44l-3 -46h-38z" />
    <glyph glyph-name="T" unicode="T" horiz-adv-x="490" 
d="M201 38l26 502h-128l-3 -65h-38l8 151h38l-1 -27h324l1 27h38l-8 -151h-38l3 65h-128l-26 -502h64l-2 -38h-196l2 38h64z" />
    <glyph glyph-name="U" unicode="U" horiz-adv-x="583" 
d="M115 561h-65l2 38h196l-2 -38h-63l-21 -398c-5 -89 48 -138 133 -138c79 0 127 51 132 138l21 398h-65l2 38h196l-2 -38h-63l-21 -398c-6 -111 -84 -177 -209 -177c-97 0 -199 53 -192 177z" />
    <glyph glyph-name="V" unicode="V" horiz-adv-x="510" 
d="M168 -14l-86 575h-65l2 38h193l-2 -38h-63l63 -438h2l227 438h-65l2 38h161l-2 -38h-47l-300 -575h-20z" />
    <glyph glyph-name="W" unicode="W" horiz-adv-x="865" 
d="M162 -14l-87 575h-65l2 38h193l-2 -38h-63l66 -440h2l219 440h-66l2 38h193l-2 -38h-63l64 -440h2l228 440h-66l2 38h160l-2 -38h-47l-298 -575h-20l-74 495h-2l-255 -495h-21z" />
    <glyph glyph-name="X" unicode="X" 
d="M53 38l162 248l-136 275h-55l2 38h191l-2 -38h-62l103 -211l134 211h-56l2 38h159l-2 -38h-52l-163 -256l135 -267h53l-2 -38h-190l2 38h64l-103 204l-133 -204h55l-2 -38h-170l2 38h64z" />
    <glyph glyph-name="Y" unicode="Y" 
d="M197 38l15 286l-136 237h-65l2 38h202l-2 -38h-63l109 -189l136 189h-65l2 38h161l-2 -38h-45l-166 -237l-15 -286h64l-2 -38h-196l2 38h64z" />
    <glyph glyph-name="Z" unicode="Z" horiz-adv-x="438" 
d="M360 38l4 86h38l-6 -124h-400l341 561h-252l-4 -82h-38l6 120h378l-341 -561h274z" />
    <glyph glyph-name="bracketleft" unicode="[" horiz-adv-x="344" 
d="M122 -216h172l-2 -28h-232l47 902h232l-1 -28h-172z" />
    <glyph glyph-name="backslash" unicode="\" horiz-adv-x="510" 
d="M118 658l327 -672h-54l-326 672h53z" />
    <glyph glyph-name="bracketright" unicode="]" horiz-adv-x="344" 
d="M212 630h-172l1 28h232l-47 -902h-232l2 28h172z" />
    <glyph glyph-name="asciicircum" unicode="^" horiz-adv-x="422" 
d="M220 658l208 -350h-45l-171 286l-171 -286h-46l210 350h15z" />
    <glyph glyph-name="underscore" unicode="_" horiz-adv-x="500" 
d="M506 -125h-512v50h512v-50z" />
    <glyph glyph-name="quoteleft" unicode="&#x2018;" horiz-adv-x="240" 
d="M80 549c0 86 68 134 112 134c6 0 12 -5 12 -10c0 -20 -59 -23 -66 -84c30 -15 43 -33 43 -58c0 -31 -20 -52 -47 -52c-34 0 -54 26 -54 70z" />
    <glyph glyph-name="a" unicode="a" horiz-adv-x="354" 
d="M294 416l-20 -384h52l-2 -32h-116l2 36l-2 2c-24 -28 -44 -45 -74 -45c-72 0 -116 66 -116 167c0 122 54 258 238 258c12 0 28 -1 38 -2zM215 131l13 258c-96 -4 -142 -80 -142 -222c0 -82 26 -132 76 -132c35 0 50 32 53 96z" />
    <glyph glyph-name="b" unicode="b" horiz-adv-x="365" 
d="M150 658l-15 -284l2 -2c24 34 44 46 75 46c68 0 115 -70 115 -173c0 -83 -28 -154 -72 -198c-45 -45 -106 -57 -205 -57l33 636h-45l2 32h110zM131 305l-15 -287c97 6 143 73 143 210c0 89 -29 141 -78 141c-30 0 -48 -23 -50 -64z" />
    <glyph glyph-name="c" unicode="c" horiz-adv-x="302" 
d="M269 418l-6 -108h-23c-10 50 -30 69 -58 69c-55 0 -95 -77 -95 -195c0 -88 31 -142 80 -142c65 0 74 53 91 53c7 0 12 -6 12 -12c0 -16 -52 -97 -125 -97c-70 0 -126 64 -126 181c0 169 108 244 168 244c20 0 36 -4 57 -14l2 21h23z" />
    <glyph glyph-name="d" unicode="d" horiz-adv-x="354" 
d="M304 658l-33 -626h53l-2 -32h-117l2 36l-2 2c-30 -35 -44 -45 -75 -45c-66 0 -114 68 -114 166c0 109 42 245 211 257l11 210h-60l2 32h124zM211 112l15 277c-40 -2 -73 -17 -95 -39c-37 -37 -47 -124 -47 -175c0 -83 29 -134 77 -134c31 0 47 24 50 71z" />
    <glyph glyph-name="e" unicode="e" horiz-adv-x="281" 
d="M19 166c0 138 76 252 169 252c48 0 82 -33 82 -79c0 -62 -60 -110 -177 -104c-26 -135 37 -195 77 -195c47 0 74 66 83 66c10 0 16 -9 16 -13c0 -20 -66 -107 -126 -107c-32 0 -65 20 -90 54c-24 33 -34 75 -34 126zM216 349c0 24 -13 42 -31 42c-40 0 -76 -51 -89 -127
c68 -6 120 37 120 85z" />
    <glyph glyph-name="f" unicode="f" horiz-adv-x="240" 
d="M70 32l18 344h-67l2 32h66c3 26 1 77 1 110c0 88 47 171 129 171c19 0 31 -3 53 -14l-13 -100h-15c0 47 -17 78 -45 78c-35 0 -47 -46 -47 -108c0 -63 7 -119 2 -137h62l-2 -32h-62l-18 -344h61l-1 -32h-172l1 32h47z" />
    <glyph glyph-name="g" unicode="g" horiz-adv-x="344" 
d="M302 416l-32 -594c-3 -58 -63 -73 -104 -73c-87 0 -162 62 -162 135c0 45 34 81 112 116c-60 22 -90 75 -90 162c0 162 89 256 240 256zM206 -189l12 225l-2 2c-27 -48 -155 -50 -155 -134c0 -52 75 -128 124 -128c12 0 20 6 21 35zM236 386c-116 0 -142 -122 -142 -207
c0 -84 29 -137 77 -137c24 0 49 17 51 64z" />
    <glyph glyph-name="h" unicode="h" horiz-adv-x="406" 
d="M64 32l31 594h-51l2 32h115l-16 -301l2 -2c37 44 70 63 108 63c55 0 91 -42 88 -107l-15 -279h51l-1 -32h-163l1 32h48l13 245c3 57 -15 87 -51 87c-29 0 -59 -17 -83 -49l-15 -283h49l-1 -32h-164l1 32h51z" />
    <glyph glyph-name="i" unicode="i" horiz-adv-x="240" 
d="M91 376h-51l2 32h115l-20 -376h53l-1 -32h-169l1 32h52zM122 590c22 0 40 -18 40 -40s-18 -41 -40 -41s-41 19 -41 41s19 40 41 40z" />
    <glyph glyph-name="j" unicode="j" horiz-adv-x="208" 
d="M77 376h-54l2 32h118l-28 -523c-5 -102 -63 -136 -115 -136c-11 0 -19 1 -29 5l1 27c49 -14 75 18 77 63zM118 590c22 0 40 -18 40 -40s-18 -41 -40 -41s-41 19 -41 41s19 40 41 40z" />
    <glyph glyph-name="k" unicode="k" horiz-adv-x="385" 
d="M145 658l-32 -626h50l-2 -32h-165l2 32h51l30 594h-51l2 32h115zM307 376l-115 -109c35 -13 55 -42 85 -114l50 -121h46l-1 -32h-172l1 32h55c-58 164 -74 190 -124 203l1 14l133 127h-47l2 32h132l-2 -32h-44z" />
    <glyph glyph-name="l" unicode="l" horiz-adv-x="208" 
d="M60 32l25 594h-49l2 32h112l-26 -626h52l-1 -32h-171l1 32h55z" />
    <glyph glyph-name="m" unicode="m" horiz-adv-x="625" 
d="M48 32l18 344h-48l2 32h112l-3 -55l2 -2c30 38 74 67 117 67c50 0 82 -24 96 -71c28 36 71 71 120 71c62 0 98 -42 93 -130l-13 -256h53l-2 -32h-165l2 32h48l13 249c3 49 -18 84 -61 84c-33 0 -61 -20 -90 -56l-14 -277h53l-2 -32h-165l2 32h48l13 249
c3 53 -15 84 -61 84c-33 0 -75 -29 -90 -56l-14 -277h53l-2 -32h-165l2 32h48z" />
    <glyph glyph-name="n" unicode="n" horiz-adv-x="385" 
d="M129 408l-3 -53l2 -2c34 42 73 65 110 65c58 0 92 -46 89 -112l-14 -274h52l-1 -32h-165l1 32h49l12 242c3 57 -9 87 -56 87c-27 0 -53 -16 -82 -51l-14 -278h52l-1 -32h-168l1 32h52l18 344h-52l2 32h116z" />
    <glyph glyph-name="o" unicode="o" horiz-adv-x="344" 
d="M18 161c0 144 71 257 161 257c79 0 136 -76 136 -182c0 -116 -65 -250 -164 -250c-76 0 -133 75 -133 175zM86 196c0 -96 19 -178 72 -178c51 0 89 84 89 193c0 110 -14 175 -70 175c-45 0 -91 -58 -91 -190z" />
    <glyph glyph-name="p" unicode="p" horiz-adv-x="354" 
d="M114 -10l-11 -202h56l-2 -32h-171l2 32h51l31 588h-51l2 32h115l-2 -28l2 -2c13 16 28 26 36 29c6 2 25 7 39 7c57 0 115 -55 115 -170c0 -132 -57 -241 -212 -254zM129 291l-14 -274c99 6 143 82 143 205c0 90 -29 145 -77 145c-35 0 -50 -32 -52 -76z" />
    <glyph glyph-name="q" unicode="q" horiz-adv-x="365" 
d="M210 -212l11 237l-2 2c-19 -27 -45 -41 -73 -41c-69 0 -117 72 -117 177c0 110 50 251 237 251h37l-29 -626h48l-2 -32h-163l1 32h52zM224 94l16 292c-93 -1 -143 -73 -143 -207c0 -89 29 -145 76 -145c27 0 49 19 51 60z" />
    <glyph glyph-name="r" unicode="r" horiz-adv-x="281" 
d="M156 408l-3 -61l2 -2c38 51 62 73 91 73c14 0 26 -6 40 -21l-37 -60c-14 14 -23 19 -33 19c-23 0 -51 -28 -66 -65l-13 -259h59l-2 -32h-173l1 32h51l18 344h-51l2 32h114z" />
    <glyph glyph-name="s" unicode="s" horiz-adv-x="260" 
d="M3 -8l4 90h12c24 -42 52 -57 82 -57c40 0 69 33 69 72c0 82 -139 98 -139 202c0 64 52 112 120 112c23 0 44 -9 56 -16l5 23h23l-7 -96h-16c-12 41 -41 57 -70 57c-36 0 -60 -32 -60 -60c0 -90 143 -101 143 -206c0 -72 -46 -120 -122 -120c-25 0 -46 7 -76 17l-1 -18
h-23z" />
    <glyph glyph-name="t" unicode="t" horiz-adv-x="250" 
d="M137 408h96l-2 -28h-95l-14 -279c-2 -36 16 -73 50 -73s40 17 51 17c7 0 8 -5 8 -9c0 -7 -30 -50 -87 -50c-52 0 -90 35 -86 113l14 281h-45l116 145z" />
    <glyph glyph-name="u" unicode="u" horiz-adv-x="396" 
d="M332 408l-19 -376h49l-1 -32h-114l3 52l-2 2c-33 -39 -71 -61 -106 -61c-51 0 -92 39 -88 127l13 256h-43l1 32h108l-15 -290c-2 -39 19 -72 54 -72c28 0 61 22 80 50l14 280h-44l2 32h108z" />
    <glyph glyph-name="v" unicode="v" horiz-adv-x="323" 
d="M163 121l95 255h-38l1 32h98l-1 -32h-30l-146 -390h-17l-86 390h-37l1 32h143l-1 -32h-41l57 -255h2z" />
    <glyph glyph-name="w" unicode="w" horiz-adv-x="552" 
d="M157 123l101 253h-38l2 32h151l-2 -32h-34l51 -253h2l101 253h-37l2 32h97l-2 -32h-29l-154 -390h-17l-73 368h-2l-142 -368h-15l-80 390h-40l2 32h140l-2 -32h-35l51 -253h2z" />
    <glyph glyph-name="x" unicode="x" horiz-adv-x="375" 
d="M36 32l122 163l-83 181h-40l1 32h148l-1 -32h-37l56 -120l90 120h-38l1 32h112l-1 -32h-39l-112 -151l92 -193h41l-2 -32h-151l2 32h39l-64 134l-101 -134h37l-2 -32h-113l2 32h41z" />
    <glyph glyph-name="y" unicode="y" horiz-adv-x="396" 
d="M17 -244l127 263l-81 357h-41l2 32h141l-2 -32h-34l62 -270h2l121 270h-42l2 32h112l-2 -32h-31l-280 -620h-56z" />
    <glyph glyph-name="z" unicode="z" horiz-adv-x="271" 
d="M78 32h139l3 51h27l-5 -83h-245l184 376h-121l-2 -48h-27l4 80h229z" />
    <glyph glyph-name="braceleft" unicode="{" horiz-adv-x="480" 
d="M143 196v22c66 9 112 52 112 104c0 22 -6 45 -12 70s-11 51 -11 80c0 95 76 174 183 188v-13c-78 -19 -111 -64 -111 -116c0 -21 5 -47 11 -74s12 -55 12 -80c0 -71 -56 -137 -144 -170c88 -33 144 -99 144 -170c0 -25 -6 -53 -12 -80s-11 -53 -11 -74
c0 -52 33 -97 111 -116v-13c-107 14 -183 93 -183 188c0 29 5 56 11 81s12 48 12 69c0 52 -46 95 -112 104z" />
    <glyph glyph-name="bar" unicode="|" horiz-adv-x="510" 
d="M229 750h52v-1000h-52v1000z" />
    <glyph glyph-name="braceright" unicode="}" horiz-adv-x="480" 
d="M337 218v-22c-66 -9 -112 -52 -112 -104c0 -21 5 -44 11 -69s12 -52 12 -81c0 -95 -76 -174 -183 -188v13c78 19 111 64 111 116c0 21 -6 47 -12 74s-11 55 -11 80c0 71 56 137 144 170c-88 33 -144 99 -144 170c0 25 5 53 11 80s12 53 12 74c0 52 -33 97 -111 116v13
c107 -14 183 -93 183 -188c0 -29 -6 -55 -12 -80s-11 -48 -11 -70c0 -52 46 -95 112 -104z" />
    <glyph glyph-name="asciitilde" unicode="~" horiz-adv-x="667" 
d="M572 390h23c-2 -83 -51 -140 -122 -140c-72 0 -227 89 -288 89c-48 0 -80 -30 -90 -88h-23c-2 77 45 140 121 140c74 0 224 -91 290 -91c49 0 83 32 89 90z" />
    <glyph glyph-name="exclamdown" unicode="&#xa1;" horiz-adv-x="240" 
d="M100 178h15c10 -38 18 -194 18 -233c0 -107 -21 -196 -46 -196c-19 0 -32 50 -32 122c0 95 22 197 45 307zM114 281c-26 0 -47 21 -47 47s21 48 47 48s48 -22 48 -48s-22 -47 -48 -47z" />
    <glyph glyph-name="cent" unicode="&#xa2;" horiz-adv-x="302" 
d="M206 373l-63 -326c9 -3 17 -5 25 -5c63 0 73 53 91 53c7 0 13 -6 13 -13s-51 -106 -141 -95l-31 -146h-24l32 153c-58 24 -89 84 -89 174c0 143 85 243 169 243l30 126h25l-30 -129c10 -2 20 -4 30 -8l3 18h22l-4 -108h-24c-7 43 -16 53 -34 63zM120 65l63 313
c-56 -1 -96 -78 -96 -194c0 -57 10 -92 33 -119z" />
    <glyph glyph-name="sterling" unicode="&#xa3;" 
d="M186 301h146l-1 -36h-147c-9 -61 -16 -104 -31 -136c78 2 116 -89 171 -89c54 0 84 73 103 128h28c-30 -100 -80 -182 -149 -182c-98 0 -119 116 -172 105c-23 -52 -73 -105 -97 -105c-14 0 -24 10 -24 24c0 29 31 91 100 113c6 44 8 80 7 142h-88l1 36h89
c-12 252 116 312 209 312c87 0 131 -55 131 -81c0 -12 -12 -24 -41 -41c-30 58 -62 82 -110 82c-77 0 -128 -62 -127 -154l1 -92z" />
    <glyph glyph-name="fraction" unicode="&#x2044;" horiz-adv-x="167" 
d="M-162 -24l409 637h38l-408 -637h-39z" />
    <glyph glyph-name="yen" unicode="&#xa5;" 
d="M279 295l-5 -105h193l-2 -28h-193l-7 -124h64l-2 -38h-196l2 38h64l7 124h-197l2 28h197l5 105h-195l2 29h195l-137 237h-65l2 38h202l-2 -38h-63l110 -189l136 189h-66l2 38h161l-2 -38h-44l-166 -237h195l-2 -29h-195z" />
    <glyph glyph-name="florin" unicode="&#x192;" horiz-adv-x="488" 
d="M282 356h65l-2 -33h-65l-20 -373c-6 -117 -60 -201 -144 -201c-17 0 -33 3 -52 9l17 98h20c6 -58 10 -79 35 -79c33 0 63 62 67 184l13 362h-65l2 33h65l5 128c5 130 71 199 145 199c18 0 34 -3 54 -10l-18 -99h-20c-2 59 -10 79 -32 79c-44 0 -62 -91 -67 -209z" />
    <glyph glyph-name="section" unicode="&#xa7;" horiz-adv-x="542" 
d="M402 -41c0 110 -199 87 -302 190c-22 22 -41 59 -41 96c0 52 30 95 89 129c-39 31 -58 64 -58 101c0 64 55 124 171 124c138 0 183 -80 183 -120c0 -13 -13 -23 -31 -23c-8 0 -14 1 -25 5c-18 65 -65 100 -131 100c-68 0 -109 -31 -109 -76c0 -84 214 -108 290 -184
c31 -31 44 -64 44 -105c0 -48 -21 -92 -64 -136c27 -31 36 -52 36 -83c0 -84 -79 -143 -190 -143c-118 0 -174 66 -174 98c0 19 18 31 58 39c28 -68 72 -99 138 -99s116 37 116 87zM117 260c0 -106 182 -112 277 -177c28 30 41 60 41 90c0 113 -166 126 -259 183
c-41 -32 -59 -60 -59 -96z" />
    <glyph glyph-name="currency" unicode="&#xa4;" horiz-adv-x="681" 
d="M476 494l62 61l36 -37l-61 -61c34 -48 46 -85 46 -136s-12 -87 -46 -135l61 -61l-36 -36l-62 61c-47 -34 -84 -47 -136 -47c-51 0 -87 13 -135 47l-61 -61l-37 36l62 61c-35 49 -48 84 -48 136c0 51 13 86 48 135l-62 61l37 37l61 -61c50 35 84 47 135 47
c52 0 87 -12 136 -47zM174 322c0 -92 75 -167 167 -167s166 75 166 167s-74 167 -166 167s-167 -75 -167 -167z" />
    <glyph glyph-name="quotesingle" unicode="'" horiz-adv-x="214" 
d="M100 392l-26 144c-5 27 -11 54 -11 81c0 39 16 60 47 60s47 -21 47 -60c0 -27 -6 -54 -11 -81l-26 -144h-20z" />
    <glyph glyph-name="quotedblleft" unicode="&#x201c;" horiz-adv-x="375" 
d="M228 549c0 86 68 134 112 134c6 0 12 -5 12 -10c0 -20 -59 -23 -66 -84c30 -15 43 -33 43 -58c0 -31 -20 -52 -47 -52c-34 0 -54 26 -54 70zM92 549c0 86 68 134 112 134c6 0 12 -5 12 -10c0 -20 -59 -23 -66 -84c30 -15 43 -33 43 -58c0 -31 -20 -52 -47 -52
c-34 0 -54 26 -54 70z" />
    <glyph glyph-name="guillemotleft" unicode="&#xab;" horiz-adv-x="375" 
d="M353 394l-99 -189l79 -189h-26l-128 189l148 189h26zM200 394l-99 -189l79 -189h-26l-128 189l148 189h26z" />
    <glyph glyph-name="guilsinglleft" unicode="&#x2039;" horiz-adv-x="229" 
d="M203 394l-99 -189l79 -189h-26l-128 189l148 189h26z" />
    <glyph glyph-name="guilsinglright" unicode="&#x203a;" horiz-adv-x="229" 
d="M26 16l99 189l-79 189h26l128 -189l-148 -189h-26z" />
    <glyph glyph-name="endash" unicode="&#x2013;" horiz-adv-x="500" 
d="M-5 273h510v-46h-510v46z" />
    <glyph glyph-name="dagger" unicode="&#x2020;" horiz-adv-x="500" 
d="M190 -244l64 637l-206 -27l5 84l203 -28l-19 236h96l-46 -236l208 28l-5 -84l-205 27v-637h-95z" />
    <glyph glyph-name="daggerdbl" unicode="&#x2021;" horiz-adv-x="490" 
d="M188 -244l38 208l-202 -25l5 83l199 -22l-17 204l38 204l-201 -21l4 82l199 -24l-16 213h88l-39 -213l202 24l-4 -82l-200 21l11 -204l-32 -204l202 22l-5 -83l-199 25l17 -208h-88z" />
    <glyph glyph-name="periodcentered" unicode="&#xb7;" horiz-adv-x="240" 
d="M111 346c26 0 47 -21 47 -47s-21 -48 -47 -48s-48 22 -48 48s22 47 48 47z" />
    <glyph glyph-name="paragraph" unicode="&#xb6;" horiz-adv-x="453" 
d="M391 631v-847h-36v847h-91v-847h-36v505c-155 7 -234 59 -234 187c0 108 77 182 220 182h241v-27h-64z" />
    <glyph glyph-name="bullet" unicode="&#x2022;" horiz-adv-x="350" 
d="M176 453c68 0 122 -54 122 -122s-54 -123 -122 -123s-123 55 -123 123s55 122 123 122z" />
    <glyph glyph-name="quotesinglbase" unicode="&#x201a;" horiz-adv-x="240" 
d="M159 14c0 -86 -68 -134 -112 -134c-6 0 -12 5 -12 10c0 20 59 23 66 84c-30 15 -43 33 -43 58c0 31 20 52 47 52c34 0 54 -26 54 -70z" />
    <glyph glyph-name="quotedblbase" unicode="&#x201e;" horiz-adv-x="375" 
d="M313 14c0 -86 -68 -134 -112 -134c-6 0 -12 5 -12 10c0 20 59 23 66 84c-30 15 -43 33 -43 58c0 31 20 52 47 52c34 0 54 -26 54 -70zM176 14c0 -86 -68 -134 -112 -134c-6 0 -12 5 -12 10c0 20 59 23 66 84c-30 15 -43 33 -43 58c0 31 20 52 47 52c34 0 54 -26 54 -70z
" />
    <glyph glyph-name="quotedblright" unicode="&#x201d;" horiz-adv-x="375" 
d="M222 631c0 31 20 52 47 52c34 0 54 -26 54 -70c0 -86 -68 -134 -112 -134c-6 0 -12 5 -12 10c0 20 59 23 66 84c-30 15 -43 33 -43 58zM85 631c0 31 20 52 47 52c34 0 54 -26 54 -70c0 -86 -68 -134 -112 -134c-6 0 -12 5 -12 10c0 20 59 23 66 84c-30 15 -43 33 -43 58z
" />
    <glyph glyph-name="guillemotright" unicode="&#xbb;" horiz-adv-x="375" 
d="M175 16l99 189l-79 189h26l128 -189l-148 -189h-26zM22 16l99 189l-79 189h26l128 -189l-148 -189h-26z" />
    <glyph glyph-name="ellipsis" unicode="&#x2026;" horiz-adv-x="1000" 
d="M833 84c26 0 46 -20 46 -46s-20 -47 -46 -47s-47 21 -47 47s21 46 47 46zM500 84c26 0 46 -20 46 -46s-20 -47 -46 -47s-47 21 -47 47s21 46 47 46zM167 84c26 0 46 -20 46 -46s-20 -47 -46 -47s-47 21 -47 47s21 46 47 46z" />
    <glyph glyph-name="perthousand" unicode="&#x2030;" horiz-adv-x="1000" 
d="M77 410c0 -67 17 -98 54 -98c47 0 68 53 68 168c0 76 -14 107 -54 107c-47 0 -68 -53 -68 -177zM524 613h38l-402 -627h-39zM800 110c0 -67 17 -98 54 -98c47 0 68 53 68 168c0 76 -14 107 -54 107c-47 0 -68 -53 -68 -177zM22 431c0 110 49 182 123 182
c59 0 109 -45 109 -142c0 -115 -47 -185 -123 -185c-66 0 -109 56 -109 145zM745 131c0 110 49 182 123 182c59 0 109 -45 109 -142c0 -115 -47 -185 -123 -185c-66 0 -109 56 -109 145zM424 131c0 110 49 182 123 182c59 0 109 -45 109 -142c0 -115 -47 -185 -123 -185
c-66 0 -109 56 -109 145zM479 110c0 -67 17 -98 54 -98c47 0 68 53 68 168c0 76 -14 107 -54 107c-47 0 -68 -53 -68 -177z" />
    <glyph glyph-name="questiondown" unicode="&#xbf;" horiz-adv-x="323" 
d="M253 -139l-13 -60c-38 -35 -67 -52 -111 -52c-65 0 -119 57 -119 125c0 75 36 118 83 165c80 80 112 124 115 159l16 -22c-18 -99 -154 -182 -154 -289c0 -51 35 -88 81 -88c36 0 66 18 102 62zM223 281c-26 0 -47 21 -47 47s21 48 47 48s48 -22 48 -48s-22 -47 -48 -47z
" />
    <glyph glyph-name="grave" unicode="`" horiz-adv-x="333" 
d="M258 508h-18l-139 150h94z" />
    <glyph glyph-name="acute" unicode="&#xb4;" horiz-adv-x="333" 
d="M111 508l63 150h94l-139 -150h-18z" />
    <glyph glyph-name="circumflex" unicode="&#x2c6;" horiz-adv-x="333" 
d="M56 511l110 140h44l82 -140h-18l-90 71l-109 -71h-19z" />
    <glyph glyph-name="tilde" unicode="&#x2dc;" horiz-adv-x="333" 
d="M81 532h-25c12 55 47 93 85 93c43 0 78 -33 103 -33c18 0 31 9 39 34h24c-13 -54 -50 -94 -86 -94c-37 0 -65 35 -101 35c-20 0 -30 -10 -39 -35z" />
    <glyph glyph-name="macron" unicode="&#xaf;" horiz-adv-x="333" 
d="M23 511l4 67h298l-4 -67h-298z" />
    <glyph glyph-name="breve" unicode="&#x2d8;" horiz-adv-x="333" 
d="M71 644h22c-6 -33 19 -68 80 -68c60 0 97 19 110 68h25c-18 -91 -64 -132 -132 -132c-75 0 -120 49 -105 132z" />
    <glyph glyph-name="dotaccent" unicode="&#x2d9;" horiz-adv-x="333" 
d="M176 627c27 0 49 -22 49 -49s-22 -50 -49 -50s-50 23 -50 50s23 49 50 49z" />
    <glyph glyph-name="dieresis" unicode="&#xa8;" horiz-adv-x="333" 
d="M109 627c27 0 49 -22 49 -49s-22 -50 -49 -50s-50 23 -50 50s23 49 50 49zM252 627c27 0 49 -22 49 -49s-22 -50 -49 -50s-50 23 -50 50s23 49 50 49z" />
    <glyph glyph-name="ring" unicode="&#x2da;" horiz-adv-x="333" 
d="M167 670c50 0 91 -41 91 -91s-41 -91 -91 -91s-91 41 -91 91s41 91 91 91zM167 642c-35 0 -63 -28 -63 -63s28 -63 63 -63s63 28 63 63s-28 63 -63 63z" />
    <glyph glyph-name="cedilla" unicode="&#xb8;" horiz-adv-x="333" 
d="M136 13h32l-23 -56c37 -13 53 -39 53 -68c0 -47 -35 -101 -164 -101l7 28c61 2 97 22 97 57c0 23 -16 38 -44 42z" />
    <glyph glyph-name="hungarumlaut" unicode="&#x2dd;" horiz-adv-x="333" 
d="M193 508l63 150h94l-139 -150h-18zM58 508l63 150h94l-139 -150h-18z" />
    <glyph glyph-name="ogonek" unicode="&#x2db;" horiz-adv-x="333" 
d="M94 0h61c-15 -29 -21 -54 -21 -80c0 -41 29 -68 74 -68c11 0 18 1 33 4l-2 -49c-27 -13 -48 -18 -74 -18c-61 0 -99 39 -99 102c0 37 9 71 28 109z" />
    <glyph glyph-name="caron" unicode="&#x2c7;" horiz-adv-x="333" 
d="M301 651l-110 -140h-44l-82 140h18l90 -71l109 71h19z" />
    <glyph glyph-name="emdash" unicode="&#x2014;" horiz-adv-x="1000" 
d="M-5 273h1010v-46h-1010v46z" />
    <glyph glyph-name="AE" unicode="&#xc6;" horiz-adv-x="667" 
d="M-10 38l350 561h284l-6 -118h-38l4 80h-170l-12 -244h129l4 73h38l-10 -197h-38l4 86h-129l-13 -241h179l5 86h38l-7 -124h-349l2 38h64l13 241h-147l-152 -241h64l-2 -38h-136l2 38h29zM334 317l11 217l-2 2l-135 -219h126z" />
    <glyph glyph-name="ordfeminine" unicode="&#xaa;" horiz-adv-x="229" 
d="M195 613l-12 -230h33l-1 -22h-86v12c-5 -5 -11 -8 -16 -9c-8 -2 -20 -5 -27 -5c-48 0 -79 40 -79 103c0 53 21 100 56 124c28 19 59 27 110 27h22zM133 442l8 148c-33 -6 -48 -14 -60 -32c-13 -22 -20 -51 -20 -91c0 -46 17 -75 44 -75c18 0 26 15 28 50z" />
    <glyph glyph-name="Lslash" unicode="&#x141;" horiz-adv-x="406" 
d="M82 38l8 147l-69 -71l3 48l69 71l16 328h-64l2 38h196l-2 -38h-64l-13 -263l80 82l-3 -48l-80 -82l-11 -212h179l5 86h38l-7 -124h-349l2 38h64z" />
    <glyph glyph-name="Oslash" unicode="&#xd8;" horiz-adv-x="573" 
d="M433 472l-280 -379c32 -43 68 -68 115 -68c120 0 195 163 195 300c0 54 -13 116 -30 147zM453 557l41 56l29 -20l-46 -62c44 -54 63 -128 63 -204c0 -141 -85 -341 -276 -341c-63 0 -108 22 -148 57l-45 -61l-29 18l51 69c-40 49 -64 128 -64 202c0 148 93 342 276 342
c59 0 116 -22 148 -56zM135 126l280 380c-26 41 -71 68 -117 68c-104 0 -192 -140 -192 -304c0 -51 12 -111 29 -144z" />
    <glyph glyph-name="OE" unicode="&#x152;" horiz-adv-x="750" 
d="M464 291l-13 -253h199l5 88h38l-7 -126h-384c-88 0 -140 6 -193 53c-47 42 -82 104 -82 205c0 170 107 341 275 341h404l-6 -117h-38l4 79h-188l-12 -232h148l4 73h38l-10 -197h-38l4 86h-148zM383 38l27 523h-94c-42 0 -89 -11 -117 -36c-48 -44 -95 -137 -95 -250
c0 -47 8 -133 64 -195c31 -35 67 -42 121 -42h94z" />
    <glyph glyph-name="ordmasculine" unicode="&#xba;" horiz-adv-x="219" 
d="M20 458c0 87 47 155 109 155c54 0 93 -46 93 -111c0 -80 -52 -151 -111 -151c-52 0 -91 46 -91 107zM74 478c0 -66 15 -102 41 -102c29 0 52 46 52 107c0 66 -16 106 -42 106c-10 0 -18 -4 -27 -15c-17 -19 -24 -48 -24 -96z" />
    <glyph glyph-name="ae" unicode="&#xe6;" 
d="M285 216l-4 -80c-3 -58 25 -100 62 -100c55 0 76 69 93 69c5 0 12 -7 12 -13s-56 -106 -133 -106c-38 0 -71 29 -86 69c-23 -48 -51 -69 -94 -69c-70 0 -115 68 -115 173c0 84 26 157 66 197c44 44 99 62 206 62c97 0 133 -20 133 -81c0 -40 -38 -107 -140 -121zM294 386
l-7 -145c48 10 83 47 83 88c0 36 -31 63 -76 57zM217 132l13 254c-96 -4 -142 -79 -142 -221c0 -81 28 -132 75 -132c35 0 51 34 54 99z" />
    <glyph glyph-name="dotlessi" unicode="&#x131;" horiz-adv-x="240" 
d="M91 376h-51l2 32h115l-20 -376h53l-1 -32h-169l1 32h52z" />
    <glyph glyph-name="lslash" unicode="&#x142;" horiz-adv-x="208" 
d="M60 32l11 255l-2 2l-62 -73l3 46l63 71l12 293h-49l2 32h112l-11 -258l2 -2l60 74l-2 -46l-62 -72l-13 -322h52l-1 -32h-171l1 32h55z" />
    <glyph glyph-name="oslash" unicode="&#xf8;" horiz-adv-x="344" 
d="M243 292l-145 -213c13 -38 27 -61 58 -61c51 0 91 84 91 193c0 33 -1 61 -4 81zM266 378l26 40l22 -15l-30 -45c19 -33 31 -76 31 -122c0 -116 -65 -250 -164 -250c-34 0 -66 16 -88 41l-26 -39l-21 12l32 48c-20 28 -30 71 -30 113c0 144 71 257 161 257
c37 0 68 -19 87 -40zM90 113l146 213c-8 37 -29 60 -60 60c-45 0 -90 -58 -90 -190c0 -48 0 -59 4 -83z" />
    <glyph glyph-name="oe" unicode="&#x153;" horiz-adv-x="510" 
d="M500 342c0 -65 -55 -112 -130 -112c-16 0 -31 2 -51 6c-3 -20 -4 -45 -4 -58c0 -79 29 -136 84 -136c49 0 70 70 88 70c6 0 14 -7 14 -14c0 -22 -71 -112 -132 -112c-40 0 -72 28 -95 84c-35 -57 -73 -84 -119 -84c-77 0 -135 79 -135 182c0 133 77 250 164 250
c47 0 83 -32 112 -78c41 57 74 78 121 78c49 0 83 -31 83 -76zM445 340c0 27 -11 46 -34 46c-50 0 -83 -63 -90 -123c16 -2 29 -3 43 -3c51 0 81 30 81 80zM88 196c0 -122 23 -178 79 -178c43 0 84 80 84 195c0 109 -23 173 -70 173c-45 0 -93 -62 -93 -190z" />
    <glyph glyph-name="germandbls" unicode="&#xdf;" horiz-adv-x="354" 
d="M-8 32h46l26 488c5 92 49 169 131 169c69 0 116 -57 116 -142c0 -84 -45 -153 -116 -174v-2c75 -8 120 -68 120 -160c0 -117 -55 -216 -119 -216c-32 0 -62 24 -62 49c0 13 25 43 31 43c21 0 7 -63 32 -63c28 0 50 90 50 163c0 96 -16 169 -96 180l1 23
c83 1 96 119 96 161c0 63 -24 106 -60 106c-50 0 -56 -76 -62 -181l-26 -476h-110z" />
    <glyph glyph-name="logicalnot" unicode="&#xac;" horiz-adv-x="667" 
d="M69 409h528v-288h-52v236h-476v52z" />
    <glyph glyph-name="mu" unicode="&#xb5;" horiz-adv-x="500" 
d="M130 21c-11 -94 10 -172 10 -208c0 -38 -16 -57 -44 -57c-19 0 -32 17 -32 43c0 57 29 77 39 264l18 345h64l-15 -286c-2 -46 15 -81 49 -81c28 0 66 25 85 54l16 313h64l-16 -306c-2 -38 12 -61 27 -61c21 0 42 23 55 80l13 -1c-5 -109 -75 -128 -95 -128
c-35 0 -62 20 -66 61c-35 -39 -73 -60 -108 -60c-25 0 -45 8 -64 28z" />
    <glyph glyph-name="trademark" unicode="&#x2122;" horiz-adv-x="980" 
d="M26 658h356l11 -98h-17c-8 52 -32 69 -94 69h-36v-282c0 -55 7 -64 51 -66v-17h-183v17c44 4 50 11 50 66v282h-39c-60 0 -82 -17 -92 -69h-17zM567 658l133 -280l130 280h135v-18c-47 -1 -53 -9 -53 -67v-226c0 -57 5 -63 53 -66v-17h-195v17c51 1 60 11 60 66v236h-2
l-149 -319h-16l-149 319h-2v-236c0 -55 8 -66 47 -66h18v-17h-151v17c48 0 56 9 56 66v226c0 60 -7 67 -56 67v18h141z" />
    <glyph glyph-name="Eth" unicode="&#xd0;" horiz-adv-x="542" 
d="M40 278l2 38h64l13 245h-64l2 38h228c160 0 221 -126 221 -265c0 -140 -70 -260 -150 -303c-48 -26 -118 -31 -148 -31h-182l2 38h64l12 240h-64zM172 278l-12 -240h63c148 0 206 152 206 314c0 105 -35 209 -161 209h-81l-13 -245h146l-2 -38h-146z" />
    <glyph glyph-name="onehalf" unicode="&#xbd;" horiz-adv-x="719" 
d="M113 313l14 262l-53 -21l1 21l103 37l-16 -299h40l-1 -20h-130l1 20h41zM116 -14l403 627h38l-402 -627h-39zM646 50l-3 -50h-205v6c87 95 134 169 134 221c0 38 -20 61 -55 61c-21 0 -38 -9 -66 -35l-20 15c30 35 64 52 104 52c52 0 90 -33 90 -79
c0 -52 -29 -101 -126 -210h101c14 0 18 4 19 19h27z" />
    <glyph glyph-name="plusminus" unicode="&#xb1;" horiz-adv-x="667" 
d="M69 448h238v238h52v-238h238v-52h-238v-238h-52v238h-238v52zM69 52h528v-52h-528v52z" />
    <glyph glyph-name="Thorn" unicode="&#xde;" horiz-adv-x="427" 
d="M84 38l27 523h-64l2 38h196l-2 -38h-64l-4 -80h44c128 0 171 -85 171 -164c0 -104 -74 -185 -169 -185c-20 0 -38 2 -64 9l-5 -103h64l-2 -38h-196l2 38h64zM173 443l-14 -262c20 -8 34 -10 51 -10c65 0 109 57 109 143c0 56 -21 129 -94 129h-52z" />
    <glyph glyph-name="onequarter" unicode="&#xbc;" horiz-adv-x="719" 
d="M521 103h-140l1 19l184 196h15l-10 -184h87l-1 -31h-87l-5 -86h39l-1 -17h-130l1 17h42zM522 134l6 104l-99 -104h93zM113 313l14 262l-53 -21l1 21l103 37l-16 -299h40l-1 -20h-130l1 20h41zM519 613h38l-402 -627h-39z" />
    <glyph glyph-name="divide" unicode="&#xf7;" horiz-adv-x="668" 
d="M334 71c20 0 35 -16 35 -35s-15 -35 -35 -35c-19 0 -35 16 -35 35s16 35 35 35zM334 527c20 0 35 -16 35 -35s-15 -35 -35 -35c-19 0 -35 16 -35 35s16 35 35 35zM70 290h528v-52h-528v52z" />
    <glyph glyph-name="brokenbar" unicode="&#xa6;" horiz-adv-x="510" 
d="M229 125h52v-375h-52v375zM229 750h52v-375h-52v375z" />
    <glyph glyph-name="degree" unicode="&#xb0;" horiz-adv-x="399" 
d="M199 677c83 0 150 -67 150 -150s-67 -150 -150 -150s-150 67 -150 150s67 150 150 150zM199 637c-61 0 -110 -49 -110 -110s49 -110 110 -110s110 49 110 110s-49 110 -110 110z" />
    <glyph glyph-name="thorn" unicode="&#xfe;" horiz-adv-x="354" 
d="M114 -10l-11 -202h56l-2 -32h-171l2 32h51l44 838h-51l2 32h116l-16 -280c28 28 48 36 76 36c59 0 116 -54 116 -169c0 -132 -57 -242 -212 -255zM129 291l-14 -274c99 6 143 82 143 205c0 88 -25 145 -77 145c-32 0 -50 -30 -52 -76z" />
    <glyph glyph-name="threequarters" unicode="&#xbe;" horiz-adv-x="719" 
d="M24 337l17 13c28 -30 48 -38 76 -38c37 0 64 27 64 66c0 45 -34 70 -99 70l1 19c63 3 99 44 99 74c0 26 -21 44 -50 44c-20 0 -38 -9 -65 -27l-15 14c25 26 59 41 93 41c49 0 86 -29 86 -68c0 -34 -24 -59 -76 -77v-2c54 -12 82 -41 82 -84c0 -55 -48 -96 -110 -96
c-43 0 -80 19 -103 51zM519 613h38l-402 -627h-39zM521 103h-140l1 19l184 196h15l-10 -184h87l-1 -31h-87l-5 -86h39l-1 -17h-130l1 17h42zM522 134l6 104l-99 -104h93z" />
    <glyph glyph-name="registered" unicode="&#xae;" horiz-adv-x="760" 
d="M234 180v307c0 27 -13 39 -45 39v18h188c88 0 146 -44 146 -110c0 -54 -36 -90 -109 -108l102 -146c23 -32 35 -41 59 -43v-16h-90l-144 198h-38v-115v-36c5 -24 18 -31 59 -31v-16h-179v16c37 0 51 15 51 43zM303 340h15c80 0 126 33 126 89c0 54 -42 93 -100 93
c-14 0 -23 -2 -41 -7v-175zM36 333c0 190 155 344 345 344s344 -154 344 -344s-154 -345 -344 -345s-345 155 -345 345zM63 333c0 -175 142 -318 317 -318s318 143 318 318s-143 317 -318 317s-317 -142 -317 -317z" />
    <glyph glyph-name="minus" unicode="&#x2212;" horiz-adv-x="667" 
d="M69 290h528v-52h-528v52z" />
    <glyph glyph-name="eth" unicode="&#xf0;" horiz-adv-x="354" 
d="M259 207c0 93 -17 184 -74 184c-53 0 -88 -77 -88 -191c0 -124 24 -186 72 -186c53 0 90 79 90 193zM331 669l-94 -69c58 -93 92 -203 92 -332c0 -217 -106 -282 -164 -282c-72 0 -136 64 -136 178c0 144 70 254 162 254c25 0 43 -6 64 -22c-3 48 -15 113 -49 181
l-98 -72l-14 20l100 74c-12 25 -29 49 -49 73l22 17c20 -22 39 -45 56 -69l94 69z" />
    <glyph glyph-name="multiply" unicode="&#xd7;" horiz-adv-x="668" 
d="M93 468l38 38l204 -204l203 203l37 -37l-203 -203l203 -203l-37 -37l-203 203l-204 -204l-38 38l203 203z" />
    <glyph glyph-name="copyright" unicode="&#xa9;" horiz-adv-x="760" 
d="M551 554l10 -137h-19c-23 76 -73 115 -147 115c-95 0 -155 -74 -155 -191c0 -138 62 -203 160 -203c64 0 113 26 151 82l19 -10c-46 -67 -107 -99 -188 -99c-128 0 -226 94 -226 217c0 128 105 226 243 226c57 0 91 -22 109 -22c11 0 17 5 24 22h19zM36 333
c0 190 155 344 345 344s344 -154 344 -344s-154 -345 -344 -345s-345 155 -345 345zM63 333c0 -175 142 -318 317 -318s318 143 318 318s-143 317 -318 317s-317 -142 -317 -317z" />
    <glyph glyph-name="Aacute" unicode="&#xc1;" horiz-adv-x="510" 
d="M48 38l298 575h22l87 -575h64l-2 -38h-193l2 38h64l-28 181h-170l-95 -181h64l-2 -38h-176l2 38h63zM209 257h147l-31 222h-2zM308 676l63 150h94l-139 -150h-18z" />
    <glyph glyph-name="Acircumflex" unicode="&#xc2;" horiz-adv-x="510" 
d="M48 38l298 575h22l87 -575h64l-2 -38h-193l2 38h64l-28 181h-170l-95 -181h64l-2 -38h-176l2 38h63zM209 257h147l-31 222h-2zM253 679l110 140h44l82 -140h-18l-90 71l-109 -71h-19z" />
    <glyph glyph-name="Adieresis" unicode="&#xc4;" horiz-adv-x="510" 
d="M48 38l298 575h22l87 -575h64l-2 -38h-193l2 38h64l-28 181h-170l-95 -181h64l-2 -38h-176l2 38h63zM209 257h147l-31 222h-2zM306 795c27 0 49 -22 49 -49s-22 -50 -49 -50s-50 23 -50 50s23 49 50 49zM449 795c27 0 49 -22 49 -49s-22 -50 -49 -50s-50 23 -50 50
s23 49 50 49z" />
    <glyph glyph-name="Agrave" unicode="&#xc0;" horiz-adv-x="510" 
d="M48 38l298 575h22l87 -575h64l-2 -38h-193l2 38h64l-28 181h-170l-95 -181h64l-2 -38h-176l2 38h63zM209 257h147l-31 222h-2zM455 676h-18l-139 150h94z" />
    <glyph glyph-name="Aring" unicode="&#xc5;" horiz-adv-x="510" 
d="M48 38l298 575h22l87 -575h64l-2 -38h-193l2 38h64l-28 181h-170l-95 -181h64l-2 -38h-176l2 38h63zM209 257h147l-31 222h-2zM364 838c50 0 91 -41 91 -91s-41 -91 -91 -91s-91 41 -91 91s41 91 91 91zM364 810c-35 0 -63 -28 -63 -63s28 -63 63 -63s63 28 63 63
s-28 63 -63 63z" />
    <glyph glyph-name="Atilde" unicode="&#xc3;" horiz-adv-x="510" 
d="M48 38l298 575h22l87 -575h64l-2 -38h-193l2 38h64l-28 181h-170l-95 -181h64l-2 -38h-176l2 38h63zM209 257h147l-31 222h-2zM278 700h-25c12 55 47 93 85 93c43 0 78 -33 103 -33c18 0 31 9 39 34h24c-13 -54 -50 -94 -86 -94c-37 0 -65 35 -101 35
c-20 0 -30 -10 -39 -35z" />
    <glyph glyph-name="Ccedilla" unicode="&#xc7;" horiz-adv-x="531" 
d="M199 -85l32 75c-122 19 -199 125 -199 275c0 163 92 348 294 348c48 0 81 -9 127 -34l11 37h33l-9 -164h-33c-25 86 -67 122 -141 122c-162 0 -205 -198 -205 -308c0 -142 74 -241 181 -241c66 0 129 34 191 104l-2 -53c-70 -67 -119 -90 -217 -90l-12 -29
c37 -13 53 -39 53 -68c0 -47 -35 -101 -164 -101l7 28c61 2 97 22 97 57c0 23 -16 38 -44 42z" />
    <glyph glyph-name="Eacute" unicode="&#xc9;" horiz-adv-x="427" 
d="M81 38l27 523h-65l2 38h340l-6 -118h-38l4 80h-169l-12 -233h129l4 77h38l-10 -201h-38l4 86h-129l-13 -252h179l5 86h38l-7 -124h-349l2 38h64zM158 676l63 150h94l-139 -150h-18z" />
    <glyph glyph-name="Ecircumflex" unicode="&#xca;" horiz-adv-x="427" 
d="M81 38l27 523h-65l2 38h340l-6 -118h-38l4 80h-169l-12 -233h129l4 77h38l-10 -201h-38l4 86h-129l-13 -252h179l5 86h38l-7 -124h-349l2 38h64zM103 679l110 140h44l82 -140h-18l-90 71l-109 -71h-19z" />
    <glyph glyph-name="Edieresis" unicode="&#xcb;" horiz-adv-x="427" 
d="M81 38l27 523h-65l2 38h340l-6 -118h-38l4 80h-169l-12 -233h129l4 77h38l-10 -201h-38l4 86h-129l-13 -252h179l5 86h38l-7 -124h-349l2 38h64zM156 795c27 0 49 -22 49 -49s-22 -50 -49 -50s-50 23 -50 50s23 49 50 49zM299 795c27 0 49 -22 49 -49s-22 -50 -49 -50
s-50 23 -50 50s23 49 50 49z" />
    <glyph glyph-name="Egrave" unicode="&#xc8;" horiz-adv-x="427" 
d="M81 38l27 523h-65l2 38h340l-6 -118h-38l4 80h-169l-12 -233h129l4 77h38l-10 -201h-38l4 86h-129l-13 -252h179l5 86h38l-7 -124h-349l2 38h64zM305 676h-18l-139 150h94z" />
    <glyph glyph-name="Iacute" unicode="&#xcd;" horiz-adv-x="281" 
d="M93 38l27 523h-64l2 38h196l-2 -38h-64l-27 -523h64l-2 -38h-196l2 38h64zM85 676l63 150h94l-139 -150h-18z" />
    <glyph glyph-name="Icircumflex" unicode="&#xce;" horiz-adv-x="281" 
d="M93 38l27 523h-64l2 38h196l-2 -38h-64l-27 -523h64l-2 -38h-196l2 38h64zM30 679l110 140h44l82 -140h-18l-90 71l-109 -71h-19z" />
    <glyph glyph-name="Idieresis" unicode="&#xcf;" horiz-adv-x="281" 
d="M93 38l27 523h-64l2 38h196l-2 -38h-64l-27 -523h64l-2 -38h-196l2 38h64zM83 795c27 0 49 -22 49 -49s-22 -50 -49 -50s-50 23 -50 50s23 49 50 49zM226 795c27 0 49 -22 49 -49s-22 -50 -49 -50s-50 23 -50 50s23 49 50 49z" />
    <glyph glyph-name="Igrave" unicode="&#xcc;" horiz-adv-x="281" 
d="M93 38l27 523h-64l2 38h196l-2 -38h-64l-27 -523h64l-2 -38h-196l2 38h64zM232 676h-18l-139 150h94z" />
    <glyph glyph-name="Ntilde" unicode="&#xd1;" horiz-adv-x="594" 
d="M84 38l27 523h-64l2 38h133l-2 -38l267 -439h2l22 439h-65l2 38h171l-2 -38h-64l-29 -561h-36l-298 488h-2l-22 -450h64l-2 -38h-170l2 38h64zM212 700h-25c12 55 47 93 85 93c43 0 78 -33 103 -33c18 0 31 9 39 34h24c-13 -54 -50 -94 -86 -94c-37 0 -65 35 -101 35
c-20 0 -30 -10 -39 -35z" />
    <glyph glyph-name="Oacute" unicode="&#xd3;" horiz-adv-x="573" 
d="M29 271c0 148 93 342 276 342c156 0 235 -135 235 -286c0 -141 -85 -341 -276 -341c-160 0 -235 148 -235 285zM106 270c0 -140 69 -245 162 -245c120 0 195 163 195 300c0 145 -69 249 -165 249c-104 0 -192 -140 -192 -304zM231 676l63 150h94l-139 -150h-18z" />
    <glyph glyph-name="Ocircumflex" unicode="&#xd4;" horiz-adv-x="573" 
d="M29 271c0 148 93 342 276 342c156 0 235 -135 235 -286c0 -141 -85 -341 -276 -341c-160 0 -235 148 -235 285zM106 270c0 -140 69 -245 162 -245c120 0 195 163 195 300c0 145 -69 249 -165 249c-104 0 -192 -140 -192 -304zM176 679l110 140h44l82 -140h-18l-90 71
l-109 -71h-19z" />
    <glyph glyph-name="Odieresis" unicode="&#xd6;" horiz-adv-x="573" 
d="M29 271c0 148 93 342 276 342c156 0 235 -135 235 -286c0 -141 -85 -341 -276 -341c-160 0 -235 148 -235 285zM106 270c0 -140 69 -245 162 -245c120 0 195 163 195 300c0 145 -69 249 -165 249c-104 0 -192 -140 -192 -304zM229 795c27 0 49 -22 49 -49
s-22 -50 -49 -50s-50 23 -50 50s23 49 50 49zM372 795c27 0 49 -22 49 -49s-22 -50 -49 -50s-50 23 -50 50s23 49 50 49z" />
    <glyph glyph-name="Ograve" unicode="&#xd2;" horiz-adv-x="573" 
d="M29 271c0 148 93 342 276 342c156 0 235 -135 235 -286c0 -141 -85 -341 -276 -341c-160 0 -235 148 -235 285zM106 270c0 -140 69 -245 162 -245c120 0 195 163 195 300c0 145 -69 249 -165 249c-104 0 -192 -140 -192 -304zM378 676h-18l-139 150h94z" />
    <glyph glyph-name="Otilde" unicode="&#xd5;" horiz-adv-x="573" 
d="M29 271c0 148 93 342 276 342c156 0 235 -135 235 -286c0 -141 -85 -341 -276 -341c-160 0 -235 148 -235 285zM106 270c0 -140 69 -245 162 -245c120 0 195 163 195 300c0 145 -69 249 -165 249c-104 0 -192 -140 -192 -304zM201 700h-25c12 55 47 93 85 93
c43 0 78 -33 103 -33c18 0 31 9 39 34h24c-13 -54 -50 -94 -86 -94c-37 0 -65 35 -101 35c-20 0 -30 -10 -39 -35z" />
    <glyph glyph-name="Scaron" unicode="&#x160;" horiz-adv-x="354" 
d="M18 -14l10 172h38l-4 -62c24 -46 61 -69 106 -69c57 0 100 44 100 102c0 135 -223 185 -223 343c0 77 51 138 134 138c48 0 82 -13 113 -44l3 47h38l-9 -157h-38l3 58c-26 38 -60 57 -103 57c-50 0 -85 -32 -85 -78c0 -117 226 -188 226 -343c0 -91 -73 -162 -163 -162
c-41 0 -76 14 -105 44l-3 -46h-38zM312 819l-110 -140h-44l-82 140h18l90 -71l109 71h19z" />
    <glyph glyph-name="Uacute" unicode="&#xda;" horiz-adv-x="583" 
d="M115 561h-65l2 38h196l-2 -38h-63l-21 -398c-5 -89 48 -138 133 -138c79 0 127 51 132 138l21 398h-65l2 38h196l-2 -38h-63l-21 -398c-6 -111 -84 -177 -209 -177c-97 0 -199 53 -192 177zM236 676l63 150h94l-139 -150h-18z" />
    <glyph glyph-name="Ucircumflex" unicode="&#xdb;" horiz-adv-x="583" 
d="M115 561h-65l2 38h196l-2 -38h-63l-21 -398c-5 -89 48 -138 133 -138c79 0 127 51 132 138l21 398h-65l2 38h196l-2 -38h-63l-21 -398c-6 -111 -84 -177 -209 -177c-97 0 -199 53 -192 177zM181 679l110 140h44l82 -140h-18l-90 71l-109 -71h-19z" />
    <glyph glyph-name="Udieresis" unicode="&#xdc;" horiz-adv-x="583" 
d="M115 561h-65l2 38h196l-2 -38h-63l-21 -398c-5 -89 48 -138 133 -138c79 0 127 51 132 138l21 398h-65l2 38h196l-2 -38h-63l-21 -398c-6 -111 -84 -177 -209 -177c-97 0 -199 53 -192 177zM234 795c27 0 49 -22 49 -49s-22 -50 -49 -50s-50 23 -50 50s23 49 50 49z
M377 795c27 0 49 -22 49 -49s-22 -50 -49 -50s-50 23 -50 50s23 49 50 49z" />
    <glyph glyph-name="Ugrave" unicode="&#xd9;" horiz-adv-x="583" 
d="M115 561h-65l2 38h196l-2 -38h-63l-21 -398c-5 -89 48 -138 133 -138c79 0 127 51 132 138l21 398h-65l2 38h196l-2 -38h-63l-21 -398c-6 -111 -84 -177 -209 -177c-97 0 -199 53 -192 177zM383 676h-18l-139 150h94z" />
    <glyph glyph-name="Yacute" unicode="&#xdd;" 
d="M197 38l15 286l-136 237h-65l2 38h202l-2 -38h-63l109 -189l136 189h-65l2 38h161l-2 -38h-45l-166 -237l-15 -286h64l-2 -38h-196l2 38h64zM179 676l63 150h94l-139 -150h-18z" />
    <glyph glyph-name="Ydieresis" unicode="&#x178;" 
d="M197 38l15 286l-136 237h-65l2 38h202l-2 -38h-63l109 -189l136 189h-65l2 38h161l-2 -38h-45l-166 -237l-15 -286h64l-2 -38h-196l2 38h64zM177 795c27 0 49 -22 49 -49s-22 -50 -49 -50s-50 23 -50 50s23 49 50 49zM320 795c27 0 49 -22 49 -49s-22 -50 -49 -50
s-50 23 -50 50s23 49 50 49z" />
    <glyph glyph-name="Zcaron" unicode="&#x17d;" horiz-adv-x="438" 
d="M360 38l4 86h38l-6 -124h-400l341 561h-252l-4 -82h-38l6 120h378l-341 -561h274zM354 819l-110 -140h-44l-82 140h18l90 -71l109 71h19z" />
    <glyph glyph-name="aacute" unicode="&#xe1;" horiz-adv-x="354" 
d="M294 416l-20 -384h52l-2 -32h-116l2 36l-2 2c-24 -28 -44 -45 -74 -45c-72 0 -116 66 -116 167c0 122 54 258 238 258c12 0 28 -1 38 -2zM215 131l13 258c-96 -4 -142 -80 -142 -222c0 -82 26 -132 76 -132c35 0 50 32 53 96zM132 508l63 150h94l-139 -150h-18z" />
    <glyph glyph-name="acircumflex" unicode="&#xe2;" horiz-adv-x="354" 
d="M294 416l-20 -384h52l-2 -32h-116l2 36l-2 2c-24 -28 -44 -45 -74 -45c-72 0 -116 66 -116 167c0 122 54 258 238 258c12 0 28 -1 38 -2zM215 131l13 258c-96 -4 -142 -80 -142 -222c0 -82 26 -132 76 -132c35 0 50 32 53 96zM67 511l110 140h44l82 -140h-18l-90 71
l-109 -71h-19z" />
    <glyph glyph-name="adieresis" unicode="&#xe4;" horiz-adv-x="354" 
d="M294 416l-20 -384h52l-2 -32h-116l2 36l-2 2c-24 -28 -44 -45 -74 -45c-72 0 -116 66 -116 167c0 122 54 258 238 258c12 0 28 -1 38 -2zM215 131l13 258c-96 -4 -142 -80 -142 -222c0 -82 26 -132 76 -132c35 0 50 32 53 96zM120 627c27 0 49 -22 49 -49
s-22 -50 -49 -50s-50 23 -50 50s23 49 50 49zM263 627c27 0 49 -22 49 -49s-22 -50 -49 -50s-50 23 -50 50s23 49 50 49z" />
    <glyph glyph-name="agrave" unicode="&#xe0;" horiz-adv-x="354" 
d="M294 416l-20 -384h52l-2 -32h-116l2 36l-2 2c-24 -28 -44 -45 -74 -45c-72 0 -116 66 -116 167c0 122 54 258 238 258c12 0 28 -1 38 -2zM215 131l13 258c-96 -4 -142 -80 -142 -222c0 -82 26 -132 76 -132c35 0 50 32 53 96zM269 508h-18l-139 150h94z" />
    <glyph glyph-name="aring" unicode="&#xe5;" horiz-adv-x="354" 
d="M294 416l-20 -384h52l-2 -32h-116l2 36l-2 2c-24 -28 -44 -45 -74 -45c-72 0 -116 66 -116 167c0 122 54 258 238 258c12 0 28 -1 38 -2zM215 131l13 258c-96 -4 -142 -80 -142 -222c0 -82 26 -132 76 -132c35 0 50 32 53 96zM208 670c50 0 91 -41 91 -91
s-41 -91 -91 -91s-91 41 -91 91s41 91 91 91zM208 642c-35 0 -63 -28 -63 -63s28 -63 63 -63s63 28 63 63s-28 63 -63 63z" />
    <glyph glyph-name="atilde" unicode="&#xe3;" horiz-adv-x="354" 
d="M294 416l-20 -384h52l-2 -32h-116l2 36l-2 2c-24 -28 -44 -45 -74 -45c-72 0 -116 66 -116 167c0 122 54 258 238 258c12 0 28 -1 38 -2zM215 131l13 258c-96 -4 -142 -80 -142 -222c0 -82 26 -132 76 -132c35 0 50 32 53 96zM92 532h-25c12 55 47 93 85 93
c43 0 78 -33 103 -33c18 0 31 9 39 34h24c-13 -54 -50 -94 -86 -94c-37 0 -65 35 -101 35c-20 0 -30 -10 -39 -35z" />
    <glyph glyph-name="ccedilla" unicode="&#xe7;" horiz-adv-x="302" 
d="M84 -85l32 75c-55 14 -97 76 -97 177c0 169 108 244 168 244c20 0 36 -4 57 -14l2 21h23l-6 -108h-23c-10 50 -30 69 -58 69c-55 0 -95 -77 -95 -195c0 -88 31 -142 80 -142c65 0 74 53 91 53c7 0 12 -6 12 -12c0 -16 -51 -95 -123 -97l-12 -29c37 -13 53 -39 53 -68
c0 -47 -35 -101 -164 -101l7 28c61 2 97 22 97 57c0 23 -16 38 -44 42z" />
    <glyph glyph-name="eacute" unicode="&#xe9;" horiz-adv-x="281" 
d="M19 166c0 138 76 252 169 252c48 0 82 -33 82 -79c0 -62 -60 -110 -177 -104c-26 -135 37 -195 77 -195c47 0 74 66 83 66c10 0 16 -9 16 -13c0 -20 -66 -107 -126 -107c-32 0 -65 20 -90 54c-24 33 -34 75 -34 126zM216 349c0 24 -13 42 -31 42c-40 0 -76 -51 -89 -127
c68 -6 120 37 120 85zM100 508l63 150h94l-139 -150h-18z" />
    <glyph glyph-name="ecircumflex" unicode="&#xea;" horiz-adv-x="281" 
d="M19 166c0 138 76 252 169 252c48 0 82 -33 82 -79c0 -62 -60 -110 -177 -104c-26 -135 37 -195 77 -195c47 0 74 66 83 66c10 0 16 -9 16 -13c0 -20 -66 -107 -126 -107c-32 0 -65 20 -90 54c-24 33 -34 75 -34 126zM216 349c0 24 -13 42 -31 42c-40 0 -76 -51 -89 -127
c68 -6 120 37 120 85zM45 511l110 140h44l82 -140h-18l-90 71l-109 -71h-19z" />
    <glyph glyph-name="edieresis" unicode="&#xeb;" horiz-adv-x="281" 
d="M19 166c0 138 76 252 169 252c48 0 82 -33 82 -79c0 -62 -60 -110 -177 -104c-26 -135 37 -195 77 -195c47 0 74 66 83 66c10 0 16 -9 16 -13c0 -20 -66 -107 -126 -107c-32 0 -65 20 -90 54c-24 33 -34 75 -34 126zM216 349c0 24 -13 42 -31 42c-40 0 -76 -51 -89 -127
c68 -6 120 37 120 85zM98 627c27 0 49 -22 49 -49s-22 -50 -49 -50s-50 23 -50 50s23 49 50 49zM241 627c27 0 49 -22 49 -49s-22 -50 -49 -50s-50 23 -50 50s23 49 50 49z" />
    <glyph glyph-name="egrave" unicode="&#xe8;" horiz-adv-x="281" 
d="M19 166c0 138 76 252 169 252c48 0 82 -33 82 -79c0 -62 -60 -110 -177 -104c-26 -135 37 -195 77 -195c47 0 74 66 83 66c10 0 16 -9 16 -13c0 -20 -66 -107 -126 -107c-32 0 -65 20 -90 54c-24 33 -34 75 -34 126zM216 349c0 24 -13 42 -31 42c-40 0 -76 -51 -89 -127
c68 -6 120 37 120 85zM232 508h-18l-139 150h94z" />
    <glyph glyph-name="iacute" unicode="&#xed;" horiz-adv-x="240" 
d="M91 376h-51l2 32h115l-20 -376h53l-1 -32h-169l1 32h52zM65 508l63 150h94l-139 -150h-18z" />
    <glyph glyph-name="icircumflex" unicode="&#xee;" horiz-adv-x="240" 
d="M91 376h-51l2 32h115l-20 -376h53l-1 -32h-169l1 32h52zM10 511l110 140h44l82 -140h-18l-90 71l-109 -71h-19z" />
    <glyph glyph-name="idieresis" unicode="&#xef;" horiz-adv-x="240" 
d="M91 376h-51l2 32h115l-20 -376h53l-1 -32h-169l1 32h52zM63 627c27 0 49 -22 49 -49s-22 -50 -49 -50s-50 23 -50 50s23 49 50 49zM206 627c27 0 49 -22 49 -49s-22 -50 -49 -50s-50 23 -50 50s23 49 50 49z" />
    <glyph glyph-name="igrave" unicode="&#xec;" horiz-adv-x="240" 
d="M91 376h-51l2 32h115l-20 -376h53l-1 -32h-169l1 32h52zM199 508h-18l-139 150h94z" />
    <glyph glyph-name="ntilde" unicode="&#xf1;" horiz-adv-x="385" 
d="M129 408l-3 -53l2 -2c34 42 73 65 110 65c58 0 92 -46 89 -112l-14 -274h52l-1 -32h-165l1 32h49l12 242c3 57 -9 87 -56 87c-27 0 -53 -16 -82 -51l-14 -278h52l-1 -32h-168l1 32h52l18 344h-52l2 32h116zM107 532h-25c12 55 47 93 85 93c43 0 78 -33 103 -33
c18 0 31 9 39 34h24c-13 -54 -50 -94 -86 -94c-37 0 -65 35 -101 35c-20 0 -30 -10 -39 -35z" />
    <glyph glyph-name="oacute" unicode="&#xf3;" horiz-adv-x="344" 
d="M18 161c0 144 71 257 161 257c79 0 136 -76 136 -182c0 -116 -65 -250 -164 -250c-76 0 -133 75 -133 175zM86 196c0 -96 19 -178 72 -178c51 0 89 84 89 193c0 110 -14 175 -70 175c-45 0 -91 -58 -91 -190zM117 508l63 150h94l-139 -150h-18z" />
    <glyph glyph-name="ocircumflex" unicode="&#xf4;" horiz-adv-x="344" 
d="M18 161c0 144 71 257 161 257c79 0 136 -76 136 -182c0 -116 -65 -250 -164 -250c-76 0 -133 75 -133 175zM86 196c0 -96 19 -178 72 -178c51 0 89 84 89 193c0 110 -14 175 -70 175c-45 0 -91 -58 -91 -190zM62 511l110 140h44l82 -140h-18l-90 71l-109 -71h-19z" />
    <glyph glyph-name="odieresis" unicode="&#xf6;" horiz-adv-x="344" 
d="M18 161c0 144 71 257 161 257c79 0 136 -76 136 -182c0 -116 -65 -250 -164 -250c-76 0 -133 75 -133 175zM86 196c0 -96 19 -178 72 -178c51 0 89 84 89 193c0 110 -14 175 -70 175c-45 0 -91 -58 -91 -190zM115 627c27 0 49 -22 49 -49s-22 -50 -49 -50s-50 23 -50 50
s23 49 50 49zM258 627c27 0 49 -22 49 -49s-22 -50 -49 -50s-50 23 -50 50s23 49 50 49z" />
    <glyph glyph-name="ograve" unicode="&#xf2;" horiz-adv-x="344" 
d="M18 161c0 144 71 257 161 257c79 0 136 -76 136 -182c0 -116 -65 -250 -164 -250c-76 0 -133 75 -133 175zM86 196c0 -96 19 -178 72 -178c51 0 89 84 89 193c0 110 -14 175 -70 175c-45 0 -91 -58 -91 -190zM264 508h-18l-139 150h94z" />
    <glyph glyph-name="otilde" unicode="&#xf5;" horiz-adv-x="344" 
d="M18 161c0 144 71 257 161 257c79 0 136 -76 136 -182c0 -116 -65 -250 -164 -250c-76 0 -133 75 -133 175zM86 196c0 -96 19 -178 72 -178c51 0 89 84 89 193c0 110 -14 175 -70 175c-45 0 -91 -58 -91 -190zM87 532h-25c12 55 47 93 85 93c43 0 78 -33 103 -33
c18 0 31 9 39 34h24c-13 -54 -50 -94 -86 -94c-37 0 -65 35 -101 35c-20 0 -30 -10 -39 -35z" />
    <glyph glyph-name="scaron" unicode="&#x161;" horiz-adv-x="260" 
d="M3 -8l4 90h12c24 -42 52 -57 82 -57c40 0 69 33 69 72c0 82 -139 98 -139 202c0 64 52 112 120 112c23 0 44 -9 56 -16l5 23h23l-7 -96h-16c-12 41 -41 57 -70 57c-36 0 -60 -32 -60 -60c0 -90 143 -101 143 -206c0 -72 -46 -120 -122 -120c-25 0 -46 7 -76 17l-1 -18
h-23zM265 651l-110 -140h-44l-82 140h18l90 -71l109 71h19z" />
    <glyph glyph-name="uacute" unicode="&#xfa;" horiz-adv-x="396" 
d="M332 408l-19 -376h49l-1 -32h-114l3 52l-2 2c-33 -39 -71 -61 -106 -61c-51 0 -92 39 -88 127l13 256h-43l1 32h108l-15 -290c-2 -39 19 -72 54 -72c28 0 61 22 80 50l14 280h-44l2 32h108zM143 508l63 150h94l-139 -150h-18z" />
    <glyph glyph-name="ucircumflex" unicode="&#xfb;" horiz-adv-x="396" 
d="M332 408l-19 -376h49l-1 -32h-114l3 52l-2 2c-33 -39 -71 -61 -106 -61c-51 0 -92 39 -88 127l13 256h-43l1 32h108l-15 -290c-2 -39 19 -72 54 -72c28 0 61 22 80 50l14 280h-44l2 32h108zM88 511l110 140h44l82 -140h-18l-90 71l-109 -71h-19z" />
    <glyph glyph-name="udieresis" unicode="&#xfc;" horiz-adv-x="396" 
d="M332 408l-19 -376h49l-1 -32h-114l3 52l-2 2c-33 -39 -71 -61 -106 -61c-51 0 -92 39 -88 127l13 256h-43l1 32h108l-15 -290c-2 -39 19 -72 54 -72c28 0 61 22 80 50l14 280h-44l2 32h108zM141 627c27 0 49 -22 49 -49s-22 -50 -49 -50s-50 23 -50 50s23 49 50 49z
M284 627c27 0 49 -22 49 -49s-22 -50 -49 -50s-50 23 -50 50s23 49 50 49z" />
    <glyph glyph-name="ugrave" unicode="&#xf9;" horiz-adv-x="396" 
d="M332 408l-19 -376h49l-1 -32h-114l3 52l-2 2c-33 -39 -71 -61 -106 -61c-51 0 -92 39 -88 127l13 256h-43l1 32h108l-15 -290c-2 -39 19 -72 54 -72c28 0 61 22 80 50l14 280h-44l2 32h108zM290 508h-18l-139 150h94z" />
    <glyph glyph-name="yacute" unicode="&#xfd;" horiz-adv-x="396" 
d="M17 -244l127 263l-81 357h-41l2 32h141l-2 -32h-34l62 -270h2l121 270h-42l2 32h112l-2 -32h-31l-280 -620h-56zM153 508l63 150h94l-139 -150h-18z" />
    <glyph glyph-name="ydieresis" unicode="&#xff;" horiz-adv-x="396" 
d="M17 -244l127 263l-81 357h-41l2 32h141l-2 -32h-34l62 -270h2l121 270h-42l2 32h112l-2 -32h-31l-280 -620h-56zM141 627c27 0 49 -22 49 -49s-22 -50 -49 -50s-50 23 -50 50s23 49 50 49zM284 627c27 0 49 -22 49 -49s-22 -50 -49 -50s-50 23 -50 50s23 49 50 49z" />
    <glyph glyph-name="zcaron" unicode="&#x17e;" horiz-adv-x="271" 
d="M78 32h139l3 51h27l-5 -83h-245l184 376h-121l-2 -48h-27l4 80h229zM270 651l-110 -140h-44l-82 140h18l90 -71l109 71h19z" />
    <glyph glyph-name="one.superior" unicode="&#xb9;" horiz-adv-x="281" 
d="M113 313l14 262l-53 -21l1 21l103 37l-16 -299h40l-1 -20h-130l1 20h41z" />
    <glyph glyph-name="two.superior" unicode="&#xb2;" horiz-adv-x="281" 
d="M234 343l-3 -50h-205v6c87 95 134 169 134 221c0 38 -20 61 -55 61c-21 0 -38 -9 -66 -35l-20 15c30 35 64 52 104 52c52 0 90 -33 90 -79c0 -52 -29 -101 -126 -210h101c14 0 18 4 19 19h27z" />
    <glyph glyph-name="three.superior" unicode="&#xb3;" horiz-adv-x="281" 
d="M14 337l17 13c28 -30 48 -38 76 -38c37 0 64 27 64 66c0 45 -34 70 -99 70l1 19c63 3 99 44 99 74c0 26 -21 44 -50 44c-20 0 -38 -9 -65 -27l-15 14c25 26 59 41 93 41c49 0 86 -29 86 -68c0 -34 -24 -59 -76 -77v-2c54 -12 82 -41 82 -84c0 -55 -48 -96 -110 -96
c-43 0 -80 19 -103 51z" />
    <glyph glyph-name="Delta" unicode="&#x2206;" horiz-adv-x="533" 
d="M486 0h-473l1 19l250 585l29 9l194 -594zM407 37l-151 474l-198 -474h349z" />
    <glyph glyph-name="Omega" unicode="&#x2126;" horiz-adv-x="613" 
d="M574 118l-26 -118h-196l-4 15c41 72 124 188 130 318c9 187 -72 255 -158 255c-92 0 -173 -70 -183 -260c-6 -125 54 -231 96 -313l-7 -15h-194l-13 118l19 1c15 -58 29 -67 61 -67h91c-49 48 -134 139 -127 282c9 171 123 279 261 279c140 0 237 -101 228 -272
c-7 -127 -95 -225 -159 -289h93c36 0 46 7 68 67z" />
    <glyph glyph-name="uni03BC" unicode="&#x3bc;" horiz-adv-x="500" 
d="M130 21c-11 -94 10 -172 10 -208c0 -38 -16 -57 -44 -57c-19 0 -32 17 -32 43c0 57 29 77 39 264l18 345h64l-15 -286c-2 -46 15 -81 49 -81c28 0 66 25 85 54l16 313h64l-16 -306c-2 -38 12 -61 27 -61c21 0 42 23 55 80l13 -1c-5 -109 -75 -128 -95 -128
c-35 0 -62 20 -66 61c-35 -39 -73 -60 -108 -60c-25 0 -45 8 -64 28z" />
    <glyph glyph-name="pi" unicode="&#x3c0;" horiz-adv-x="476" 
d="M437 412l19 -8c-9 -32 -22 -56 -33 -71c-14 -3 -36 -3 -60 -3c-7 -53 -12 -152 -15 -214c-2 -51 6 -81 34 -81c18 0 30 10 46 28l10 -16c-24 -41 -58 -57 -88 -57c-42 0 -71 22 -66 110c4 81 13 161 21 232c-50 1 -103 2 -139 2l-1 -18c-10 -201 -59 -297 -72 -312
c-14 -6 -36 -13 -50 -14l-4 13c68 80 92 240 97 332c-58 0 -81 -18 -112 -41l-11 17c25 28 60 76 146 75c62 0 142 -3 225 -3c26 0 37 4 53 29z" />
    <glyph glyph-name="Euro" unicode="&#x20ac;" horiz-adv-x="499" 
d="M363 272l-7 -27h-207c3 -86 39 -221 143 -221c60 0 116 57 153 104l-4 -53c-48 -53 -91 -89 -158 -89c-130 0 -195 100 -206 259h-57l7 27h49c0 19 1 37 3 56h-54l8 27h51c22 118 86 258 237 258c30 0 73 -15 97 -32l10 35h30l-8 -164h-31c-9 60 -47 123 -106 123
c-114 0 -149 -129 -159 -220h229l-8 -27h-224c-1 -19 -2 -37 -3 -56h215z" />
    <glyph glyph-name="afii61289" unicode="&#x2113;" horiz-adv-x="342" 
d="M299 93l15 -13c-34 -60 -81 -92 -140 -92c-39 0 -66 12 -82 34c-18 24 -25 55 -21 126l3 76l-53 -40l-9 19l64 51l5 111c8 147 18 194 57 237c22 26 45 38 71 38c49 0 71 -52 67 -114c-5 -105 -66 -188 -138 -260l-5 -86c-6 -117 22 -149 70 -149c40 0 71 27 96 62z
M146 417l-6 -114c52 61 93 146 97 223c2 51 -10 89 -36 89c-33 0 -48 -54 -55 -198z" />
    <glyph glyph-name="estimated" unicode="&#x212e;" horiz-adv-x="771" 
d="M741 290h-563c-3 0 -5 -1 -5 -4v-170c0 -7 3 -14 7 -19c55 -57 130 -93 213 -93c90 0 170 41 224 104h50c-62 -73 -163 -121 -275 -121c-191 0 -347 139 -347 312s156 313 347 313c193 0 349 -140 349 -313v-9zM613 312v172c0 7 -3 15 -8 20c-55 54 -129 89 -212 89
c-82 0 -157 -36 -212 -92c-5 -5 -8 -13 -8 -21v-168c0 -1 2 -5 5 -5h431c3 0 4 4 4 5z" />
    <glyph glyph-name="partialdiff" unicode="&#x2202;" horiz-adv-x="445" 
d="M225 373h1c39 0 86 -20 113 -63c4 28 9 59 11 92c4 45 0 94 -15 140c-15 43 -56 90 -112 90c-43 0 -85 -21 -116 -47c-13 -1 -29 30 -21 49c30 19 72 36 120 36c79 0 130 -47 165 -124c30 -66 33 -150 30 -202c-3 -64 -18 -155 -51 -222c-39 -79 -97 -134 -177 -134
c-91 0 -149 65 -143 175c3 60 28 111 56 144c32 37 85 66 139 66zM239 340h-1c-37 0 -69 -14 -98 -51c-29 -41 -44 -100 -47 -159c-4 -62 26 -117 81 -117c48 0 84 47 106 92c27 53 38 99 51 169c-9 25 -45 66 -92 66z" />
    <glyph glyph-name="product" unicode="&#x220f;" horiz-adv-x="587" 
d="M564 605v-21c-73 -6 -77 -11 -77 -56v-519c0 -52 6 -59 75 -64v-21h-210v21c67 4 72 8 72 64v542c0 24 -5 27 -30 27h-186c-24 0 -29 -3 -29 -24v-545c0 -52 0 -58 66 -64v-21h-204v21c68 5 75 10 75 64v519c0 46 -5 50 -77 56v21h525z" />
    <glyph glyph-name="summation" unicode="&#x2211;" horiz-adv-x="479" 
d="M460 77l-36 -155h-384v19l192 309l-187 336v19h380c0 -16 6 -81 10 -136l-22 -4c-6 41 -16 69 -26 87c-11 20 -25 26 -89 26h-172l164 -286l-192 -313h223c73 0 83 5 117 104z" />
    <glyph glyph-name="uni2219" unicode="&#x2219;" horiz-adv-x="240" 
d="M111 346c26 0 47 -21 47 -47s-21 -48 -47 -48s-48 22 -48 48s22 47 48 47z" />
    <glyph glyph-name="radical" unicode="&#x221a;" horiz-adv-x="480" 
d="M464 778l-139 -904l-15 -9l-186 482l-73 -36l-9 26l126 60l147 -393h1l117 782z" />
    <glyph glyph-name="infinity" unicode="&#x221e;" horiz-adv-x="646" 
d="M605 251v-1c0 -82 -62 -133 -128 -133c-51 0 -93 30 -151 98c-44 -51 -89 -98 -156 -98c-68 0 -125 55 -125 130c0 77 55 133 131 133c62 0 109 -45 153 -98c41 47 84 98 154 98c72 0 122 -52 122 -129zM175 158h1c52 0 92 51 126 88c-36 45 -73 94 -131 94
c-52 0 -82 -43 -82 -94c0 -48 35 -88 86 -88zM478 340h-1c-54 0 -98 -61 -126 -90c54 -62 84 -92 129 -92c52 0 81 47 81 89c0 58 -35 93 -83 93z" />
    <glyph glyph-name="integral" unicode="&#x222b;" horiz-adv-x="328" 
d="M153 17l-16 363c-14 295 53 358 125 358c20 0 48 -12 48 -38c0 -22 -16 -33 -34 -33c-26 0 -24 36 -44 36c-19 0 -44 -28 -39 -149l16 -338c15 -319 -53 -384 -126 -384c-29 0 -48 18 -48 39c-1 20 17 36 39 36c23 0 23 -38 42 -38c27 0 42 59 37 148z" />
    <glyph glyph-name="approxequal" unicode="&#x2248;" horiz-adv-x="461" 
d="M397 370l28 -24c-22 -45 -57 -81 -107 -81c-33 0 -57 13 -95 35c-25 15 -48 28 -75 28c-38 0 -60 -29 -81 -62l-29 23c25 49 67 81 115 81c40 0 69 -21 91 -33c29 -17 48 -29 76 -29c33 0 54 22 77 62zM397 228l28 -24c-22 -45 -56 -81 -107 -81c-33 0 -57 13 -95 34
c-25 15 -48 29 -75 29c-38 0 -61 -30 -81 -62l-29 23c25 49 67 81 115 81c41 0 69 -21 91 -33c27 -15 47 -29 76 -29c33 0 53 22 77 62z" />
    <glyph glyph-name="notequal" unicode="&#x2260;" horiz-adv-x="464" 
d="M334 428l-36 -80h125v-43h-142l-54 -120h196v-43h-213l-43 -96l-35 15l37 81h-121v43h139l53 120h-192v43h209l43 95z" />
    <glyph glyph-name="lessequal" unicode="&#x2264;" 
d="M425 88l-368 188v46l368 188v-52l-322 -157v-2l322 -159v-52zM428 10h-375v44h375v-44z" />
    <glyph glyph-name="greaterequal" unicode="&#x2265;" 
d="M58 510l368 -188v-46l-369 -188v52l322 158v2l-321 158v52zM427 10h-374v44h374v-44z" />
    <glyph glyph-name="lozenge" unicode="&#x25ca;" horiz-adv-x="485" 
d="M444 292l-168 -351h-50l-168 351l169 354h50zM395 292l-142 305h-2l-144 -304l144 -305h2z" />
    <glyph glyph-name="uni00A0" unicode="&#xa0;" horiz-adv-x="235" 
 />
    <glyph glyph-name="uni00AD" unicode="&#xad;" horiz-adv-x="354" 
d="M44 181l14 44h252l-15 -44h-251z" />
    <glyph glyph-name="uni02C9" unicode="&#x2c9;" horiz-adv-x="333" 
d="M23 511l4 67h298l-4 -67h-298z" />
    <glyph glyph-name="uni2215" unicode="&#x2215;" horiz-adv-x="167" 
d="M-162 -24l409 637h38l-408 -637h-39z" />
    <glyph glyph-name="uni03A9" unicode="&#x3a9;" horiz-adv-x="613" 
d="M574 118l-26 -118h-196l-4 15c41 72 124 188 130 318c9 187 -72 255 -158 255c-92 0 -173 -70 -183 -260c-6 -125 54 -231 96 -313l-7 -15h-194l-13 118l19 1c15 -58 29 -67 61 -67h91c-49 48 -134 139 -127 282c9 171 123 279 261 279c140 0 237 -101 228 -272
c-7 -127 -95 -225 -159 -289h93c36 0 46 7 68 67z" />
    </font>
</defs>
</svg>
