<?xml version="1.0" standalone="no"?>
<!DOCTYPE svg PUBLIC "-//W3C//DTD SVG 1.1//EN" "http://www.w3.org/Graphics/SVG/1.1/DTD/svg11.dtd" >
<svg>
<metadata>
Created by FontForge 20120731 at Fri Aug  9 16:24:35 2019
 By www-data
(C) Copyright 1991, 1999, 2002 The Monotype Corporation PLC. All Rights Reserved. 
</metadata>
<defs>
<font id="JoannaMTStd-SemiBoldItalic" horiz-adv-x="333" >
  <font-face 
    font-family="Joanna MT Std"
    font-weight="600"
    font-style="italic"
    font-stretch="normal"
    units-per-em="1000"
    panose-1="2 6 7 4 5 4 5 10 2 3"
    ascent="658"
    descent="-342"
    x-height="418"
    cap-height="599"
    bbox="-141 -251 1008 832"
    underline-thickness="50"
    underline-position="-50"
    slope="-3"
    stemh="38"
    stemv="92"
    unicode-range="U+0020-FB02"
  />
<missing-glyph horiz-adv-x="513" 
d="M13 0v700h500v-700h-500zM263 395l170 255h-340zM293 350l170 -255v510zM93 50h340l-170 255zM63 605v-510l170 255z" />
    <glyph glyph-name="f_i" unicode="fi" horiz-adv-x="448" 
d="M98 377h-65l2 41h65c1 23 -1 49 -1 85c0 112 64 186 189 186c30 0 71 -7 104 -17l-14 -109h-30c5 56 -26 88 -71 88c-47 0 -95 -37 -95 -125c0 -32 2 -71 3 -108h201l-20 -377h56l-2 -41h-184l2 41h43l18 336h-116l-18 -336h40l-2 -41h-170l2 41h45z" />
    <glyph glyph-name="f_l" unicode="fl" horiz-adv-x="448" 
d="M98 377h-65l2 41h65c2 21 1 68 1 87c0 127 83 184 177 184c36 0 79 -7 120 -20l-33 -628h57l-2 -41h-183l2 41h41l18 336h-115l-18 -336h41l-2 -41h-171l2 41h45zM300 418l8 159c3 50 -8 74 -43 74s-79 -37 -79 -111c0 -53 2 -86 -1 -122h115z" />
    <glyph glyph-name=".notdef" horiz-adv-x="513" 
d="M13 0v700h500v-700h-500zM263 395l170 255h-340zM293 350l170 -255v510zM93 50h340l-170 255zM63 605v-510l170 255z" />
    <glyph glyph-name="space" unicode=" " horiz-adv-x="230" 
 />
    <glyph glyph-name="exclam" unicode="!" horiz-adv-x="229" 
d="M128 190h-18c-13 48 -26 175 -26 242c0 100 25 182 56 182c23 0 39 -50 39 -123c0 -79 -19 -172 -51 -301zM112 116c34 0 61 -27 61 -61s-27 -62 -61 -62s-62 28 -62 62s28 61 62 61z" />
    <glyph glyph-name="quotedbl" unicode="&#x22;" horiz-adv-x="555" 
d="M251 556l-34 -143h-20l-33 143c-5 23 -9 48 -9 64c0 34 20 57 52 57s53 -23 53 -57c0 -16 -4 -41 -9 -64zM431 556l-34 -143h-19l-34 143c-5 23 -9 48 -9 64c0 34 21 57 52 57c32 0 53 -23 53 -57c0 -16 -4 -41 -9 -64z" />
    <glyph glyph-name="numbersign" unicode="#" horiz-adv-x="668" 
d="M42 489h157l42 194h70l-42 -194h196l41 194h70l-41 -194h91v-70h-105l-36 -171h141v-70h-155l-42 -193h-70l42 193h-196l-41 -193h-70l41 193h-93v70h107l36 171h-143v70zM255 419l-36 -171h196l36 171h-196z" />
    <glyph glyph-name="dollar" unicode="$" horiz-adv-x="469" 
d="M200 -89h-37l5 87c-47 13 -98 47 -123 84l16 98c27 -59 67 -108 110 -127l13 263c-77 48 -119 104 -119 158c0 72 56 129 135 137l2 43h37l-2 -40c15 0 33 0 58 -3l2 43h37l-3 -50c34 -12 58 -25 94 -49l-20 -72c-31 28 -48 41 -77 57l-10 -220c80 -52 120 -101 120 -168
c0 -71 -62 -139 -138 -155l-5 -86h-37l4 80c-14 -3 -40 -4 -57 0zM220 290l-13 -248c18 -8 40 -8 58 -5l11 212zM312 223l-10 -180c35 10 66 51 66 89c0 31 -19 62 -56 91zM234 569l-9 -185c20 -11 36 -23 56 -37l11 209c-15 6 -36 12 -58 13zM189 411l8 156
c-38 -4 -67 -34 -67 -70c0 -35 32 -69 59 -86z" />
    <glyph glyph-name="percent" unicode="%" horiz-adv-x="719" 
d="M94 410c0 -58 15 -90 44 -90c33 0 55 34 55 174c0 61 -16 86 -42 86c-47 0 -57 -93 -57 -170zM137 -15l403 629h41l-402 -629h-42zM526 109c0 -58 15 -90 44 -90c33 0 55 34 55 174c0 61 -16 86 -42 86c-47 0 -57 -93 -57 -170zM24 429c0 119 45 185 127 185
c70 0 112 -54 112 -145c0 -113 -47 -183 -124 -183c-72 0 -115 54 -115 143zM456 128c0 119 45 185 127 185c70 0 112 -54 112 -145c0 -113 -47 -183 -124 -183c-72 0 -115 54 -115 143z" />
    <glyph glyph-name="ampersand" unicode="&#x26;" horiz-adv-x="531" 
d="M307 307l3 45h100c7 -73 -19 -167 -60 -237c50 -51 90 -76 120 -76c17 0 35 4 54 11l-2 -30c-35 -18 -66 -27 -95 -27c-42 0 -86 20 -128 57c-33 -36 -86 -57 -143 -57c-76 0 -129 50 -129 122c0 55 28 106 93 166c-36 69 -45 101 -45 138c0 71 53 121 129 121
c64 0 113 -39 113 -91c0 -45 -43 -87 -113 -147c31 -55 73 -108 117 -159c22 42 36 98 39 164h-53zM184 335c45 40 63 71 63 108c0 41 -23 59 -51 59c-35 0 -51 -23 -51 -59c0 -33 12 -62 39 -108zM271 76c-50 54 -90 105 -129 168c-32 -37 -45 -64 -45 -99
c0 -55 44 -100 98 -100c27 0 52 11 76 31z" />
    <glyph glyph-name="quoteright" unicode="&#x2019;" horiz-adv-x="250" 
d="M38 472c0 26 62 12 79 92c-34 6 -55 33 -55 62c0 34 28 63 60 63c40 0 68 -33 68 -81c0 -93 -89 -150 -135 -150c-8 0 -17 7 -17 14z" />
    <glyph glyph-name="parenleft" unicode="(" horiz-adv-x="365" 
d="M316 -210l-2 -41c-140 96 -240 245 -240 442c0 221 100 394 281 489l-3 -45c-124 -77 -190 -236 -190 -468c0 -169 47 -280 154 -377z" />
    <glyph glyph-name="parenright" unicode=")" horiz-adv-x="365" 
d="M67 639l2 41c140 -96 240 -244 240 -442c0 -221 -100 -395 -281 -489l2 45c125 76 191 236 191 468c0 180 -53 283 -154 377z" />
    <glyph glyph-name="asterisk" unicode="*" horiz-adv-x="500" 
d="M315 239h-106l49 155c-13 3 -17 5 -28 15l-119 -111l-47 88l155 45l-2 15l4 17l-150 42l56 94l107 -113c12 11 16 14 30 19l-33 153h106l-48 -153c14 -6 17 -8 27 -19l120 113l47 -94l-157 -42l4 -15l-5 -17l152 -45l-56 -88l-109 111c-11 -9 -15 -11 -29 -15z" />
    <glyph glyph-name="plus" unicode="+" horiz-adv-x="667" 
d="M66 306h228v228h78v-228h228v-78h-228v-228h-78v228h-228v78z" />
    <glyph glyph-name="comma" unicode="," horiz-adv-x="250" 
d="M38 -106c0 26 62 12 79 92c-34 6 -55 33 -55 62c0 34 28 63 60 63c40 0 68 -33 68 -81c0 -93 -89 -150 -135 -150c-8 0 -17 7 -17 14z" />
    <glyph glyph-name="hyphen" unicode="-" horiz-adv-x="396" 
d="M41 200l27 60h280l-26 -60h-281z" />
    <glyph glyph-name="period" unicode="." horiz-adv-x="250" 
d="M123 116c34 0 61 -27 61 -61s-27 -62 -61 -62s-62 28 -62 62s28 61 62 61z" />
    <glyph glyph-name="slash" unicode="/" horiz-adv-x="547" 
d="M399 658h81l-332 -673h-81z" />
    <glyph glyph-name="zero" unicode="0" horiz-adv-x="469" 
d="M40 265c0 223 74 349 205 349c105 0 179 -95 179 -276c0 -201 -66 -353 -199 -353c-116 0 -185 105 -185 280zM138 220c0 -134 36 -183 85 -183c70 0 103 84 103 357c0 113 -29 168 -82 168c-84 0 -106 -141 -106 -342z" />
    <glyph glyph-name="one" unicode="1" horiz-adv-x="469" 
d="M109 41h72l25 486l-88 -27l2 44l160 70h19l-30 -573h67l-2 -41h-227z" />
    <glyph glyph-name="two" unicode="2" horiz-adv-x="469" 
d="M401 108l-5 -108h-337c152 194 217 301 217 418c0 73 -43 124 -97 124c-30 0 -57 -14 -101 -53l-30 30c56 64 114 95 178 95c82 0 142 -71 142 -167c0 -98 -71 -229 -197 -377h139c36 0 43 5 51 38h40z" />
    <glyph glyph-name="three" unicode="3" horiz-adv-x="469" 
d="M50 75l31 26c46 -41 80 -57 119 -57c58 0 101 49 101 115c0 82 -55 132 -154 142l2 33c98 22 148 71 148 141c0 56 -31 87 -79 87c-33 0 -56 -11 -99 -44l-26 28c65 51 103 68 156 68c80 0 140 -53 140 -123c0 -71 -54 -130 -147 -163v-2c101 -13 157 -72 157 -165
c0 -100 -79 -176 -182 -176c-66 0 -116 27 -167 90z" />
    <glyph glyph-name="four" unicode="4" horiz-adv-x="469" 
d="M226 188h-225l2 43l320 383h12l-18 -362h148l-3 -64h-148l-8 -147h68l-2 -41h-224l2 41h68zM78 252h151l10 189l-2 2z" />
    <glyph glyph-name="five" unicode="5" horiz-adv-x="469" 
d="M398 535h-191l-10 -194c112 -6 186 -78 186 -177c0 -89 -63 -179 -193 -179c-61 0 -113 19 -167 60l22 34c56 -38 83 -46 124 -46c69 0 116 49 116 120c0 56 -33 137 -178 134l23 312h272z" />
    <glyph glyph-name="six" unicode="6" horiz-adv-x="469" 
d="M433 614l-2 -41c-158 -24 -247 -130 -277 -244c41 19 61 24 91 24c97 0 172 -79 172 -181c0 -108 -76 -187 -186 -187c-105 0 -199 86 -199 226c0 195 167 388 401 403zM130 188c0 -80 50 -151 110 -151c53 0 91 51 91 115c0 78 -48 138 -109 138c-51 0 -92 -45 -92 -102
z" />
    <glyph glyph-name="seven" unicode="7" horiz-adv-x="469" 
d="M143 -15h-90l297 549h-228l-2 -42h-41l6 107h347l-1 -14z" />
    <glyph glyph-name="eight" unicode="8" horiz-adv-x="469" 
d="M169 300c-62 52 -91 103 -91 161c0 87 76 153 175 153c89 0 154 -60 154 -141c0 -60 -36 -110 -112 -155c78 -49 114 -102 114 -171c0 -76 -59 -162 -184 -162c-121 0 -177 81 -177 151c0 60 41 116 121 164zM252 345c48 21 79 66 79 115c0 59 -42 105 -95 105
c-47 0 -87 -39 -87 -87c0 -42 31 -78 103 -133zM210 270c-50 -30 -80 -76 -80 -123c0 -62 49 -115 106 -115c55 0 97 41 97 95c0 51 -44 92 -123 143z" />
    <glyph glyph-name="nine" unicode="9" horiz-adv-x="469" 
d="M36 -15l2 41c137 21 235 102 277 243c-41 -19 -61 -24 -91 -24c-97 0 -172 79 -172 181c0 109 78 188 183 188c128 0 202 -115 202 -227c0 -218 -197 -392 -401 -402zM339 411c0 80 -48 151 -110 151c-57 0 -91 -46 -91 -114c0 -78 48 -139 109 -139c51 0 92 45 92 102z
" />
    <glyph glyph-name="colon" unicode=":" horiz-adv-x="260" 
d="M138 428c34 0 61 -27 61 -61s-27 -62 -61 -62s-62 28 -62 62s28 61 62 61zM123 116c34 0 61 -27 61 -61s-27 -62 -61 -62s-62 28 -62 62s28 61 62 61z" />
    <glyph glyph-name="semicolon" unicode=";" horiz-adv-x="250" 
d="M38 -106c0 26 62 12 79 92c-34 6 -55 33 -55 62c0 34 28 63 60 63c40 0 68 -33 68 -81c0 -93 -89 -150 -135 -150c-8 0 -17 7 -17 14zM138 428c34 0 61 -27 61 -61s-27 -62 -61 -62s-62 28 -62 62s28 61 62 61z" />
    <glyph glyph-name="less" unicode="&#x3c;" horiz-adv-x="667" 
d="M601 8l-534 224v69l534 225v-84l-430 -175l430 -176v-83z" />
    <glyph glyph-name="equal" unicode="=" horiz-adv-x="667" 
d="M66 422h534v-78h-534v78zM66 192h534v-78h-534v78z" />
    <glyph glyph-name="greater" unicode="&#x3e;" horiz-adv-x="667" 
d="M66 8v83l430 176l-430 175v84l534 -225v-69z" />
    <glyph glyph-name="question" unicode="?" 
d="M66 564c33 29 74 50 119 50c74 0 129 -55 129 -128c0 -71 -54 -134 -101 -180c-46 -45 -79 -71 -102 -134l-22 31c55 141 145 168 145 275c0 43 -28 76 -66 76c-45 0 -65 -26 -107 -80h-7zM91 116c34 0 61 -27 61 -61s-27 -62 -61 -62s-62 28 -62 62s28 61 62 61z" />
    <glyph glyph-name="at" unicode="@" horiz-adv-x="832" 
d="M615 421l-62 -213c-15 -50 -28 -95 -28 -116c0 -20 12 -32 33 -32c66 0 181 102 181 265c0 156 -112 265 -272 265c-205 0 -368 -176 -368 -398c0 -195 138 -333 331 -333c155 0 284 87 343 233h25c-59 -161 -198 -258 -369 -258c-216 0 -372 156 -372 373
c0 229 175 407 400 407c236 0 307 -169 307 -288c0 -139 -86 -298 -243 -298c-47 0 -76 24 -76 64c0 9 4 42 8 58l-2 2c-44 -65 -94 -125 -154 -125c-42 0 -73 40 -73 95c0 153 138 306 228 306c35 0 57 -21 63 -62h2l14 48zM499 344c0 35 -17 59 -41 59
c-68 0 -148 -187 -148 -262c0 -27 17 -50 37 -50c59 0 152 141 152 253z" />
    <glyph glyph-name="A" unicode="A" horiz-adv-x="552" 
d="M362 204h-162l-81 -154h64l-2 -50h-192l3 50h63l299 564h29l93 -564h64l-2 -50h-217l2 50h64zM354 254l-29 181h-2l-96 -181h127z" />
    <glyph glyph-name="B" unicode="B" horiz-adv-x="479" 
d="M91 50l27 499h-64l2 50h207c95 0 158 -57 158 -144c0 -65 -33 -112 -102 -144v-2c90 -14 134 -58 134 -136c0 -99 -82 -173 -190 -173h-238l2 50h64zM183 50h36c101 0 136 73 136 125c0 51 -27 106 -113 106h-47zM198 331h18c53 0 110 34 110 124c0 70 -38 94 -102 94
h-14z" />
    <glyph glyph-name="C" unicode="C" horiz-adv-x="531" 
d="M508 619l-10 -184h-39c-19 86 -71 127 -131 127c-130 0 -192 -172 -192 -298c0 -146 83 -227 174 -227c57 0 121 35 183 110l-4 -71c-52 -55 -124 -91 -212 -91c-171 0 -246 166 -246 283c0 158 112 346 297 346c38 0 76 -12 129 -32l12 37h39z" />
    <glyph glyph-name="D" unicode="D" horiz-adv-x="531" 
d="M88 50l26 499h-64l3 50h243c119 0 220 -87 220 -269c0 -154 -97 -330 -293 -330h-202l3 50h64zM180 50h40c135 0 191 133 191 297s-57 202 -168 202h-37z" />
    <glyph glyph-name="E" unicode="E" horiz-adv-x="438" 
d="M346 50l5 89h50l-8 -139h-366l3 50h64l26 499h-64l3 50h359l-7 -132h-50l4 82h-153l-11 -216h110l4 73h50l-11 -207h-50l4 84h-110l-12 -233h160z" />
    <glyph glyph-name="F" unicode="F" horiz-adv-x="427" 
d="M304 274h-107l-12 -224h64l-2 -50h-220l2 50h64l27 499h-64l2 50h351l-7 -133h-50l5 83h-145l-12 -225h107l4 75h50l-11 -209h-50z" />
    <glyph glyph-name="G" unicode="G" horiz-adv-x="563" 
d="M331 285h191l-3 -50h-41l-10 -200c-54 -32 -120 -50 -179 -50c-147 0 -250 120 -250 291c0 190 127 338 290 338c50 0 107 -14 138 -34l11 38h43l-10 -175h-42c-14 75 -65 119 -134 119c-145 0 -191 -157 -191 -287c0 -140 68 -238 165 -238c40 0 67 15 69 49l8 149h-58z
" />
    <glyph glyph-name="H" unicode="H" horiz-adv-x="615" 
d="M248 50l-2 -50h-220l2 50h64l26 499h-64l3 50h220l-3 -50h-64l-11 -217h240l11 217h-64l3 50h220l-3 -50h-64l-26 -499h64l-2 -50h-220l2 50h64l12 226h-240l-12 -226h64z" />
    <glyph glyph-name="I" unicode="I" horiz-adv-x="292" 
d="M96 50l26 499h-64l3 50h220l-3 -50h-64l-26 -499h64l-3 -50h-220l3 50h64z" />
    <glyph glyph-name="J" unicode="J" horiz-adv-x="269" 
d="M53 549l2 50h220l-2 -50h-64l-26 -499c-6 -121 -75 -195 -178 -195c-22 0 -40 3 -64 9l1 29c94 -9 143 41 149 159l26 497h-64z" />
    <glyph glyph-name="K" unicode="K" horiz-adv-x="500" 
d="M89 50l26 499h-64l3 50h220l-3 -50h-64l-12 -227l2 -2l177 229h-64l3 50h190l-3 -50h-64l-161 -207l161 -292h45l-3 -50h-196l3 50h52l-141 257h-2l-13 -257h64l-3 -50h-220l3 50h64z" />
    <glyph glyph-name="L" unicode="L" horiz-adv-x="417" 
d="M94 50l27 499h-64l3 50h220l-3 -50h-64l-27 -499h159l4 89h50l-7 -139h-364l3 50h63z" />
    <glyph glyph-name="M" unicode="M" horiz-adv-x="708" 
d="M89 50l26 499h-64l3 50h158l-2 -35l147 -397l171 397l2 35h172l-3 -50h-64l-26 -499h64l-2 -50h-220l2 50h64l20 383l-2 2l-187 -435h-22l-158 445h-2l-20 -395h64l-2 -50h-185l2 50h64z" />
    <glyph glyph-name="N" unicode="N" horiz-adv-x="604" 
d="M90 50l26 499h-62l3 50h143l-2 -35l255 -404h2l19 389h-64l3 50h184l-3 -50h-63l-28 -549h-48l-286 453h-2l-20 -403h63l-3 -50h-182l3 50h62z" />
    <glyph glyph-name="O" unicode="O" horiz-adv-x="573" 
d="M34 276c0 161 108 338 284 338c165 0 237 -159 237 -290c0 -158 -106 -339 -281 -339c-144 0 -240 116 -240 291zM308 562c-81 0 -169 -103 -169 -296c0 -134 60 -229 143 -229c61 0 168 82 168 311c0 134 -73 214 -142 214z" />
    <glyph glyph-name="P" unicode="P" horiz-adv-x="427" 
d="M91 50l26 499h-64l3 50h198c126 0 169 -103 169 -170c0 -99 -78 -177 -177 -177c-16 0 -30 2 -52 6l-11 -208h64l-2 -50h-220l2 50h64zM209 549l-12 -239c14 -5 22 -6 38 -6c60 0 90 52 90 136c0 76 -32 109 -104 109h-12z" />
    <glyph glyph-name="Q" unicode="Q" horiz-adv-x="573" 
d="M220 -9c-113 25 -186 135 -186 282c0 168 109 341 284 341c162 0 238 -153 238 -290c0 -163 -106 -311 -237 -335l29 -61c20 -43 57 -79 105 -79c27 0 53 7 72 18l-2 -35c-46 -22 -84 -35 -124 -35c-74 0 -126 51 -179 194zM308 562c-92 0 -169 -119 -169 -296
c0 -134 60 -229 143 -229c75 0 169 102 169 308c0 139 -77 217 -143 217z" />
    <glyph glyph-name="R" unicode="R" horiz-adv-x="500" 
d="M94 50l26 499h-64l3 50h212c84 0 160 -50 160 -147c0 -72 -39 -134 -126 -166c55 -23 87 -77 135 -236h45l-3 -50h-124c-64 227 -92 269 -161 269l-11 -219h64l-3 -50h-220l3 50h64zM200 321h13c74 0 120 53 120 139c0 59 -29 89 -88 89h-33z" />
    <glyph glyph-name="S" unicode="S" horiz-adv-x="406" 
d="M47 -15l10 186h50l-3 -59c14 -42 63 -75 106 -75c46 0 84 38 84 87c0 118 -225 185 -225 344c0 85 62 146 145 146c43 0 81 -16 104 -43l2 43h50l-8 -151h-50l2 45c-31 35 -66 54 -102 54c-40 0 -75 -31 -75 -69c0 -106 225 -162 225 -336c0 -97 -66 -172 -151 -172
c-41 0 -66 11 -111 48l-3 -48h-50z" />
    <glyph glyph-name="T" unicode="T" horiz-adv-x="510" 
d="M204 50l25 477h-117l-4 -68h-50l9 169h50l-1 -29h318l1 29h50l-9 -169h-50l4 68h-109l-25 -477h64l-2 -50h-220l2 50h64z" />
    <glyph glyph-name="U" unicode="U" horiz-adv-x="604" 
d="M54 599h220l-2 -50h-64l-20 -388c-5 -101 78 -124 125 -124c55 0 111 29 117 135l20 377h-64l2 50h216l-2 -50h-64l-20 -382c-7 -131 -116 -182 -213 -182c-123 0 -216 68 -209 191l20 373h-64z" />
    <glyph glyph-name="V" unicode="V" horiz-adv-x="552" 
d="M88 549h-64l3 50h216l-3 -50h-64l63 -387h2l206 387h-64l3 50h190l-3 -50h-64l-300 -564h-27z" />
    <glyph glyph-name="W" unicode="W" horiz-adv-x="906" 
d="M89 549h-63l3 50h215l-3 -50h-64l64 -387h2l199 387h-64l3 50h214l-3 -50h-60l61 -387h2l204 387h-64l3 50h191l-3 -50h-65l-299 -564h-27l-76 475h-2l-246 -475h-27z" />
    <glyph glyph-name="X" unicode="X" horiz-adv-x="552" 
d="M251 286l-130 263h-62l3 50h208l-3 -50h-48l90 -182l127 182h-48l3 50h179l-2 -50h-64l-165 -237l130 -262h36l-3 -50h-182l3 50h48l-90 181l-127 -181h46l-3 -50h-175l3 50h61z" />
    <glyph glyph-name="Y" unicode="Y" horiz-adv-x="490" 
d="M200 50l14 273l-135 226h-62l3 50h218l-3 -50h-54l99 -166l118 166h-51l3 50h170l-3 -50h-51l-160 -226l-14 -273h64l-3 -50h-220l3 50h64z" />
    <glyph glyph-name="Z" unicode="Z" horiz-adv-x="479" 
d="M397 50l5 89h50l-8 -139h-419l324 549h-227l-4 -85h-50l7 135h401l-325 -549h246z" />
    <glyph glyph-name="bracketleft" unicode="[" horiz-adv-x="354" 
d="M138 -206h173l-2 -38h-253l47 902h253l-2 -38h-173z" />
    <glyph glyph-name="backslash" unicode="\" horiz-adv-x="547" 
d="M148 658l332 -673h-81l-332 673h81z" />
    <glyph glyph-name="bracketright" unicode="]" horiz-adv-x="354" 
d="M216 620h-173l2 38h253l-47 -902h-253l1 38h174z" />
    <glyph glyph-name="asciicircum" unicode="^" horiz-adv-x="570" 
d="M97 355l170 303h35l171 -303h-65l-123 216l-124 -216h-64z" />
    <glyph glyph-name="underscore" unicode="_" horiz-adv-x="500" 
d="M-6 -75h512v-50h-512v50z" />
    <glyph glyph-name="quoteleft" unicode="&#x2018;" horiz-adv-x="250" 
d="M208 521c0 -34 -28 -63 -60 -63c-40 0 -68 33 -68 81c0 93 89 150 135 150c8 0 17 -7 17 -14c0 -26 -62 -12 -79 -92c34 -6 55 -33 55 -62z" />
    <glyph glyph-name="a" unicode="a" horiz-adv-x="385" 
d="M311 41h51l-2 -41h-136l2 39l-2 2c-24 -36 -45 -48 -77 -48c-71 0 -119 71 -119 177c0 158 90 258 232 258h72zM232 151l13 239c-99 -13 -125 -83 -125 -192c0 -86 24 -139 64 -139c30 0 44 27 48 92z" />
    <glyph glyph-name="b" unicode="b" horiz-adv-x="375" 
d="M56 -10l34 627h-44l3 41h128l-15 -270l2 -2c27 31 46 42 70 42c72 0 125 -78 125 -183c0 -156 -104 -255 -232 -255h-71zM158 301l-15 -273c81 7 124 71 124 189c0 94 -23 147 -63 147c-21 0 -44 -21 -46 -63z" />
    <glyph glyph-name="c" unicode="c" horiz-adv-x="323" 
d="M301 435l-7 -123h-28c0 41 -26 78 -54 78c-66 0 -92 -126 -92 -195c0 -100 32 -141 75 -141c54 0 74 53 88 53c6 0 23 -10 23 -17c0 -10 -49 -97 -132 -97c-85 0 -146 76 -146 183c0 111 78 252 191 252c16 0 36 -6 52 -16l2 23h28z" />
    <glyph glyph-name="d" unicode="d" horiz-adv-x="375" 
d="M246 427l10 190h-59l2 41h144l-33 -617h51l-3 -41h-135l2 23c-21 -20 -47 -30 -76 -30c-74 0 -120 64 -120 166c0 119 58 257 217 268zM227 83l17 306c-85 -19 -123 -67 -123 -200c0 -89 16 -139 63 -139c16 0 26 8 43 33z" />
    <glyph glyph-name="e" unicode="e" horiz-adv-x="323" 
d="M30 167c0 89 52 261 187 261c52 0 88 -34 88 -81c0 -62 -55 -117 -177 -111c-5 -25 -6 -48 -6 -66c0 -61 32 -116 68 -116c53 0 69 66 88 66c12 0 25 -15 25 -19c0 -8 -58 -108 -144 -108c-96 0 -129 113 -129 174zM238 360c0 17 -12 30 -26 30c-35 0 -70 -48 -82 -116
c60 0 108 38 108 86z" />
    <glyph glyph-name="f" unicode="f" horiz-adv-x="260" 
d="M166 41h64l-2 -41h-197l3 41h47l17 336h-67l2 41h67c-2 29 1 61 1 94c0 106 54 177 135 177c18 0 39 -5 66 -14l-13 -122h-33c3 61 -10 90 -36 90c-38 0 -37 -63 -37 -125c0 -16 0 -58 2 -100h64l-2 -41h-64z" />
    <glyph glyph-name="g" unicode="g" horiz-adv-x="375" 
d="M333 428l-29 -562c-4 -78 -30 -117 -116 -117c-93 0 -178 64 -178 133c0 39 31 86 109 118c-60 23 -91 82 -91 172c0 137 78 256 239 256h66zM233 124l13 266c-103 -11 -126 -97 -126 -205c0 -75 26 -127 62 -127c32 0 49 30 51 66zM216 -183l13 224
c-59 -62 -148 -67 -148 -131c0 -59 94 -123 115 -123c10 0 19 6 20 30z" />
    <glyph glyph-name="h" unicode="h" horiz-adv-x="417" 
d="M64 41l31 576h-52l2 41h137l-15 -287c46 42 75 57 108 57c49 0 92 -41 88 -107l-15 -280h51l-2 -41h-175l2 41h39l13 249c2 42 -15 66 -45 66c-20 0 -49 -16 -67 -37l-15 -278h43l-2 -41h-180l2 41h52z" />
    <glyph glyph-name="i" unicode="i" horiz-adv-x="240" 
d="M73 41l18 336h-50l3 41h134l-20 -377h53l-2 -41h-187l2 41h49zM135 626c28 0 51 -23 51 -51s-23 -51 -51 -51s-51 23 -51 51s23 51 51 51z" />
    <glyph glyph-name="j" unicode="j" horiz-adv-x="198" 
d="M19 377l3 41h134l-26 -491c-7 -126 -45 -178 -130 -178c-16 0 -26 1 -40 5l2 38c57 -13 76 20 80 85l27 500h-50zM114 626c28 0 51 -23 51 -51s-23 -51 -51 -51s-51 23 -51 51s23 51 51 51z" />
    <glyph glyph-name="k" unicode="k" horiz-adv-x="417" 
d="M64 41l30 576h-52l2 41h137l-32 -617h47l-2 -41h-184l2 41h52zM226 0l2 41h46c-51 152 -64 179 -107 201l1 20l119 115h-41l2 41h137l-2 -41h-45l-103 -102c32 -19 50 -42 66 -83l58 -151h46l-2 -41h-177z" />
    <glyph glyph-name="l" unicode="l" horiz-adv-x="240" 
d="M74 41l31 576h-53l3 41h137l-33 -617h52l-2 -41h-189l2 41h52z" />
    <glyph glyph-name="m" unicode="m" horiz-adv-x="656" 
d="M66 41l17 336h-48l2 41h134l-3 -52c44 44 78 62 118 62c46 0 80 -26 92 -70c42 49 81 70 126 70c76 0 102 -64 99 -113l-14 -274h51l-2 -41h-187l2 41h51l12 242c3 56 -13 78 -53 78c-29 0 -54 -15 -79 -46l-14 -274h51l-2 -41h-187l2 41h51l12 242c2 39 -19 78 -57 78
c-26 0 -53 -20 -75 -46l-14 -274h51l-2 -41h-187l2 41h51z" />
    <glyph glyph-name="n" unicode="n" horiz-adv-x="417" 
d="M63 41l18 336h-50l2 41h135l-3 -51l2 -2c32 41 72 63 111 63c55 0 87 -46 87 -95l-16 -292h51l-2 -41h-177l2 41h41l13 239c2 44 -11 75 -44 75c-24 0 -44 -13 -70 -41l-15 -273h41l-2 -41h-177l2 41h51z" />
    <glyph glyph-name="o" unicode="o" horiz-adv-x="375" 
d="M30 169c0 151 75 259 180 259c87 0 146 -73 146 -182c0 -100 -52 -253 -180 -253c-88 0 -146 71 -146 176zM122 187c0 -103 19 -156 65 -156c50 0 77 74 77 184c0 114 -23 175 -59 175c-71 0 -83 -90 -83 -203z" />
    <glyph glyph-name="p" unicode="p" horiz-adv-x="375" 
d="M47 -203l32 580h-53l2 41h137l-2 -39l2 -2c24 35 46 51 74 51c48 0 118 -46 118 -185c0 -147 -82 -240 -214 -250l-11 -196h50l-2 -41h-187l2 41h52zM156 236l-11 -205c32 4 57 17 70 30c41 41 50 127 50 177c0 40 -13 123 -56 123c-36 0 -49 -55 -53 -125z" />
    <glyph glyph-name="q" unicode="q" horiz-adv-x="375" 
d="M213 -203l12 227l-2 2c-19 -23 -41 -33 -69 -33c-74 0 -125 79 -125 187c0 69 32 248 248 248h54l-33 -631h47l-2 -41h-180l2 41h48zM230 128l14 262c-89 -5 -123 -91 -123 -209c0 -99 39 -135 64 -135c27 0 42 28 45 82z" />
    <glyph glyph-name="r" unicode="r" horiz-adv-x="302" 
d="M65 41l18 336h-51l2 41h136l-3 -61l2 -2c32 47 65 73 88 73c14 0 27 -5 48 -19l-48 -74c-15 12 -24 16 -34 16c-18 0 -39 -21 -60 -60l-13 -250h56l-2 -41h-192l2 41h51z" />
    <glyph glyph-name="s" unicode="s" horiz-adv-x="281" 
d="M16 -15l5 101h24c21 -41 44 -61 77 -61c37 0 64 27 64 60c0 79 -144 106 -144 222c0 65 56 119 128 119c20 0 46 -7 67 -18l1 20h30l-5 -100h-23c-7 36 -34 60 -66 60c-33 0 -57 -24 -57 -56c0 -74 144 -114 144 -224c0 -66 -58 -121 -130 -121c-28 0 -55 9 -79 22
l-7 -24h-29z" />
    <glyph glyph-name="t" unicode="t" horiz-adv-x="260" 
d="M173 418h97l-2 -38h-96l-15 -255c-4 -61 13 -86 46 -86c27 0 40 21 47 21c5 0 15 -10 15 -15c0 -21 -51 -52 -99 -52c-52 0 -99 31 -94 114l15 273h-46l138 156z" />
    <glyph glyph-name="u" unicode="u" horiz-adv-x="417" 
d="M369 418l-20 -377h47l-2 -41h-132l2 50c-41 -40 -73 -57 -106 -57c-53 0 -96 42 -92 111l15 273h-46l2 41h131l-17 -284c-3 -50 13 -75 44 -75c29 0 49 12 72 35l15 283h-46l2 41h131z" />
    <glyph glyph-name="v" unicode="v" horiz-adv-x="365" 
d="M53 377h-36l2 41h160l-2 -41h-39l59 -234h2l89 234h-39l2 41h107l-2 -41h-30l-148 -392h-28z" />
    <glyph glyph-name="w" unicode="w" horiz-adv-x="594" 
d="M558 377l-148 -392h-29l-79 328h-2l-123 -328h-29l-94 392h-37l2 41h159l-2 -41h-37l56 -236h2l89 236h-36l2 41h159l-2 -41h-38l57 -237h2l89 237h-37l2 41h103l-2 -41h-27z" />
    <glyph glyph-name="x" unicode="x" horiz-adv-x="406" 
d="M337 41h38l-3 -41h-168l3 41h35l-55 119l-90 -119h39l-3 -41h-126l3 41h42l116 154l-86 182h-41l2 41h173l-2 -41h-37l49 -103l76 103h-34l2 41h124l-2 -41h-45l-102 -138z" />
    <glyph glyph-name="y" unicode="y" horiz-adv-x="406" 
d="M205 130l111 247h-39l2 41h122l-2 -41h-30l-281 -621h-70l129 257l-87 364h-43l2 41h164l-2 -41h-36l58 -247h2z" />
    <glyph glyph-name="z" unicode="z" horiz-adv-x="313" 
d="M286 90l-4 -90h-270l184 377h-109l-3 -48h-38l5 89h253l-184 -377h126l2 49h38z" />
    <glyph glyph-name="braceleft" unicode="{" horiz-adv-x="394" 
d="M57 196v22c66 9 112 52 112 104c0 22 -6 45 -12 70s-11 51 -11 80c0 95 76 174 183 188v-13c-78 -19 -111 -64 -111 -116c0 -21 5 -47 11 -74s12 -55 12 -80c0 -71 -56 -137 -144 -170c88 -33 144 -99 144 -170c0 -25 -6 -53 -12 -80s-11 -53 -11 -74
c0 -52 33 -97 111 -116v-13c-107 14 -183 93 -183 188c0 29 5 56 11 81s12 48 12 69c0 52 -46 95 -112 104z" />
    <glyph glyph-name="bar" unicode="|" horiz-adv-x="546" 
d="M234 750h77v-1000h-77v1000z" />
    <glyph glyph-name="braceright" unicode="}" horiz-adv-x="394" 
d="M337 218v-22c-66 -9 -112 -52 -112 -104c0 -21 5 -44 11 -69s12 -52 12 -81c0 -95 -76 -174 -183 -188v13c78 19 111 64 111 116c0 21 -6 47 -12 74s-11 55 -11 80c0 71 56 137 144 170c-88 33 -144 99 -144 170c0 25 5 53 11 80s12 53 12 74c0 52 -33 97 -111 116v13
c107 -14 183 -93 183 -188c0 -29 -6 -55 -12 -80s-11 -48 -11 -70c0 -52 46 -95 112 -104z" />
    <glyph glyph-name="asciitilde" unicode="~" horiz-adv-x="667" 
d="M571 452h28c-3 -97 -54 -158 -131 -158c-42 0 -97 22 -151 44c-53 22 -103 44 -135 44c-48 0 -77 -29 -86 -87h-29c2 124 78 158 128 158c43 0 99 -22 152 -45s104 -45 138 -45c45 0 80 27 86 89z" />
    <glyph glyph-name="exclamdown" unicode="&#xa1;" horiz-adv-x="229" 
d="M101 173h18c13 -48 26 -175 26 -242c0 -100 -25 -182 -56 -182c-23 0 -39 50 -39 123c0 79 19 172 51 301zM117 247c-34 0 -61 27 -61 61s27 62 61 62s62 -28 62 -62s-28 -61 -62 -61z" />
    <glyph glyph-name="cent" unicode="&#xa2;" 
d="M304 435l-9 -124h-27c-6 46 -11 63 -32 74l-66 -322c4 -3 12 -8 24 -8c46 0 78 51 92 51c11 0 24 -12 24 -15c0 -12 -53 -108 -153 -97l-32 -153h-32l32 159c-61 30 -94 90 -94 173c0 130 85 251 180 254l25 125h33l-25 -127c7 -1 21 -7 29 -14l3 24h28zM143 89l62 300
c-45 -7 -82 -93 -82 -198c0 -45 7 -78 20 -102z" />
    <glyph glyph-name="sterling" unicode="&#xa3;" horiz-adv-x="510" 
d="M365 305l-2 -47h-144c-1 -38 -7 -67 -24 -127c70 -8 94 -86 149 -86c40 0 77 50 96 127h40c-28 -114 -86 -187 -158 -187c-90 0 -103 85 -148 95c-33 -62 -70 -95 -108 -95c-21 0 -36 15 -36 36c0 42 44 89 98 103c9 43 4 90 -1 134h-87l2 47h87l-1 33
c-5 165 87 276 218 276c111 0 141 -77 141 -81c0 -18 -21 -36 -68 -55c-9 60 -63 88 -97 88c-64 0 -107 -57 -107 -137c0 -20 5 -68 6 -124h144z" />
    <glyph glyph-name="fraction" unicode="&#x2044;" horiz-adv-x="167" 
d="M-141 -24l409 638h41l-408 -638h-42z" />
    <glyph glyph-name="yen" unicode="&#xa5;" horiz-adv-x="490" 
d="M304 306l-4 -100h194l-2 -37h-194l-6 -119h64l-3 -50h-220l3 50h64l6 119h-196l2 37h196l4 100h-195l2 37h195l-123 206h-62l3 50h218l-3 -50h-51l84 -145l104 145h-51l3 50h170l-3 -50h-54l-143 -206h195l-2 -37h-195z" />
    <glyph glyph-name="florin" unicode="&#x192;" horiz-adv-x="500" 
d="M299 348h61v-39h-61l-22 -366c-10 -163 -102 -194 -155 -194c-22 0 -43 5 -65 14l16 118h28c7 -67 14 -91 36 -91c38 0 54 76 57 132l19 387h-68v39h68c13 133 -4 227 65 296c27 27 62 39 97 39c23 0 44 -4 67 -12l-16 -119h-28c-3 47 -5 90 -35 90
c-58 0 -64 -148 -64 -246v-48z" />
    <glyph glyph-name="section" unicode="&#xa7;" horiz-adv-x="563" 
d="M176 487c0 -14 4 -23 13 -32c44 -44 216 -89 273 -146c32 -32 41 -65 41 -97c0 -41 -21 -95 -75 -145c25 -28 34 -50 34 -80c0 -91 -86 -153 -213 -153c-146 0 -177 80 -177 93c0 23 35 42 91 49c17 -63 57 -96 116 -96c64 0 113 36 113 82c0 15 -6 29 -15 38
c-37 37 -212 69 -273 130c-24 24 -45 59 -45 98c0 50 33 101 92 140c-32 27 -48 59 -48 97c0 81 74 134 189 134c140 0 187 -75 187 -117c0 -16 -18 -28 -41 -28c-14 0 -29 2 -46 7c-17 61 -55 91 -114 91c-58 0 -102 -28 -102 -65zM128 255c0 -83 176 -96 272 -163
c23 24 34 50 34 79c0 76 -63 80 -252 176c-38 -42 -54 -56 -54 -92z" />
    <glyph glyph-name="currency" unicode="&#xa4;" horiz-adv-x="688" 
d="M474 507l63 63l51 -52l-63 -63c30 -44 42 -82 42 -130s-12 -85 -42 -129l63 -62l-51 -52l-63 62c-45 -30 -81 -42 -129 -42c-49 0 -87 12 -131 42l-63 -62l-51 52l62 62c-29 44 -41 81 -41 130c0 48 12 85 41 129l-62 63l51 52l63 -63c46 30 82 42 130 42s84 -12 130 -42
zM194 326c0 -84 67 -151 150 -151s150 67 150 151c0 83 -67 150 -150 150s-150 -67 -150 -150z" />
    <glyph glyph-name="quotesingle" unicode="'" horiz-adv-x="278" 
d="M203 556l-34 -143h-20l-34 143c-5 23 -9 48 -9 64c0 34 21 57 53 57s53 -23 53 -57c0 -16 -4 -41 -9 -64z" />
    <glyph glyph-name="quotedblleft" unicode="&#x201c;" horiz-adv-x="438" 
d="M397 521c0 -34 -28 -63 -60 -63c-40 0 -68 33 -68 81c0 93 89 150 135 150c8 0 17 -7 17 -14c0 -26 -62 -12 -79 -92c34 -6 55 -33 55 -62zM207 521c0 -34 -28 -63 -60 -63c-40 0 -68 33 -68 81c0 93 89 150 135 150c8 0 17 -7 17 -14c0 -26 -62 -12 -79 -92
c34 -6 55 -33 55 -62z" />
    <glyph glyph-name="guillemotleft" unicode="&#xab;" horiz-adv-x="406" 
d="M311 16l-127 194l147 193h36l-92 -193l71 -194h-35zM148 16l-127 194l147 193h36l-92 -193l71 -194h-35z" />
    <glyph glyph-name="guilsinglleft" unicode="&#x2039;" horiz-adv-x="240" 
d="M147 16l-127 194l147 193h36l-92 -193l71 -194h-35z" />
    <glyph glyph-name="guilsinglright" unicode="&#x203a;" horiz-adv-x="240" 
d="M93 403l127 -194l-147 -193h-36l92 193l-71 194h35z" />
    <glyph glyph-name="endash" unicode="&#x2013;" horiz-adv-x="500" 
d="M-5 273h513l-3 -46h-513z" />
    <glyph glyph-name="dagger" unicode="&#x2020;" horiz-adv-x="521" 
d="M49 348l6 119l207 -38l-35 229h136l-59 -229l211 38l-6 -119l-207 39l13 -631h-135l80 631z" />
    <glyph glyph-name="daggerdbl" unicode="&#x2021;" horiz-adv-x="521" 
d="M31 -76l6 113l203 -37l-25 205l46 201l-206 -29l6 110l202 -35l-30 206h123l-48 -206l205 35l-6 -110l-201 29l19 -201l-41 -205l205 37l-6 -113l-201 34l27 -202h-123l52 202z" />
    <glyph glyph-name="periodcentered" unicode="&#xb7;" horiz-adv-x="229" 
d="M113 328c34 0 61 -27 61 -61s-27 -62 -61 -62s-62 28 -62 62s28 61 62 61z" />
    <glyph glyph-name="paragraph" unicode="&#xb6;" horiz-adv-x="540" 
d="M471 578h-16c-38 0 -52 -26 -52 -54v-685h-37v732h-77v-732h-37v405c-163 0 -215 84 -215 179c0 79 40 176 212 176h222v-21z" />
    <glyph glyph-name="bullet" unicode="&#x2022;" horiz-adv-x="350" 
d="M176 399c63 0 113 -50 113 -113s-50 -114 -113 -114s-114 51 -114 114s51 113 114 113z" />
    <glyph glyph-name="quotesinglbase" unicode="&#x201a;" horiz-adv-x="250" 
d="M43 -106c0 26 62 12 79 92c-34 6 -55 33 -55 62c0 34 28 63 60 63c40 0 68 -33 68 -81c0 -93 -89 -150 -135 -150c-8 0 -17 7 -17 14z" />
    <glyph glyph-name="quotedblbase" unicode="&#x201e;" horiz-adv-x="438" 
d="M226 -106c0 26 62 12 79 92c-34 6 -55 33 -55 62c0 34 28 63 60 63c40 0 68 -33 68 -81c0 -93 -89 -150 -135 -150c-8 0 -17 7 -17 14zM36 -106c0 26 62 12 79 92c-34 6 -55 33 -55 62c0 34 28 63 60 63c40 0 68 -33 68 -81c0 -93 -89 -150 -135 -150c-8 0 -17 7 -17 14z
" />
    <glyph glyph-name="quotedblright" unicode="&#x201d;" horiz-adv-x="438" 
d="M227 472c0 26 62 12 79 92c-34 6 -55 33 -55 62c0 34 28 63 60 63c40 0 68 -33 68 -81c0 -93 -89 -150 -135 -150c-8 0 -17 7 -17 14zM37 472c0 26 62 12 79 92c-34 6 -55 33 -55 62c0 34 28 63 60 63c40 0 68 -33 68 -81c0 -93 -89 -150 -135 -150c-8 0 -17 7 -17 14z
" />
    <glyph glyph-name="guillemotright" unicode="&#xbb;" horiz-adv-x="406" 
d="M258 403l127 -194l-147 -193h-36l92 193l-71 194h35zM95 403l127 -194l-147 -193h-36l92 193l-71 194h35z" />
    <glyph glyph-name="ellipsis" unicode="&#x2026;" horiz-adv-x="1000" 
d="M834 118c36 0 65 -29 65 -65s-29 -65 -65 -65s-65 29 -65 65s29 65 65 65zM500 118c36 0 65 -29 65 -65s-29 -65 -65 -65s-65 29 -65 65s29 65 65 65zM166 118c36 0 65 -29 65 -65s-29 -65 -65 -65s-65 29 -65 65s29 65 65 65z" />
    <glyph glyph-name="perthousand" unicode="&#x2030;" horiz-adv-x="1000" 
d="M94 410c0 -58 15 -90 44 -90c33 0 55 34 55 174c0 61 -16 86 -42 86c-47 0 -57 -93 -57 -170zM131 -15l403 629h41l-402 -629h-42zM807 109c0 -58 15 -90 44 -90c33 0 55 34 55 174c0 61 -16 86 -42 86c-47 0 -57 -93 -57 -170zM24 429c0 119 45 185 127 185
c70 0 112 -54 112 -145c0 -113 -47 -183 -124 -183c-72 0 -115 54 -115 143zM737 128c0 119 45 185 127 185c70 0 112 -54 112 -145c0 -113 -47 -183 -124 -183c-72 0 -115 54 -115 143zM444 128c0 119 45 185 127 185c70 0 112 -54 112 -145c0 -113 -47 -183 -124 -183
c-72 0 -115 54 -115 143zM514 109c0 -58 15 -90 44 -90c33 0 55 34 55 174c0 61 -16 86 -42 86c-47 0 -57 -93 -57 -170z" />
    <glyph glyph-name="questiondown" unicode="&#xbf;" 
d="M267 -201c-33 -29 -74 -50 -119 -50c-74 0 -129 55 -129 128c0 71 54 134 101 180c46 45 79 71 102 134l22 -31c-55 -141 -145 -168 -145 -275c0 -43 28 -76 66 -76c45 0 65 26 107 80h7zM242 247c-34 0 -61 27 -61 61s27 63 61 63s62 -29 62 -63s-28 -61 -62 -61z" />
    <glyph glyph-name="grave" unicode="`" 
d="M253 496h-25l-159 154h112z" />
    <glyph glyph-name="acute" unicode="&#xb4;" 
d="M122 496l72 154h112l-159 -154h-25z" />
    <glyph glyph-name="circumflex" unicode="&#x2c6;" 
d="M71 504l111 142h50l82 -142h-24l-87 67l-107 -67h-25z" />
    <glyph glyph-name="tilde" unicode="&#x2dc;" 
d="M82 527h-23c10 54 47 94 87 94c36 0 87 -35 113 -35c18 0 37 11 38 35h24c-10 -54 -45 -93 -84 -93s-74 36 -113 36c-20 0 -37 -15 -42 -37z" />
    <glyph glyph-name="macron" unicode="&#xaf;" 
d="M292 544h-206l3 62h206z" />
    <glyph glyph-name="breve" unicode="&#x2d8;" 
d="M93 641h23c10 -42 34 -61 84 -61c54 0 101 25 113 61h25c-27 -75 -85 -129 -141 -129c-43 0 -108 34 -104 129z" />
    <glyph glyph-name="dotaccent" unicode="&#x2d9;" 
d="M214 625c28 0 51 -23 51 -51s-23 -52 -51 -52s-52 24 -52 52s24 51 52 51z" />
    <glyph glyph-name="dieresis" unicode="&#xa8;" 
d="M274 625c28 0 51 -23 51 -51s-23 -52 -51 -52s-52 24 -52 52s24 51 52 51zM127 625c28 0 51 -23 51 -51s-23 -52 -51 -52s-52 24 -52 52s24 51 52 51z" />
    <glyph glyph-name="ring" unicode="&#x2da;" 
d="M202 667c52 0 95 -43 95 -95s-43 -95 -95 -95s-95 43 -95 95s43 95 95 95zM202 626c-30 0 -54 -24 -54 -54s24 -54 54 -54s54 24 54 54s-24 54 -54 54z" />
    <glyph glyph-name="cedilla" unicode="&#xb8;" 
d="M129 13h58l-29 -59c40 -11 61 -35 61 -72c0 -69 -76 -94 -195 -95l11 48c53 0 82 13 82 36c0 13 -15 30 -34 38z" />
    <glyph glyph-name="hungarumlaut" unicode="&#x2dd;" 
d="M247 496l72 154h112l-159 -154h-25zM92 496l72 154h112l-159 -154h-25z" />
    <glyph glyph-name="ogonek" unicode="&#x2db;" 
d="M107 0h87c-39 -32 -55 -57 -55 -83c0 -30 25 -50 62 -50c20 0 34 3 60 15l-22 -97c-22 -7 -44 -11 -68 -11c-93 0 -123 49 -123 98c0 43 13 72 59 128z" />
    <glyph glyph-name="caron" unicode="&#x2c7;" 
d="M332 646l-111 -142h-50l-82 142h24l87 -67l107 67h25z" />
    <glyph glyph-name="emdash" unicode="&#x2014;" horiz-adv-x="1000" 
d="M-5 273h1013l-3 -46h-1013z" />
    <glyph glyph-name="AE" unicode="&#xc6;" horiz-adv-x="708" 
d="M39 50l345 549h300l-7 -132h-50l4 82h-152l-12 -228h111l4 75h50l-11 -208h-50l4 83h-110l-12 -221h161l5 90h50l-8 -140h-367l3 50h64l12 221h-130l-141 -221h64l-2 -50h-162l3 50h34zM274 321h101l9 174l-2 2z" />
    <glyph glyph-name="ordfeminine" unicode="&#xaa;" horiz-adv-x="250" 
d="M207 384h32l-1 -30h-97v21c-17 -20 -31 -24 -45 -24c-50 0 -82 42 -82 106c0 97 59 156 155 156h50zM145 437l8 146c-46 -6 -67 -46 -67 -108c0 -48 14 -80 36 -80c10 0 21 10 23 42z" />
    <glyph glyph-name="Lslash" unicode="&#x141;" horiz-adv-x="417" 
d="M201 317l-15 -267h159l4 89h50l-7 -139h-364l3 50h63l9 159l-2 2l-66 -83l4 72l68 83l14 266h-64l3 50h220l-3 -50h-64l-8 -158l2 -2l91 115l-5 -73z" />
    <glyph glyph-name="Oslash" unicode="&#xd8;" horiz-adv-x="573" 
d="M435 446l-254 -347c25 -37 59 -62 101 -62c61 0 168 82 168 311c0 32 -4 74 -15 98zM462 559l44 60l36 -27l-49 -67c44 -59 62 -135 62 -201c0 -158 -106 -339 -281 -339c-64 0 -104 20 -142 48l-43 -59l-36 26l47 65c-42 51 -66 124 -66 211c0 161 108 338 284 338
c56 0 110 -22 144 -55zM158 144l256 349c-32 49 -72 69 -106 69c-81 0 -169 -103 -169 -296c0 -31 7 -86 19 -122z" />
    <glyph glyph-name="OE" unicode="&#x152;" horiz-adv-x="750" 
d="M478 50h181l4 90h50l-7 -140h-441c-157 0 -231 136 -231 267c0 152 102 332 291 332h404l-7 -133h-50l4 83h-172l-11 -217h129l4 74h50l-11 -212h-50l5 88h-130zM412 549h-78c-166 0 -195 -218 -195 -276c0 -150 54 -223 167 -223h80z" />
    <glyph glyph-name="ordmasculine" unicode="&#xba;" horiz-adv-x="240" 
d="M28 456c0 93 50 158 121 158c59 0 99 -45 99 -112c0 -69 -39 -154 -121 -154c-60 0 -99 43 -99 108zM98 470c0 -55 11 -92 35 -92c27 0 45 41 45 105c0 61 -13 100 -33 100c-31 0 -47 -38 -47 -113z" />
    <glyph glyph-name="ae" unicode="&#xe6;" horiz-adv-x="510" 
d="M320 211l-4 -77c-2 -41 24 -79 57 -79c52 0 74 72 94 72c5 0 23 -10 23 -19c0 -6 -52 -115 -149 -115c-41 0 -77 28 -93 72c-19 -46 -53 -72 -94 -72c-74 0 -123 70 -123 175c0 97 31 260 276 260c118 0 162 -23 162 -82c0 -57 -53 -115 -149 -135zM236 126l13 259
c-104 -8 -126 -108 -126 -201c0 -84 20 -130 57 -130c21 0 54 33 56 72zM330 390l-8 -139c44 5 76 40 76 81c0 37 -22 56 -68 58z" />
    <glyph glyph-name="dotlessi" unicode="&#x131;" horiz-adv-x="240" 
d="M73 41l18 336h-50l3 41h134l-20 -377h53l-2 -41h-187l2 41h49z" />
    <glyph glyph-name="lslash" unicode="&#x142;" horiz-adv-x="240" 
d="M177 382l-18 -341h52l-2 -41h-189l2 41h52l13 232l-2 2l-55 -77l3 54l57 76l15 289h-53l3 41h137l-12 -221l2 -2l55 77l-3 -54z" />
    <glyph glyph-name="oslash" unicode="&#xf8;" horiz-adv-x="375" 
d="M297 396l26 39l27 -17l-30 -45c18 -22 36 -76 36 -127c0 -100 -52 -253 -180 -253c-31 0 -64 11 -87 30l-26 -39l-26 16l30 46c-22 27 -37 71 -37 123c0 151 75 259 180 259c37 0 69 -15 87 -32zM124 132l128 195c-7 33 -22 63 -47 63c-71 0 -83 -90 -83 -203
c0 -17 0 -39 2 -55zM259 283l-127 -195c9 -40 28 -57 55 -57c50 0 77 74 77 184c0 19 -2 44 -3 68h-2z" />
    <glyph glyph-name="oe" unicode="&#x153;" horiz-adv-x="563" 
d="M295 50c-27 -37 -68 -57 -119 -57c-86 0 -148 77 -148 184c0 136 83 251 181 251c48 0 89 -24 115 -70c33 43 78 70 116 70c55 0 95 -37 95 -87c0 -54 -46 -112 -137 -112c-7 0 -41 1 -41 3h-2c-2 -23 -2 -34 -2 -45c0 -82 27 -134 70 -134c47 0 71 61 85 61
c7 0 27 -12 27 -18s-57 -103 -144 -103c-39 0 -75 22 -96 57zM357 272c7 -4 19 -5 27 -5c53 0 85 37 85 88c0 21 -9 35 -29 35c-35 0 -70 -47 -83 -118zM120 199c0 -110 23 -168 66 -168c47 0 79 72 79 186c0 64 -8 173 -67 173c-47 0 -78 -74 -78 -191z" />
    <glyph glyph-name="germandbls" unicode="&#xdf;" horiz-adv-x="406" 
d="M32 0l2 41h47l25 468c5 101 48 180 144 180c76 0 132 -59 132 -143c0 -72 -45 -136 -118 -168v-2c81 -19 122 -75 122 -166c0 -109 -64 -217 -129 -217c-27 0 -60 29 -60 53c0 14 34 45 39 45c23 0 -5 -54 21 -54c20 0 37 75 37 145c0 98 -19 174 -80 178l2 37
c61 11 81 79 81 159c0 75 -28 95 -52 95c-47 0 -49 -60 -54 -151l-27 -500h-132z" />
    <glyph glyph-name="logicalnot" unicode="&#xac;" horiz-adv-x="667" 
d="M66 422h534v-308h-78v230h-456v78z" />
    <glyph glyph-name="mu" unicode="&#xb5;" horiz-adv-x="576" 
d="M132 18c-12 -129 15 -150 15 -212c0 -41 -30 -56 -58 -56c-27 0 -43 19 -43 43c0 39 38 77 49 245l24 380h85l-17 -263c-5 -72 16 -96 44 -96c23 0 42 12 67 36l21 323h85l-21 -295c-4 -59 7 -78 34 -78c31 0 51 23 67 80h25c-23 -118 -103 -133 -122 -133
c-50 0 -78 18 -89 58c-49 -44 -72 -57 -105 -57c-25 0 -39 5 -61 25z" />
    <glyph glyph-name="trademark" unicode="&#x2122;" horiz-adv-x="1000" 
d="M35 658h356l11 -98h-17c-8 52 -32 69 -94 69h-36v-285c0 -52 6 -61 51 -63v-21h-183v21c44 4 50 11 50 63v285h-39c-60 0 -82 -17 -92 -69h-17zM576 658l133 -280l130 280h135v-18c-47 -1 -53 -9 -53 -67v-229c0 -54 5 -60 53 -63v-21h-195v21c51 1 60 10 60 63v239h-2
l-149 -323h-16l-149 323h-2v-239c0 -52 8 -63 47 -63h18v-21h-151v21c48 0 56 8 56 63v229c0 60 -7 67 -56 67v18h141z" />
    <glyph glyph-name="Eth" unicode="&#xd0;" horiz-adv-x="531" 
d="M88 50l12 221h-71l3 50h70l12 228h-64l3 50h243c119 0 220 -87 220 -269c0 -154 -97 -330 -293 -330h-202l3 50h64zM180 50h40c135 0 191 133 191 297s-57 202 -168 202h-37l-12 -228h136l-3 -50h-135z" />
    <glyph glyph-name="onehalf" unicode="&#xbd;" horiz-adv-x="719" 
d="M658 60l-3 -60h-213c94 107 129 158 129 217c0 34 -22 60 -49 60c-18 0 -33 -8 -61 -30l-24 21c42 41 73 52 109 52c53 0 92 -37 92 -87c0 -40 -21 -92 -112 -192h79c9 0 13 5 19 19h34zM110 -15l403 629h41l-402 -629h-42zM60 320h44l13 241l-52 -14l2 29l117 37
l-16 -293h38l-1 -26h-146z" />
    <glyph glyph-name="plusminus" unicode="&#xb1;" horiz-adv-x="667" 
d="M66 78h534v-78h-534v78zM66 466h228v223h78v-223h228v-78h-228v-223h-78v223h-228v78z" />
    <glyph glyph-name="Thorn" unicode="&#xde;" horiz-adv-x="427" 
d="M91 50l26 499h-64l3 50h219l-2 -50h-64l-4 -73h42c125 0 168 -103 168 -170c0 -99 -77 -177 -176 -177c-16 0 -30 2 -52 6l-4 -85h64l-2 -50h-220l2 50h64zM202 426l-12 -239c14 -5 22 -6 38 -6c60 0 90 52 90 136c0 76 -32 109 -104 109h-12z" />
    <glyph glyph-name="onequarter" unicode="&#xbc;" horiz-adv-x="719" 
d="M512 96h-132l1 26l191 197h15l-9 -184h88l-2 -39h-88l-4 -69h40l-1 -27h-144l1 27h40zM440 135h84l5 93zM110 -15l403 629h41l-402 -629h-42zM60 320h44l13 241l-52 -14l2 29l117 37l-16 -293h38l-1 -26h-146z" />
    <glyph glyph-name="divide" unicode="&#xf7;" horiz-adv-x="668" 
d="M334 534c27 0 48 -21 48 -48s-21 -48 -48 -48s-48 21 -48 48s21 48 48 48zM334 96c27 0 48 -21 48 -48s-21 -48 -48 -48s-48 21 -48 48s21 48 48 48zM67 306h534v-78h-534v78z" />
    <glyph glyph-name="brokenbar" unicode="&#xa6;" horiz-adv-x="546" 
d="M234 125h77v-375h-77v375zM234 750h77v-375h-77v375z" />
    <glyph glyph-name="degree" unicode="&#xb0;" horiz-adv-x="400" 
d="M200 335c-76 0 -138 62 -138 138s62 138 138 138s138 -62 138 -138s-62 -138 -138 -138zM200 380c51 0 93 42 93 93s-42 93 -93 93s-93 -42 -93 -93s42 -93 93 -93z" />
    <glyph glyph-name="thorn" unicode="&#xfe;" horiz-adv-x="375" 
d="M47 -203l43 820h-51l2 41h136l-15 -279l2 -2c24 35 47 51 75 51c48 0 118 -46 118 -185c0 -147 -83 -240 -215 -250l-10 -196h50l-2 -41h-187l2 41h52zM155 236l-11 -205c32 4 58 17 71 30c41 41 50 127 50 177c0 40 -13 123 -56 123c-36 0 -50 -55 -54 -125z" />
    <glyph glyph-name="threequarters" unicode="&#xbe;" horiz-adv-x="719" 
d="M110 -15l403 629h41l-402 -629h-42zM26 335l25 19c30 -24 48 -32 70 -32c30 0 52 23 52 56c0 42 -29 65 -89 70l1 19c59 11 89 35 89 72c0 23 -18 41 -42 41c-19 0 -31 -5 -59 -24l-18 23c37 27 61 35 94 35c51 0 89 -28 89 -65s-31 -64 -77 -81v-2c58 -13 83 -40 83 -85
c0 -54 -49 -95 -113 -95c-42 0 -73 14 -105 49zM512 96h-132l1 26l191 197h15l-9 -184h88l-2 -39h-88l-4 -69h40l-1 -27h-144l1 27h40zM440 135h84l5 93z" />
    <glyph glyph-name="registered" unicode="&#xae;" horiz-adv-x="747" 
d="M188 532h207c86 0 143 -39 143 -107c0 -49 -31 -85 -87 -101l67 -122c17 -32 31 -45 51 -49v-16h-118l-100 180h-23v-97c0 -55 8 -65 59 -67v-16h-207v16c40 -1 51 13 51 67v231c0 47 -7 57 -43 60v21zM328 342h28c46 0 76 34 76 86c0 55 -29 83 -86 83h-18v-169z
M373 631c-165 0 -298 -133 -298 -298s133 -299 298 -299s299 134 299 299s-134 298 -299 298zM374 677c190 0 344 -154 344 -344s-154 -345 -344 -345s-345 155 -345 345s155 344 345 344z" />
    <glyph glyph-name="minus" unicode="&#x2212;" horiz-adv-x="667" 
d="M66 306h534v-78h-534v78z" />
    <glyph glyph-name="eth" unicode="&#xf0;" horiz-adv-x="376" 
d="M121 196c0 -104 15 -169 64 -169c50 0 80 68 80 188c0 91 -17 175 -64 175c-65 0 -80 -98 -80 -194zM371 662l-100 -68c74 -117 86 -218 86 -311c0 -229 -100 -294 -180 -294c-91 0 -148 71 -148 186c0 140 80 253 177 253c21 0 38 -4 56 -24c0 41 -12 98 -38 158
l-97 -64l-18 27l101 68c-11 25 -25 49 -42 73l33 23c20 -23 37 -45 52 -67l100 67z" />
    <glyph glyph-name="multiply" unicode="&#xd7;" horiz-adv-x="668" 
d="M86 460l54 54l194 -196l193 196l54 -54l-193 -194l193 -193l-54 -54l-193 193l-194 -193l-54 54l193 193z" />
    <glyph glyph-name="copyright" unicode="&#xa9;" horiz-adv-x="747" 
d="M537 540v-129h-17c-13 65 -59 105 -121 105c-80 0 -127 -65 -127 -178c0 -132 50 -181 128 -181c50 0 87 27 120 67v-35c-39 -41 -90 -62 -154 -62c-120 0 -204 82 -204 199c0 124 91 215 216 215c70 0 98 -26 119 -26c13 0 20 8 23 25h17zM373 631
c-165 0 -298 -133 -298 -298s133 -299 298 -299s299 134 299 299s-134 298 -299 298zM374 677c190 0 344 -154 344 -344s-154 -345 -344 -345s-345 155 -345 345s155 344 345 344z" />
    <glyph glyph-name="Aacute" unicode="&#xc1;" horiz-adv-x="552" 
d="M362 204h-162l-81 -154h64l-2 -50h-192l3 50h63l299 564h29l93 -564h64l-2 -50h-217l2 50h64zM354 254l-29 181h-2l-96 -181h127zM308 661l72 154h112l-159 -154h-25z" />
    <glyph glyph-name="Acircumflex" unicode="&#xc2;" horiz-adv-x="552" 
d="M362 204h-162l-81 -154h64l-2 -50h-192l3 50h63l299 564h29l93 -564h64l-2 -50h-217l2 50h64zM354 254l-29 181h-2l-96 -181h127zM257 669l111 142h50l82 -142h-24l-87 67l-107 -67h-25z" />
    <glyph glyph-name="Adieresis" unicode="&#xc4;" horiz-adv-x="552" 
d="M362 204h-162l-81 -154h64l-2 -50h-192l3 50h63l299 564h29l93 -564h64l-2 -50h-217l2 50h64zM354 254l-29 181h-2l-96 -181h127zM460 790c28 0 51 -23 51 -51s-23 -52 -51 -52s-52 24 -52 52s24 51 52 51zM313 790c28 0 51 -23 51 -51s-23 -52 -51 -52s-52 24 -52 52
s24 51 52 51z" />
    <glyph glyph-name="Agrave" unicode="&#xc0;" horiz-adv-x="552" 
d="M362 204h-162l-81 -154h64l-2 -50h-192l3 50h63l299 564h29l93 -564h64l-2 -50h-217l2 50h64zM354 254l-29 181h-2l-96 -181h127zM439 661h-25l-159 154h112z" />
    <glyph glyph-name="Aring" unicode="&#xc5;" horiz-adv-x="552" 
d="M362 204h-162l-81 -154h64l-2 -50h-192l3 50h63l299 564h29l93 -564h64l-2 -50h-217l2 50h64zM354 254l-29 181h-2l-96 -181h127zM388 832c52 0 95 -43 95 -95s-43 -95 -95 -95s-95 43 -95 95s43 95 95 95zM388 791c-30 0 -54 -24 -54 -54s24 -54 54 -54s54 24 54 54
s-24 54 -54 54z" />
    <glyph glyph-name="Atilde" unicode="&#xc3;" horiz-adv-x="552" 
d="M362 204h-162l-81 -154h64l-2 -50h-192l3 50h63l299 564h29l93 -564h64l-2 -50h-217l2 50h64zM354 254l-29 181h-2l-96 -181h127zM268 692h-23c10 54 47 94 87 94c36 0 87 -35 113 -35c18 0 37 11 38 35h24c-10 -54 -45 -93 -84 -93s-74 36 -113 36
c-20 0 -37 -15 -42 -37z" />
    <glyph glyph-name="Ccedilla" unicode="&#xc7;" horiz-adv-x="531" 
d="M178 -91l37 84c-127 34 -184 173 -184 275c0 158 112 346 297 346c38 0 76 -12 129 -32l12 37h39l-10 -184h-39c-19 86 -71 127 -131 127c-130 0 -192 -172 -192 -298c0 -146 83 -227 174 -227c57 0 121 35 183 110l-4 -71c-52 -55 -122 -91 -220 -91l-16 -31
c40 -11 61 -35 61 -72c0 -69 -76 -94 -195 -95l11 48c53 0 82 13 82 36c0 13 -15 30 -34 38z" />
    <glyph glyph-name="Eacute" unicode="&#xc9;" horiz-adv-x="438" 
d="M346 50l5 89h50l-8 -139h-366l3 50h64l26 499h-64l3 50h359l-7 -132h-50l4 82h-153l-11 -216h110l4 73h50l-11 -207h-50l4 84h-110l-12 -233h160zM205 661l72 154h112l-159 -154h-25z" />
    <glyph glyph-name="Ecircumflex" unicode="&#xca;" horiz-adv-x="438" 
d="M346 50l5 89h50l-8 -139h-366l3 50h64l26 499h-64l3 50h359l-7 -132h-50l4 82h-153l-11 -216h110l4 73h50l-11 -207h-50l4 84h-110l-12 -233h160zM154 669l111 142h50l82 -142h-24l-87 67l-107 -67h-25z" />
    <glyph glyph-name="Edieresis" unicode="&#xcb;" horiz-adv-x="438" 
d="M346 50l5 89h50l-8 -139h-366l3 50h64l26 499h-64l3 50h359l-7 -132h-50l4 82h-153l-11 -216h110l4 73h50l-11 -207h-50l4 84h-110l-12 -233h160zM357 790c28 0 51 -23 51 -51s-23 -52 -51 -52s-52 24 -52 52s24 51 52 51zM210 790c28 0 51 -23 51 -51s-23 -52 -51 -52
s-52 24 -52 52s24 51 52 51z" />
    <glyph glyph-name="Egrave" unicode="&#xc8;" horiz-adv-x="438" 
d="M346 50l5 89h50l-8 -139h-366l3 50h64l26 499h-64l3 50h359l-7 -132h-50l4 82h-153l-11 -216h110l4 73h50l-11 -207h-50l4 84h-110l-12 -233h160zM336 661h-25l-159 154h112z" />
    <glyph glyph-name="Iacute" unicode="&#xcd;" horiz-adv-x="292" 
d="M96 50l26 499h-64l3 50h220l-3 -50h-64l-26 -499h64l-3 -50h-220l3 50h64zM132 661l72 154h112l-159 -154h-25z" />
    <glyph glyph-name="Icircumflex" unicode="&#xce;" horiz-adv-x="292" 
d="M96 50l26 499h-64l3 50h220l-3 -50h-64l-26 -499h64l-3 -50h-220l3 50h64zM81 669l111 142h50l82 -142h-24l-87 67l-107 -67h-25z" />
    <glyph glyph-name="Idieresis" unicode="&#xcf;" horiz-adv-x="292" 
d="M96 50l26 499h-64l3 50h220l-3 -50h-64l-26 -499h64l-3 -50h-220l3 50h64zM284 790c28 0 51 -23 51 -51s-23 -52 -51 -52s-52 24 -52 52s24 51 52 51zM137 790c28 0 51 -23 51 -51s-23 -52 -51 -52s-52 24 -52 52s24 51 52 51z" />
    <glyph glyph-name="Igrave" unicode="&#xcc;" horiz-adv-x="292" 
d="M96 50l26 499h-64l3 50h220l-3 -50h-64l-26 -499h64l-3 -50h-220l3 50h64zM263 661h-25l-159 154h112z" />
    <glyph glyph-name="Ntilde" unicode="&#xd1;" horiz-adv-x="604" 
d="M90 50l26 499h-62l3 50h143l-2 -35l255 -404h2l19 389h-64l3 50h184l-3 -50h-63l-28 -549h-48l-286 453h-2l-20 -403h63l-3 -50h-182l3 50h62zM248 692h-23c10 54 47 94 87 94c36 0 87 -35 113 -35c18 0 37 11 38 35h24c-10 -54 -45 -93 -84 -93s-74 36 -113 36
c-20 0 -37 -15 -42 -37z" />
    <glyph glyph-name="Oacute" unicode="&#xd3;" horiz-adv-x="573" 
d="M34 276c0 161 108 338 284 338c165 0 237 -159 237 -290c0 -158 -106 -339 -281 -339c-144 0 -240 116 -240 291zM308 562c-81 0 -169 -103 -169 -296c0 -134 60 -229 143 -229c61 0 168 82 168 311c0 134 -73 214 -142 214zM272 661l72 154h112l-159 -154h-25z" />
    <glyph glyph-name="Ocircumflex" unicode="&#xd4;" horiz-adv-x="573" 
d="M34 276c0 161 108 338 284 338c165 0 237 -159 237 -290c0 -158 -106 -339 -281 -339c-144 0 -240 116 -240 291zM308 562c-81 0 -169 -103 -169 -296c0 -134 60 -229 143 -229c61 0 168 82 168 311c0 134 -73 214 -142 214zM221 669l111 142h50l82 -142h-24l-87 67
l-107 -67h-25z" />
    <glyph glyph-name="Odieresis" unicode="&#xd6;" horiz-adv-x="573" 
d="M34 276c0 161 108 338 284 338c165 0 237 -159 237 -290c0 -158 -106 -339 -281 -339c-144 0 -240 116 -240 291zM308 562c-81 0 -169 -103 -169 -296c0 -134 60 -229 143 -229c61 0 168 82 168 311c0 134 -73 214 -142 214zM424 790c28 0 51 -23 51 -51s-23 -52 -51 -52
s-52 24 -52 52s24 51 52 51zM277 790c28 0 51 -23 51 -51s-23 -52 -51 -52s-52 24 -52 52s24 51 52 51z" />
    <glyph glyph-name="Ograve" unicode="&#xd2;" horiz-adv-x="573" 
d="M34 276c0 161 108 338 284 338c165 0 237 -159 237 -290c0 -158 -106 -339 -281 -339c-144 0 -240 116 -240 291zM308 562c-81 0 -169 -103 -169 -296c0 -134 60 -229 143 -229c61 0 168 82 168 311c0 134 -73 214 -142 214zM403 661h-25l-159 154h112z" />
    <glyph glyph-name="Otilde" unicode="&#xd5;" horiz-adv-x="573" 
d="M34 276c0 161 108 338 284 338c165 0 237 -159 237 -290c0 -158 -106 -339 -281 -339c-144 0 -240 116 -240 291zM308 562c-81 0 -169 -103 -169 -296c0 -134 60 -229 143 -229c61 0 168 82 168 311c0 134 -73 214 -142 214zM232 692h-23c10 54 47 94 87 94
c36 0 87 -35 113 -35c18 0 37 11 38 35h24c-10 -54 -45 -93 -84 -93s-74 36 -113 36c-20 0 -37 -15 -42 -37z" />
    <glyph glyph-name="Scaron" unicode="&#x160;" horiz-adv-x="406" 
d="M47 -15l10 186h50l-3 -59c14 -42 63 -75 106 -75c46 0 84 38 84 87c0 118 -225 185 -225 344c0 85 62 146 145 146c43 0 81 -16 104 -43l2 43h50l-8 -151h-50l2 45c-31 35 -66 54 -102 54c-40 0 -75 -31 -75 -69c0 -106 225 -162 225 -336c0 -97 -66 -172 -151 -172
c-41 0 -66 11 -111 48l-3 -48h-50zM399 811l-111 -142h-50l-82 142h24l87 -67l107 67h25z" />
    <glyph glyph-name="Uacute" unicode="&#xda;" horiz-adv-x="604" 
d="M54 599h220l-2 -50h-64l-20 -388c-5 -101 78 -124 125 -124c55 0 111 29 117 135l20 377h-64l2 50h216l-2 -50h-64l-20 -382c-7 -131 -116 -182 -213 -182c-123 0 -216 68 -209 191l20 373h-64zM288 661l72 154h112l-159 -154h-25z" />
    <glyph glyph-name="Ucircumflex" unicode="&#xdb;" horiz-adv-x="604" 
d="M54 599h220l-2 -50h-64l-20 -388c-5 -101 78 -124 125 -124c55 0 111 29 117 135l20 377h-64l2 50h216l-2 -50h-64l-20 -382c-7 -131 -116 -182 -213 -182c-123 0 -216 68 -209 191l20 373h-64zM237 669l111 142h50l82 -142h-24l-87 67l-107 -67h-25z" />
    <glyph glyph-name="Udieresis" unicode="&#xdc;" horiz-adv-x="604" 
d="M54 599h220l-2 -50h-64l-20 -388c-5 -101 78 -124 125 -124c55 0 111 29 117 135l20 377h-64l2 50h216l-2 -50h-64l-20 -382c-7 -131 -116 -182 -213 -182c-123 0 -216 68 -209 191l20 373h-64zM440 790c28 0 51 -23 51 -51s-23 -52 -51 -52s-52 24 -52 52s24 51 52 51z
M293 790c28 0 51 -23 51 -51s-23 -52 -51 -52s-52 24 -52 52s24 51 52 51z" />
    <glyph glyph-name="Ugrave" unicode="&#xd9;" horiz-adv-x="604" 
d="M54 599h220l-2 -50h-64l-20 -388c-5 -101 78 -124 125 -124c55 0 111 29 117 135l20 377h-64l2 50h216l-2 -50h-64l-20 -382c-7 -131 -116 -182 -213 -182c-123 0 -216 68 -209 191l20 373h-64zM419 661h-25l-159 154h112z" />
    <glyph glyph-name="Yacute" unicode="&#xdd;" horiz-adv-x="490" 
d="M200 50l14 273l-135 226h-62l3 50h218l-3 -50h-54l99 -166l118 166h-51l3 50h170l-3 -50h-51l-160 -226l-14 -273h64l-3 -50h-220l3 50h64zM231 661l72 154h112l-159 -154h-25z" />
    <glyph glyph-name="Ydieresis" unicode="&#x178;" horiz-adv-x="490" 
d="M200 50l14 273l-135 226h-62l3 50h218l-3 -50h-54l99 -166l118 166h-51l3 50h170l-3 -50h-51l-160 -226l-14 -273h64l-3 -50h-220l3 50h64zM383 790c28 0 51 -23 51 -51s-23 -52 -51 -52s-52 24 -52 52s24 51 52 51zM236 790c28 0 51 -23 51 -51s-23 -52 -51 -52
s-52 24 -52 52s24 51 52 51z" />
    <glyph glyph-name="Zcaron" unicode="&#x17d;" horiz-adv-x="479" 
d="M397 50l5 89h50l-8 -139h-419l324 549h-227l-4 -85h-50l7 135h401l-325 -549h246zM435 811l-111 -142h-50l-82 142h24l87 -67l107 67h25z" />
    <glyph glyph-name="aacute" unicode="&#xe1;" horiz-adv-x="385" 
d="M311 41h51l-2 -41h-136l2 39l-2 2c-24 -36 -45 -48 -77 -48c-71 0 -119 71 -119 177c0 158 90 258 232 258h72zM232 151l13 239c-99 -13 -125 -83 -125 -192c0 -86 24 -139 64 -139c30 0 44 27 48 92zM155 496l72 154h112l-159 -154h-25z" />
    <glyph glyph-name="acircumflex" unicode="&#xe2;" horiz-adv-x="385" 
d="M311 41h51l-2 -41h-136l2 39l-2 2c-24 -36 -45 -48 -77 -48c-71 0 -119 71 -119 177c0 158 90 258 232 258h72zM232 151l13 239c-99 -13 -125 -83 -125 -192c0 -86 24 -139 64 -139c30 0 44 27 48 92zM97 504l111 142h50l82 -142h-24l-87 67l-107 -67h-25z" />
    <glyph glyph-name="adieresis" unicode="&#xe4;" horiz-adv-x="385" 
d="M311 41h51l-2 -41h-136l2 39l-2 2c-24 -36 -45 -48 -77 -48c-71 0 -119 71 -119 177c0 158 90 258 232 258h72zM232 151l13 239c-99 -13 -125 -83 -125 -192c0 -86 24 -139 64 -139c30 0 44 27 48 92zM300 625c28 0 51 -23 51 -51s-23 -52 -51 -52s-52 24 -52 52
s24 51 52 51zM153 625c28 0 51 -23 51 -51s-23 -52 -51 -52s-52 24 -52 52s24 51 52 51z" />
    <glyph glyph-name="agrave" unicode="&#xe0;" horiz-adv-x="385" 
d="M311 41h51l-2 -41h-136l2 39l-2 2c-24 -36 -45 -48 -77 -48c-71 0 -119 71 -119 177c0 158 90 258 232 258h72zM232 151l13 239c-99 -13 -125 -83 -125 -192c0 -86 24 -139 64 -139c30 0 44 27 48 92zM279 496h-25l-159 154h112z" />
    <glyph glyph-name="aring" unicode="&#xe5;" horiz-adv-x="385" 
d="M311 41h51l-2 -41h-136l2 39l-2 2c-24 -36 -45 -48 -77 -48c-71 0 -119 71 -119 177c0 158 90 258 232 258h72zM232 151l13 239c-99 -13 -125 -83 -125 -192c0 -86 24 -139 64 -139c30 0 44 27 48 92zM228 667c52 0 95 -43 95 -95s-43 -95 -95 -95s-95 43 -95 95
s43 95 95 95zM228 626c-30 0 -54 -24 -54 -54s24 -54 54 -54s54 24 54 54s-24 54 -54 54z" />
    <glyph glyph-name="atilde" unicode="&#xe3;" horiz-adv-x="385" 
d="M311 41h51l-2 -41h-136l2 39l-2 2c-24 -36 -45 -48 -77 -48c-71 0 -119 71 -119 177c0 158 90 258 232 258h72zM232 151l13 239c-99 -13 -125 -83 -125 -192c0 -86 24 -139 64 -139c30 0 44 27 48 92zM115 527h-23c10 54 47 94 87 94c36 0 87 -35 113 -35
c18 0 37 11 38 35h24c-10 -54 -45 -93 -84 -93s-74 36 -113 36c-20 0 -37 -15 -42 -37z" />
    <glyph glyph-name="ccedilla" unicode="&#xe7;" horiz-adv-x="323" 
d="M73 -91l43 97c-53 26 -88 89 -88 170c0 111 78 252 191 252c16 0 36 -6 52 -16l2 23h28l-7 -123h-28c0 41 -26 78 -54 78c-66 0 -92 -126 -92 -195c0 -100 32 -141 75 -141c54 0 74 53 88 53c6 0 23 -10 23 -17c0 -10 -47 -97 -138 -97l-20 -39c40 -11 61 -35 61 -72
c0 -69 -76 -94 -195 -95l11 48c53 0 82 13 82 36c0 13 -15 30 -34 38z" />
    <glyph glyph-name="eacute" unicode="&#xe9;" horiz-adv-x="323" 
d="M30 167c0 89 52 261 187 261c52 0 88 -34 88 -81c0 -62 -55 -117 -177 -111c-5 -25 -6 -48 -6 -66c0 -61 32 -116 68 -116c53 0 69 66 88 66c12 0 25 -15 25 -19c0 -8 -58 -108 -144 -108c-96 0 -129 113 -129 174zM238 360c0 17 -12 30 -26 30c-35 0 -70 -48 -82 -116
c60 0 108 38 108 86zM124 496l72 154h112l-159 -154h-25z" />
    <glyph glyph-name="ecircumflex" unicode="&#xea;" horiz-adv-x="323" 
d="M30 167c0 89 52 261 187 261c52 0 88 -34 88 -81c0 -62 -55 -117 -177 -111c-5 -25 -6 -48 -6 -66c0 -61 32 -116 68 -116c53 0 69 66 88 66c12 0 25 -15 25 -19c0 -8 -58 -108 -144 -108c-96 0 -129 113 -129 174zM238 360c0 17 -12 30 -26 30c-35 0 -70 -48 -82 -116
c60 0 108 38 108 86zM66 504l111 142h50l82 -142h-24l-87 67l-107 -67h-25z" />
    <glyph glyph-name="edieresis" unicode="&#xeb;" horiz-adv-x="323" 
d="M30 167c0 89 52 261 187 261c52 0 88 -34 88 -81c0 -62 -55 -117 -177 -111c-5 -25 -6 -48 -6 -66c0 -61 32 -116 68 -116c53 0 69 66 88 66c12 0 25 -15 25 -19c0 -8 -58 -108 -144 -108c-96 0 -129 113 -129 174zM238 360c0 17 -12 30 -26 30c-35 0 -70 -48 -82 -116
c60 0 108 38 108 86zM269 625c28 0 51 -23 51 -51s-23 -52 -51 -52s-52 24 -52 52s24 51 52 51zM122 625c28 0 51 -23 51 -51s-23 -52 -51 -52s-52 24 -52 52s24 51 52 51z" />
    <glyph glyph-name="egrave" unicode="&#xe8;" horiz-adv-x="323" 
d="M30 167c0 89 52 261 187 261c52 0 88 -34 88 -81c0 -62 -55 -117 -177 -111c-5 -25 -6 -48 -6 -66c0 -61 32 -116 68 -116c53 0 69 66 88 66c12 0 25 -15 25 -19c0 -8 -58 -108 -144 -108c-96 0 -129 113 -129 174zM238 360c0 17 -12 30 -26 30c-35 0 -70 -48 -82 -116
c60 0 108 38 108 86zM248 496h-25l-159 154h112z" />
    <glyph glyph-name="iacute" unicode="&#xed;" horiz-adv-x="240" 
d="M73 41l18 336h-50l3 41h134l-20 -377h53l-2 -41h-187l2 41h49zM76 496l72 154h112l-159 -154h-25z" />
    <glyph glyph-name="icircumflex" unicode="&#xee;" horiz-adv-x="240" 
d="M73 41l18 336h-50l3 41h134l-20 -377h53l-2 -41h-187l2 41h49zM25 504l111 142h50l82 -142h-24l-87 67l-107 -67h-25z" />
    <glyph glyph-name="idieresis" unicode="&#xef;" horiz-adv-x="240" 
d="M73 41l18 336h-50l3 41h134l-20 -377h53l-2 -41h-187l2 41h49zM228 625c28 0 51 -23 51 -51s-23 -52 -51 -52s-52 24 -52 52s24 51 52 51zM81 625c28 0 51 -23 51 -51s-23 -52 -51 -52s-52 24 -52 52s24 51 52 51z" />
    <glyph glyph-name="igrave" unicode="&#xec;" horiz-adv-x="240" 
d="M73 41l18 336h-50l3 41h134l-20 -377h53l-2 -41h-187l2 41h49zM207 496h-25l-159 154h112z" />
    <glyph glyph-name="ntilde" unicode="&#xf1;" horiz-adv-x="417" 
d="M63 41l18 336h-50l2 41h135l-3 -51l2 -2c32 41 72 63 111 63c55 0 87 -46 87 -95l-16 -292h51l-2 -41h-177l2 41h41l13 239c2 44 -11 75 -44 75c-24 0 -44 -13 -70 -41l-15 -273h41l-2 -41h-177l2 41h51zM124 527h-23c10 54 47 94 87 94c36 0 87 -35 113 -35
c18 0 37 11 38 35h24c-10 -54 -45 -93 -84 -93s-74 36 -113 36c-20 0 -37 -15 -42 -37z" />
    <glyph glyph-name="oacute" unicode="&#xf3;" horiz-adv-x="375" 
d="M30 169c0 151 75 259 180 259c87 0 146 -73 146 -182c0 -100 -52 -253 -180 -253c-88 0 -146 71 -146 176zM122 187c0 -103 19 -156 65 -156c50 0 77 74 77 184c0 114 -23 175 -59 175c-71 0 -83 -90 -83 -203zM143 496l72 154h112l-159 -154h-25z" />
    <glyph glyph-name="ocircumflex" unicode="&#xf4;" horiz-adv-x="375" 
d="M30 169c0 151 75 259 180 259c87 0 146 -73 146 -182c0 -100 -52 -253 -180 -253c-88 0 -146 71 -146 176zM122 187c0 -103 19 -156 65 -156c50 0 77 74 77 184c0 114 -23 175 -59 175c-71 0 -83 -90 -83 -203zM92 504l111 142h50l82 -142h-24l-87 67l-107 -67h-25z" />
    <glyph glyph-name="odieresis" unicode="&#xf6;" horiz-adv-x="375" 
d="M30 169c0 151 75 259 180 259c87 0 146 -73 146 -182c0 -100 -52 -253 -180 -253c-88 0 -146 71 -146 176zM122 187c0 -103 19 -156 65 -156c50 0 77 74 77 184c0 114 -23 175 -59 175c-71 0 -83 -90 -83 -203zM295 625c28 0 51 -23 51 -51s-23 -52 -51 -52
s-52 24 -52 52s24 51 52 51zM148 625c28 0 51 -23 51 -51s-23 -52 -51 -52s-52 24 -52 52s24 51 52 51z" />
    <glyph glyph-name="ograve" unicode="&#xf2;" horiz-adv-x="375" 
d="M30 169c0 151 75 259 180 259c87 0 146 -73 146 -182c0 -100 -52 -253 -180 -253c-88 0 -146 71 -146 176zM122 187c0 -103 19 -156 65 -156c50 0 77 74 77 184c0 114 -23 175 -59 175c-71 0 -83 -90 -83 -203zM274 496h-25l-159 154h112z" />
    <glyph glyph-name="otilde" unicode="&#xf5;" horiz-adv-x="375" 
d="M30 169c0 151 75 259 180 259c87 0 146 -73 146 -182c0 -100 -52 -253 -180 -253c-88 0 -146 71 -146 176zM122 187c0 -103 19 -156 65 -156c50 0 77 74 77 184c0 114 -23 175 -59 175c-71 0 -83 -90 -83 -203zM103 527h-23c10 54 47 94 87 94c36 0 87 -35 113 -35
c18 0 37 11 38 35h24c-10 -54 -45 -93 -84 -93s-74 36 -113 36c-20 0 -37 -15 -42 -37z" />
    <glyph glyph-name="scaron" unicode="&#x161;" horiz-adv-x="281" 
d="M16 -15l5 101h24c21 -41 44 -61 77 -61c37 0 64 27 64 60c0 79 -144 106 -144 222c0 65 56 119 128 119c20 0 46 -7 67 -18l1 20h30l-5 -100h-23c-7 36 -34 60 -66 60c-33 0 -57 -24 -57 -56c0 -74 144 -114 144 -224c0 -66 -58 -121 -130 -121c-28 0 -55 9 -79 22
l-7 -24h-29zM306 646l-111 -142h-50l-82 142h24l87 -67l107 67h25z" />
    <glyph glyph-name="uacute" unicode="&#xfa;" horiz-adv-x="417" 
d="M369 418l-20 -377h47l-2 -41h-132l2 50c-41 -40 -73 -57 -106 -57c-53 0 -96 42 -92 111l15 273h-46l2 41h131l-17 -284c-3 -50 13 -75 44 -75c29 0 49 12 72 35l15 283h-46l2 41h131zM164 496l72 154h112l-159 -154h-25z" />
    <glyph glyph-name="ucircumflex" unicode="&#xfb;" horiz-adv-x="417" 
d="M369 418l-20 -377h47l-2 -41h-132l2 50c-41 -40 -73 -57 -106 -57c-53 0 -96 42 -92 111l15 273h-46l2 41h131l-17 -284c-3 -50 13 -75 44 -75c29 0 49 12 72 35l15 283h-46l2 41h131zM113 504l111 142h50l82 -142h-24l-87 67l-107 -67h-25z" />
    <glyph glyph-name="udieresis" unicode="&#xfc;" horiz-adv-x="417" 
d="M369 418l-20 -377h47l-2 -41h-132l2 50c-41 -40 -73 -57 -106 -57c-53 0 -96 42 -92 111l15 273h-46l2 41h131l-17 -284c-3 -50 13 -75 44 -75c29 0 49 12 72 35l15 283h-46l2 41h131zM316 625c28 0 51 -23 51 -51s-23 -52 -51 -52s-52 24 -52 52s24 51 52 51zM169 625
c28 0 51 -23 51 -51s-23 -52 -51 -52s-52 24 -52 52s24 51 52 51z" />
    <glyph glyph-name="ugrave" unicode="&#xf9;" horiz-adv-x="417" 
d="M369 418l-20 -377h47l-2 -41h-132l2 50c-41 -40 -73 -57 -106 -57c-53 0 -96 42 -92 111l15 273h-46l2 41h131l-17 -284c-3 -50 13 -75 44 -75c29 0 49 12 72 35l15 283h-46l2 41h131zM295 496h-25l-159 154h112z" />
    <glyph glyph-name="yacute" unicode="&#xfd;" horiz-adv-x="406" 
d="M205 130l111 247h-39l2 41h122l-2 -41h-30l-281 -621h-70l129 257l-87 364h-43l2 41h164l-2 -41h-36l58 -247h2zM159 496l72 154h112l-159 -154h-25z" />
    <glyph glyph-name="ydieresis" unicode="&#xff;" horiz-adv-x="406" 
d="M205 130l111 247h-39l2 41h122l-2 -41h-30l-281 -621h-70l129 257l-87 364h-43l2 41h164l-2 -41h-36l58 -247h2zM311 625c28 0 51 -23 51 -51s-23 -52 -51 -52s-52 24 -52 52s24 51 52 51zM164 625c28 0 51 -23 51 -51s-23 -52 -51 -52s-52 24 -52 52s24 51 52 51z" />
    <glyph glyph-name="zcaron" unicode="&#x17e;" horiz-adv-x="313" 
d="M286 90l-4 -90h-270l184 377h-109l-3 -48h-38l5 89h253l-184 -377h126l2 49h38zM322 646l-111 -142h-50l-82 142h24l87 -67l107 67h25z" />
    <glyph glyph-name="one.superior" unicode="&#xb9;" horiz-adv-x="281" 
d="M60 320h44l13 241l-52 -14l2 29l117 37l-16 -293h38l-1 -26h-146z" />
    <glyph glyph-name="two.superior" unicode="&#xb2;" horiz-adv-x="281" 
d="M245 354l-3 -60h-213c94 107 129 158 129 217c0 34 -22 60 -49 60c-18 0 -33 -8 -61 -30l-24 21c42 41 73 52 109 52c53 0 92 -37 92 -87c0 -40 -21 -92 -112 -192h79c9 0 13 5 19 19h34z" />
    <glyph glyph-name="three.superior" unicode="&#xb3;" horiz-adv-x="281" 
d="M26 335l25 19c30 -24 48 -32 70 -32c30 0 52 23 52 56c0 42 -29 65 -89 70l1 19c59 11 89 35 89 72c0 23 -18 41 -42 41c-19 0 -31 -5 -59 -24l-18 23c37 27 61 35 94 35c51 0 89 -28 89 -65s-31 -64 -77 -81v-2c58 -13 83 -40 83 -85c0 -54 -49 -95 -113 -95
c-42 0 -73 14 -105 49z" />
    <glyph glyph-name="Delta" unicode="&#x2206;" horiz-adv-x="544" 
d="M495 0h-484l1 25l250 579l38 11l196 -590zM391 45l-143 440l-185 -440h328z" />
    <glyph glyph-name="Omega" unicode="&#x2126;" horiz-adv-x="613" 
d="M573 131l-28 -131h-203l-6 17c40 79 114 199 120 319c9 185 -60 250 -138 250c-83 0 -152 -63 -162 -253c-6 -118 45 -228 84 -316l-8 -17h-203l-13 131l24 1c15 -55 28 -64 63 -64h85c-53 48 -138 132 -131 271c9 169 124 276 265 276c142 0 241 -102 232 -270
c-7 -126 -95 -214 -163 -277h91c35 0 46 7 67 64z" />
    <glyph glyph-name="uni03BC" unicode="&#x3bc;" horiz-adv-x="576" 
d="M132 18c-12 -129 15 -150 15 -212c0 -41 -30 -56 -58 -56c-27 0 -43 19 -43 43c0 39 38 77 49 245l24 380h85l-17 -263c-5 -72 16 -96 44 -96c23 0 42 12 67 36l21 323h85l-21 -295c-4 -59 7 -78 34 -78c31 0 51 23 67 80h25c-23 -118 -103 -133 -122 -133
c-50 0 -78 18 -89 58c-49 -44 -72 -57 -105 -57c-25 0 -39 5 -61 25z" />
    <glyph glyph-name="pi" unicode="&#x3c0;" horiz-adv-x="485" 
d="M443 415l22 -7c-7 -35 -23 -69 -35 -85c-14 -4 -34 -5 -57 -5c-7 -55 -11 -133 -14 -194c-2 -53 7 -79 32 -79c16 0 27 9 42 24l10 -19c-23 -39 -61 -61 -95 -61c-45 0 -79 24 -74 115c4 81 12 147 20 217c-46 0 -89 1 -123 1l-1 -14c-11 -202 -58 -286 -72 -303
c-17 -8 -41 -14 -56 -16l-5 16c68 84 93 229 97 319c-55 0 -76 -14 -111 -38l-11 22c26 31 62 82 152 81c64 0 145 -3 227 -3c27 0 38 5 52 29z" />
    <glyph glyph-name="Euro" unicode="&#x20ac;" horiz-adv-x="469" 
d="M447 619l-9 -184h-32c-17 78 -57 127 -105 127c-88 0 -132 -94 -149 -194h209l-2 -38h-212c-2 -19 -3 -38 -3 -57l212 1l-2 -38h-209c5 -133 54 -199 135 -199c35 0 102 35 154 110l-3 -71c-44 -55 -104 -91 -178 -91c-137 0 -196 129 -205 251h-46l7 37h38
c0 19 2 38 5 57h-50l7 38h50c29 128 114 246 237 246c32 0 64 -12 108 -32l10 37h33z" />
    <glyph glyph-name="afii61289" unicode="&#x2113;" horiz-adv-x="360" 
d="M314 104l17 -16c-37 -64 -87 -101 -152 -101c-43 0 -72 13 -88 34c-19 26 -27 53 -23 128l3 69l-51 -36l-10 23l63 48l6 116c7 137 19 183 57 228c25 31 54 46 84 46c54 0 78 -52 75 -118c-5 -103 -61 -179 -138 -255l-4 -79c-6 -115 16 -150 65 -150c40 0 71 29 96 63z
M165 419l-6 -105c47 53 83 132 87 210c3 54 -7 91 -32 91c-30 0 -41 -46 -49 -196z" />
    <glyph glyph-name="estimated" unicode="&#x212e;" horiz-adv-x="771" 
d="M741 290h-565c-3 0 -5 -1 -5 -4v-170c0 -8 3 -14 8 -20c54 -57 130 -93 213 -93c90 0 170 41 225 104h50c-62 -73 -163 -121 -276 -121c-192 0 -348 140 -348 313s156 314 348 314c194 0 350 -141 350 -314v-9zM613 312v172c0 8 -3 15 -9 21c-55 54 -129 89 -212 89
c-82 0 -158 -36 -212 -92c-6 -6 -9 -13 -9 -21v-169c0 -1 2 -5 5 -5h433c3 0 4 4 4 5z" />
    <glyph glyph-name="partialdiff" unicode="&#x2202;" horiz-adv-x="456" 
d="M227 373h1c37 0 81 -17 106 -56c5 28 10 61 13 95c4 44 2 92 -14 136c-15 39 -51 76 -104 76c-45 0 -89 -25 -120 -51c-15 -1 -34 40 -25 61c30 19 71 36 122 36c83 0 138 -48 174 -126c31 -68 35 -152 32 -206c-3 -67 -19 -154 -52 -218c-40 -78 -102 -133 -186 -133
c-94 0 -153 64 -148 174c3 61 30 113 59 147c33 38 87 65 142 65zM245 337h-1c-31 0 -61 -12 -89 -51c-27 -43 -44 -110 -47 -171c-3 -57 21 -100 68 -100c43 0 76 49 97 93c26 52 38 99 51 170c-8 23 -38 59 -79 59z" />
    <glyph glyph-name="product" unicode="&#x220f;" horiz-adv-x="604" 
d="M581 608v-25c-73 -5 -78 -12 -78 -68v-490c0 -62 6 -70 77 -76v-25h-231v25c64 5 68 10 68 76v522c0 27 -5 30 -31 30h-156c-25 0 -29 -3 -29 -27v-525c0 -61 -1 -70 62 -76v-25h-225v25c69 6 76 13 76 76v490c0 57 -5 63 -79 68v25h546z" />
    <glyph glyph-name="summation" unicode="&#x2211;" horiz-adv-x="487" 
d="M467 91l-38 -171h-392v23l190 295l-186 347v23h389c0 -16 6 -86 10 -143l-26 -6c-7 40 -17 68 -28 88c-13 24 -27 31 -91 31h-148l154 -280l-191 -302h211c74 0 85 4 121 102z" />
    <glyph glyph-name="uni2219" unicode="&#x2219;" horiz-adv-x="229" 
d="M113 328c34 0 61 -27 61 -61s-27 -62 -61 -62s-62 28 -62 62s28 61 62 61z" />
    <glyph glyph-name="radical" unicode="&#x221a;" horiz-adv-x="488" 
d="M475 772l-146 -908l-20 -10l-183 479l-74 -35l-10 31l142 64l135 -369h2l117 756z" />
    <glyph glyph-name="infinity" unicode="&#x221e;" horiz-adv-x="649" 
d="M609 251v-1c0 -88 -64 -141 -132 -141c-49 0 -93 25 -150 96c-43 -52 -88 -96 -155 -96c-69 0 -130 57 -130 138c0 82 58 140 136 140c62 0 108 -41 152 -95c37 42 79 95 152 95c73 -1 127 -55 127 -136zM178 161h1c49 0 86 45 119 83c-35 47 -68 92 -123 92
c-50 0 -79 -40 -79 -90c0 -47 35 -85 82 -85zM477 336h-1c-52 0 -92 -56 -119 -87c51 -62 79 -88 123 -88c48 0 76 46 76 85c0 54 -33 90 -79 90z" />
    <glyph glyph-name="integral" unicode="&#x222b;" horiz-adv-x="343" 
d="M152 4l-17 357c-15 310 67 373 139 373c24 0 56 -14 56 -43s-21 -43 -42 -43c-31 0 -27 45 -47 45c-17 0 -36 -25 -31 -140l16 -329c15 -311 -59 -399 -142 -399c-32 0 -56 20 -56 45c-1 26 24 45 49 45c26 0 26 -49 44 -49c25 0 36 55 31 138z" />
    <glyph glyph-name="approxequal" unicode="&#x2248;" horiz-adv-x="456" 
d="M388 381l35 -31c-24 -47 -62 -84 -111 -84c-33 0 -56 11 -92 33c-25 16 -46 28 -73 28c-37 0 -58 -29 -78 -61l-36 31c25 49 69 84 119 84c40 0 68 -19 89 -32c29 -17 47 -29 72 -29c32 0 53 24 75 61zM388 231l35 -31c-24 -48 -61 -85 -111 -85c-33 0 -57 12 -92 33
c-26 16 -47 29 -73 29c-37 0 -58 -31 -78 -62l-36 31c25 49 69 84 119 84c41 0 68 -19 89 -31c26 -15 45 -30 72 -30c32 0 52 24 75 62z" />
    <glyph glyph-name="notequal" unicode="&#x2260;" horiz-adv-x="460" 
d="M337 434l-34 -75h117v-55h-137l-51 -116h188v-55h-209l-42 -95l-43 18l34 77h-114v55h135l50 116h-185v55h206l41 93z" />
    <glyph glyph-name="lessequal" unicode="&#x2264;" horiz-adv-x="464" 
d="M422 89l-368 188v59l368 188v-65l-313 -151v-2l313 -152v-65zM425 0h-375v56h375v-56z" />
    <glyph glyph-name="greaterequal" unicode="&#x2265;" horiz-adv-x="463" 
d="M55 524l368 -188v-59l-368 -188v65l312 152v2l-312 151v65zM423 0h-372v56h372v-56z" />
    <glyph glyph-name="lozenge" unicode="&#x25ca;" horiz-adv-x="491" 
d="M451 293l-165 -353h-66l-165 353l166 356h66zM389 293l-134 296h-3l-135 -295l136 -296h2z" />
    <glyph glyph-name="uni00A0" unicode="&#xa0;" horiz-adv-x="230" 
 />
    <glyph glyph-name="uni00AD" unicode="&#xad;" horiz-adv-x="396" 
d="M41 200l27 60h280l-26 -60h-281z" />
    <glyph glyph-name="uni02C9" unicode="&#x2c9;" 
d="M292 544h-206l3 62h206z" />
    <glyph glyph-name="uni2215" unicode="&#x2215;" horiz-adv-x="167" 
d="M-141 -24l409 638h41l-408 -638h-42z" />
    <glyph glyph-name="uni03A9" unicode="&#x3a9;" horiz-adv-x="613" 
d="M573 131l-28 -131h-203l-6 17c40 79 114 199 120 319c9 185 -60 250 -138 250c-83 0 -152 -63 -162 -253c-6 -118 45 -228 84 -316l-8 -17h-203l-13 131l24 1c15 -55 28 -64 63 -64h85c-53 48 -138 132 -131 271c9 169 124 276 265 276c142 0 241 -102 232 -270
c-7 -126 -95 -214 -163 -277h91c35 0 46 7 67 64z" />
    </font>
</defs>
</svg>
