<?xml version="1.0" encoding="utf-8"?>
<!-- Generator: Adobe Illustrator 24.0.3, SVG Export Plug-In . SVG Version: 6.00 Build 0)  -->
<svg version="1.1" id="Layer_1" xmlns="http://www.w3.org/2000/svg" xmlns:xlink="http://www.w3.org/1999/xlink" x="0px" y="0px"
	 viewBox="0 0 500 90" style="enable-background:new 0 0 500 90;" xml:space="preserve">
<style type="text/css">
	.st0{fill:#FFFFFF;}
</style>
<g>
	<path class="st0" d="M20.6,11.5h6.8V42H45v-8.9h6.8v15.3H20.6V11.5z"/>
	<path class="st0" d="M74.8,10.7c11.1,0,19.9,8.4,19.9,19.3s-8.8,19.3-19.9,19.3c-11.1,0-19.9-8.4-19.9-19.3S63.7,10.7,74.8,10.7z
		 M74.8,42.8c6.7,0,12.7-5.6,12.7-12.8s-6-12.8-12.7-12.8c-6.7,0-12.7,5.6-12.7,12.8S68.1,42.8,74.8,42.8z"/>
	<path class="st0" d="M116.8,10.7c11.1,0,19.9,8.4,19.9,19.3s-8.8,19.3-19.9,19.3c-11.1,0-19.9-8.4-19.9-19.3S105.7,10.7,116.8,10.7
		z M116.8,42.8c6.7,0,12.7-5.6,12.7-12.8s-6-12.8-12.7-12.8c-6.7,0-12.7,5.6-12.7,12.8S110.1,42.8,116.8,42.8z"/>
	<path class="st0" d="M145.1,32.8h-5.2v-6.5h5.2V11.5h6.8v14.8h2.5l12.5-14.8h8.6l-14.3,16.3L176,48.5h-8.7l-10.8-15.8h-4.5v15.8
		h-6.8V32.8z"/>
	<path class="st0" d="M182,11.5h6.8v37.1H182V11.5z"/>
	<path class="st0" d="M203.6,25.8v22.7h-6.8V10.7l23.9,23.5V11.5h6.8v37.8L203.6,25.8z"/>
	<path class="st0" d="M253.4,10.7c5.9,0,11.7,2.4,15.8,7.6l-5.7,4.2c-2.4-3.4-6-5.4-10.1-5.4c-6.7,0-12.7,5.6-12.7,12.8
		s6,12.8,12.7,12.8c6.1,0,11.1-3.7,12.6-10h-12.6v-6.5h19.9v4.9c0,6.1-5.5,18.1-19.9,18.1c-11.1,0-19.9-8.4-19.9-19.3
		S242.3,10.7,253.4,10.7z"/>
	<path class="st0" d="M312,10.7c5.9,0,11.7,2.4,15.8,7.6l-5.7,4.2c-2.4-3.4-6-5.4-10.1-5.4c-6.7,0-12.7,5.6-12.7,12.8
		s6,12.8,12.7,12.8c6.1,0,11.1-3.7,12.6-10H312v-6.5h19.9v4.9c0,6.1-5.5,18.1-19.9,18.1c-11.1,0-19.9-8.4-19.9-19.3
		S300.9,10.7,312,10.7z"/>
	<path class="st0" d="M337,11.5h6.8V42h17.6v-8.9h6.8v15.3H337V11.5z"/>
	<path class="st0" d="M386.3,17.6h-8.5v-6.1h15.3l15.7,37.1h-7.4l-2.8-7h-15.7l-2.8,7h-7.3L386.3,17.6z M396.2,35.4l-5.4-13.3
		l-5.4,13.3H396.2z"/>
	<path class="st0" d="M416.7,37.8c2.8,3,6.7,5,11,5c5.2-0.1,8.9-2,8.9-5.5c0-8.3-23.9-0.3-23.9-15.4c0-6.6,6.9-11.2,15.3-11.2
		c6.1,0,11.1,1.9,14.8,5.7l-5.1,4.5c-3.4-3.3-6.4-4.4-10-4.4c-5.7,0-7.8,2.8-7.8,5c0,8.3,23.9,0,23.9,15.4c0,7.7-7.8,12.4-16.3,12.4
		c-5.2,0-11.2-1.9-15.9-6.8L416.7,37.8z"/>
	<path class="st0" d="M452.6,37.8c2.8,3,6.7,5,11,5c5.2-0.1,8.9-2,8.9-5.5c0-8.3-23.9-0.3-23.9-15.4c0-6.6,6.9-11.2,15.3-11.2
		c6.1,0,11.1,1.9,14.8,5.7l-5.1,4.5c-3.4-3.3-6.4-4.4-10-4.4c-5.7,0-7.8,2.8-7.8,5c0,8.3,23.9,0,23.9,15.4c0,7.7-7.8,12.4-16.3,12.4
		c-5.2,0-11.2-1.9-15.9-6.8L452.6,37.8z"/>
</g>
<g>
	<path class="st0" d="M186.4,68.2h4.7c2.8,0,4.5,1.6,4.5,4v0c0,2.7-2.1,4.1-4.8,4.1h-2.4v3.8h-2.1V68.2z M190.9,74.4
		c1.6,0,2.6-0.9,2.6-2.1v0c0-1.4-1-2.1-2.6-2.1h-2.4v4.3H190.9z"/>
	<path class="st0" d="M204.2,68.1h1.9l5.2,12h-2.2l-1.2-2.9h-5.6l-1.2,2.9H199L204.2,68.1z M207.2,75.4l-2.1-4.8l-2,4.8H207.2z"/>
	<path class="st0" d="M216.8,68.2h5.3c1.5,0,2.7,0.4,3.4,1.2c0.6,0.6,1,1.5,1,2.6v0c0,2-1.2,3.1-2.8,3.6l3.2,4.5h-2.5l-2.9-4.1h-2.6
		v4.1h-2.1V68.2z M222,74.1c1.5,0,2.4-0.8,2.4-2v0c0-1.3-0.9-2-2.5-2h-3v4H222z"/>
	<path class="st0" d="M232.5,68.2h2.1v6l5.7-6h2.6l-5,5.1l5.2,6.8h-2.5l-4.1-5.4l-1.9,1.9v3.5h-2.1V68.2z"/>
	<path class="st0" d="M248.3,68.2h8.8V70h-6.7v3.1h6V75h-6v3.2h6.8v1.9h-8.9V68.2z"/>
	<path class="st0" d="M263,68.2h5.3c1.5,0,2.7,0.4,3.4,1.2c0.6,0.6,1,1.5,1,2.6v0c0,2-1.2,3.1-2.8,3.6l3.2,4.5h-2.5l-2.9-4.1h-2.6
		v4.1H263V68.2z M268.2,74.1c1.5,0,2.4-0.8,2.4-2v0c0-1.3-0.9-2-2.5-2h-3v4H268.2z"/>
	<path class="st0" d="M281.9,73.9L281.9,73.9c0-1,0.8-1.7,1.7-1.7c0.9,0,1.7,0.8,1.7,1.7v0c0,0.9-0.8,1.7-1.7,1.7
		C282.6,75.5,281.9,74.8,281.9,73.9z"/>
	<path class="st0" d="M292.3,74.2L292.3,74.2c0-3.4,2.5-6.2,6.1-6.2c2.2,0,3.5,0.8,4.7,1.9l-1.3,1.5c-1-0.9-2-1.5-3.3-1.5
		c-2.3,0-3.9,1.9-3.9,4.2v0c0,2.3,1.6,4.2,3.9,4.2c1.5,0,2.4-0.6,3.4-1.5l1.3,1.4c-1.2,1.3-2.6,2.1-4.8,2.1
		C294.9,80.3,292.3,77.6,292.3,74.2z"/>
	<path class="st0" d="M307.9,74.2L307.9,74.2c0-3.4,2.6-6.2,6.2-6.2c3.7,0,6.2,2.8,6.2,6.1v0c0,3.3-2.6,6.2-6.2,6.2
		S307.9,77.5,307.9,74.2z M318.2,74.2L318.2,74.2c0-2.3-1.7-4.3-4-4.3s-4,1.9-4,4.2v0c0,2.3,1.7,4.2,4,4.2
		C316.5,78.3,318.2,76.5,318.2,74.2z"/>
</g>
</svg>
